<svg id="alarm-clock" xmlns="http://www.w3.org/2000/svg" width="19.674" height="19.728" viewBox="0 0 19.674 19.728">
  <path id="Path_36" data-name="Path 36" d="M30.165,19.9H27.742a1.355,1.355,0,0,0-.97-.97V15.492a.339.339,0,0,0-.678,0v3.441a1.354,1.354,0,1,0,1.648,1.648h2.423a.339.339,0,0,0,0-.678ZM26.433,20.92a.678.678,0,1,1,.678-.678A.679.679,0,0,1,26.433,20.92Z" transform="translate(-16.596 -10.013)" fill="#d2d2d2"/>
  <path id="Path_37" data-name="Path 37" d="M17.078,3.313l1.39,1.39a.339.339,0,0,0,.48,0,2.755,2.755,0,1,0-3.9-3.9.339.339,0,0,0,0,.48L16.6,2.833l-.576.576a9.137,9.137,0,0,0-12.211,0l-.577-.576L4.782,1.286a.339.339,0,0,0,0-.48,2.755,2.755,0,0,0-3.9,3.9.339.339,0,0,0,.48,0l1.39-1.39.569.569A9.145,9.145,0,0,0,5.276,18.122L4.249,19.149a.339.339,0,1,0,.48.48l1.17-1.17a9.138,9.138,0,0,0,8.035,0l1.17,1.17a.339.339,0,0,0,.48-.48l-1.027-1.027A9.145,9.145,0,0,0,16.51,3.881Zm1.389-2.027a2.08,2.08,0,0,1,.22,2.678l-2.9-2.9A2.08,2.08,0,0,1,18.468,1.286ZM1.145,3.963a2.077,2.077,0,0,1,2.9-2.9ZM9.916,18.71A8.481,8.481,0,1,1,18.4,10.229,8.491,8.491,0,0,1,9.916,18.71Z" transform="translate(-0.08 -0.001)" fill="#d2d2d2"/>
  <path id="Path_38" data-name="Path 38" d="M28.415,8.05a.339.339,0,0,0,.339-.339V7.371a.339.339,0,1,0-.678,0V7.71A.339.339,0,0,0,28.415,8.05Z" transform="translate(-18.579 -4.647)" fill="#d2d2d2"/>
  <path id="Path_39" data-name="Path 39" d="M28.415,50.032a.339.339,0,0,0-.339.339v.339a.339.339,0,0,0,.678,0v-.339A.339.339,0,0,0,28.415,50.032Z" transform="translate(-18.579 -33.059)" fill="#d2d2d2"/>
  <path id="Path_40" data-name="Path 40" d="M49.415,29.71h.339a.339.339,0,0,0,0-.678h-.339a.339.339,0,0,0,0,.678Z" transform="translate(-32.454 -19.183)" fill="#d2d2d2"/>
  <path id="Path_41" data-name="Path 41" d="M6.754,29.032H6.415a.339.339,0,0,0,0,.678h.339a.339.339,0,0,0,0-.678Z" transform="translate(-4.042 -19.183)" fill="#d2d2d2"/>
  <path id="Path_42" data-name="Path 42" d="M43.265,13.574l-.24.24a.339.339,0,1,0,.48.48l.24-.24a.339.339,0,0,0-.48-.48Z" transform="translate(-28.391 -8.904)" fill="#d2d2d2"/>
  <path id="Path_43" data-name="Path 43" d="M12.859,43.98l-.24.24a.339.339,0,1,0,.48.48l.24-.24a.339.339,0,0,0-.48-.48Z" transform="translate(-8.3 -28.995)" fill="#d2d2d2"/>
  <path id="Path_44" data-name="Path 44" d="M43.5,43.98a.339.339,0,0,0-.48.48l.24.24a.339.339,0,1,0,.48-.48Z" transform="translate(-28.391 -28.995)" fill="#d2d2d2"/>
  <path id="Path_45" data-name="Path 45" d="M13.1,13.574a.339.339,0,0,0-.48.48l.24.24a.339.339,0,0,0,.48-.48Z" transform="translate(-8.3 -8.904)" fill="#d2d2d2"/>
</svg>
