<svg id="list" xmlns="http://www.w3.org/2000/svg" width="19.733" height="15.505" viewBox="0 0 19.733 15.505">
  <g id="Group_16" data-name="Group 16">
    <path id="Path_7" data-name="Path 7" d="M4.581,201H1.057a1.02,1.02,0,0,0-.749.308,1.019,1.019,0,0,0-.308.749v2.115a1.019,1.019,0,0,0,.308.748,1.02,1.02,0,0,0,.749.308H4.581a1.053,1.053,0,0,0,1.057-1.057v-2.115A1.053,1.053,0,0,0,4.581,201Z" transform="translate(0 -195.361)" fill="#d2d2d2"/>
    <path id="Path_8" data-name="Path 8" d="M4.581,54.814H1.057a1.019,1.019,0,0,0-.749.308A1.02,1.02,0,0,0,0,55.871v2.114a1.019,1.019,0,0,0,.308.749,1.02,1.02,0,0,0,.749.308H4.581a1.053,1.053,0,0,0,1.057-1.057V55.871a1.053,1.053,0,0,0-1.057-1.057Z" transform="translate(0 -54.814)" fill="#d2d2d2"/>
    <path id="Path_9" data-name="Path 9" d="M4.581,347.177H1.057a1.019,1.019,0,0,0-.749.308,1.02,1.02,0,0,0-.308.749v2.115a1.019,1.019,0,0,0,.308.749,1.019,1.019,0,0,0,.749.308H4.581a1.052,1.052,0,0,0,1.057-1.057v-2.115a1.053,1.053,0,0,0-1.057-1.057Z" transform="translate(0 -335.901)" fill="#d2d2d2"/>
    <path id="Path_10" data-name="Path 10" d="M194.353,201H183.782a1.053,1.053,0,0,0-1.057,1.057v2.115a1.053,1.053,0,0,0,1.057,1.057h10.572a1.053,1.053,0,0,0,1.057-1.057v-2.115A1.053,1.053,0,0,0,194.353,201Z" transform="translate(-175.677 -195.361)" fill="#d2d2d2"/>
    <path id="Path_11" data-name="Path 11" d="M194.353,347.177H183.782a1.053,1.053,0,0,0-1.057,1.057v2.115a1.052,1.052,0,0,0,1.057,1.057h10.572a1.052,1.052,0,0,0,1.057-1.057v-2.115a1.053,1.053,0,0,0-1.057-1.057Z" transform="translate(-175.677 -335.901)" fill="#d2d2d2"/>
    <path id="Path_12" data-name="Path 12" d="M195.1,55.126a1.02,1.02,0,0,0-.749-.308H183.782a1.053,1.053,0,0,0-1.057,1.057V57.99a1.053,1.053,0,0,0,1.057,1.057h10.572a1.053,1.053,0,0,0,1.057-1.057V55.875A1.019,1.019,0,0,0,195.1,55.126Z" transform="translate(-175.677 -54.818)" fill="#d2d2d2"/>
  </g>
</svg>
