<svg id="password" xmlns="http://www.w3.org/2000/svg" width="27.365" height="10" viewBox="0 0 27.365 10">
  <path id="Path_14" data-name="Path 14" d="M31.711,42.346H5.154a.4.4,0,0,0-.4.405v9.191a.4.4,0,0,0,.4.4H31.711a.4.4,0,0,0,.4-.4V42.751a.4.4,0,0,0-.4-.405Zm-.4,9.193H5.558V43.154H31.306Z" transform="translate(-4.75 -42.346)" fill="#d2d2d2"/>
  <path id="Path_15" data-name="Path 15" d="M13.261,57.8h.6l-.426.426a.4.4,0,0,0,.572.572l.426-.426v.6a.4.4,0,1,0,.808,0v-.6l.426.426a.4.4,0,0,0,.572-.572l-.426-.426h.6a.4.4,0,0,0,0-.808h-.6l.426-.426A.4.4,0,1,0,15.669,56l-.426.426v-.6a.4.4,0,0,0-.808,0v.6L14.009,56a.4.4,0,0,0-.572.572l.426.426h-.6a.4.4,0,0,0,0,.808Z" transform="translate(-10.985 -52.399)" fill="#d2d2d2"/>
  <path id="Path_16" data-name="Path 16" d="M34.541,57.8h.6l-.426.426a.4.4,0,0,0,.572.572l.426-.426v.6a.4.4,0,0,0,.808,0v-.6l.426.426a.4.4,0,1,0,.572-.572l-.427-.426h.6a.4.4,0,0,0,0-.808h-.6l.426-.426A.4.4,0,0,0,36.949,56l-.426.426v-.6a.4.4,0,0,0-.808,0v.6L35.289,56a.4.4,0,0,0-.572.572l.427.426h-.6a.4.4,0,1,0,0,.808Z" transform="translate(-27.351 -52.399)" fill="#d2d2d2"/>
  <path id="Path_17" data-name="Path 17" d="M55.821,57.8h.6L56,58.229a.4.4,0,1,0,.572.572L57,58.375v.6a.4.4,0,0,0,.808,0v-.6l.426.426a.4.4,0,1,0,.572-.572l-.426-.426h.6a.4.4,0,0,0,0-.808h-.6l.426-.426A.4.4,0,0,0,58.229,56l-.426.426v-.6a.4.4,0,0,0-.808,0v.6L56.569,56a.4.4,0,0,0-.572.572l.426.426h-.6a.4.4,0,0,0,0,.808Z" transform="translate(-43.717 -52.399)" fill="#d2d2d2"/>
  <path id="Path_18" data-name="Path 18" d="M77.1,57.8h.6l-.426.426a.4.4,0,0,0,.572.572l.426-.426v.6a.4.4,0,0,0,.808,0v-.6l.426.426a.4.4,0,0,0,.572-.572l-.427-.426h.6a.4.4,0,0,0,0-.808h-.6l.426-.426A.4.4,0,0,0,79.507,56l-.426.426v-.6a.4.4,0,0,0-.808,0v.6L77.847,56a.4.4,0,1,0-.572.572L77.7,57h-.6a.4.4,0,0,0,0,.808Z" transform="translate(-60.082 -52.399)" fill="#d2d2d2"/>
  <path id="Path_19" data-name="Path 19" d="M98.381,57.8h.6l-.426.426a.4.4,0,0,0,.572.572l.426-.426v.6a.4.4,0,0,0,.808,0v-.6l.426.426a.4.4,0,0,0,.572-.572l-.426-.426h.6a.4.4,0,1,0,0-.808h-.6l.426-.426a.4.4,0,0,0-.572-.572l-.426.426v-.6a.4.4,0,1,0-.808,0v.6L99.129,56a.4.4,0,0,0-.572.572l.426.426h-.6a.4.4,0,0,0,0,.808Z" transform="translate(-76.448 -52.399)" fill="#d2d2d2"/>
</svg>
