<svg xmlns="http://www.w3.org/2000/svg" width="19.98" height="19.98" viewBox="0 0 19.98 19.98">
  <path id="language" d="M9.99,0a9.99,9.99,0,1,0,9.99,9.99A9.99,9.99,0,0,0,9.99,0Zm8.64,13.49-2.841.49a14.908,14.908,0,0,0,.523-3.657h2.994a9.262,9.262,0,0,1-.676,3.167ZM.674,10.323H3.668a14.908,14.908,0,0,0,.523,3.657L1.35,13.49a9.262,9.262,0,0,1-.676-3.167ZM1.35,6.49,4.191,6a14.908,14.908,0,0,0-.523,3.657H.674A9.262,9.262,0,0,1,1.35,6.49Zm8.973-1.144a22.908,22.908,0,0,1,3.57.326l1.175.2a14.294,14.294,0,0,1,.578,3.782H10.323Zm3.683-.33a23.6,23.6,0,0,0-3.683-.336v-4C12.232.868,13.89,2.616,14.83,5.16ZM9.657,4.681a23.6,23.6,0,0,0-3.683.336l-.824.143C6.09,2.614,7.748.866,9.657.683Zm-3.57.992a22.9,22.9,0,0,1,3.57-.326v4.31H4.334a14.294,14.294,0,0,1,.578-3.782Zm-1.753,4.65H9.657v4.31a22.908,22.908,0,0,1-3.57-.326l-1.175-.2a14.294,14.294,0,0,1-.578-3.782Zm1.64,4.641a23.683,23.683,0,0,0,3.683.337v4c-1.909-.184-3.567-1.931-4.507-4.475Zm4.349.337a23.681,23.681,0,0,0,3.683-.337l.824-.143c-.94,2.544-2.6,4.293-4.507,4.476Zm3.57-.994a22.9,22.9,0,0,1-3.57.326v-4.31h5.323a14.294,14.294,0,0,1-.578,3.782Zm2.419-4.65A14.908,14.908,0,0,0,15.789,6l2.841.49a9.262,9.262,0,0,1,.676,3.167Zm1.981-3.9-2.723-.47A9.183,9.183,0,0,0,12.92,1.14a9.368,9.368,0,0,1,5.373,4.616ZM7.06,1.14A9.183,9.183,0,0,0,4.41,5.286l-2.723.47A9.368,9.368,0,0,1,7.06,1.14ZM1.687,14.224l2.723.47A9.183,9.183,0,0,0,7.06,18.84a9.368,9.368,0,0,1-5.373-4.616ZM12.92,18.84a9.183,9.183,0,0,0,2.649-4.146l2.723-.47A9.368,9.368,0,0,1,12.92,18.84Zm0,0" fill="#d2d2d2"/>
</svg>
