<svg xmlns="http://www.w3.org/2000/svg" width="20.078" height="20.078" viewBox="0 0 20.078 20.078">
  <path id="search" d="M7.84,14.112h2.666V15.68H7.84Zm-2.94-.2a.98.98,0,1,0,.98.98A.98.98,0,0,0,4.9,13.916ZM15.759,9.133H7.84V10.7h7.919ZM4.9,8.937a.98.98,0,1,0,.98.98A.98.98,0,0,0,4.9,8.937ZM15.759,4.428H7.84V6h7.919ZM4.9,4.232a.98.98,0,1,0,.98.98A.98.98,0,0,0,4.9,4.232ZM1.568,17.718V2.351a.785.785,0,0,1,.784-.784H17.719a.785.785,0,0,1,.784.784v8.86h1.568V2.351A2.355,2.355,0,0,0,17.719,0H2.352A2.355,2.355,0,0,0,0,2.351V17.718A2.355,2.355,0,0,0,2.352,20.07h9.056V18.5H2.352a.785.785,0,0,1-.784-.784Zm17.4,2.358-1.562-1.562a3.532,3.532,0,1,1,1.136-1.082l1.535,1.535ZM15.6,17.444a1.96,1.96,0,1,0-1.96-1.96A1.962,1.962,0,0,0,15.6,17.444Zm0,0" transform="translate(0 0.002)" fill="#d2d2d2"/>
</svg>
