<svg id="levels" xmlns="http://www.w3.org/2000/svg" width="20.02" height="14.084" viewBox="0 0 20.02 14.084">
  <path id="Path_20" data-name="Path 20" d="M16.67,1.549a2.135,2.135,0,0,0-4.106,0H0V2.722H12.564a2.135,2.135,0,0,0,4.106,0h3.35V1.549ZM14.617,3.1a.962.962,0,1,1,.962-.962A.963.963,0,0,1,14.617,3.1Zm0,0" transform="translate(0)" fill="#d2d2d2"/>
  <path id="Path_21" data-name="Path 21" d="M3.76,125.48a2.139,2.139,0,0,0-2.053,1.549H0V128.2H1.707a2.135,2.135,0,0,0,4.106,0H20.02v-1.173H5.812A2.139,2.139,0,0,0,3.76,125.48Zm0,3.1a.962.962,0,1,1,.962-.962A.963.963,0,0,1,3.76,128.578Zm0,0" transform="translate(0 -120.574)" fill="#d2d2d2"/>
  <path id="Path_22" data-name="Path 22" d="M10.339,250.965a2.139,2.139,0,0,0-2.053,1.549H0v1.173H8.286a2.135,2.135,0,0,0,4.106,0H20.02v-1.173H12.392a2.139,2.139,0,0,0-2.053-1.549Zm0,3.1a.962.962,0,1,1,.962-.962A.963.963,0,0,1,10.339,254.063Zm0,0" transform="translate(0 -241.152)" fill="#d2d2d2"/>
</svg>
