<svg xmlns="http://www.w3.org/2000/svg" width="56.237" height="52.393" viewBox="0 0 56.237 52.393">
  <path id="content" d="M55.362.942A2.2,2.2,0,0,0,53.433.585c-2.545.731-5.788.524-9.894.263C40.969.685,38.055.5,34.708.5a8.767,8.767,0,0,0-6.59,2.984A8.767,8.767,0,0,0,21.528.5c-3.346,0-6.26.185-8.831.349C8.591,1.11,5.347,1.316,2.8.585A2.2,2.2,0,0,0,0,2.7V39.14a8.787,8.787,0,0,0,8.787,8.809H24.713a2.2,2.2,0,0,0,0-4.393H8.787a4.393,4.393,0,0,1-4.393-4.41V37.98a8.732,8.732,0,0,0,4.393,1.182H25.152a1.1,1.1,0,0,1,.973.587,2.3,2.3,0,0,0,4.19-1.3V9.287a4.4,4.4,0,0,1,4.393-4.393c3.207,0,6.047.181,8.552.34a51.786,51.786,0,0,0,8.582.111V21.149a2.2,2.2,0,1,0,4.393,0V2.7A2.2,2.2,0,0,0,55.362.942ZM8.787,34.769a4.4,4.4,0,0,1-4.393-4.393V5.344a51.781,51.781,0,0,0,8.582-.111c2.506-.159,5.346-.34,8.553-.34a4.4,4.4,0,0,1,4.393,4.393V34.823a5.5,5.5,0,0,0-.769-.054Zm13.4-21.858a2.2,2.2,0,0,1-2.2,2.2H10.434a2.2,2.2,0,1,1,0-4.393H19.99A2.2,2.2,0,0,1,22.187,12.911Zm-3.3,8.787a2.2,2.2,0,0,1-2.2,2.2H10.434a2.2,2.2,0,1,1,0-4.393H16.7A2.2,2.2,0,0,1,18.892,21.7Zm26.1,6.761L32.928,40.493a2.2,2.2,0,0,0-.55.917l-2.627,8.647a2.2,2.2,0,0,0,2.688,2.755l8.867-2.456a2.2,2.2,0,0,0,.965-.562L54.307,37.782a6.59,6.59,0,0,0-9.319-9.322ZM39.576,46.276l-4.46,1.236,1.305-4.3,8.138-8.12L47.666,38.2ZM51.2,34.673l-.426.425-3.107-3.107.424-.423A2.2,2.2,0,0,1,51.2,34.673Zm0,0" transform="translate(0 -0.5)" fill="#f702c4"/>
</svg>
