<svg xmlns="http://www.w3.org/2000/svg" width="16.73" height="15.834" viewBox="0 0 16.73 15.834">
  <g id="attach" transform="translate(-0.001 -13.706)">
    <g id="Group_4302" data-name="Group 4302" transform="translate(0.001 13.707)">
      <path id="Path_16637" data-name="Path 16637" d="M15.164,15.27a5.354,5.354,0,0,0-7.563,0L1.118,21.753a3.82,3.82,0,0,0,5.4,5.4l5.943-5.943a2.292,2.292,0,1,0-3.241-3.241L5.335,21.858a.764.764,0,1,0,1.08,1.08L10.3,19.052a.764.764,0,1,1,1.08,1.08L5.44,26.075A2.292,2.292,0,0,1,2.2,22.834l6.483-6.483a3.82,3.82,0,1,1,5.4,5.4L7.6,28.236a.764.764,0,0,0,1.081,1.08l6.483-6.483a5.348,5.348,0,0,0,0-7.563Z" transform="translate(-0.001 -13.707)" fill="#ff00c7"/>
    </g>
  </g>
</svg>
