<svg xmlns="http://www.w3.org/2000/svg" width="23.288" height="23.263" viewBox="0 0 23.288 23.263">
  <g id="Group01" transform="translate(-0.345 -0.361)">
    <path id="Path_11959" data-name="Path 11959" d="M.349,7.033C.246,2.849,1.929.869,5.57.394A2.935,2.935,0,0,1,8.635,1.8,19.009,19.009,0,0,1,10.092,4.93a2.9,2.9,0,0,1-.709,3.095c-.123.139-.262.264-.4.394-1.974,1.9-1.974,1.9-.562,4.245.114.193.233.383.356.568,1.081,1.631,1.184,1.667,3.061,1.1,2.542-.765,3.424-.474,4.97,1.636.067.09.132.181.2.271,1.562,2.11,1.77,3.459.747,4.836-1.667,2.242-3.822,3.039-6.131,2.256a12.79,12.79,0,0,1-5.968-4.522C2.833,15.172.653,11.24.349,7.033Z" fill="#999"/>
    <path id="Path_11960" data-name="Path 11960" d="M14.562.385a9.558,9.558,0,0,1,9.047,8.978c.045.651.123,1.36-.792,1.416-.846.051-.859-.6-.917-1.229a7.852,7.852,0,0,0-7.4-7.442c-.662-.067-1.376-.074-1.271-.987S14.072.361,14.562.385Z" fill="#999"/>
    <path id="Path_11961" data-name="Path 11961" d="M14.473,3.849a6.214,6.214,0,0,1,5.681,5.735c.018.615-.089,1.161-.83,1.2s-.884-.492-.949-1.108a4.252,4.252,0,0,0-4-4.048c-.662-.065-1.231-.21-1.152-1.011C13.292,3.878,13.876,3.813,14.473,3.849Z" fill="#999"/>
    <path id="Path_11962" data-name="Path 11962" d="M14.171,7.378a2.54,2.54,0,0,1,2.455,2.4c.007.49-.11.9-.66,1a.764.764,0,0,1-.993-.638,1.189,1.189,0,0,0-1.065-1.1.766.766,0,0,1-.691-.958C13.289,7.533,13.67,7.365,14.171,7.378Z" fill="#999"/>
    <path id="Path_11963" data-name="Path 11963" d="M5.888,2.086a.774.774,0,0,1,.125,0C7.7,2.395,7.636,4.042,8.3,5.123A1.364,1.364,0,0,1,8,6.944c-.454.441-.913.882-1.4,1.284a2.437,2.437,0,0,0-.812,2.9,12.2,12.2,0,0,0,2.582,4.392,2.487,2.487,0,0,0,2.909.808c.036-.013.069-.025.105-.036,3.034-.868,3.5-.667,5.026,2.094a1.556,1.556,0,0,1,.137,1.291,3.87,3.87,0,0,1-4.041,2.094,7.993,7.993,0,0,1-3.471-1.953A22.174,22.174,0,0,1,2.182,7.571a7.47,7.47,0,0,1-.025-2.222C2.449,2.807,3.894,2.572,5.888,2.086Z" fill="#fff"/>
  </g>
</svg>
