<svg id="_ionicons_svg_md-chatboxes" xmlns="http://www.w3.org/2000/svg" width="18.679" height="17.242" viewBox="0 0 18.679 17.242">
  <path id="Path_1217" data-name="Path 1217" d="M63.426,64H48.431a.432.432,0,0,0-.431.366v9.619a.45.45,0,0,0,.431.387h2.577v3.991l4.047-3.991h8.371a.362.362,0,0,0,.334-.387V64.366A.344.344,0,0,0,63.426,64Z" transform="translate(-48 -64)" fill="#919191"/>
  <path id="Path_1218" data-name="Path 1218" d="M191.638,127h-1.455v7.479c0,.718-.311,1.187-1.129,1.187h-8.116l-1.747,1.751h5.823l4.047,4v-4h2.577a.37.37,0,0,0,.341-.39v-9.619A.389.389,0,0,0,191.638,127Z" transform="translate(-173.3 -124.171)" fill="#919191"/>
</svg>
