<svg xmlns="http://www.w3.org/2000/svg" width="18.727" height="18.727" viewBox="0 0 18.727 18.727">
  <path id="_ionicons_svg_md-cog" d="M50.727,42.7V40.026h-1.45a8.1,8.1,0,0,0-.389-1.463l1.254-.723L48.8,35.524l-1.254.723a8.087,8.087,0,0,0-1.07-1.07l.723-1.254-2.316-1.338-.723,1.254a7.767,7.767,0,0,0-1.463-.389V32H40.026v1.451a8.1,8.1,0,0,0-1.463.389l-.723-1.254-2.316,1.338.723,1.254a8.086,8.086,0,0,0-1.07,1.07l-1.254-.723L32.585,37.84l1.254.723a7.768,7.768,0,0,0-.389,1.463H32V42.7h1.451a8.1,8.1,0,0,0,.389,1.463l-1.254.723L33.923,47.2l1.254-.723a8.087,8.087,0,0,0,1.07,1.07L35.524,48.8l2.316,1.338.723-1.254a7.77,7.77,0,0,0,1.463.389v1.45H42.7v-1.45a8.1,8.1,0,0,0,1.463-.389l.723,1.254L47.2,48.8,46.48,47.55a8.088,8.088,0,0,0,1.07-1.07L48.8,47.2l1.338-2.316-1.254-.723a7.77,7.77,0,0,0,.389-1.463Zm-9.363-2.675a1.338,1.338,0,1,1-1.338,1.338A1.336,1.336,0,0,1,41.363,40.026ZM36.565,45a6.007,6.007,0,0,1-1.221-3.637,6.38,6.38,0,0,1,.046-.752l1.96.715v.038a4.02,4.02,0,0,0,.556,2.04Zm1.7-6.186-1.96-.715a6.012,6.012,0,0,1,3.72-2.6V37.58A4.043,4.043,0,0,0,38.266,38.814Zm3.1,8.569a5.979,5.979,0,0,1-2.75-.665l1.342-1.6a4.019,4.019,0,0,0,2.817,0l1.342,1.6A5.979,5.979,0,0,1,41.363,47.383Zm1.338-9.8V35.495a6.012,6.012,0,0,1,3.72,2.6l-1.96.715A4.043,4.043,0,0,0,42.7,37.58ZM46.162,45,44.82,43.4a4.019,4.019,0,0,0,.556-2.04v-.038l1.96-.715a6.377,6.377,0,0,1,.046.752A6.007,6.007,0,0,1,46.162,45Z" transform="translate(-32 -32)" fill="#919191"/>
</svg>
