<svg id="Component_19_37" data-name="Component 19 – 37" xmlns="http://www.w3.org/2000/svg" width="18.883" height="16.526" viewBox="0 0 18.883 16.526">
  <path id="Path_476" data-name="Path 476" d="M641.512,1161.79h1.525a8.9,8.9,0,0,1,6.136,2.426,7.948,7.948,0,0,1,1.882,9,8.214,8.214,0,0,1-1.882,2.672,8.64,8.64,0,0,1-2.815,1.8,9.245,9.245,0,0,1-3.321.628h-10.2v-8.263a8.039,8.039,0,0,1,2.542-5.837A8.9,8.9,0,0,1,641.512,1161.79Zm-2.3,7.068a.621.621,0,0,1,.616-.616h5.6a.621.621,0,0,1,.616.616.613.613,0,0,1-.616.616h-5.6A.613.613,0,0,1,639.214,1168.858Zm.616,2.574a.621.621,0,0,0-.616.616.613.613,0,0,0,.616.616h2.8a.613.613,0,0,0,.616-.616.621.621,0,0,0-.616-.616Z" transform="translate(-632.833 -1161.79)" fill="#ff00c7" fill-rule="evenodd"/>
</svg>
