<svg xmlns="http://www.w3.org/2000/svg" width="18.143" height="21.323" viewBox="0 0 18.143 21.323">
  <g id="Group_4490" data-name="Group 4490" transform="translate(0.5 0.532)">
    <path id="Path_1228" data-name="Path 1228" d="M81.143,62.318V54a1.59,1.59,0,0,0-.709-1.345l-6.786-4.309a1.987,1.987,0,0,0-2.154,0l-6.785,4.309A1.59,1.59,0,0,0,64,54v8.317a1.59,1.59,0,0,0,.709,1.346L71.5,67.972a1.989,1.989,0,0,0,2.154,0l6.786-4.309A1.59,1.59,0,0,0,81.143,62.318Z" transform="translate(-64 -48.03)" fill="none" stroke="#f5dcf3" stroke-linecap="round" stroke-linejoin="round" stroke-width="1"/>
    <g id="Group_4494" data-name="Group 4494" transform="translate(0.267 5.029)">
      <path id="Path_1229" data-name="Path 1229" d="M69,153.99l8.311,5.74,3.463-2.392,4.848-3.348" transform="translate(-69 -153.99)" fill="rgba(248,235,235,0)" stroke="#f5dcf3" stroke-linecap="round" stroke-linejoin="round" stroke-width="1"/>
    </g>
    <line id="Line_27" data-name="Line 27" y1="10.437" transform="translate(8.738 9.824)" fill="none" stroke="#f5dcf3" stroke-linecap="round" stroke-linejoin="round" stroke-width="1"/>
  </g>
</svg>
