<svg xmlns="http://www.w3.org/2000/svg" width="24.387" height="24.386" viewBox="0 0 24.387 24.386">
  <g id="cyber-security" transform="translate(0 -0.001)">
    <path id="Path_11471" data-name="Path 11471" d="M165.424,10.816a16.68,16.68,0,0,0,2.136,1.366,16.723,16.723,0,0,0,2.153-1.379c1.036-.792,2.27-1.981,2.27-3.149V1.685a4.858,4.858,0,0,1-1.715-.43A3.39,3.39,0,0,1,168.858,0h-2.607a3.846,3.846,0,0,1-3.114,1.683V7.653c0,1.173,1.244,2.367,2.287,3.162Zm-.031-6.473,1.6,1.6,2.734-2.734,1.01,1.01-3.745,3.745-2.609-2.609Z" transform="translate(-155.367)" fill="#333"/>
    <path id="Path_11472" data-name="Path 11472" d="M24.387,361.374H0v2.888H9.893l-.459,2.062a1.924,1.924,0,0,1-.385.8h-2.6v1.429H17.933v-1.429h-2.6a1.924,1.924,0,0,1-.385-.8l-.459-2.062h9.893Z" transform="translate(0 -344.161)" fill="#333"/>
    <path id="Path_11473" data-name="Path 11473" d="M24.387,89.115V77H18.045v3.985c0,1.412-.959,2.858-2.85,4.3a20.869,20.869,0,0,1-3,1.829,20.876,20.876,0,0,1-3-1.829c-1.891-1.441-2.85-2.887-2.85-4.3V77H0V89.115Z" transform="translate(0 -73.331)" fill="#333"/>
  </g>
</svg>
