<svg xmlns="http://www.w3.org/2000/svg" width="10.431" height="16.944" viewBox="0 0 10.431 16.944">
  <g id="Group_4611" data-name="Group 4611" transform="translate(-2410.267 -1088.353)">
    <path id="Path_11669" data-name="Path 11669" d="M2420.7,1096.887l-5.231-8.534-5.2,8.54c1.715,1.065,3.392,2.109,5.076,3.142a.367.367,0,0,0,.311-.033q2.457-1.494,4.9-3A1.7,1.7,0,0,0,2420.7,1096.887Z"/>
    <path id="Path_11670" data-name="Path 11670" d="M2415.711,1117.882c-1.481-.877-2.967-1.744-4.452-2.613-.067-.039-.137-.073-.207-.11l-.03.044,4.922,7,4.982-7.015a.582.582,0,0,0-.268.091c-1.5.867-2.995,1.731-4.486,2.606A.391.391,0,0,1,2415.711,1117.882Z" transform="translate(-0.476 -16.908)"/>
  </g>
</svg>
