<svg xmlns="http://www.w3.org/2000/svg" width="21.039" height="22.769" viewBox="0 0 21.039 22.769">
  <g id="cube-outline_1_" data-name="cube-outline (1)" transform="translate(-63.5 -47.498)">
    <path id="Path_1228" data-name="Path 1228" d="M84.039,63.338V54.427a1.67,1.67,0,0,0-.829-1.441L75.277,48.37a2.5,2.5,0,0,0-2.517,0l-7.931,4.616A1.67,1.67,0,0,0,64,54.427v8.911a1.67,1.67,0,0,0,.829,1.442L72.761,69.4a2.5,2.5,0,0,0,2.517,0l7.932-4.616A1.67,1.67,0,0,0,84.039,63.338Z" transform="translate(0 0)" fill="none" stroke="#333" stroke-linecap="round" stroke-linejoin="round" stroke-width="1"/>
    <path id="Path_1229" data-name="Path 1229" d="M69,153.99l9.758,5.74,9.758-5.74" transform="translate(-4.739 -100.43)" fill="none" stroke="#333" stroke-linecap="round" stroke-linejoin="round" stroke-width="1"/>
    <line id="Line_27" data-name="Line 27" y1="10.437" transform="translate(74.019 59.3)" fill="none" stroke="#333" stroke-linecap="round" stroke-linejoin="round" stroke-width="1"/>
  </g>
</svg>
