<svg xmlns="http://www.w3.org/2000/svg" width="20.106" height="21.665" viewBox="0 0 20.106 21.665">
  <g id="logo-electron" transform="translate(-47.962 -31.72)">
    <path id="Path_1219" data-name="Path 1219" d="M62.707,129.154a.475.475,0,0,0,.412-.711c-.8-1.38-.861-2.519-.36-3.383.689-1.187,2.591-1.626,5.087-1.174a.475.475,0,1,0,.17-.935,8.989,8.989,0,0,0-3.74.014,3.639,3.639,0,0,0-2.341,1.618c-.677,1.169-.614,2.645.359,4.331A.476.476,0,0,0,62.707,129.154Z" transform="translate(-12.869 -86.644)" fill="#333"/>
    <path id="Path_1220" data-name="Path 1220" d="M352.264,125.02c1.558.02,2.542.45,3.034,1.3.687,1.183.122,3.035-1.511,4.954a.476.476,0,0,0,.726.615,8.851,8.851,0,0,0,1.848-3.224,3.589,3.589,0,0,0-.242-2.821c-.667-1.149-1.939-1.747-3.846-1.772h-.007a.475.475,0,1,0-.006.95Z" transform="translate(-289.145 -87.887)" fill="#333"/>
    <path id="Path_1221" data-name="Path 1221" d="M171.192,377.331a.477.477,0,0,0-.652.162c-.793,1.312-1.767,2.034-2.743,2.034-1.377,0-2.706-1.416-3.563-3.79a.477.477,0,0,0-.9.322,8.848,8.848,0,0,0,1.885,3.212,3.642,3.642,0,0,0,2.577,1.208c1.323,0,2.587-.886,3.559-2.494a.474.474,0,0,0-.163-.652Z" transform="translate(-109.771 -327.095)" fill="#333"/>
    <path id="Path_1222" data-name="Path 1222" d="M123.822,279.655a1.553,1.553,0,0,0-1.445,2.142c-2.02.942-5.789.231-9.272-1.77a17.181,17.181,0,0,1-4.088-3.208.478.478,0,0,0-.672-.031.474.474,0,0,0-.031.672,18.153,18.153,0,0,0,4.317,3.391,17.508,17.508,0,0,0,5.868,2.165,10.892,10.892,0,0,0,1.691.141,5.887,5.887,0,0,0,2.827-.618,1.556,1.556,0,1,0,.807-2.884Zm0,2.158a.609.609,0,0,1-.378-.131.483.483,0,0,0-.106-.107.609.609,0,1,1,.483.238Z" transform="translate(-57.316 -233.108)" fill="#333"/>
    <path id="Path_1223" data-name="Path 1223" d="M49.612,139.536A6.3,6.3,0,0,1,51.239,136a16.757,16.757,0,0,1,4.559-3.752,16.24,16.24,0,0,1,4.739-1.88.475.475,0,1,0-.2-.929,17.229,17.229,0,0,0-5.016,1.986c-4.068,2.336-6.783,5.757-6.66,8.368a1.562,1.562,0,1,0,.949-.257Zm-.086,2.156a.6.6,0,1,1,.608-.6A.6.6,0,0,1,49.525,141.691Z" transform="translate(0 -92.986)" fill="#333"/>
    <path id="Path_1224" data-name="Path 1224" d="M225.476,34.842a1.557,1.557,0,0,0,1.282-.667,6.55,6.55,0,0,1,2.214,3.2,16.41,16.41,0,0,1,.959,5.728,16.8,16.8,0,0,1-.725,5.006.47.47,0,0,0,.032.362.477.477,0,0,0,.877-.077,17.729,17.729,0,0,0,.77-5.291,17.179,17.179,0,0,0-1.086-6.234,6.889,6.889,0,0,0-2.761-3.632,1.561,1.561,0,1,0-1.561,1.61Zm0-2.158a.6.6,0,1,1-.608.6.6.6,0,0,1,.608-.6Z" transform="translate(-167.451 0)" fill="#333"/>
    <path id="Path_1225" data-name="Path 1225" d="M232.678,242.827h0a1.177,1.177,0,0,0,.249,2.327,1.191,1.191,0,0,0,.249-.027,1.177,1.177,0,1,0-.5-2.3Z" transform="translate(-174.904 -200.88)" fill="#333"/>
  </g>
</svg>
