<svg xmlns="http://www.w3.org/2000/svg" width="31.172" height="23.349" viewBox="0 0 31.172 23.349">
  <g id="Group_235" data-name="Group 235" transform="translate(0)">
    <path id="Path_48" data-name="Path 48" d="M42.037,11.492c0-5.229-7.038-9.468-15.721-9.468-6.512,0-11.818,2.56-14.222,5.683a5.586,5.586,0,0,0,.555,7.524c1.9,2.01,2.663,3.222,4.286,6.779,1.171,2.567,3.689,3.345,6.49,3.363a8.413,8.413,0,0,0,5.82-2.913,17.6,17.6,0,0,1,6.471-3.844C39.7,17.417,42.037,14.882,42.037,11.492Z" transform="translate(-10.865 -2.023)" fill="#fff"/>
    <path id="Polygon_1" data-name="Polygon 1" d="M6.176,1.519a1,1,0,0,1,1.736,0l5.321,9.311a1,1,0,0,1-.868,1.5H1.723a1,1,0,0,1-.868-1.5Z" transform="translate(22.23 4.402) rotate(90)" fill="#ff00c7"/>
  </g>
</svg>
