<svg xmlns="http://www.w3.org/2000/svg" width="27.239" height="20.403" viewBox="0 0 27.239 20.403">
  <g id="Group_235" data-name="Group 235" transform="translate(0)">
    <path id="Path_48" data-name="Path 48" d="M38.1,10.3c0-4.57-6.15-8.274-13.737-8.274-5.69,0-10.327,2.237-12.427,4.966a4.881,4.881,0,0,0,.485,6.575,17.679,17.679,0,0,1,3.745,5.924c1.023,2.243,3.224,2.923,5.671,2.939a7.352,7.352,0,0,0,5.086-2.545,15.375,15.375,0,0,1,5.655-3.359C36.065,15.475,38.1,13.26,38.1,10.3Z" transform="translate(-10.865 -2.023)" fill="#fff"/>
    <path id="Polygon_1" data-name="Polygon 1" d="M5.287,1.519a1,1,0,0,1,1.736,0l4.432,7.756a1,1,0,0,1-.868,1.5H1.723a1,1,0,0,1-.868-1.5Z" transform="translate(19.425 3.847) rotate(90)" fill="#ff00c7"/>
  </g>
</svg>
