<svg xmlns="http://www.w3.org/2000/svg" width="27.401" height="20.525" viewBox="0 0 27.401 20.525">
  <g id="Group_235" data-name="Group 235" transform="translate(0)">
    <path id="Path_48" data-name="Path 48" d="M38.267,10.346c0-4.6-6.187-8.323-13.819-8.323-5.724,0-10.388,2.25-12.5,5a4.91,4.91,0,0,0,.488,6.614A17.784,17.784,0,0,1,16.2,19.592c1.029,2.256,3.243,2.941,5.705,2.956a7.4,7.4,0,0,0,5.116-2.56,15.466,15.466,0,0,1,5.688-3.379C36.215,15.555,38.267,13.327,38.267,10.346Z" transform="translate(-10.865 -2.023)" fill="#fff"/>
    <path id="Polygon_1" data-name="Polygon 1" d="M5.324,1.519a1,1,0,0,1,1.736,0l4.469,7.82a1,1,0,0,1-.868,1.5H1.723a1,1,0,0,1-.868-1.5Z" transform="translate(19.541 3.87) rotate(90)" fill="#ff00c7"/>
  </g>
</svg>
