<svg id="image" xmlns="http://www.w3.org/2000/svg" width="20.104" height="17.242" viewBox="0 0 20.104 17.242">
  <path id="Path_5" data-name="Path 5" d="M182.758,100.333a2.008,2.008,0,1,0-2.008-2.008A2.011,2.011,0,0,0,182.758,100.333Zm0-2.839a.83.83,0,1,1-.83.831A.831.831,0,0,1,182.758,97.494Zm0,0" transform="translate(-173.652 -92.554)" fill="#d2d2d2"/>
  <path id="Path_6" data-name="Path 6" d="M19.371.5H.735A.735.735,0,0,0,0,1.234V17.008a.735.735,0,0,0,.734.734H19.371a.735.735,0,0,0,.734-.734V1.234A.735.735,0,0,0,19.371.5Zm-.444,1.178V11l-3.7-3.7a.62.62,0,0,0-.876,0l-5.24,5.24L5.76,9.188a.62.62,0,0,0-.876,0l-3.7,3.7V1.678ZM1.179,16.564V14.559l4.143-4.143,3.347,3.347a.619.619,0,0,0,.876,0l5.24-5.24,4.143,4.143v3.9Zm0,0" transform="translate(-0.001 -0.5)" fill="#d2d2d2"/>
</svg>
