<svg xmlns="http://www.w3.org/2000/svg" width="25.448" height="23.657" viewBox="0 0 25.448 23.657">
  <g id="info" transform="translate(0.258 0.25)">
    <path id="Path_1258" data-name="Path 1258" d="M412,126.561a.561.561,0,1,0,.561-.561A.561.561,0,0,0,412,126.561Zm0,0" transform="translate(-392.671 -120.358)" fill="#020202" stroke="#333" stroke-width="0.5"/>
    <path id="Path_1259" data-name="Path 1259" d="M433.755,165.611a10.7,10.7,0,0,1-.214,2.132.561.561,0,0,0,.438.662.552.552,0,0,0,.113.012.562.562,0,0,0,.549-.449,11.808,11.808,0,0,0,.237-2.357,11.658,11.658,0,0,0-1.139-5.054.561.561,0,1,0-1.013.483A10.544,10.544,0,0,1,433.755,165.611Zm0,0" transform="translate(-412.181 -153.686)" fill="#020202" stroke="#333" stroke-width="0.5"/>
    <path id="Path_1260" data-name="Path 1260" d="M202.173,213.856h-.561v-7.3a.561.561,0,0,0-.561-.561h-4.489a.561.561,0,0,0-.561.561v2.245a.561.561,0,0,0,.561.561h.561v4.489h-.561a.561.561,0,0,0-.561.561v2.245a.561.561,0,0,0,.561.561h5.612a.561.561,0,0,0,.561-.561v-2.245A.561.561,0,0,0,202.173,213.856Zm-.561,2.245h-4.489v-1.122h.561a.561.561,0,0,0,.561-.561v-5.612a.561.561,0,0,0-.561-.561h-.561v-1.122h3.367v7.3a.561.561,0,0,0,.561.561h.561Zm0,0" transform="translate(-186.897 -198.125)" fill="#020202" stroke="#333" stroke-width="0.5"/>
    <path id="Path_1261" data-name="Path 1261" d="M218.245,110.489A2.245,2.245,0,1,0,216,108.245,2.247,2.247,0,0,0,218.245,110.489Zm0-3.367a1.122,1.122,0,1,1-1.122,1.122A1.124,1.124,0,0,1,218.245,107.122Zm0,0" transform="translate(-205.775 -101.421)" fill="#020202" stroke="#333" stroke-width="0.5"/>
    <path id="Path_1262" data-name="Path 1262" d="M12.47,0C5.749,0,0,5.327,0,11.576A11.659,11.659,0,0,0,1.77,17.7L.024,22.556a.429.429,0,0,0,.118.463.514.514,0,0,0,.5.109l5.235-1.62a14.077,14.077,0,0,0,6.595,1.643c6.723,0,12.471-5.327,12.471-11.576S19.2,0,12.47,0Zm0,22.247A12.9,12.9,0,0,1,6.2,20.631a.52.52,0,0,0-.415-.047l-4.526,1.4,1.509-4.2a.424.424,0,0,0-.051-.385A10.707,10.707,0,0,1,.974,11.576C.974,5.791,6.238.9,12.47.9s11.5,4.887,11.5,10.671S18.7,22.247,12.47,22.247Zm0,0" transform="translate(0)" fill="#020202" stroke="#333" stroke-width="0.5"/>
  </g>
</svg>
