<svg xmlns="http://www.w3.org/2000/svg" width="14.625" height="14.625" viewBox="0 0 14.625 14.625">
  <g id="Icon_ionic-ios-cellular" data-name="Icon ionic-ios-cellular" transform="translate(-1.688 -1.688)">
    <path id="Path_6" data-name="Path 6" d="M14.358,1.821a.49.49,0,0,0-.341-.134.511.511,0,0,0-.348.137.463.463,0,0,0,0,.675,5.121,5.121,0,0,1,1.656,3.765h0a5.133,5.133,0,0,1-1.656,3.765.455.455,0,0,0-.148.337.463.463,0,0,0,.144.337.506.506,0,0,0,.689,0,6.04,6.04,0,0,0,1.955-4.444h0v0h0A6.046,6.046,0,0,0,14.358,1.821Z" fill="#333"/>
    <path id="Path_7" data-name="Path 7" d="M12.34,3.4a.453.453,0,0,0-.316-.123.463.463,0,0,0-.313.12.413.413,0,0,0,0,.612,3.072,3.072,0,0,1,.977,2.25h0a3.085,3.085,0,0,1-.977,2.25.413.413,0,0,0,0,.612.457.457,0,0,0,.313.12.469.469,0,0,0,.316-.123,3.917,3.917,0,0,0,1.245-2.858h0v0h0A3.915,3.915,0,0,0,12.34,3.4Z" fill="#333"/>
    <path id="Path_8" data-name="Path 8" d="M4.328,2.5a.455.455,0,0,0,.148-.338.463.463,0,0,0-.144-.337.5.5,0,0,0-.348-.137h0a.5.5,0,0,0-.341.134A6.04,6.04,0,0,0,1.688,6.265v.007h0a6.044,6.044,0,0,0,1.955,4.437.49.49,0,0,0,.341.134.511.511,0,0,0,.348-.137.463.463,0,0,0,0-.675A5.121,5.121,0,0,1,2.672,6.265h0A5.108,5.108,0,0,1,4.328,2.5Z" fill="#333"/>
    <path id="Path_9" data-name="Path 9" d="M6.293,4.011a.413.413,0,0,0,0-.612.457.457,0,0,0-.313-.12A.469.469,0,0,0,5.66,3.4,3.917,3.917,0,0,0,4.416,6.261v0h0A3.9,3.9,0,0,0,5.66,9.12a.453.453,0,0,0,.316.123.463.463,0,0,0,.313-.12.413.413,0,0,0,0-.612,3.072,3.072,0,0,1-.977-2.25h0A3.064,3.064,0,0,1,6.293,4.011Z" fill="#333"/>
    <path id="Path_10" data-name="Path 10" d="M9,4.331a1.687,1.687,0,0,0-.492,3.3v8.191a.492.492,0,0,0,.984,0V7.632A1.687,1.687,0,0,0,9,4.331Z" fill="#333"/>
  </g>
</svg>
