<svg xmlns="http://www.w3.org/2000/svg" width="13.504" height="13.501" viewBox="0 0 13.504 13.501">
  <g id="Icon_ionic-ios-apps" data-name="Icon ionic-ios-apps" transform="translate(-2.246 -2.248)">
    <path id="Path_11" data-name="Path 11" d="M15.286,4.838,10.034,2.443a2.845,2.845,0,0,0-2.071,0L2.714,4.838c-.619.281-.619.742,0,1.023l5.2,2.373a2.989,2.989,0,0,0,2.166,0l5.2-2.373C15.9,5.579,15.9,5.119,15.286,4.838Z" fill="#666"/>
    <g id="Group_320" data-name="Group 320">
      <path id="Path_12" data-name="Path 12" d="M7.917,13.191l-3.509-1.6a.571.571,0,0,0-.468,0l-1.227.559c-.619.281-.619.742,0,1.023l5.2,2.373a2.989,2.989,0,0,0,2.166,0l5.2-2.373c.619-.281.619-.742,0-1.023l-1.227-.559a.571.571,0,0,0-.468,0l-3.509,1.6A2.989,2.989,0,0,1,7.917,13.191Z" fill="#666"/>
      <path id="Path_13" data-name="Path 13" d="M15.286,8.494l-1.114-.506a.562.562,0,0,0-.464,0l-3.8,1.719a3.1,3.1,0,0,1-1.825,0l-3.8-1.719a.562.562,0,0,0-.464,0l-1.114.506c-.619.281-.619.742,0,1.023l5.2,2.373a2.989,2.989,0,0,0,2.166,0l5.2-2.373C15.9,9.236,15.9,8.775,15.286,8.494Z" fill="#666"/>
    </g>
  </g>
</svg>
