<svg xmlns="http://www.w3.org/2000/svg" width="15.083" height="21.45" viewBox="0 0 15.083 21.45">
  <g id="lightbulb" transform="translate(-75.991 0)">
    <path id="Path_11454" data-name="Path 11454" d="M78.66,13.3a3.1,3.1,0,0,1,1.046,1.785h3.2V10.6a2.518,2.518,0,0,1-1.885-2.434h1.257a1.257,1.257,0,0,0,2.514,0h1.257A2.518,2.518,0,0,1,84.161,10.6v4.479h3.2a3.14,3.14,0,0,1,1.056-1.794,7.538,7.538,0,1,0-9.755.009Z" transform="translate(0 0)" fill="#999"/>
    <path id="Path_11455" data-name="Path 11455" d="M198.5,454.494a2.517,2.517,0,0,0,2.514-2.514H195.99a2.517,2.517,0,0,0,2.514,2.514Z" transform="translate(-114.972 -433.044)" fill="#999"/>
    <path id="Path_11456" data-name="Path 11456" d="M165.99,389.98h7.541v1.341H165.99Z" transform="translate(-86.229 -373.642)" fill="#999"/>
  </g>
</svg>
