<svg id="review" xmlns="http://www.w3.org/2000/svg" width="23.318" height="20.403" viewBox="0 0 23.318 20.403">
  <path id="Path_49" data-name="Path 49" d="M0,1.457V13.116a1.457,1.457,0,0,0,1.457,1.457H5.829V0H1.457A1.457,1.457,0,0,0,0,1.457Z" transform="translate(0 5.83)" fill="#fff"/>
  <path id="Path_50" data-name="Path 50" d="M13.34,7.317H9.035A.729.729,0,0,1,8.4,6.234L9.915,3.5A2.185,2.185,0,0,0,8.534.319L7.463.052a.727.727,0,0,0-.718.219L.934,6.727A3.642,3.642,0,0,0,0,9.164v7.626a3.648,3.648,0,0,0,3.643,3.643h7.249a3.652,3.652,0,0,0,3.514-2.68l1.556-7.139a2.691,2.691,0,0,0-2.622-3.3Z" transform="translate(7.287 -0.03)" fill="#fff"/>
</svg>
