<svg width="22" height="24" viewBox="0 0 22 24" fill="none" xmlns="http://www.w3.org/2000/svg">
<path d="M21.2681 6.57212C21.2621 6.45656 21.2276 6.34426 21.1678 6.2452C21.108 6.14614 21.0247 6.06338 20.9252 6.00427L10.9957 0.0986573C10.887 0.0340811 10.7629 0 10.6365 0C10.51 0 10.3859 0.0340811 10.2772 0.0986573L0.347255 6.00479C0.247555 6.06367 0.163944 6.14627 0.103852 6.24524C0.0437595 6.34422 0.00904745 6.4565 0.00280015 6.57212C-0.0353149 8.89152 0.315919 11.2009 1.04188 13.4041C1.73972 15.7281 2.93287 17.8733 4.53919 19.692C6.14551 21.5107 8.12686 22.9597 10.3468 23.9393C10.4368 23.9793 10.5341 24 10.6326 24C10.731 24 10.8284 23.9793 10.9183 23.9393C13.1392 22.9602 15.1214 21.5115 16.7286 19.6927C18.3358 17.874 19.5296 15.7285 20.228 13.4041C20.9543 11.201 21.3059 8.89158 21.2681 6.57212ZM18.8756 13.0144C18.2488 15.0898 17.1909 17.0095 15.771 18.6479C14.3512 20.2863 12.6014 21.6065 10.6362 22.522C8.67101 21.6065 6.92125 20.2863 5.50141 18.6479C4.08156 17.0095 3.02364 15.0898 2.39684 13.0144C1.767 11.0753 1.43282 9.05239 1.40556 7.01373L10.6362 1.52116L19.869 7.01373C19.841 9.05232 19.5061 11.0751 18.8756 13.0139V13.0144Z" fill="#666666"/>
<path d="M10.6362 12.2341C10.2191 12.2341 9.81124 12.3578 9.46436 12.5896C9.11749 12.8213 8.84713 13.1508 8.68748 13.5362C8.52783 13.9216 8.48606 14.3457 8.56745 14.7549C8.64884 15.1641 8.84973 15.5399 9.14472 15.8349C9.43972 16.1299 9.81556 16.3308 10.2247 16.4122C10.6339 16.4936 11.058 16.4518 11.4435 16.2922C11.8289 16.1325 12.1583 15.8622 12.3901 15.5153C12.6219 15.1684 12.7456 14.7606 12.7456 14.3434C12.745 13.7841 12.5226 13.2479 12.1272 12.8525C11.7317 12.457 11.1955 12.2346 10.6362 12.2341ZM10.6362 15.0463C10.4972 15.0463 10.3613 15.0051 10.2457 14.9279C10.1301 14.8506 10.04 14.7408 9.98682 14.6124C9.93362 14.484 9.91969 14.3426 9.94682 14.2063C9.97394 14.0699 10.0409 13.9447 10.1392 13.8463C10.2375 13.748 10.3627 13.6811 10.4991 13.654C10.6355 13.6269 10.7768 13.6408 10.9053 13.694C11.0337 13.7472 11.1435 13.8373 11.2207 13.9529C11.298 14.0685 11.3392 14.2044 11.3392 14.3434C11.3388 14.5297 11.2646 14.7082 11.1328 14.8398C11.0011 14.9715 10.8225 15.0455 10.6362 15.0458V15.0463Z" fill="#666666"/>
<path d="M13.6828 11.0984V7.78059C13.6828 6.97259 13.3618 6.19767 12.7905 5.62633C12.2191 5.05498 11.4442 4.73401 10.6362 4.73401C9.8282 4.73401 9.05329 5.05498 8.48195 5.62633C7.9106 6.19767 7.58962 6.97259 7.58962 7.78059V11.0984C6.93846 11.7092 6.48596 12.5017 6.29085 13.373C6.09575 14.2442 6.16705 15.154 6.4955 15.9842C6.82396 16.8144 7.3944 17.5267 8.13278 18.0287C8.87116 18.5306 9.74337 18.799 10.6362 18.799C11.529 18.799 12.4013 18.5306 13.1396 18.0287C13.878 17.5267 14.4484 16.8144 14.7769 15.9842C15.1054 15.154 15.1767 14.2442 14.9816 13.373C14.7865 12.5017 14.3339 11.7092 13.6828 11.0984ZM8.99549 7.78059C9.00315 7.35057 9.17934 6.94075 9.48615 6.63936C9.79296 6.33796 10.2059 6.16908 10.6359 6.16908C11.066 6.16908 11.4789 6.33796 11.7857 6.63936C12.0925 6.94075 12.2687 7.35057 12.2764 7.78059V10.2032C11.2226 9.78563 10.0493 9.78563 8.99549 10.2032V7.78059ZM10.6362 17.389C10.0336 17.389 9.44462 17.2103 8.94362 16.8755C8.44261 16.5408 8.05212 16.0649 7.82153 15.5083C7.59094 14.9516 7.53061 14.339 7.64816 13.748C7.76571 13.157 8.05588 12.6142 8.48195 12.1881C8.90802 11.762 9.45086 11.4719 10.0418 11.3543C10.6328 11.2368 11.2454 11.2971 11.8021 11.5277C12.3588 11.7583 12.8346 12.1488 13.1693 12.6498C13.5041 13.1508 13.6828 13.7398 13.6828 14.3424C13.682 15.1502 13.3607 15.9247 12.7896 16.4959C12.2184 17.0672 11.444 17.3885 10.6362 17.3895V17.389Z" fill="#666666"/>
</svg>
