<svg id="logo-electron" xmlns="http://www.w3.org/2000/svg" width="16.046" height="17.29" viewBox="0 0 16.046 17.29">
  <path id="Path_1219" data-name="Path 1219" d="M62.672,128.975a.461.461,0,0,0,.4-.691,3.209,3.209,0,0,1-.35-3.288c.67-1.154,2.518-1.58,4.944-1.141a.462.462,0,1,0,.165-.908,8.737,8.737,0,0,0-3.635.014,3.537,3.537,0,0,0-2.276,1.572,4.073,4.073,0,0,0,.349,4.209A.463.463,0,0,0,62.672,128.975Z" transform="translate(-60.85 -119.573)" fill="#f5dcf3"/>
  <path id="Path_1220" data-name="Path 1220" d="M352.251,124.993c1.514.02,2.471.437,2.949,1.262.667,1.15.118,2.95-1.469,4.815a.462.462,0,0,0,.706.6,8.6,8.6,0,0,0,1.8-3.133,3.488,3.488,0,0,0-.235-2.742c-.648-1.117-1.885-1.7-3.738-1.722h-.007a.462.462,0,0,0-.006.923Z" transform="translate(-341.016 -120.961)" fill="#f5dcf3"/>
  <path id="Path_1221" data-name="Path 1221" d="M171.078,377.278a.474.474,0,0,0-.643.157,3.452,3.452,0,0,1-2.7,1.977c-1.357,0-2.667-1.377-3.511-3.683a.472.472,0,0,0-.6-.278.466.466,0,0,0-.267.237.456.456,0,0,0-.018.354,8.577,8.577,0,0,0,1.857,3.122,3.61,3.61,0,0,0,2.539,1.174,4.325,4.325,0,0,0,3.508-2.424.455.455,0,0,0,.053-.35.461.461,0,0,0-.214-.284Z" transform="translate(-159.567 -363.048)" fill="#f5dcf3"/>
  <path id="Path_1222" data-name="Path 1222" d="M121.882,279.571a1.328,1.328,0,0,0-1.135.665,1.652,1.652,0,0,0-.131,1.417c-1.769.916-5.071.225-8.121-1.72a15.4,15.4,0,0,1-3.581-3.118.39.39,0,0,0-.589-.031.482.482,0,0,0-.136.32.491.491,0,0,0,.109.333,16.277,16.277,0,0,0,3.781,3.3,14.408,14.408,0,0,0,5.139,2.1,8.62,8.62,0,0,0,1.481.137,4.739,4.739,0,0,0,2.476-.6,1.256,1.256,0,0,0,1.57-.117,1.619,1.619,0,0,0,.424-1.682,1.379,1.379,0,0,0-1.287-1Zm0,2.1a.5.5,0,0,1-.331-.128.45.45,0,0,0-.093-.1.644.644,0,0,1,.011-.736.5.5,0,0,1,.649-.156.615.615,0,0,1,.284.666.549.549,0,0,1-.52.458Z" transform="translate(-107.204 -268.541)" fill="#f5dcf3"/>
  <path id="Path_1223" data-name="Path 1223" d="M49.565,136.283a3.831,3.831,0,0,1,1.582-2.4,16.4,16.4,0,0,1,4.431-2.545,20.255,20.255,0,0,1,4.606-1.275c.249-.037.408-.208.355-.382a.488.488,0,0,0-.548-.247,21.5,21.5,0,0,0-4.875,1.347c-3.954,1.585-6.593,3.9-6.473,5.675-.621.287-.853.846-.546,1.32a1.777,1.777,0,0,0,1.78.587c.719-.136,1.191-.616,1.113-1.133a1.389,1.389,0,0,0-1.425-.947Zm-.084,1.462c-.324,0-.584-.186-.583-.412s.265-.408.589-.408.586.184.586.41S49.806,137.746,49.481,137.745Z" transform="translate(-47.962 -124.772)" fill="#f5dcf3"/>
  <path id="Path_1224" data-name="Path 1224" d="M225.432,34.389a1.584,1.584,0,0,0,1.246-.571,5.675,5.675,0,0,1,2.152,2.732,12.523,12.523,0,0,1,.932,4.9,12.772,12.772,0,0,1-.7,4.281.359.359,0,0,0,.031.31.452.452,0,0,0,.272.2.479.479,0,0,0,.58-.266,13.482,13.482,0,0,0,.748-4.524,13.126,13.126,0,0,0-1.055-5.33,6.069,6.069,0,0,0-2.684-3.106A1.446,1.446,0,0,0,225.4,31.72a1.344,1.344,0,1,0,.031,2.669Zm0-1.845a.521.521,0,1,1-.591.517.554.554,0,0,1,.591-.517Z" transform="translate(-217.914 -31.72)" fill="#f5dcf3"/>
  <path id="Path_1225" data-name="Path 1225" d="M232.652,242.826h0a1.144,1.144,0,0,0,.242,2.262,1.159,1.159,0,0,0,.242-.026,1.144,1.144,0,1,0-.485-2.236Z" transform="translate(-224.865 -234.876)" fill="#f5dcf3"/>
</svg>
