<svg xmlns="http://www.w3.org/2000/svg" width="19.542" height="21.057" viewBox="0 0 19.542 21.057">
  <g id="logo-electron" transform="translate(-47.962 -31.72)">
    <path id="Path_1219" data-name="Path 1219" d="M62.672,128.975a.461.461,0,0,0,.4-.691,3.209,3.209,0,0,1-.35-3.288c.67-1.154,2.518-1.58,4.944-1.141a.462.462,0,1,0,.165-.908,8.737,8.737,0,0,0-3.635.014,3.537,3.537,0,0,0-2.276,1.572,4.073,4.073,0,0,0,.349,4.209A.463.463,0,0,0,62.672,128.975Z" transform="translate(-12.888 -86.768)" fill="#333"/>
    <path id="Path_1220" data-name="Path 1220" d="M352.251,124.993c1.514.02,2.471.437,2.949,1.262.667,1.15.118,2.95-1.469,4.815a.462.462,0,0,0,.706.6,8.6,8.6,0,0,0,1.8-3.133,3.488,3.488,0,0,0-.235-2.742c-.648-1.117-1.885-1.7-3.738-1.722h-.007a.462.462,0,0,0-.006.923Z" transform="translate(-289.557 -88.012)" fill="#333"/>
    <path id="Path_1221" data-name="Path 1221" d="M170.971,377.278a.464.464,0,0,0-.634.157,3.406,3.406,0,0,1-2.666,1.977c-1.338,0-2.63-1.377-3.463-3.683a.464.464,0,0,0-.873.313,8.6,8.6,0,0,0,1.832,3.122,3.54,3.54,0,0,0,2.5,1.174c1.286,0,2.515-.861,3.459-2.424a.461.461,0,0,0-.159-.634Z" transform="translate(-109.928 -327.561)" fill="#333"/>
    <path id="Path_1222" data-name="Path 1222" d="M123.384,279.571a1.51,1.51,0,0,0-1.4,2.082c-1.963.916-5.627.225-9.012-1.72a16.7,16.7,0,0,1-3.974-3.118.465.465,0,0,0-.653-.031.46.46,0,0,0-.031.653,17.643,17.643,0,0,0,4.2,3.3,17.017,17.017,0,0,0,5.7,2.1,10.587,10.587,0,0,0,1.644.137,5.722,5.722,0,0,0,2.748-.6,1.512,1.512,0,1,0,.784-2.8Zm0,2.1a.592.592,0,0,1-.367-.128.47.47,0,0,0-.1-.1.592.592,0,1,1,.47.232Z" transform="translate(-57.398 -233.441)" fill="#333"/>
    <path id="Path_1223" data-name="Path 1223" d="M49.565,139.252a6.123,6.123,0,0,1,1.582-3.436,16.287,16.287,0,0,1,4.431-3.647,15.784,15.784,0,0,1,4.606-1.828.462.462,0,1,0-.194-.9,16.745,16.745,0,0,0-4.875,1.93c-3.954,2.271-6.593,5.6-6.473,8.133a1.518,1.518,0,1,0,.922-.249Zm-.084,2.1a.587.587,0,1,1,.591-.587A.587.587,0,0,1,49.481,141.347Z" transform="translate(0 -93.119)" fill="#333"/>
    <path id="Path_1224" data-name="Path 1224" d="M225.432,34.754a1.514,1.514,0,0,0,1.246-.649,6.366,6.366,0,0,1,2.152,3.106,15.949,15.949,0,0,1,.932,5.568,16.325,16.325,0,0,1-.7,4.866.457.457,0,0,0,.031.352.463.463,0,0,0,.852-.075,17.232,17.232,0,0,0,.748-5.143,16.7,16.7,0,0,0-1.055-6.059,6.7,6.7,0,0,0-2.684-3.53,1.517,1.517,0,1,0-1.517,1.565Zm0-2.1a.587.587,0,1,1-.591.587.587.587,0,0,1,.591-.587Z" transform="translate(-167.689 0)" fill="#333"/>
    <path id="Path_1225" data-name="Path 1225" d="M232.652,242.826h0a1.144,1.144,0,0,0,.242,2.262,1.159,1.159,0,0,0,.242-.026,1.144,1.144,0,1,0-.485-2.236Z" transform="translate(-175.153 -201.166)" fill="#333"/>
  </g>
</svg>
