<svg xmlns="http://www.w3.org/2000/svg" width="25.922" height="27.999" viewBox="0 0 25.922 27.999">
  <g id="money-back" transform="translate(-18.993 -0.001)">
    <path id="Path_11469" data-name="Path 11469" d="M41.273,6.032A12.887,12.887,0,0,0,33.8,2.21l.809-.809a.82.82,0,1,0-1.16-1.16L31.374,2.319a.82.82,0,0,0,0,1.16l2.077,2.077a.82.82,0,1,0,1.16-1.16l-.465-.465a11.312,11.312,0,1,1-6,.444A.82.82,0,0,0,27.6,2.83a12.964,12.964,0,1,0,13.678,3.2Z" transform="translate(0 0)" fill="#333"/>
    <path id="Path_11470" data-name="Path 11470" d="M101.884,129.3a8.428,8.428,0,1,0,8.428-8.428,8.437,8.437,0,0,0-8.428,8.428Zm8.931.73a8.214,8.214,0,0,1-2.361-1.136,2.193,2.193,0,0,1-.73-2.159,2.453,2.453,0,0,1,1.684-1.922l.036-.01v-.33a.82.82,0,1,1,1.641,0v.278a3.132,3.132,0,0,1,1.134.517.82.82,0,1,1-.982,1.314,1.5,1.5,0,0,0-1.355-.2.83.83,0,0,0-.545.655.6.6,0,0,0,.13.565,7.481,7.481,0,0,0,1.9.88,2.6,2.6,0,0,1,1.763,2.937,2.951,2.951,0,0,1-.909,1.676,2.819,2.819,0,0,1-1.132.638v.393a.82.82,0,0,1-1.641,0v-.312a3.5,3.5,0,0,1-1.614-.633.82.82,0,0,1,.9-1.373,2.108,2.108,0,0,0,1.53.4,1.258,1.258,0,0,0,1.249-1.061A.954.954,0,0,0,110.815,130.035Z" transform="translate(-78.358 -114.266)" fill="#333"/>
  </g>
</svg>
