<svg id="notifications-bell-button" xmlns="http://www.w3.org/2000/svg" width="17.386" height="20.455" viewBox="0 0 17.386 20.455">
  <g id="notifications-none">
    <path id="Path_13" data-name="Path 13" d="M46.943,20.455a2.051,2.051,0,0,0,2.045-2.045H44.9A2.051,2.051,0,0,0,46.943,20.455Zm6.648-6.136V8.693A6.581,6.581,0,0,0,48.477,2.25V1.534a1.534,1.534,0,1,0-3.068,0V2.25A6.581,6.581,0,0,0,40.3,8.693v5.625L38.25,16.364v1.023H55.636V16.364Zm-2.045,1.023h-9.2V8.693a4.6,4.6,0,0,1,9.2,0Z" transform="translate(-38.25)" fill="#d2d2d2"/>
  </g>
</svg>
