<svg xmlns="http://www.w3.org/2000/svg" width="24.021" height="24" viewBox="0 0 24.021 24">
  <path id="Path_11439" data-name="Path 11439" d="M12.021.02H12a12,12,0,0,0,0,24h.021a12,12,0,0,0,0-24Zm0,20.565H12a1.964,1.964,0,1,1,0-3.927h.021a1.964,1.964,0,1,1,0,3.927ZM14.838,5.617c-.128,1.96-1.024,7.789-1.024,7.789a1.787,1.787,0,0,1-1.788,1.779h-.031a1.787,1.787,0,0,1-1.788-1.779s-.9-5.829-1.024-7.789a2.724,2.724,0,0,1,2.812-2.8h.031A2.724,2.724,0,0,1,14.838,5.617Z" transform="translate(0 -0.02)" fill="#ff9021"/>
</svg>
