<svg xmlns="http://www.w3.org/2000/svg" width="16.447" height="19.226" viewBox="0 0 16.447 19.226">
  <g id="Group_4493" data-name="Group 4493" transform="translate(0 0)">
    <path id="Path_344" data-name="Path 344" d="M93.107,84.418a.434.434,0,0,0,.427.441h.007a.434.434,0,0,0,.434-.427,60.077,60.077,0,0,0-1.624-11.82.434.434,0,1,0-.845.2A59.132,59.132,0,0,1,93.107,84.418Z" transform="translate(-88.66 -69.771)" fill="#fff"/>
    <path id="Path_345" data-name="Path 345" d="M13.6,24.7a67.026,67.026,0,0,1,1.464-11.832.459.459,0,0,0,.014-.115c0-1.363-3.98-2.09-6.853-2.09s-6.853.726-6.853,2.09a.5.5,0,0,0,.014.116A67.027,67.027,0,0,1,2.848,24.7C1.492,25.1,0,25.794,0,26.967c0,1.921,4.137,2.926,8.224,2.926s8.224-1,8.224-2.926C16.447,25.794,14.955,25.1,13.6,24.7ZM2.076,12.789c.371-.424,2.687-1.286,6.147-1.286s5.776.863,6.147,1.286a65.139,65.139,0,0,0-1.445,12.265s0,0,0,0,0,.017,0,.026c0,.089.008.175.012.259.008.148.018.287.03.413,0,.02,0,.044,0,.064-.088.026-.2.056-.317.089a17.78,17.78,0,0,1-4.434.639c-.208,0-.427-.009-.652-.025a25.653,25.653,0,0,1-3.809-.649l-.286-.069c0-.021,0-.046,0-.067.012-.123.021-.257.028-.4,0-.091.01-.184.013-.281v0A65.088,65.088,0,0,0,2.076,12.789ZM8.224,29.057c-4.6,0-7.538-1.237-7.538-2.09,0-.267.456-.874,2.121-1.39q-.023.268-.057.466a.426.426,0,0,0,.26.5,25.053,25.053,0,0,0,5.214.846c.334,0,.665-.013.988-.035a18.774,18.774,0,0,0,4.243-.817.43.43,0,0,0,.244-.491q-.035-.2-.058-.466c1.665.516,2.121,1.124,2.121,1.39C15.762,27.82,12.825,29.057,8.224,29.057Z" transform="translate(0 -10.667)" fill="#fff"/>
  </g>
</svg>
