<svg xmlns="http://www.w3.org/2000/svg" width="24.479" height="24.482" viewBox="0 0 24.479 24.482">
  <g id="Group_4589" data-name="Group 4589" transform="translate(0)">
    <path id="Path_11666" data-name="Path 11666" d="M934.753,1490.244A12.239,12.239,0,1,1,922.517,1478,12.237,12.237,0,0,1,934.753,1490.244Zm-12.242,11.13a11.131,11.131,0,1,0-11.125-11.145A11.125,11.125,0,0,0,922.51,1501.374Z" transform="translate(-910.274 -1478)" fill="#9a9a9a"/>
    <path id="Path_11667" data-name="Path 11667" d="M949.119,1520.994c-.057.214-.112.428-.175.641-.008.026-.055.046-.088.057a14.852,14.852,0,0,1-1.67.528,2.492,2.492,0,0,1-2-.329,1.465,1.465,0,0,1-.649-1.33,9.362,9.362,0,0,1,.477-2.183q.276-1,.523-2a1.75,1.75,0,0,0,.027-.515.646.646,0,0,0-.752-.6,6.159,6.159,0,0,0-.862.142,2.3,2.3,0,0,0-.255.081c.065-.249.121-.468.183-.686a.13.13,0,0,1,.077-.071,8.636,8.636,0,0,1,2.012-.579,2.406,2.406,0,0,1,1.567.315,1.473,1.473,0,0,1,.684,1.357,8.726,8.726,0,0,1-.473,2.2q-.271,1.006-.52,2.017a1.879,1.879,0,0,0-.033.484c.008.392.3.63.777.642a2.558,2.558,0,0,0,1.017-.151.722.722,0,0,1,.074-.025C949.067,1520.98,949.078,1520.986,949.119,1520.994Z" transform="translate(-934.234 -1503.903)" fill="#9a9a9a"/>
    <path id="Path_11668" data-name="Path 11668" d="M953.9,1499.62a1.556,1.556,0,0,1,1.235.617,1.307,1.307,0,0,1-.111,1.745,1.656,1.656,0,0,1-2.513-.191,1.328,1.328,0,0,1,.248-1.77A1.677,1.677,0,0,1,953.9,1499.62Z" transform="translate(-940.39 -1493.5)" fill="#9a9a9a"/>
  </g>
</svg>
