<svg width="11" height="13" viewBox="0 0 11 13" fill="none" xmlns="http://www.w3.org/2000/svg">
<path d="M10.3503 1.40574C10.3575 1.63118 10.1872 1.76209 10.0408 1.90754C8.62324 3.32774 7.21295 4.75521 5.78085 6.16087C5.51188 6.42476 5.48696 6.55566 5.77151 6.83409C7.18387 8.21066 8.56924 9.61424 9.96395 11.0095C10.074 11.1196 10.1987 11.2235 10.2745 11.3555C10.4053 11.584 10.4001 11.8251 10.1987 12.0204C10.0003 12.2136 9.76663 12.2313 9.53712 12.0796C9.42289 12.0048 9.32527 11.903 9.22765 11.8053C7.6377 10.2147 6.04879 8.62415 4.45988 7.03149C4.06317 6.63358 4.05382 6.37177 4.44741 5.97594C6.07164 4.34588 7.70209 2.72205 9.32839 1.09302C9.5392 0.882122 9.76663 0.742907 10.0657 0.8842C10.2724 0.981859 10.3659 1.16159 10.3503 1.40574Z" fill="#787878"/>
<path d="M6.29937 0.834133C6.53304 0.823744 6.70647 0.931791 6.79266 1.14061C6.89443 1.38788 6.83109 1.60709 6.63481 1.79929C6.1654 2.25849 5.70431 2.72704 5.2401 3.19248C4.2504 4.18361 3.27213 5.18617 2.26478 6.16067C1.99062 6.4256 1.97296 6.56066 2.25751 6.83805C3.65638 8.20319 5.02928 9.59326 6.41153 10.9761C6.52161 11.0862 6.64104 11.1911 6.72827 11.3168C6.89547 11.5568 6.89443 11.8103 6.67946 12.0212C6.46346 12.2332 6.21525 12.2311 5.97744 12.0503C5.86839 11.9672 5.77181 11.8654 5.67419 11.7677C4.09774 10.1886 2.52233 8.60941 0.94692 7.02921C0.541903 6.62299 0.529441 6.38404 0.93342 5.97782C2.5566 4.34776 4.18602 2.72393 5.81439 1.1001C5.9494 0.965037 6.08232 0.821666 6.29937 0.834133Z" fill="#787878"/>
</svg>
