<svg width="13" height="13" viewBox="0 0 13 13" fill="none" xmlns="http://www.w3.org/2000/svg">
<path d="M1.64997 1.40574C1.6427 1.63118 1.81302 1.76209 1.95944 1.90754C3.377 3.32774 4.78729 4.75521 6.21939 6.16087C6.48836 6.42476 6.51329 6.55566 6.22874 6.83409C4.81637 8.21066 3.43101 9.61424 2.03629 11.0095C1.92621 11.1196 1.80159 11.2235 1.72578 11.3555C1.59493 11.584 1.60012 11.8251 1.80159 12.0204C1.99995 12.2136 2.23361 12.2313 2.46312 12.0796C2.57735 12.0048 2.67497 11.903 2.77259 11.8053C4.36254 10.2147 5.95146 8.62415 7.54037 7.03149C7.93708 6.63358 7.94642 6.37177 7.55283 5.97594C5.92861 4.34588 4.29816 2.72205 2.67186 1.09302C2.46104 0.882122 2.23361 0.742907 1.93452 0.8842C1.72786 0.981859 1.63439 1.16159 1.64997 1.40574Z" fill="#333333"/>
<path d="M5.70063 0.834133C5.46696 0.823744 5.29353 0.931791 5.20734 1.14061C5.10557 1.38788 5.16891 1.60709 5.36519 1.79929C5.8346 2.25849 6.29569 2.72704 6.7599 3.19248C7.7496 4.18361 8.72787 5.18617 9.73522 6.16067C10.0094 6.4256 10.027 6.56066 9.74249 6.83805C8.34362 8.20319 6.97072 9.59326 5.58847 10.9761C5.47839 11.0862 5.35896 11.1911 5.27173 11.3168C5.10453 11.5568 5.10557 11.8103 5.32054 12.0212C5.53654 12.2332 5.78475 12.2311 6.02256 12.0503C6.13161 11.9672 6.22819 11.8654 6.32581 11.7677C7.90226 10.1886 9.47767 8.60941 11.0531 7.02921C11.4581 6.62299 11.4706 6.38404 11.0666 5.97782C9.4434 4.34776 7.81398 2.72393 6.18561 1.1001C6.0506 0.965037 5.91768 0.821666 5.70063 0.834133Z" fill="#333333"/>
</svg>
