<svg xmlns="http://www.w3.org/2000/svg" width="20.524" height="20.169" viewBox="0 0 20.524 20.169">
  <path id="price-tag" d="M19.566,3.846,15.711,0H10.854L8.94,1.908A14.468,14.468,0,0,0,.289,4.227a.347.347,0,1,0,.4.564A13.833,13.833,0,0,1,8.281,2.564l-6.2,6.18,0,0L0,10.826l8.721,8.74L12.2,16.093a5.145,5.145,0,0,0,2.37.558,4.505,4.505,0,0,0,3.156-1.146A5.307,5.307,0,0,0,18.924,9.39l.641-.64v-4.9ZM15.424.694l3.448,3.44V8.462L12.1,15.216C10.68,14.2,10.248,12.3,10.885,9.8a.347.347,0,1,0-.672-.171c-.9,3.526.309,5.265,1.387,6.086l-.8.793L3.065,8.748,9.2,2.632a10.616,10.616,0,0,1,4.525,1.619,1.348,1.348,0,0,0-.024.235,1.383,1.383,0,1,0,.32-.867,11.3,11.3,0,0,0-4.2-1.6L11.14.694ZM14.5,4.786a.347.347,0,0,0,.416-.555c-.107-.08-.215-.151-.322-.226a.67.67,0,1,1-.153.739C14.463,4.759,14.483,4.771,14.5,4.786ZM.981,10.827,2.573,9.238,10.315,17,8.723,18.585ZM17.24,15.015a4.344,4.344,0,0,1-4.519.562L18.4,9.913A4.557,4.557,0,0,1,17.24,15.015Z" transform="translate(0.354 0.25)" fill="#d2d2d2" stroke="#d2d2d2" stroke-width="0.5"/>
</svg>
