<svg xmlns="http://www.w3.org/2000/svg" width="5.566" height="9.041" viewBox="0 0 5.566 9.041">
  <g id="Group_4622" data-name="Group 4622" transform="translate(-2410.267 -1088.354)">
    <path id="Path_11669" data-name="Path 11669" d="M2415.833,1092.907l-2.792-4.554-2.774,4.557c.915.568,1.81,1.125,2.708,1.676a.2.2,0,0,0,.166-.017q1.311-.8,2.616-1.6A.9.9,0,0,0,2415.833,1092.907Z" fill="#ff00c7"/>
    <path id="Path_11670" data-name="Path 11670" d="M2413.524,1116.612c-.79-.468-1.583-.93-2.375-1.394-.036-.021-.073-.039-.11-.058l-.016.023,2.626,3.736,2.658-3.743a.311.311,0,0,0-.143.049c-.8.463-1.6.923-2.394,1.391A.209.209,0,0,1,2413.524,1116.612Z" transform="translate(-0.606 -21.524)" fill="#ff00c7"/>
  </g>
</svg>
