<svg xmlns="http://www.w3.org/2000/svg" width="24.429" height="24.425" viewBox="0 0 24.429 24.425">
  <g id="push-pin" transform="translate(0.041)">
    <path id="Path_11461" data-name="Path 11461" d="M67.645,158.745a4.294,4.294,0,0,0-6.072,0l12.718,12.718a4.294,4.294,0,0,0,0-6.072Z" transform="translate(-58.675 -149.974)" fill="#333"/>
    <path id="Path_11462" data-name="Path 11462" d="M219.2,95.46l-5.033,3.4,6.254,6.254,3.4-5.033Z" transform="translate(-203.993 -90.906)" fill="#333"/>
    <path id="Path_11463" data-name="Path 11463" d="M334.752,0a2.863,2.863,0,0,0,0,4.048l3.61,3.61a2.863,2.863,0,0,0,4.048,0Z" transform="translate(-318.023)" fill="#333"/>
    <path id="Path_11464" data-name="Path 11464" d="M0,0H11V1.431H0Z" transform="translate(-0.041 23.413) rotate(-45)" fill="#333"/>
  </g>
</svg>
