<svg xmlns="http://www.w3.org/2000/svg" width="13.525" height="22.194" viewBox="0 0 13.525 22.194">
  <g id="question" transform="translate(-100)">
    <path id="Path_1262" data-name="Path 1262" d="M198.6,392a2.6,2.6,0,1,0,2.6,2.6A2.6,2.6,0,0,0,198.6,392Zm0,3.9a1.3,1.3,0,1,1,1.3-1.3A1.3,1.3,0,0,1,198.6,395.9Z" transform="translate(-91.839 -375.007)" fill="#ff00c7"/>
    <path id="Path_1263" data-name="Path 1263" d="M106.762,0A6.77,6.77,0,0,0,100,6.762v.65h5.2v-.65a1.561,1.561,0,1,1,2.569,1.191l-3.609,3.069v4.67h5.2V13.427l1.776-1.51A6.762,6.762,0,0,0,106.762,0ZM110.3,10.926l-2.234,1.9v1.566h-2.6V11.623l3.151-2.679a2.861,2.861,0,1,0-4.637-2.832h-2.637a5.462,5.462,0,1,1,8.958,4.814Z" transform="translate(0 0)" fill="#ff00c7"/>
  </g>
</svg>
