<svg xmlns="http://www.w3.org/2000/svg" width="23.671" height="23.294" viewBox="0 0 23.671 23.294">
  <g id="Group_4482" data-name="Group 4482" transform="translate(7851.355 3240.467)">
    <g id="Group_4483" data-name="Group 4483" transform="translate(-16904.83 368.836)">
      <circle id="Ellipse_186" data-name="Ellipse 186" cx="4.071" cy="4.071" r="4.071" transform="translate(9057.32 -3602.877)" fill="#333"/>
      <path id="Path_11468" data-name="Path 11468" d="M17.818,14H10.273A3.776,3.776,0,0,0,6.5,17.773v2.058A1.029,1.029,0,0,0,7.529,20.86H20.562a1.029,1.029,0,0,0,1.029-1.029V17.773A3.776,3.776,0,0,0,17.818,14Z" transform="translate(9046.976 -3606.868)" fill="#333"/>
    </g>
    <path id="Path_11614" data-name="Path 11614" d="M245.476,5.973l.764.015a.29.29,0,0,1,.284.308l-.13,2.116,2.955-2.334a.306.306,0,0,1,.182-.063l3.237.019a.946.946,0,0,0,.98-.907l.027-4.143A.883.883,0,0,0,253.5.339a1,1,0,0,0-.69-.278L245.518,0a.946.946,0,0,0-.979.907l-.026,4.143a.883.883,0,0,0,.274.645,1,1,0,0,0,.689.278Zm1.266-4.2h4.8a.291.291,0,0,1,0,.581h-4.8a.291.291,0,1,1,0-.581Zm0,1.695h2.906a.291.291,0,0,1,0,.581h-2.906a.291.291,0,1,1,0-.581Zm0,0" transform="translate(-8081.46 -3240.466)" fill="#333"/>
  </g>
</svg>
