<svg id="review" xmlns="http://www.w3.org/2000/svg" width="23.457" height="20.525" viewBox="0 0 23.457 20.525">
  <path id="Path_49" data-name="Path 49" d="M0,1.466V13.194A1.466,1.466,0,0,0,1.466,14.66h4.4V0h-4.4A1.466,1.466,0,0,0,0,1.466Z" transform="translate(0 5.864)" fill="#fff"/>
  <path id="Path_50" data-name="Path 50" d="M13.419,7.36H9.088a.733.733,0,0,1-.641-1.089l1.527-2.75A2.2,2.2,0,0,0,8.584.321L7.508.052a.732.732,0,0,0-.722.22L.94,6.767A3.663,3.663,0,0,0,0,9.218v7.671a3.669,3.669,0,0,0,3.665,3.665h7.292a3.673,3.673,0,0,0,3.535-2.7l1.565-7.181A2.707,2.707,0,0,0,13.419,7.36Z" transform="translate(7.33 -0.03)" fill="#fff"/>
</svg>
