<svg xmlns="http://www.w3.org/2000/svg" width="25.907" height="27" viewBox="0 0 25.907 27">
  <g id="sale" transform="translate(-0.546 0)">
    <g id="Group_2971" data-name="Group 2971">
      <g id="Group_2970" data-name="Group 2970">
        <path id="Path_1221" data-name="Path 1221" d="M25.2,13.85a.791.791,0,0,1,0-.7l1.007-2.06A2.344,2.344,0,0,0,25.2,7.978L23.175,6.9a.791.791,0,0,1-.411-.566l-.4-2.259A2.344,2.344,0,0,0,19.72,2.155l-2.27.321a.791.791,0,0,1-.665-.216L15.136.666a2.344,2.344,0,0,0-3.273,0L10.216,2.26a.792.792,0,0,1-.665.216L7.28,2.155A2.344,2.344,0,0,0,4.632,4.079l-.4,2.258a.791.791,0,0,1-.411.566L1.8,7.978A2.344,2.344,0,0,0,.788,11.09L1.8,13.15a.791.791,0,0,1,0,.7L.788,15.91A2.344,2.344,0,0,0,1.8,19.022L3.825,20.1a.791.791,0,0,1,.411.566l.4,2.259a2.342,2.342,0,0,0,2.311,1.947,2.408,2.408,0,0,0,.337-.024l2.27-.321a.791.791,0,0,1,.665.216l1.648,1.594a2.344,2.344,0,0,0,3.273,0l1.648-1.594a.792.792,0,0,1,.665-.216l2.27.321a2.344,2.344,0,0,0,2.648-1.924l.4-2.258a.791.791,0,0,1,.411-.566L25.2,19.022a2.344,2.344,0,0,0,1.011-3.113Zm-.734,3.8-2.026,1.075a2.339,2.339,0,0,0-1.215,1.672l-.4,2.258a.793.793,0,0,1-.9.651l-2.27-.321a2.338,2.338,0,0,0-1.966.639l-1.648,1.594a.793.793,0,0,1-1.107,0L11.3,23.621a2.336,2.336,0,0,0-1.631-.662,2.39,2.39,0,0,0-.335.024l-2.27.321a.793.793,0,0,1-.9-.651l-.4-2.259a2.338,2.338,0,0,0-1.215-1.672L2.529,17.647a.793.793,0,0,1-.342-1.053l1.007-2.06a2.339,2.339,0,0,0,0-2.067l-1.007-2.06a.793.793,0,0,1,.342-1.053L4.555,8.279A2.339,2.339,0,0,0,5.77,6.606l.4-2.258a.793.793,0,0,1,.9-.651l2.27.321A2.339,2.339,0,0,0,11.3,3.379l1.648-1.594a.793.793,0,0,1,1.107,0L15.7,3.379a2.338,2.338,0,0,0,1.966.639l2.27-.321a.793.793,0,0,1,.9.651l.4,2.259a2.338,2.338,0,0,0,1.215,1.672L24.47,9.353a.793.793,0,0,1,.342,1.053l-1.007,2.06a2.339,2.339,0,0,0,0,2.067l1.007,2.06A.793.793,0,0,1,24.47,17.647Z" fill="#333"/>
      </g>
    </g>
    <g id="Group_2973" data-name="Group 2973">
      <g id="Group_2972" data-name="Group 2972">
        <path id="Path_1222" data-name="Path 1222" d="M19.189,7.811a.779.779,0,0,0-1.1,0L7.811,18.088a.779.779,0,1,0,1.1,1.1L19.189,8.912A.779.779,0,0,0,19.189,7.811Z" fill="#333"/>
      </g>
    </g>
    <g id="Group_2975" data-name="Group 2975">
      <g id="Group_2974" data-name="Group 2974">
        <path id="Path_1223" data-name="Path 1223" d="M10.385,6.492A2.855,2.855,0,1,0,13.24,9.347,2.858,2.858,0,0,0,10.385,6.492Zm0,4.153a1.3,1.3,0,1,1,1.3-1.3A1.3,1.3,0,0,1,10.385,10.645Z" fill="#333"/>
      </g>
    </g>
    <g id="Group_2977" data-name="Group 2977">
      <g id="Group_2976" data-name="Group 2976">
        <path id="Path_1224" data-name="Path 1224" d="M16.614,14.8a2.855,2.855,0,1,0,2.855,2.855A2.858,2.858,0,0,0,16.614,14.8Zm0,4.153a1.3,1.3,0,1,1,1.3-1.3A1.3,1.3,0,0,1,16.614,18.95Z" fill="#333"/>
      </g>
    </g>
  </g>
</svg>
