<svg xmlns="http://www.w3.org/2000/svg" width="46.495" height="46.495" viewBox="0 0 46.495 46.495">
  <path id="search" d="M18.157,32.681H24.33v3.631H18.157Zm-6.809-.454a2.27,2.27,0,1,0,2.27,2.27A2.269,2.269,0,0,0,11.348,32.227ZM36.495,21.151H18.157v3.631H36.495ZM11.348,20.7a2.27,2.27,0,1,0,2.27,2.27A2.269,2.269,0,0,0,11.348,20.7Zm25.147-10.44H18.157v3.631H36.495ZM11.348,9.8a2.27,2.27,0,1,0,2.27,2.27A2.27,2.27,0,0,0,11.348,9.8ZM3.631,41.033V5.446A1.818,1.818,0,0,1,5.447,3.63H41.034A1.818,1.818,0,0,1,42.85,5.446V25.963h3.631V5.446A5.453,5.453,0,0,0,41.034,0H5.447A5.453,5.453,0,0,0,0,5.446V41.033A5.453,5.453,0,0,0,5.447,46.48H26.418V42.849H5.447a1.818,1.818,0,0,1-1.816-1.815Zm40.3,5.46L40.31,42.877a8.18,8.18,0,1,1,2.63-2.506l3.554,3.554Zm-7.794-6.1a4.539,4.539,0,1,0-4.539-4.539A4.544,4.544,0,0,0,36.132,40.4Zm0,0" transform="translate(0 0.002)" fill="#ff00c7"/>
</svg>
