<svg xmlns="http://www.w3.org/2000/svg" width="22.193" height="22.671" viewBox="0 0 22.193 22.671">
  <path id="settings-outline" d="M58.335,49.259a3.091,3.091,0,1,0,2.772,2.772,3.091,3.091,0,0,0-2.772-2.772Zm7.442,3.076a7.453,7.453,0,0,1-.074,1l2.183,1.713a.522.522,0,0,1,.118.664L65.94,59.29a.522.522,0,0,1-.635.222l-2.168-.873a.778.778,0,0,0-.733.085,7.943,7.943,0,0,1-1.04.606.77.77,0,0,0-.426.586l-.325,2.313a.535.535,0,0,1-.516.443H55.966a.537.537,0,0,1-.516-.428l-.325-2.31a.776.776,0,0,0-.435-.59,7.5,7.5,0,0,1-1.036-.607.773.773,0,0,0-.73-.083l-2.168.873a.522.522,0,0,1-.635-.221l-2.066-3.574a.522.522,0,0,1,.118-.664l1.845-1.449a.775.775,0,0,0,.29-.68c-.017-.2-.028-.4-.028-.6s.01-.4.028-.6a.773.773,0,0,0-.293-.673l-1.844-1.449a.522.522,0,0,1-.114-.661l2.066-3.574a.522.522,0,0,1,.635-.222l2.168.873a.778.778,0,0,0,.733-.085,7.943,7.943,0,0,1,1.04-.606.77.77,0,0,0,.426-.586l.325-2.313A.535.535,0,0,1,55.966,42H60.1a.537.537,0,0,1,.516.428l.325,2.31a.776.776,0,0,0,.435.59,7.5,7.5,0,0,1,1.036.607.773.773,0,0,0,.73.083l2.168-.873a.522.522,0,0,1,.635.221l2.066,3.574a.522.522,0,0,1-.118.664l-1.845,1.449a.775.775,0,0,0-.292.68C65.767,51.933,65.778,52.134,65.778,52.335Z" transform="translate(-46.935 -41)" fill="none" stroke="#333" stroke-linecap="round" stroke-linejoin="round" stroke-width="2"/>
</svg>
