<svg xmlns="http://www.w3.org/2000/svg" width="16.137" height="17.792" viewBox="0 0 16.137 17.792">
  <path id="settings-outline" d="M55.756,47.9a2.3,2.3,0,0,0-2.326,1.425,2.665,2.665,0,0,0,.457,2.849,2.192,2.192,0,0,0,2.633.494,2.554,2.554,0,0,0,1.317-2.516A2.427,2.427,0,0,0,55.756,47.9Zm5.588,2.5a6.542,6.542,0,0,1-.055.816L62.928,52.6a.448.448,0,0,1,.089.539l-1.551,2.9a.378.378,0,0,1-.476.18l-1.628-.709a.547.547,0,0,0-.55.069,5.873,5.873,0,0,1-.781.492.624.624,0,0,0-.32.476l-.244,1.879a.413.413,0,0,1-.387.36h-3.1a.413.413,0,0,1-.388-.348l-.244-1.876a.628.628,0,0,0-.326-.479,5.549,5.549,0,0,1-.778-.493.543.543,0,0,0-.548-.067l-1.628.709a.378.378,0,0,1-.476-.18l-1.551-2.9a.448.448,0,0,1,.089-.539l1.386-1.177a.654.654,0,0,0,.218-.552c-.013-.164-.021-.327-.021-.49s.008-.324.021-.485a.651.651,0,0,0-.22-.547l-1.385-1.177a.449.449,0,0,1-.086-.537l1.551-2.9a.378.378,0,0,1,.476-.18l1.628.709a.547.547,0,0,0,.55-.069,5.874,5.874,0,0,1,.781-.492.624.624,0,0,0,.32-.476l.244-1.879a.413.413,0,0,1,.387-.36h3.1a.413.413,0,0,1,.388.348l.244,1.876a.628.628,0,0,0,.326.479,5.549,5.549,0,0,1,.778.493.543.543,0,0,0,.548.067l1.628-.709a.378.378,0,0,1,.476.18l1.551,2.9a.448.448,0,0,1-.089.539l-1.386,1.177a.654.654,0,0,0-.219.552C61.336,50.069,61.344,50.232,61.344,50.4Z" transform="translate(-47.459 -41.5)" fill="none" stroke="#ff00c7" stroke-linecap="round" stroke-linejoin="round" stroke-width="1"/>
</svg>
