<svg id="spinner-of-dots" xmlns="http://www.w3.org/2000/svg" width="19.199" height="20" viewBox="0 0 19.199 20">
  <g id="Group_17" data-name="Group 17">
    <path id="Path_23" data-name="Path 23" d="M70.325,324.332a1.8,1.8,0,1,0,1.269.525A1.736,1.736,0,0,0,70.325,324.332Z" transform="translate(-65.925 -310.132)" fill="#d2d2d2"/>
    <path id="Path_24" data-name="Path 24" d="M13.142,193.857a2,2,0,0,0-3.413-1.413,2,2,0,1,0,2.825,2.825A1.925,1.925,0,0,0,13.142,193.857Z" transform="translate(-9.142 -183.457)" fill="#d2d2d2"/>
    <path id="Path_25" data-name="Path 25" d="M343.611,88.794a1,1,0,1,0-.706-.294A.963.963,0,0,0,343.611,88.794Z" transform="translate(-328.011 -82.994)" fill="#d2d2d2"/>
    <path id="Path_26" data-name="Path 26" d="M61.593,59.388a2.2,2.2,0,1,0,1.556.644A2.12,2.12,0,0,0,61.593,59.388Z" transform="translate(-57.193 -56.788)" fill="#d2d2d2"/>
    <path id="Path_27" data-name="Path 27" d="M394.92,210.483a1.208,1.208,0,1,0,.35.85A1.157,1.157,0,0,0,394.92,210.483Z" transform="translate(-376.07 -200.933)" fill="#d2d2d2"/>
    <path id="Path_28" data-name="Path 28" d="M334.874,333.473a1.408,1.408,0,1,0,.987.412A1.347,1.347,0,0,0,334.874,333.473Z" transform="translate(-319.274 -318.873)" fill="#d2d2d2"/>
    <path id="Path_29" data-name="Path 29" d="M202.6,383.717a1.6,1.6,0,1,0,1.131.469A1.542,1.542,0,0,0,202.6,383.717Z" transform="translate(-192.598 -366.917)" fill="#d2d2d2"/>
    <path id="Path_30" data-name="Path 30" d="M185.127,0a2.315,2.315,0,0,0-1.7.7,2.315,2.315,0,0,0-.7,1.7,2.314,2.314,0,0,0,.7,1.7,2.415,2.415,0,0,0,3.4,0,2.315,2.315,0,0,0,.7-1.7,2.316,2.316,0,0,0-.7-1.7A2.314,2.314,0,0,0,185.127,0Z" transform="translate(-175.127)" fill="#d2d2d2"/>
  </g>
</svg>
