<svg xmlns="http://www.w3.org/2000/svg" width="30.274" height="30.274" viewBox="0 0 30.274 30.274">
  <g id="Page-1" transform="translate(0.25 0.25)">
    <g id="_049---Contacts" data-name="049---Contacts">
      <path id="Shape" d="M27.293,0H5.459A2.485,2.485,0,0,0,3.028,1.985H1.985a1.985,1.985,0,0,0,0,3.97h.992V7.443H1.985a1.985,1.985,0,1,0,0,3.97h.992V12.9H1.985a1.985,1.985,0,0,0,0,3.97h.992v1.489H1.985a1.985,1.985,0,1,0,0,3.97h.992v1.489H1.985a1.985,1.985,0,0,0,0,3.97H3.028a2.485,2.485,0,0,0,2.431,1.985H27.293a2.484,2.484,0,0,0,2.481-2.481V2.481A2.484,2.484,0,0,0,27.293,0ZM.992,3.97a.994.994,0,0,1,.992-.992H4.962a.992.992,0,0,1,0,1.985H1.985A.994.994,0,0,1,.992,3.97Zm0,5.459a.994.994,0,0,1,.992-.992H4.962a.992.992,0,1,1,0,1.985H1.985A.994.994,0,0,1,.992,9.428Zm0,5.459a.994.994,0,0,1,.992-.992H4.962a.992.992,0,1,1,0,1.985H1.985A.994.994,0,0,1,.992,14.887Zm0,5.459a.994.994,0,0,1,.992-.992H4.962a.992.992,0,1,1,0,1.985H1.985A.994.994,0,0,1,.992,20.346Zm0,5.459a.994.994,0,0,1,.992-.992H4.962a.992.992,0,0,1,0,1.985H1.985A.994.994,0,0,1,.992,25.8Zm3.069,1.985h.9a1.985,1.985,0,0,0,0-3.97H3.97V22.33h.992a1.985,1.985,0,1,0,0-3.97H3.97V16.872h.992a1.985,1.985,0,0,0,0-3.97H3.97V11.413h.992a1.985,1.985,0,1,0,0-3.97H3.97V5.955h.992a1.985,1.985,0,0,0,0-3.97h-.9a1.486,1.486,0,0,1,1.4-.992H7.94V28.782H5.459A1.486,1.486,0,0,1,4.061,27.789Zm24.72-.5a1.49,1.49,0,0,1-1.489,1.489H8.932V.992H27.293a1.49,1.49,0,0,1,1.489,1.489Z" fill="#fff" stroke="#fff" stroke-width="0.5"/>
      <path id="Shape-2" data-name="Shape" d="M28.932,12a8.917,8.917,0,0,0-6.646,14.879.494.494,0,0,0,.145.159,8.89,8.89,0,0,0,13,0,.494.494,0,0,0,.145-.159A8.917,8.917,0,0,0,28.932,12Zm0,16.872A7.913,7.913,0,0,1,23.284,26.5a5.948,5.948,0,0,1,11.3,0A7.913,7.913,0,0,1,28.932,28.872ZM25.955,18.451a2.977,2.977,0,1,1,2.977,2.977A2.977,2.977,0,0,1,25.955,18.451Zm9.357,7.187a6.963,6.963,0,0,0-4.22-3.861,3.97,3.97,0,1,0-4.32,0,6.963,6.963,0,0,0-4.22,3.861,7.94,7.94,0,1,1,12.76,0Z" transform="translate(-10.075 -6.045)" fill="#fff" stroke="#fff" stroke-width="0.5"/>
    </g>
  </g>
</svg>
