<svg id="customer-reviews" xmlns="http://www.w3.org/2000/svg" width="72.235" height="47.558" viewBox="0 0 72.235 47.558">
  <g id="Group_2834" data-name="Group 2834">
    <path id="Path_11422" data-name="Path 11422" d="M65.826,97.075a24.64,24.64,0,0,0-14.98-4.783,26.287,26.287,0,0,0-9.664,1.795A18.2,18.2,0,0,0,34.1,86.964,25.382,25.382,0,0,0,21.39,83.7,24.64,24.64,0,0,0,6.41,88.482C2.276,91.654,0,95.909,0,100.462a14.816,14.816,0,0,0,5.3,11.058l.058,9.988a1.417,1.417,0,0,0,.731,1.265,1.558,1.558,0,0,0,1.461.014L17.91,117a27.513,27.513,0,0,0,3.48.221h0a26.378,26.378,0,0,0,9.651-1.795,17.107,17.107,0,0,0,4.823,5.605,24.64,24.64,0,0,0,14.98,4.783,27.537,27.537,0,0,0,3.5-.223l10.375,5.468a1.321,1.321,0,0,0,1.445-.04,1.5,1.5,0,0,0,.716-1.256l.058-9.654a14.816,14.816,0,0,0,5.3-11.058C72.235,104.5,69.959,100.248,65.826,97.075Zm-44.435,17.2h0a24.534,24.534,0,0,1-3.584-.263,1.471,1.471,0,0,0-1.137.307L8.289,119l-.047-8.135c0-.029,0-.059,0-.089a1.474,1.474,0,0,0-.531-1.066,12.1,12.1,0,0,1-4.761-9.245c0-7.617,8.273-13.814,18.442-13.814,7.534,0,14.345,3.519,17.123,8.7a21.238,21.238,0,0,0-2.648,1.73c-4.133,3.173-6.41,7.428-6.41,11.98a13.509,13.509,0,0,0,.5,3.635A23.408,23.408,0,0,1,21.391,114.276ZM64.526,118.3a1.475,1.475,0,0,0-.531,1.066c0,.027,0,.054,0,.08l-.047,7.876-8.406-4.43a1.469,1.469,0,0,0-1.111-.286,24.5,24.5,0,0,1-3.584.263c-8.327,0-15.382-4.156-17.664-9.845-.009-.028-.022-.055-.033-.082a10.606,10.606,0,0,1-.745-3.888c0-4.9,3.426-9.214,8.577-11.667l.011,0a1.471,1.471,0,0,0,.166-.079,23.075,23.075,0,0,1,9.688-2.065c10.169,0,18.442,6.2,18.442,13.814A12.1,12.1,0,0,1,64.526,118.3Z" transform="translate(0 -83.699)" fill="#f702c4"/>
    <path id="Path_11423" data-name="Path 11423" d="M294.95,222.2H277.629a1.474,1.474,0,1,0,0,2.948H294.95a1.474,1.474,0,0,0,0-2.948Z" transform="translate(-235.444 -201.778)" fill="#f702c4"/>
    <path id="Path_11424" data-name="Path 11424" d="M294.95,267.469H277.629a1.474,1.474,0,1,0,0,2.948H294.95a1.474,1.474,0,1,0,0-2.948Z" transform="translate(-235.444 -240.378)" fill="#f702c4"/>
  </g>
  <g id="Group_2835" data-name="Group 2835">
    <path id="Path_11425" data-name="Path 11425" d="M65.826,97.075a24.64,24.64,0,0,0-14.98-4.783,26.287,26.287,0,0,0-9.664,1.795A18.2,18.2,0,0,0,34.1,86.964,25.382,25.382,0,0,0,21.39,83.7,24.64,24.64,0,0,0,6.41,88.482C2.276,91.654,0,95.909,0,100.462a14.816,14.816,0,0,0,5.3,11.058l.058,9.988a1.417,1.417,0,0,0,.731,1.265,1.558,1.558,0,0,0,1.461.014L17.91,117a27.513,27.513,0,0,0,3.48.221h0a26.378,26.378,0,0,0,9.651-1.795,17.107,17.107,0,0,0,4.823,5.605,24.64,24.64,0,0,0,14.98,4.783,27.537,27.537,0,0,0,3.5-.223l10.375,5.468a1.321,1.321,0,0,0,1.445-.04,1.5,1.5,0,0,0,.716-1.256l.058-9.654a14.816,14.816,0,0,0,5.3-11.058C72.235,104.5,69.959,100.248,65.826,97.075Zm-44.435,17.2h0a24.534,24.534,0,0,1-3.584-.263,1.471,1.471,0,0,0-1.137.307L8.289,119l-.047-8.135c0-.029,0-.059,0-.089a1.474,1.474,0,0,0-.531-1.066,12.1,12.1,0,0,1-4.761-9.245c0-7.617,8.273-13.814,18.442-13.814,7.534,0,14.345,3.519,17.123,8.7a21.238,21.238,0,0,0-2.648,1.73c-4.133,3.173-6.41,7.428-6.41,11.98a13.509,13.509,0,0,0,.5,3.635A23.408,23.408,0,0,1,21.391,114.276ZM64.526,118.3a1.475,1.475,0,0,0-.531,1.066c0,.027,0,.054,0,.08l-.047,7.876-8.406-4.43a1.469,1.469,0,0,0-1.111-.286,24.5,24.5,0,0,1-3.584.263c-8.327,0-15.382-4.156-17.664-9.845-.009-.028-.022-.055-.033-.082a10.606,10.606,0,0,1-.745-3.888c0-7.766,8.4-13.814,18.442-13.814s18.442,6.2,18.442,13.814A12.1,12.1,0,0,1,64.526,118.3Z" transform="translate(0 -83.699)" fill="#f702c4"/>
    <path id="Path_11426" data-name="Path 11426" d="M294.95,222.2H277.629a1.474,1.474,0,1,0,0,2.948H294.95a1.474,1.474,0,0,0,0-2.948Z" transform="translate(-235.444 -201.778)" fill="#f702c4"/>
    <path id="Path_11427" data-name="Path 11427" d="M294.95,267.469H277.629a1.474,1.474,0,1,0,0,2.948H294.95a1.474,1.474,0,1,0,0-2.948Z" transform="translate(-235.444 -240.378)" fill="#f702c4"/>
  </g>
</svg>
