<svg xmlns="http://www.w3.org/2000/svg" width="20" height="17.6" viewBox="0 0 20 17.6">
  <g id="Group_5259" data-name="Group 5259" transform="translate(-98 -85)">
    <path id="ant-design_menu-unfold-outlined" d="M119.4,167.05h12a.2.2,0,0,0,.2-.2v-1.4a.2.2,0,0,0-.2-.2h-12a.2.2,0,0,0-.2.2v1.4A.2.2,0,0,0,119.4,167.05Zm-.2,5.1a.2.2,0,0,0,.2.2h12a.2.2,0,0,0,.2-.2v-1.4a.2.2,0,0,0-.2-.2h-12a.2.2,0,0,0-.2.2ZM131.8,160H112.2a.2.2,0,0,0-.2.2v1.4a.2.2,0,0,0,.2.2h19.6a.2.2,0,0,0,.2-.2v-1.4A.2.2,0,0,0,131.8,160Zm0,15.8H112.2a.2.2,0,0,0-.2.2v1.4a.2.2,0,0,0,.2.2h19.6a.2.2,0,0,0,.2-.2V176A.2.2,0,0,0,131.8,175.8Zm-19.04-3.747,3.908-3.078a.221.221,0,0,0,0-.348l-3.908-3.08a.222.222,0,0,0-.36.172v6.158a.223.223,0,0,0,.36.175Z" transform="translate(-14 -75)" fill="#999"/>
  </g>
</svg>
