<svg xmlns="http://www.w3.org/2000/svg" width="27.845" height="21.86" viewBox="0 0 27.845 21.86">
  <g id="Group_4902" data-name="Group 4902" transform="translate(0 0)">
    <path id="Path_11760" data-name="Path 11760" d="M23.2,62.275A9.571,9.571,0,0,0,4.372,63.911a5.22,5.22,0,0,0,.87,10.371h4.35v-1.74H5.242a3.48,3.48,0,0,1,0-6.961.87.87,0,0,0,.87-.87,7.831,7.831,0,0,1,15.513-1.523.87.87,0,0,0,.74.7,4.35,4.35,0,0,1-.592,8.657h-3.48v1.74h3.48A6.091,6.091,0,0,0,23.2,62.275Z" transform="translate(0 -55.032)" fill="#ff00c7"/>
    <path id="Path_11761" data-name="Path 11761" d="M184.515,249.264l-3.48,3.48,1.227,1.227,2-1.993v8.344H186v-8.344L188,253.971l1.227-1.227-3.48-3.48A.87.87,0,0,0,184.515,249.264Z" transform="translate(-171.19 -238.462)" fill="#ff00c7"/>
  </g>
</svg>
