<svg xmlns="http://www.w3.org/2000/svg" width="29.564" height="19.005" viewBox="0 0 29.564 19.005">
  <path id="_ionicons_svg_md-people" d="M52.157,119.919a3.96,3.96,0,1,0-4.031-3.959A4.008,4.008,0,0,0,52.157,119.919Zm-10.75,0a3.96,3.96,0,1,0-4.031-3.959A4.008,4.008,0,0,0,41.407,119.919Zm0,2.9c-3.158,0-9.407,1.518-9.407,4.619v3.563H51.005v-3.563C51.005,124.34,44.565,122.822,41.407,122.822Zm10.75.726a7.169,7.169,0,0,0-1.152.066c1.546,1.122,2.112,1.848,2.112,3.827v3.563h8.447v-3.563C61.564,124.34,55.315,123.548,52.157,123.548Z" transform="translate(-32 -112)" fill="#ff00c7"/>
</svg>
