<svg xmlns="http://www.w3.org/2000/svg" xmlns:xlink="http://www.w3.org/1999/xlink" width="26" height="26" viewBox="0 0 26 26">
  <defs>
    <clipPath id="clip-path">
      <rect id="Rectangle_445" data-name="Rectangle 445" width="26" height="26" transform="translate(1843.466 193.466)" fill="#999"/>
    </clipPath>
  </defs>
  <g id="Mask_Group_5" data-name="Mask Group 5" transform="translate(-1843.466 -193.466)" clip-path="url(#clip-path)">
    <path id="settings-outline" d="M14.633,10.626a3.747,3.747,0,1,0,3.361,3.361,3.747,3.747,0,0,0-3.361-3.361Zm9.022,3.729a9.036,9.036,0,0,1-.09,1.217l2.647,2.076a.633.633,0,0,1,.143.805l-2.5,4.332a.633.633,0,0,1-.769.269L20.454,22a.943.943,0,0,0-.888.1,9.629,9.629,0,0,1-1.261.734.933.933,0,0,0-.516.711l-.394,2.8a.649.649,0,0,1-.625.537H11.761a.65.65,0,0,1-.626-.519l-.393-2.8a.941.941,0,0,0-.527-.715,9.092,9.092,0,0,1-1.256-.736.937.937,0,0,0-.885-.1L5.445,23.072a.633.633,0,0,1-.769-.268l-2.5-4.332a.632.632,0,0,1,.143-.805L4.553,15.91a.94.94,0,0,0,.351-.824c-.021-.244-.034-.488-.034-.732s.012-.484.034-.723a.937.937,0,0,0-.355-.816L2.313,11.058a.633.633,0,0,1-.139-.8l2.5-4.332a.633.633,0,0,1,.769-.269L8.076,6.714a.943.943,0,0,0,.888-.1,9.63,9.63,0,0,1,1.261-.734.933.933,0,0,0,.516-.711l.394-2.8a.649.649,0,0,1,.625-.537h5.008a.65.65,0,0,1,.626.519l.393,2.8a.941.941,0,0,0,.527.715,9.092,9.092,0,0,1,1.256.736.937.937,0,0,0,.885.1l2.628-1.058a.633.633,0,0,1,.769.268l2.5,4.332a.632.632,0,0,1-.143.805L23.977,12.8a.94.94,0,0,0-.354.824C23.642,13.867,23.655,14.111,23.655,14.355Z" transform="translate(1842.201 192.111)" fill="none" stroke="#333" stroke-linecap="round" stroke-linejoin="round" stroke-width="1.391"/>
  </g>
</svg>
