<svg xmlns="http://www.w3.org/2000/svg" width="25.446" height="19.263" viewBox="0 0 25.446 19.263">
  <g id="Group" transform="translate(-0.296 -0.203)">
    <path id="Path_11956" data-name="Path 11956" d="M19.562,14.552c-1.116,4.429-1.747,4.908-6.328,4.908-2.718,0-5.437.017-8.153,0C1.96,19.431.345,17.83.318,14.7q-.044-4.906,0-9.814C.35,1.966,1.936.309,4.835.25c3.325-.066,6.652-.056,9.98,0,2.76.044,4.156,1.36,4.54,4.1.032.233.078.467.141.825,1.51-.9,2.928-1.753,4.355-2.59,1.223-.717,1.861-.39,1.871,1.016q.04,6.257,0,12.512c-.01,1.407-.648,1.733-1.871,1.012C22.419,16.288,21.009,15.421,19.562,14.552Z" fill="#999"/>
    <path id="Path_11957" data-name="Path 11957" d="M9.561,17.378c-1.661,0-3.325.022-4.986-.007a2.3,2.3,0,0,1-2.519-2.5q-.044-5.211,0-10.42A2.257,2.257,0,0,1,4.506,2q5.17-.055,10.338,0A2.265,2.265,0,0,1,17.3,4.441q.055,5.208,0,10.415a2.3,2.3,0,0,1-2.511,2.512C13.046,17.4,11.3,17.378,9.561,17.378Z" transform="translate(0.17 0.172)" fill="#fff"/>
    <path id="Path_11958" data-name="Path 11958" d="M22.072,4.431v9.981c-1.425-.847-2.735-1.628-4.046-2.409a.665.665,0,0,1-.334-.609c0-1.306-.01-2.612.01-3.916a.712.712,0,0,1,.248-.518C19.274,6.125,20.613,5.32,22.072,4.431Z" transform="translate(1.698 0.413)" fill="#fdfdfd"/>
  </g>
</svg>
