<svg xmlns="http://www.w3.org/2000/svg" width="31.192" height="26.563" viewBox="0 0 31.192 26.563">
  <g id="Group_4571" data-name="Group 4571" transform="translate(-2391.096 -1078)">
    <path id="Path_11662" data-name="Path 11662" d="M2422.284,1079.468a1.232,1.232,0,0,0-.793-1.178,1.209,1.209,0,0,0-1.352.349,2.563,2.563,0,0,0-.5.763c-1.12,2.635-2.225,5.275-3.335,7.914-.038.09-.082.177-.145.313a12.714,12.714,0,1,0-24.455,6.925,12.3,12.3,0,0,0,6.209,7.4,12.627,12.627,0,0,0,11.808.039,2.333,2.333,0,0,1-.168.245c-.308.338-.605.688-.936,1-.279.267-.607.481-.9.74a2.733,2.733,0,0,0-.327.437,2.349,2.349,0,0,0,.534.144,3.345,3.345,0,0,0,.761-.073,15.384,15.384,0,0,0,6.078-2.72,4.1,4.1,0,0,0,1.534-2.07,2.54,2.54,0,0,0-.01-1.7,2.085,2.085,0,0,1-2.6.585,2.382,2.382,0,0,1-1.059-2.52,2.963,2.963,0,0,0-2.075,2.389.623.623,0,0,1-.213.385,10.149,10.149,0,0,1-7.918,2.217,10.382,10.382,0,1,1,11.759-11.379c.006.061.012.123.017.184.027.307.044.617.044.931a10.4,10.4,0,0,1-.064,1.139h0a4.965,4.965,0,0,1-.524,1.672,6.219,6.219,0,0,0-.288.681,3.193,3.193,0,0,0-.173,1.816,1.937,1.937,0,0,0,3.176,1.249,3.14,3.14,0,0,0,1.154-1.694q.74-2.441,1.481-4.88,1.586-5.221,3.166-10.444A2.5,2.5,0,0,0,2422.284,1079.468Zm-6.636,9.387c-.273.661-.551,1.32-.829,1.979,0-.015,0-.031,0-.046a11.007,11.007,0,1,0-4.33,8.718c-.018.227-.035.447-.051.662a1.174,1.174,0,0,1-.688,1.018,12.039,12.039,0,1,1,5.905-12.588A.488.488,0,0,1,2415.648,1088.854Z" transform="translate(0 0)" fill="#ff00c7"/>
    <path id="Path_11663" data-name="Path 11663" d="M2421.05,1097.175l-5.407-8.822-5.375,8.828c1.772,1.1,3.506,2.18,5.247,3.248a.381.381,0,0,0,.322-.034q2.539-1.544,5.068-3.1A1.735,1.735,0,0,0,2421.05,1097.175Z" transform="translate(-11.853 -6.401)" fill="#ff00c7"/>
    <path id="Path_11664" data-name="Path 11664" d="M2415.869,1117.974c-1.531-.906-3.067-1.8-4.6-2.7-.069-.041-.142-.076-.213-.113l-.031.045,5.088,7.238,5.15-7.252a.6.6,0,0,0-.278.094c-1.547.9-3.1,1.789-4.637,2.694A.4.4,0,0,1,2415.869,1117.974Z" transform="translate(-12.32 -22.975)" fill="#ff00c7"/>
  </g>
</svg>
