<svg xmlns="http://www.w3.org/2000/svg" width="27.629" height="27.617" viewBox="0 0 27.629 27.617">
  <g id="Group_4518" data-name="Group 4518" transform="translate(-1067.857 -1549)">
    <path id="Path_11633" data-name="Path 11633" d="M1087.708,1566.3a5.414,5.414,0,0,1,6,.876,4.9,4.9,0,0,1,1.7,3.041,5.4,5.4,0,0,1-4.477,6.321,5.205,5.205,0,0,1-5.186-2.112,5.352,5.352,0,0,1-.59-5.577,7.039,7.039,0,0,1-6.942-.017,1.041,1.041,0,0,0,.025.162c.117.365.247.725.35,1.094a4.046,4.046,0,0,1,.078.558,2.75,2.75,0,0,1,.057.439,5.808,5.808,0,0,1-.832,2.943,5.412,5.412,0,0,1-1.33,1.478,5.554,5.554,0,0,1-3.644,1.1,5.5,5.5,0,0,1-2.487-.809,5.268,5.268,0,0,1-1.785-1.812,5.8,5.8,0,0,1-.581-1.349,5.663,5.663,0,0,1-.166-2.022,4.666,4.666,0,0,1,.413-1.579,5.546,5.546,0,0,1,1.159-1.689,5.555,5.555,0,0,1,3.761-1.571,5.532,5.532,0,0,1,2.237.462.42.42,0,0,0,.163.036,7.579,7.579,0,0,1-.863-3.472,7.456,7.456,0,0,1,.9-3.463,5.406,5.406,0,0,1-6.575-1.491,5.046,5.046,0,0,1-1.187-4.056,5.236,5.236,0,0,1,2.175-3.724,5.164,5.164,0,0,1,3.851-1.015,5.24,5.24,0,0,1,4.108,2.8,5.33,5.33,0,0,1,.1,4.99,7.1,7.1,0,0,1,7.066-.007,5.357,5.357,0,0,1,.761-5.927,5.091,5.091,0,0,1,3.657-1.882,5.4,5.4,0,0,1,5.839,5.957,5.157,5.157,0,0,1-2.75,4.163,5.3,5.3,0,0,1-4.983.167l-.029.03a1.087,1.087,0,0,0,.059.17,6.857,6.857,0,0,1,.75,2.134,7.522,7.522,0,0,1,.059,1.884,5.349,5.349,0,0,1-.468,1.864c-.114.245-.223.493-.333.741C1087.749,1566.175,1087.738,1566.216,1087.708,1566.3Zm-1.517,1.139c.068.377.135.716.185,1.059a.547.547,0,0,1-.04.311,4.965,4.965,0,0,0-.528,1.288,8.176,8.176,0,0,0-.149.9,3.838,3.838,0,0,0,.111,1.153,4.114,4.114,0,0,0,.755,1.665,4.564,4.564,0,0,0,1.6,1.336,4.316,4.316,0,0,0,1.51.429,4.43,4.43,0,0,0,1.976-.258,4.369,4.369,0,0,0,1.909-1.373,3.951,3.951,0,0,0,.659-1.157,3.377,3.377,0,0,0,.281-1.308c0-.046.009-.092.008-.138a3.919,3.919,0,0,0-.579-2.375,4.392,4.392,0,0,0-1.5-1.534,4.256,4.256,0,0,0-1.36-.547,4.8,4.8,0,0,0-1.648-.055,4.353,4.353,0,0,0-1.713.641.694.694,0,0,1-.384.12c-.318-.029-.631-.1-.947-.157A.973.973,0,0,0,1086.191,1567.44Zm-8.474-13.152a9.13,9.13,0,0,0-.151-.916,4.6,4.6,0,0,0-.633-1.422,4.29,4.29,0,0,0-1.531-1.394,4.435,4.435,0,0,0-1.69-.522,4.38,4.38,0,0,0-1.656.151,4.086,4.086,0,0,0-1.447.728,4.3,4.3,0,0,0-1.361,1.736,7.19,7.19,0,0,0-.331,1.1,2.8,2.8,0,0,0-.067.728,6.933,6.933,0,0,0,.109.783,3.9,3.9,0,0,0,.532,1.43,4.39,4.39,0,0,0,1.565,1.553,4.594,4.594,0,0,0,2.054.6,4.357,4.357,0,0,0,1.107-.112,4.266,4.266,0,0,0,1.363-.533.714.714,0,0,1,.49-.148c.292.051.583.1.876.143.158.023.2-.041.16-.2a7.494,7.494,0,0,1-.157-.808.661.661,0,0,1,.074-.393A5.009,5.009,0,0,0,1077.717,1554.288Zm12.452,4.567c.114-.017.295-.05.476-.068a4.065,4.065,0,0,0,1.235-.336,4.37,4.37,0,0,0,1.741-1.4,4.49,4.49,0,0,0,.679-1.368,4.206,4.206,0,0,0,.184-1.313,4.416,4.416,0,0,0-4.52-4.357,4.651,4.651,0,0,0-.985.146,4.351,4.351,0,0,0-2.76,2.117,4.728,4.728,0,0,0-.565,1.987,3.3,3.3,0,0,0,.133,1.18,6.27,6.27,0,0,0,.459,1.166,1.036,1.036,0,0,1,.128.7c-.037.226-.084.452-.127.678-.03.157.012.218.155.2a3.858,3.858,0,0,0,.741-.107.7.7,0,0,1,.626.1A4.719,4.719,0,0,0,1090.168,1558.854Zm-13.009,8.592a.693.693,0,0,0-.141-.009c-.281.045-.565.082-.843.145a.524.524,0,0,1-.425-.058c-.078-.05-.16-.093-.238-.141a3.9,3.9,0,0,0-1.4-.528,4.6,4.6,0,0,0-2.1.107,4.291,4.291,0,0,0-1.965,1.232,7.76,7.76,0,0,0-.6.83,3.474,3.474,0,0,0-.533,1.553,2.536,2.536,0,0,0-.033.924c.06.257.073.531.13.795a4.064,4.064,0,0,0,.809,1.64,4.4,4.4,0,0,0,1.423,1.176,4.311,4.311,0,0,0,1.61.47,4.411,4.411,0,0,0,1.756-.188,4.376,4.376,0,0,0,2.978-5.121,4.481,4.481,0,0,0-.536-1.381.58.58,0,0,1-.074-.336C1077.026,1568.193,1077.1,1567.834,1077.159,1567.447Zm8.61-4.589a4.089,4.089,0,0,0-1.147-2.872,3.984,3.984,0,0,0-2.944-1.255,3.932,3.932,0,0,0-2.813,1.119,4.1,4.1,0,0,0-.1,5.847,4.084,4.084,0,0,0,5.831-.005A4.066,4.066,0,0,0,1085.769,1562.858Zm-7.819-3.513c-.253-.036-.49-.061-.725-.1a.408.408,0,0,0-.449.24,7.518,7.518,0,0,0-.67,1.328,5.916,5.916,0,0,0-.358,2,5.547,5.547,0,0,0,.2,1.5,5.807,5.807,0,0,0,.958,2.01.245.245,0,0,0,.178.088c.193-.012.383-.048.575-.071.1-.012.2-.015.311-.023a5.137,5.137,0,0,1-.016-6.971Zm7.488,6.954c.2.031.419.056.636.1s.336.024.442-.163c.216-.377.441-.75.623-1.144a4.586,4.586,0,0,0,.425-1.839c0-.071.022-.141.029-.213a2.045,2.045,0,0,0,.021-.365c-.027-.284-.06-.567-.113-.847a7.726,7.726,0,0,0-.223-.935,5.1,5.1,0,0,0-.8-1.546.3.3,0,0,0-.216-.1c-.193.006-.386.046-.58.065a2.6,2.6,0,0,1-.264,0A5.165,5.165,0,0,1,1085.438,1566.3Zm-7.152-7.32a5.22,5.22,0,0,1,6.8.015c0-.07,0-.135.011-.2a4.557,4.557,0,0,1,.091-.54c.031-.112.024-.185-.074-.25-.059-.039-.112-.089-.172-.129a5.391,5.391,0,0,0-1.595-.738,3.783,3.783,0,0,0-.924-.191,5.147,5.147,0,0,0-1.08-.032c-.315.06-.644.065-.965.132a5.737,5.737,0,0,0-2.019.864c-.156.1-.291.205-.169.418.014.024,0,.061.008.091C1078.23,1558.61,1078.259,1558.8,1078.286,1558.979Zm0,7.688c-.029.27-.068.536-.081.8a.3.3,0,0,0,.111.231,5.84,5.84,0,0,0,.822.476,6.437,6.437,0,0,0,1.909.533,6.033,6.033,0,0,0,2.041-.13,5.533,5.533,0,0,0,1.922-.862.284.284,0,0,0,.147-.293c-.024-.182-.052-.363-.073-.544a2.011,2.011,0,0,1,0-.232A5.207,5.207,0,0,1,1078.288,1566.667Z" transform="translate(0)" fill="#ff00c7"/>
    <path id="Path_11634" data-name="Path 11634" d="M1083.882,1582.181a1.487,1.487,0,0,1,.336.191c.458.446.9.9,1.356,1.359l.021.022c.2.218.242.209.447,0,.381-.393.772-.777,1.161-1.163a2.118,2.118,0,0,1,.3-.279.491.491,0,0,1,.787.393.522.522,0,0,1-.159.351c-.217.244-.458.467-.688.7-.3.306-.6.618-.9.922a4.807,4.807,0,0,1-.432.392.438.438,0,0,1-.575.014,1.175,1.175,0,0,1-.191-.154c-.574-.571-1.148-1.141-1.715-1.718a1.093,1.093,0,0,1-.242-.348A.519.519,0,0,1,1083.882,1582.181Z" transform="translate(-4.145 -8.87)" fill="#ff00c7"/>
    <path id="Path_11635" data-name="Path 11635" d="M1071.293,1564.978a.634.634,0,0,1-.2.408c-.475.474-.948.951-1.427,1.422-.1.1-.141.167-.012.292.477.463.94.941,1.409,1.413a.579.579,0,0,1,.2.461.465.465,0,0,1-.286.4.412.412,0,0,1-.5-.051c-.433-.413-.852-.843-1.278-1.264-.193-.191-.383-.384-.583-.565a.983.983,0,0,1-.319-.477.18.18,0,0,1,0-.117,1.314,1.314,0,0,1,.193-.326q.944-.959,1.9-1.906a.488.488,0,0,1,.783.051A1.174,1.174,0,0,1,1071.293,1564.978Z" transform="translate(-0.117 -4.143)" fill="#ff00c7"/>
    <path id="Path_11636" data-name="Path 11636" d="M1101.047,1568.913a1.556,1.556,0,0,1,.182-.338c.252-.275.521-.536.785-.8.246-.248.495-.491.735-.744a.156.156,0,0,0-.009-.149c-.111-.127-.236-.242-.355-.363-.385-.385-.768-.771-1.155-1.153a.5.5,0,0,1-.123-.554.457.457,0,0,1,.39-.31.53.53,0,0,1,.446.166c.659.661,1.319,1.321,1.969,1.991a.441.441,0,0,1-.005.627c-.212.229-.438.445-.657.667-.3.3-.591.61-.892.909a6.5,6.5,0,0,1-.509.466.428.428,0,0,1-.527.034.417.417,0,0,1-.236-.43Z" transform="translate(-8.872 -4.143)" fill="#ff00c7"/>
    <path id="Path_11637" data-name="Path 11637" d="M1087.794,1552.431a.571.571,0,0,1-.4-.194c-.479-.479-.959-.955-1.433-1.438-.1-.1-.158-.11-.267,0-.475.487-.966.96-1.448,1.443a.563.563,0,0,1-.581.143.471.471,0,0,1-.318-.42.531.531,0,0,1,.2-.444l1.447-1.447c.138-.138.273-.278.413-.412a.508.508,0,0,1,.773-.046c.031.026.062.053.091.082q.913.913,1.827,1.828a.484.484,0,0,1-.04.8A1.208,1.208,0,0,1,1087.794,1552.431Z" transform="translate(-4.139 -0.123)" fill="#ff00c7"/>
    <path id="Path_11638" data-name="Path 11638" d="M1099.185,1577.3a1.686,1.686,0,0,1-.321,1.146,2.535,2.535,0,0,1-.443.443,4.1,4.1,0,0,1-.4.289.507.507,0,0,0-.215.4.49.49,0,0,1-.49.457.479.479,0,0,1-.475-.479,1.314,1.314,0,0,1,.722-1.276,1.111,1.111,0,0,0,.64-1.083.879.879,0,0,0-.831-.875.828.828,0,0,0-.895.677c-.023.114-.043.23-.062.345a.48.48,0,0,1-.491.34.464.464,0,0,1-.462-.389,1.8,1.8,0,0,1,1.28-1.884,1.849,1.849,0,0,1,2.314,1.1,5.157,5.157,0,0,1,.174.771Z" transform="translate(-7.378 -7.036)" fill="#ff00c7"/>
    <path id="Path_11639" data-name="Path 11639" d="M1097.355,1582.707a.45.45,0,0,1,.495-.479.472.472,0,0,1,.463.5.481.481,0,0,1-.5.487A.441.441,0,0,1,1097.355,1582.707Z" transform="translate(-7.885 -8.883)" fill="#ff00c7"/>
    <path id="Path_11640" data-name="Path 11640" d="M1072.525,1553.7a2.443,2.443,0,0,1-.134-.389.425.425,0,0,1,.284-.478.5.5,0,0,1,.548.09q.478.457.935.935a.508.508,0,0,1,0,.663c-.32.333-.647.659-.979.98a.49.49,0,0,1-.61.01.537.537,0,0,1-.14-.627c.018-.034.038-.068.067-.12a.341.341,0,0,0-.338.16.648.648,0,0,0,.111.945.9.9,0,0,0,.448.133c1.021.011,2.042.02,3.063,0a.649.649,0,0,0,.308-1.247,1.665,1.665,0,0,0-.391-.064c-.184-.01-.369,0-.554,0a.474.474,0,0,1-.44-.322.546.546,0,0,1,.185-.579.415.415,0,0,1,.2-.052c.333-.005.668-.021,1,0a1.5,1.5,0,0,1,1.135.707,1.557,1.557,0,0,1,.265,1.156,1.634,1.634,0,0,1-1.482,1.371c-1.15-.006-2.3-.009-3.448,0a1.483,1.483,0,0,1-1.05-.433,1.563,1.563,0,0,1-.5-1.435,1.627,1.627,0,0,1,1.414-1.375A.477.477,0,0,0,1072.525,1553.7Z" transform="translate(-0.838 -1.012)" fill="#ff00c7"/>
    <path id="Path_11641" data-name="Path 11641" d="M1099.194,1557.629c0,.462,0,.923,0,1.385a.441.441,0,0,1-.47.467q-.931,0-1.862,0a.442.442,0,0,1-.471-.468q0-1.384,0-2.769a.441.441,0,0,1,.448-.461l1.876-.017a.472.472,0,0,1,.485.48C1099.181,1556.706,1099.194,1557.168,1099.194,1557.629Zm-.957.006c0-.24,0-.481,0-.722,0-.122-.037-.18-.167-.175-.179.007-.358,0-.537,0-.109,0-.16.038-.159.152q0,.738,0,1.475c0,.122.052.163.168.159.174,0,.348-.007.522,0,.139.007.178-.055.174-.183C1098.232,1558.106,1098.237,1557.871,1098.237,1557.635Z" transform="translate(-7.627 -1.808)" fill="#ff00c7"/>
    <path id="Path_11642" data-name="Path 11642" d="M1097.774,1554.177a1.406,1.406,0,0,1-1.4-1.418,1.482,1.482,0,0,1,1.476-1.4,1.435,1.435,0,0,1,1.35,1.475A1.39,1.39,0,0,1,1097.774,1554.177Zm.025-1.814a.425.425,0,0,0-.421.42.415.415,0,1,0,.831,0A.436.436,0,0,0,1097.8,1552.363Z" transform="translate(-7.623 -0.631)" fill="#ff00c7"/>
    <path id="Path_11643" data-name="Path 11643" d="M1073.964,1574.746a.446.446,0,0,1,.473.273c.362.643.733,1.281,1.1,1.921.24.418.483.834.711,1.258a.466.466,0,0,1-.018.485c-.224.349-.456.693-.683,1.039-.245.371-.488.746-.736,1.116-.145.217-.292.433-.448.643a.465.465,0,0,1-.746.032,3.692,3.692,0,0,1-.311-.418c-.2-.3-.394-.6-.593-.9-.3-.448-.585-.9-.9-1.339a.666.666,0,0,1-.039-.819c.431-.726.834-1.469,1.253-2.2.167-.293.342-.583.519-.87A.394.394,0,0,1,1073.964,1574.746Zm-1.058,3.329a1.349,1.349,0,0,0,.157.062c.208.053.415.106.626.15a1.123,1.123,0,0,0,.389.046c.266-.043.526-.122.789-.186.116-.028.17-.068.093-.2-.309-.531-.608-1.068-.913-1.6a.6.6,0,0,0-.1-.094Zm.384,1.178.585.885c.008.012.015.026.023.039.078.1.125.041.172-.03.108-.168.218-.335.327-.5.078-.123.156-.246.252-.4a4.159,4.159,0,0,1-.67.111A4.43,4.43,0,0,1,1073.29,1579.253Z" transform="translate(-1.014 -6.881)" fill="#ff00c7"/>
    <path id="Path_11644" data-name="Path 11644" d="M1088.3,1567.035c0,.354-.008.708,0,1.062a.519.519,0,0,1-.281.494c-.6.352-1.2.7-1.81,1.042a.569.569,0,0,1-.575,0c-.588-.333-1.172-.674-1.76-1.008a.6.6,0,0,1-.328-.589c.011-.558-.016-1.116-.021-1.675,0-.174.015-.348.03-.521a.468.468,0,0,1,.272-.352c.577-.342,1.16-.673,1.74-1.012a.665.665,0,0,1,.745.021c.484.3.982.571,1.473.854l.107.061a.682.682,0,0,1,.412.731A8.208,8.208,0,0,0,1088.3,1567.035Zm-1.435-1.055a5.6,5.6,0,0,1-.574-.335.5.5,0,0,0-.681-.039,6.84,6.84,0,0,1-.626.378c.317.18.608.348.9.508a.162.162,0,0,0,.129-.019C1086.295,1566.318,1086.567,1566.157,1086.87,1565.98Zm-2.307.918c-.02.031-.035.044-.035.056,0,.271-.008.543,0,.813a.179.179,0,0,0,.085.114c.163.105.33.206.5.3.094.054.193.1.323.167,0-.334,0-.624,0-.914,0-.032-.052-.072-.089-.094-.178-.109-.359-.215-.54-.319C1084.724,1566.983,1084.647,1566.944,1084.562,1566.9Zm1.873,1.4.047.034c.27-.163.541-.324.807-.492a.167.167,0,0,0,.053-.119c.005-.235,0-.471,0-.706,0-.1-.043-.128-.137-.073-.177.1-.36.193-.534.3-.087.054-.22.13-.227.205C1086.419,1567.733,1086.435,1568.019,1086.435,1568.3Z" transform="translate(-4.19 -4.109)" fill="#ff00c7"/>
  </g>
</svg>
