<svg id="Group_724" data-name="Group 724" xmlns="http://www.w3.org/2000/svg" xmlns:xlink="http://www.w3.org/1999/xlink" width="44.686" height="44.686" viewBox="0 0 44.686 44.686">
  <defs>
    <clipPath id="clip-path">
      <circle id="Ellipse_15" data-name="Ellipse 15" cx="22.343" cy="22.343" r="22.343"/>
    </clipPath>
  </defs>
  <path id="Path_234" data-name="Path 234" d="M22.343,0A22.343,22.343,0,1,1,0,22.343,22.343,22.343,0,0,1,22.343,0Z" transform="translate(0 0)" fill="#ff00c7"/>
  <g id="Group_709" data-name="Group 709" transform="translate(0 0)" clip-path="url(#clip-path)">
    <path id="Path_217" data-name="Path 217" d="M72.1,20.87V28.3c0,.108,0,.215,0,.322,0,.222-.017.444-.037.664,0,.076-.012.151-.022.227-.032.315-.076.625-.132.933-.02.1-.039.2-.061.3a.426.426,0,0,1-.012.061c-.02.1-.044.2-.068.3-.01.054-.024.107-.037.161s-.024.093-.039.139c-.052.2-.11.4-.171.591-.029.093-.058.183-.09.276,0,.01-.007.019-.01.029l-.088.249c-.01.024-.019.049-.029.076-.029.078-.058.156-.09.234-.037.1-.076.188-.115.281s-.071.166-.107.249c0,.015-.012.027-.017.041-.042.088-.081.176-.122.261s-.086.181-.132.271c-.088.178-.183.356-.278.53l-.132.234a14.354,14.354,0,0,1-1.248,1.817c-.061.081-.124.159-.19.234-.09.11-.183.217-.276.322s-.166.185-.252.276c-.234.252-.474.491-.718.716-.049.049-.1.093-.152.139-.083.076-.166.149-.252.22-.066.059-.134.115-.2.171-.176.144-.352.283-.53.413-.073.056-.149.11-.225.161-.122.088-.247.171-.371.252-.068.046-.139.09-.21.132-.249.154-.5.3-.75.418-.061.032-.122.061-.183.09s-.124.059-.19.088-.161.071-.242.1a.76.76,0,0,1-.1.037c-.095.039-.193.076-.288.107-.12.044-.242.081-.361.115-.083.024-.168.046-.252.066a.034.034,0,0,1-.017,0c-.083.019-.166.039-.249.054a.582.582,0,0,1-.066.012c-.068.012-.137.024-.205.032-.1.015-.2.027-.293.032a.707.707,0,0,1-.1.007c-.078,0-.156.007-.232.007h-.007q-.114,0-.227-.007a.525.525,0,0,1-.088-.007c-.068,0-.139-.01-.212-.02a.3.3,0,0,1-.046,0c-.09-.012-.181-.027-.274-.044s-.156-.029-.237-.049a7,7,0,0,1-1.282-.432,9.345,9.345,0,0,1-1.121-.591c-.188-.115-.376-.237-.562-.366-.093-.066-.185-.132-.278-.2q-.436-.319-.862-.694c-.078-.071-.156-.142-.234-.215s-.156-.144-.232-.215q-.286-.275-.557-.571-.106-.113-.213-.234c-.2-.22-.386-.447-.566-.684-.071-.085-.137-.173-.2-.261q-.37-.491-.7-1.023c-.058-.1-.117-.193-.173-.288-.068-.115-.134-.232-.2-.349a13.317,13.317,0,0,1-.664-1.368c-.029-.068-.059-.137-.083-.2-.039-.088-.073-.178-.1-.266q-.073-.194-.139-.388c-.044-.129-.085-.261-.127-.393s-.076-.254-.11-.383-.076-.276-.107-.418c0-.015-.007-.029-.01-.044q-.069-.293-.124-.593c-.049-.264-.088-.532-.117-.8-.012-.086-.019-.171-.027-.257s-.017-.178-.022-.269c-.012-.164-.02-.33-.025-.5,0-.108,0-.215,0-.322V20.87a9.942,9.942,0,0,1,9.934-9.941h.01a10.05,10.05,0,0,1,2.2.244,9.951,9.951,0,0,1,7.739,9.7Z" transform="translate(-39.813 -8.333)" fill="#ecc19c"/>
  </g>
  <g id="Group_710" data-name="Group 710" transform="translate(0 0)" clip-path="url(#clip-path)">
    <path id="Path_218" data-name="Path 218" d="M65.444,141.074v0H39.538v0a12.887,12.887,0,0,1,.691-4.183q.121-.355.264-.7v0c.1-.232.2-.459.3-.684a12.82,12.82,0,0,1,1.577-2.515c.156-.193.315-.381.479-.562.081-.093.166-.183.252-.273s.171-.176.259-.264a12.891,12.891,0,0,1,1.4-1.206c.247-.183.5-.354.755-.52s.523-.32.791-.466a.016.016,0,0,1,.01,0c.1-.056.208-.117.31-.181.2-.122.4-.254.594-.4.1-.068.19-.139.283-.215.22-.176.432-.364.635-.562.066-.066.132-.132.2-.2.137-.142.266-.291.391-.442.061-.073.122-.149.178-.225s.115-.154.171-.232a8.126,8.126,0,0,0,1.519-4.75l1.888.01,1.941.01a8.174,8.174,0,0,0,3.069,6.393c.09.073.181.144.271.21s.178.129.271.19c.02.015.037.027.056.039.088.059.176.117.269.171s.2.122.305.178a.12.12,0,0,1,.044.022c.215.12.428.244.635.374.1.061.2.124.3.2q.3.2.593.418a0,0,0,0,0,0,0h0a13.077,13.077,0,0,1,1.4,1.206A12.888,12.888,0,0,1,65.444,141.074Z" transform="translate(-30.148 -93.398)" fill="#ecc19c"/>
  </g>
  <g id="Group_711" data-name="Group 711" transform="translate(0 0)" clip-path="url(#clip-path)">
    <path id="Path_219" data-name="Path 219" d="M65.445,161.64H39.539a12.893,12.893,0,0,1,.691-4.183q.121-.356.264-.7s0,0,0,0c.093-.232.2-.459.3-.684a12.821,12.821,0,0,1,1.577-2.515c.156-.193.315-.381.479-.562.081-.093.166-.183.252-.273s.171-.176.259-.264a12.863,12.863,0,0,1,1.4-1.206c.247-.183.5-.354.755-.52s.523-.322.791-.469a.009.009,0,0,1,.01,0v0c.1-.059.208-.117.31-.178a7.548,7.548,0,0,0,.872-.615l0,0a6.96,6.96,0,0,0,4.979,2.1H52.5a6.975,6.975,0,0,0,4.991-2.1l0,0a6.537,6.537,0,0,0,.54.4c.019.014.037.027.056.039.088.059.178.115.269.171s.2.12.305.176a.237.237,0,0,1,.044.022c.215.12.427.244.635.376.1.061.2.124.3.2.2.129.4.271.593.418h0a12.97,12.97,0,0,1,5.2,10.376Z" transform="translate(-30.148 -113.963)" fill="#c7d4e2"/>
  </g>
  <g id="Group_712" data-name="Group 712" transform="translate(0 0)" clip-path="url(#clip-path)">
    <path id="Path_220" data-name="Path 220" d="M72.1,84.049c0,.108,0,.215,0,.322,0,.222-.017.444-.037.664,0,.076-.012.151-.022.227-.032.315-.076.625-.132.933-.02.1-.039.2-.061.3a.428.428,0,0,1-.012.061c-.02.1-.044.2-.068.3-.012.059-.027.115-.044.171a1.094,1.094,0,0,1-.032.129c-.052.2-.11.4-.171.591-.029.093-.058.183-.09.276,0,.01-.007.019-.01.029l-.088.249c-.01.024-.019.049-.029.076-.029.078-.058.156-.09.234-.037.1-.076.188-.115.281s-.071.166-.107.249c0,.015-.012.027-.017.041-.042.088-.081.176-.122.261s-.086.181-.132.271c-.088.178-.183.356-.278.53l-.132.234A14.356,14.356,0,0,1,69.055,92.3c-.061.081-.124.159-.19.234-.09.11-.183.217-.276.322s-.166.185-.252.276c-.234.252-.474.491-.718.716-.049.049-.1.093-.152.139-.083.076-.166.149-.252.22-.066.059-.134.115-.2.171-.176.144-.352.283-.53.413-.073.056-.149.11-.225.161-.122.088-.247.171-.371.252-.068.046-.139.09-.21.132-.249.154-.5.3-.75.418-.061.032-.122.061-.183.09s-.124.059-.19.088-.161.071-.242.1a.761.761,0,0,1-.1.037c-.095.039-.193.076-.288.107-.12.044-.242.081-.361.115-.083.024-.168.046-.252.066a.034.034,0,0,1-.017,0c-.083.019-.166.039-.249.054a.58.58,0,0,1-.066.012c-.068.012-.137.024-.205.032-.1.015-.2.027-.293.032a.706.706,0,0,1-.1.007c-.078,0-.156.007-.232.007h-.007q-.114,0-.227-.007a.525.525,0,0,1-.088-.007c-.068,0-.139-.01-.212-.02a.3.3,0,0,1-.046,0c-.09-.012-.181-.027-.274-.044s-.156-.029-.237-.049a7,7,0,0,1-1.282-.432,9.345,9.345,0,0,1-1.121-.591c-.188-.112-.374-.234-.562-.366-.093-.066-.185-.132-.278-.2q-.436-.319-.862-.694c-.078-.071-.156-.142-.234-.215s-.156-.144-.232-.215q-.286-.275-.557-.571-.106-.113-.213-.234c-.2-.22-.386-.447-.566-.684-.071-.085-.137-.173-.2-.261q-.37-.491-.7-1.023c-.058-.1-.117-.193-.173-.288-.068-.115-.134-.232-.2-.349a13.316,13.316,0,0,1-.664-1.368c-.029-.068-.059-.137-.083-.2-.039-.088-.073-.178-.1-.266q-.073-.194-.139-.388c-.044-.129-.085-.261-.127-.393s-.076-.254-.11-.383-.076-.276-.107-.418c0-.015-.007-.029-.01-.044q-.069-.293-.124-.593c-.049-.264-.088-.532-.117-.8-.012-.086-.019-.171-.027-.257s-.017-.178-.022-.269c-.012-.164-.02-.33-.025-.5,0-.108,0-.215,0-.322L53.8,87.17l2.727,1.189,3.226.291,2.393.217h.015l2.239.2,4.989.449Z" transform="translate(-39.812 -64.087)" fill="#543e36"/>
  </g>
  <g id="Group_713" data-name="Group 713" transform="translate(0 0)" clip-path="url(#clip-path)">
    <path id="Path_221" data-name="Path 221" d="M69.984,14.741a13.673,13.673,0,0,1-1.866,3.052c-.044.054-.088.108-.134.161a13.688,13.688,0,0,1-5.834,4.114,13.3,13.3,0,0,1-1.866.537q-.641.135-1.3.213a14.137,14.137,0,0,1-1.55.086,13.634,13.634,0,0,1-1.768-.115A12.9,12.9,0,0,1,54,22.472c-.31-.078-.613-.168-.913-.269s-.584-.205-.869-.322V20.873a9.942,9.942,0,0,1,9.934-9.941h.01a10.05,10.05,0,0,1,2.2.244,9.971,9.971,0,0,1,5.621,3.564Z" transform="translate(-39.815 -8.336)" fill="#543e36"/>
  </g>
  <g id="Group_714" data-name="Group 714" transform="translate(0 0)" clip-path="url(#clip-path)">
    <path id="Path_222" data-name="Path 222" d="M117.068,23.652v1.956a15.242,15.242,0,0,1-4.112-4.864s0-.007,0-.01a15.146,15.146,0,0,1-1.76-6.156,9.949,9.949,0,0,1,5.877,9.074Z" transform="translate(-84.783 -11.116)" fill="#543e36"/>
  </g>
  <g id="Group_715" data-name="Group 715" transform="translate(0 0)" clip-path="url(#clip-path)">
    <path id="Path_223" data-name="Path 223" d="M53.38,55.1c-.1.183-.2.371-.3.564-.036.076-.073.156-.11.234a8.277,8.277,0,0,0-.757,3.067c0,.027,0,.056,0,.083V55.223c0-.137,0-.271,0-.4C52.606,54.92,52.992,55.018,53.38,55.1Z" transform="translate(-39.814 -41.8)" fill="#543e36"/>
  </g>
  <g id="Group_716" data-name="Group 716" transform="translate(0 0)" clip-path="url(#clip-path)">
    <path id="Path_224" data-name="Path 224" d="M131.054,55.106c.148.26.28.526.406.8a8.183,8.183,0,0,1,.76,3.151V55.225c0-.135,0-.269,0-.4C131.829,54.924,131.444,55.02,131.054,55.106Z" transform="translate(-99.928 -41.803)" fill="#543e36"/>
  </g>
  <g id="Group_717" data-name="Group 717" transform="translate(0 0)" clip-path="url(#clip-path)">
    <path id="Path_225" data-name="Path 225" d="M74.652,59.029a.084.084,0,0,0-.073-.083,26.615,26.615,0,0,0-3.636-.271,40.977,40.977,0,0,0-4.859.606H65.7c-.2,0-.852-.132-1.682-.271a20.236,20.236,0,0,0-3.177-.335,26.717,26.717,0,0,0-3.108.2c-.249.029-.432.056-.527.071a.084.084,0,0,0-.073.083l-.019,1.038a.091.091,0,0,0,.056.083l.117.042c.173.066.159,3.194,1.092,3.975.554.461,1.048.725,3.126.725A2.924,2.924,0,0,0,64.179,63.6a9.63,9.63,0,0,0,.977-2.342.814.814,0,0,1,.725-.737h.01a.806.806,0,0,1,.735.737A9.64,9.64,0,0,0,67.6,63.6a2.924,2.924,0,0,0,2.679,1.294c2.078,0,2.571-.264,3.126-.725.933-.781.918-3.909,1.092-3.975l.117-.042a.09.09,0,0,0,.056-.083Zm-10.473,3.7a2.728,2.728,0,0,1-2.2,1.712c-3.333.168-3.487-.762-3.7-1.5a5.076,5.076,0,0,1-.188-2.122c.088-.737.274-1.17.608-1.387a1.518,1.518,0,0,1,.7-.242,13.38,13.38,0,0,1,1.836-.086,9.238,9.238,0,0,1,1.482.115c1.187.19,1.988.594,1.988.991A7.4,7.4,0,0,1,64.179,62.731Zm9.33.212c-.215.737-.369,1.668-3.7,1.5a2.728,2.728,0,0,1-2.2-1.712,7.392,7.392,0,0,1-.52-2.518c0-.547,1.519-1.106,3.47-1.106s2.263.147,2.537.327c.334.217.52.65.608,1.387A5.067,5.067,0,0,1,73.509,62.943Z" transform="translate(-43.546 -44.74)" fill="#1a1a1a"/>
  </g>
  <g id="Group_718" data-name="Group 718" transform="translate(0 0)" clip-path="url(#clip-path)">
    <path id="Path_226" data-name="Path 226" d="M62.168,76.249l0,2.408,0,.842v.662l0,2.2v0l0,0h0l-.007,0-9.6-4.888c0-.015-.007-.029-.01-.044q-.069-.293-.124-.593c-.049-.264-.088-.532-.117-.8-.012-.085-.019-.171-.027-.256s-.017-.178-.022-.269c-.012-.164-.02-.33-.025-.5,0-.108,0-.215,0-.322V71.764c0,.042,0,.083,0,.124a9.717,9.717,0,0,0,.349,2.276,9.877,9.877,0,0,0,.623,1.677v0a3.984,3.984,0,0,0,2.285,2.381c.049.007.1.012.149.017a8.587,8.587,0,0,0,.955.054c1.245,0,2.352-1,3.047-1.406l.015-.007c.037-.022.073-.044.1-.066a.187.187,0,0,1,.029-.017,4.939,4.939,0,0,1,2.374-.549h.019Z" transform="translate(-39.814 -54.72)" fill="#543e36"/>
    <path id="Path_227" data-name="Path 227" d="M103.994,71.764l0,2.918a11.97,11.97,0,0,1-.2,2.147c-.052.278-.11.554-.178.828l-2.254,3.255-7.311,1.448h0l0,0v0l-.007-6.11h.019a4.952,4.952,0,0,1,2.376.549.18.18,0,0,1,.027.017c.034.022.071.044.107.066l.012.007c.7.405,1.8,1.407,3.048,1.407a8.581,8.581,0,0,0,.955-.054c.051,0,.1-.01.152-.017a3.981,3.981,0,0,0,2.283-2.381v0a9.878,9.878,0,0,0,.622-1.677,9.609,9.609,0,0,0,.349-2.308C103.994,71.825,103.994,71.8,103.994,71.764Z" transform="translate(-71.706 -54.72)" fill="#543e36"/>
  </g>
  <g id="Group_719" data-name="Group 719" clip-path="url(#clip-path)">
    <ellipse id="Ellipse_25" data-name="Ellipse 25" cx="2.436" cy="0.753" rx="2.436" ry="0.753" transform="translate(19.907 23.937)" fill="#ecc19c"/>
  </g>
  <g id="Group_720" data-name="Group 720" transform="translate(0 0)" clip-path="url(#clip-path)">
    <path id="Path_228" data-name="Path 228" d="M60.8,155.174v13.433H59.762V155.931c.139-.112.278-.222.42-.327C60.385,155.453,60.59,155.311,60.8,155.174Z" transform="translate(-45.568 -118.32)" fill="#435363"/>
    <path id="Path_229" data-name="Path 229" d="M124.021,155.185v13.43h1.038V155.942Z" transform="translate(-94.566 -118.328)" fill="#435363"/>
  </g>
  <g id="Group_723" data-name="Group 723" transform="translate(0 0)" clip-path="url(#clip-path)">
    <g id="Group_721" data-name="Group 721" transform="translate(19.502 36.032)">
      <path id="Path_230" data-name="Path 230" d="M82.113,151.713l2.841,3.4,2.841-3.4Z" transform="translate(-82.113 -151.713)" fill="#141720"/>
      <path id="Path_231" data-name="Path 231" d="M88.681,175.265H87l1.214-15.628c.051.2.882.2.933,0l1.214,15.628Z" transform="translate(-85.84 -157.755)" fill="#141720"/>
    </g>
    <g id="Group_722" data-name="Group 722" transform="translate(17.07 33.832)">
      <path id="Path_232" data-name="Path 232" d="M77.144,144.661l-.007.012,0,0-1.179,1.98-1.1,1.846-2.982-4.144c.1-.068.19-.142.281-.217l0,0a8.123,8.123,0,0,0,1.573-1.66l3.406,2.168Z" transform="translate(-71.872 -142.478)" fill="#e7ecf2"/>
      <path id="Path_233" data-name="Path 233" d="M99.344,144.329l-2.982,4.144-1.1-1.846-1.182-1.98-.01-.017,3.429-2.183a8.19,8.19,0,0,0,1.575,1.673C99.163,144.193,99.253,144.264,99.344,144.329Z" transform="translate(-88.797 -142.447)" fill="#e7ecf2"/>
    </g>
  </g>
</svg>
