<svg xmlns="http://www.w3.org/2000/svg" width="27.984" height="27.972" viewBox="0 0 27.984 27.972">
  <g id="Group_4517" data-name="Group 4517" transform="translate(-1002.165 -958)">
    <path id="Path_11628" data-name="Path 11628" d="M1016.151,985.97c-.515-.021-1.033-.01-1.543-.07-.562-.066-1.118-.189-1.674-.3a10.831,10.831,0,0,1-2.65-.919c-.68-.333-1.33-.73-1.98-1.12-.469-.281-.351-.312-.724.055q-.438.432-.87.871a.594.594,0,0,1-.476.2,6.549,6.549,0,0,0-.754,0,.318.318,0,0,0-.226.138,1.446,1.446,0,0,1-2.71-.34,1.443,1.443,0,0,1,1.748-1.7,1.409,1.409,0,0,1,.957.762.3.3,0,0,0,.1.12,1.2,1.2,0,0,0,.913-.143c.242-.244.48-.492.724-.735.087-.086.1-.143-.005-.237a14.052,14.052,0,0,1-2.568-2.954,13.5,13.5,0,0,1-1.791-4.06,17.488,17.488,0,0,1-.391-2.236,16.985,16.985,0,0,1-.047-2.273,10.6,10.6,0,0,1,.206-1.541,13.435,13.435,0,0,1,1.4-4.063,14.286,14.286,0,0,1,2.562-3.433c.2-.206.422-.4.642-.589.089-.078.087-.132.01-.21-.275-.276-.541-.564-.828-.826a.843.843,0,0,0-1.067.258,1.248,1.248,0,0,1-1.333.588,1.381,1.381,0,0,1-1.155-.908,1.429,1.429,0,0,1,1.334-1.951,1.463,1.463,0,0,1,1.3.781.329.329,0,0,0,.227.138,6.429,6.429,0,0,0,.754,0,.6.6,0,0,1,.476.2c.335.339.677.671,1.008,1.013a.25.25,0,0,0,.388.042,13.059,13.059,0,0,1,2.941-1.581,17.612,17.612,0,0,1,1.893-.577c.527-.135,1.068-.22,1.607-.309a5.317,5.317,0,0,1,.77-.051c.5-.008.992,0,1.488,0a11.132,11.132,0,0,1,2.135.255,13.763,13.763,0,0,1,2.937.936,14.207,14.207,0,0,1,2.354,1.341.232.232,0,0,0,.356-.039c.328-.336.667-.662.994-1a.661.661,0,0,1,.545-.225c.23.014.463,0,.694,0a.258.258,0,0,0,.263-.158,1.383,1.383,0,0,1,1.488-.754,1.309,1.309,0,0,1,1.14.912,1.432,1.432,0,0,1-1.528,1.935,1.33,1.33,0,0,1-1.1-.781.278.278,0,0,0-.261-.163.983.983,0,0,0-1,.41,4.559,4.559,0,0,1-.486.494c-.087.084-.106.142,0,.237a13.826,13.826,0,0,1,2.31,2.577,12.125,12.125,0,0,1,1.549,2.936c.25.728.479,1.467.664,2.215a8.689,8.689,0,0,1,.2,1.485c.049.7.092,1.411.071,2.115a12.949,12.949,0,0,1-.207,1.723,13.367,13.367,0,0,1-1.543,4.321,14.443,14.443,0,0,1-2.31,3.083c-.231.236-.476.459-.722.68-.1.09-.118.152-.013.253.252.244.485.507.744.742a1.063,1.063,0,0,0,.346.148c.029.011.066,0,.1,0a.585.585,0,0,0,.667-.332,1.287,1.287,0,0,1,1.387-.6,1.348,1.348,0,0,1,1.189,1.144,1.389,1.389,0,0,1-.781,1.583,1.418,1.418,0,0,1-1.61-.229,1.344,1.344,0,0,1-.3-.415.259.259,0,0,0-.264-.16c-.244,0-.489-.007-.734,0a.6.6,0,0,1-.477-.2c-.34-.344-.685-.681-1.023-1.026a.231.231,0,0,0-.356-.041,13.594,13.594,0,0,1-2.974,1.6,13.922,13.922,0,0,1-5.109.945Zm6.226-4.658,0-.092a1.673,1.673,0,0,0-.3-.069.964.964,0,0,1-.926-.87,1.02,1.02,0,0,1,.635-1.02.979.979,0,0,1,1.175.4,1.052,1.052,0,0,1,.145.742.257.257,0,0,0,.076.2c.028.025.138-.008.185-.046.219-.18.439-.361.64-.562a11.607,11.607,0,0,0,1.695-2.112,11.013,11.013,0,0,0,1.087-2.307,10.773,10.773,0,0,0,.526-2.41,11.128,11.128,0,0,0,.08-1.422c-.02-.524-.113-1.046-.179-1.569a9.38,9.38,0,0,0-.663-2.417,9.573,9.573,0,0,0-1.17-2.154c-.394-.521-.812-1.025-1.245-1.513a8.2,8.2,0,0,0-.792-.718c-.037-.032-.129-.059-.154-.039a.363.363,0,0,0-.095.178c-.011.041.015.09.019.136a.966.966,0,0,1-.385.889.983.983,0,0,1-1.036.1.97.97,0,0,1,.413-1.835.946.946,0,0,0,.272-.082l-.007-.08a10.947,10.947,0,0,0-6.1-1.885,10.786,10.786,0,0,0-6.343,1.925.609.609,0,0,0,.246.123,2.33,2.33,0,0,1,.367.064.92.92,0,0,1,.616.887.971.971,0,0,1-1.94.075,1.3,1.3,0,0,0,0-.317.262.262,0,0,0-.1-.173c-.037-.021-.129.011-.172.049-.269.234-.547.461-.793.717a10.745,10.745,0,0,0-1.919,2.631,12.451,12.451,0,0,0-.713,1.652,12.263,12.263,0,0,0-.427,1.826c-.1.622-.146,1.255-.187,1.885a4.267,4.267,0,0,0,.07.768c.056.464.088.934.184,1.39a9.016,9.016,0,0,0,.719,2.216,17.858,17.858,0,0,0,1.019,1.831,13.067,13.067,0,0,0,1.164,1.45,9.821,9.821,0,0,0,.874.8c.046.041.152.077.186.053a.3.3,0,0,0,.1-.2,2.92,2.92,0,0,0,0-.317.946.946,0,0,1,1.383-.78.965.965,0,0,1,.511,1.118.951.951,0,0,1-.932.717.978.978,0,0,0-.261.093l.016.072a10.989,10.989,0,0,0,7.234,1.84A10.621,10.621,0,0,0,1022.377,981.312Zm-15.793-18.171c-.05.08-.09.157-.142.225-.371.489-.78.954-1.106,1.47a18.49,18.49,0,0,0-1.055,1.923,10.743,10.743,0,0,0-.786,2.4,11.489,11.489,0,0,0-.291,2.047c-.013.467-.016.936,0,1.4a9.5,9.5,0,0,0,.1,1.2,12.374,12.374,0,0,0,.337,1.562,18.212,18.212,0,0,0,.721,2.029,12.583,12.583,0,0,0,2.063,3.179c.188.218.194.219.393.021.071-.07.138-.143.211-.21a.163.163,0,0,0,.006-.269,12.208,12.208,0,0,1-2.645-4.752,12.531,12.531,0,0,1-.415-2.193,12.1,12.1,0,0,1,.9-5.966,12.73,12.73,0,0,1,1.941-3.143c.327-.4.329-.4-.045-.76C1006.734,963.268,1006.688,963.231,1006.584,963.141Zm21.847,8.767c-.041.572-.04,1.105-.126,1.624-.117.7-.281,1.394-.463,2.081a8.824,8.824,0,0,1-.995,2.324c-.414.68-.9,1.315-1.359,1.97-.088.126-.27.26-.255.368.019.135.2.243.307.37s.2.125.3,0c.265-.336.545-.663.8-1.005a12.487,12.487,0,0,0,1.866-3.608,12.658,12.658,0,0,0,.6-2.956,11.111,11.111,0,0,0-.1-2.9c-.126-.692-.278-1.38-.466-2.058a10.482,10.482,0,0,0-1-2.386,12.221,12.221,0,0,0-1.525-2.188c-.35-.385-.355-.376-.725.017a.176.176,0,0,0,0,.285,12,12,0,0,1,1.621,2.289,12.175,12.175,0,0,1,1.364,4.026C1028.369,970.747,1028.384,971.351,1028.431,971.908ZM1016.167,985v-.028c.329-.02.66-.029.988-.062a12.3,12.3,0,0,0,1.469-.179c.661-.148,1.313-.344,1.957-.554a11.358,11.358,0,0,0,2.755-1.379c.353-.235.349-.243.055-.537a1.151,1.151,0,0,1-.111-.113c-.086-.113-.168-.111-.284-.03a11.718,11.718,0,0,1-2.452,1.281,11.256,11.256,0,0,1-3.478.79,12.3,12.3,0,0,1-4.289-.45,13.493,13.493,0,0,1-3.187-1.434c-.468-.288-.463-.291-.825.118-.093.106-.091.176.034.25.362.217.715.45,1.081.66a11.891,11.891,0,0,0,4.085,1.435C1014.693,984.889,1015.432,984.93,1016.167,985Zm-7.554-23.589c.191.173.342.319.506.45a.192.192,0,0,0,.17-.011c.131-.076.244-.185.378-.253.724-.366,1.438-.755,2.182-1.075a10.443,10.443,0,0,1,2.4-.653,12.355,12.355,0,0,1,2.53-.12,8.934,8.934,0,0,1,1.376.143,18.6,18.6,0,0,1,1.821.459,11.113,11.113,0,0,1,2.932,1.417c.236.157.232.164.426-.031.066-.066.127-.135.2-.2.12-.1.094-.194-.019-.272a5.377,5.377,0,0,0-.564-.367c-.65-.336-1.291-.7-1.967-.974a15.872,15.872,0,0,0-2.017-.628,11.789,11.789,0,0,0-1.516-.251,8.272,8.272,0,0,0-1.323-.079c-.636.028-1.27.12-1.906.177a9.966,9.966,0,0,0-2.3.547,12.159,12.159,0,0,0-2.555,1.209C1009.125,961.058,1008.9,961.223,1008.613,961.415Zm-4.229,22.773a.43.43,0,1,0-.435.438A.489.489,0,0,0,1004.383,984.188Zm0-24.416a.43.43,0,1,0-.859-.007.43.43,0,1,0,.859.007Zm24.412,24.416a.487.487,0,0,0-.43-.448.493.493,0,0,0-.429.429.43.43,0,1,0,.858.019Zm0-24.4a.481.481,0,0,0-.4-.451.475.475,0,0,0-.455.439.491.491,0,0,0,.434.442A.485.485,0,0,0,1028.793,959.784Zm-20.968,2.251c-.124.1-.239.2-.359.293-.1.075-.1.146-.01.228a4.436,4.436,0,0,0,.327.317c.043.034.173.037.192.008.092-.141.341-.158.312-.389,0-.017-.021-.034-.034-.048-.115-.119-.23-.237-.347-.354A.518.518,0,0,0,1007.824,962.036ZM1024.408,981c-.127.138-.255.273-.377.413-.01.011,0,.055.018.072.132.137.267.273.4.4a.092.092,0,0,0,.089,0,1.93,1.93,0,0,0,.374-.366c.022-.035-.141-.194-.223-.292a1.525,1.525,0,0,0-.154-.152A1.035,1.035,0,0,0,1024.408,981Zm0-18.044a.49.49,0,0,0,.105-.048c.132-.129.266-.257.389-.394a.14.14,0,0,0,0-.135,1.333,1.333,0,0,0-.4-.305c-.062-.022-.193.149-.289.235a1.071,1.071,0,0,0-.137.142c-.023.028-.052.089-.04.1C1024.152,962.689,1024.281,962.822,1024.4,962.952Zm-16.575,18.969c.08-.075.143-.132.2-.191.412-.4.3-.312-.032-.641,0,0-.01-.013-.015-.013-.073,0-.168-.021-.217.016a1.728,1.728,0,0,0-.318.32.2.2,0,0,0,0,.19A4.345,4.345,0,0,0,1007.83,981.921Z" transform="translate(0 0)" fill="#ff00c7"/>
    <path id="Path_11629" data-name="Path 11629" d="M1011.329,974.8c0-1.5.006-3-.005-4.5a.621.621,0,0,1,.34-.6l2.126-1.231q1.475-.854,2.95-1.707,1.383-.8,2.771-1.582a.612.612,0,0,1,.627.007c.774.442,1.541.9,2.312,1.344q1.931,1.118,3.863,2.23c.532.306,1.065.612,1.6.912a.66.66,0,0,1,.373.64q-.012,4.493,0,8.988a.584.584,0,0,1-.289.564q-.649.38-1.3.759-1.26.73-2.52,1.46-1.837,1.059-3.675,2.114c-.149.085-.3.171-.45.251a.518.518,0,0,1-.544-.025q-1.918-1.116-3.843-2.22-1.991-1.148-3.983-2.293a.645.645,0,0,1-.36-.625C1011.336,977.793,1011.329,976.3,1011.329,974.8Zm15.958.019c0-1.363,0-2.725,0-4.088a.361.361,0,0,0-.19-.357c-.721-.414-1.44-.834-2.161-1.249-.922-.53-1.847-1.055-2.768-1.586q-1.048-.6-2.087-1.221a.441.441,0,0,0-.524-.018c-.44.279-.894.537-1.346.8-.927.534-1.857,1.063-2.784,1.6-.962.553-1.921,1.111-2.885,1.662a.4.4,0,0,0-.224.4q.008,3.781,0,7.561a6.127,6.127,0,0,0,.007.614.387.387,0,0,0,.142.251c.219.147.456.266.685.4.787.459,1.571.923,2.361,1.379,1.329.765,2.666,1.516,3.986,2.294a.532.532,0,0,0,.625,0c.881-.521,1.769-1.031,2.656-1.543q2.145-1.24,4.292-2.475a.382.382,0,0,0,.213-.381C1027.284,977.508,1027.287,976.165,1027.287,974.823Z" transform="translate(-3.645 -2.825)" fill="#ff00c7"/>
    <path id="Path_11630" data-name="Path 11630" d="M1015.429,977.349v.207q0,1.9,0,3.81c0,.343-.184.547-.484.545a.51.51,0,0,1-.509-.559q0-3.691,0-7.383a.53.53,0,0,1,.391-.549.491.491,0,0,1,.607.373c.211.66.41,1.323.617,1.985.218.7.442,1.4.661,2.094.153.49.3.982.492,1.474,0-.073.009-.147.009-.22,0-1.032,0-2.064,0-3.1.007-1.163.025-2.327.039-3.49a.516.516,0,0,1,.346-.525.464.464,0,0,1,.544.178.7.7,0,0,1,.1.369c.006,1.561,0,3.122,0,4.684,0,1.23,0,2.46,0,3.691,0,.634-.023,1.268-.038,1.9a.441.441,0,0,1-.386.454.479.479,0,0,1-.585-.29c-.177-.539-.341-1.083-.511-1.625-.144-.459-.29-.918-.432-1.378-.185-.6-.366-1.2-.55-1.8-.089-.287-.179-.574-.27-.862Z" transform="translate(-4.883 -5.567)" fill="#ff00c7"/>
    <path id="Path_11631" data-name="Path 11631" d="M1022.273,976.436c0-2,0-4.008,0-6.012a.627.627,0,0,1,.344-.611c.452-.26.891-.544,1.335-.819a.557.557,0,0,1,.6-.037c.575.311,1.155.613,1.726.931a.508.508,0,0,1,.2.672.49.49,0,0,1-.682.21c-.412-.209-.818-.43-1.219-.661a.42.42,0,0,0-.51,0,5.773,5.773,0,0,1-.641.394.334.334,0,0,0-.192.335c0,.761,0,1.521,0,2.282q0,1.22,0,2.441c0,.25.019.268.274.268.694,0,1.389,0,2.083,0a.45.45,0,0,1,.447.3.5.5,0,0,1-.172.569.672.672,0,0,1-.334.088c-.681.008-1.362,0-2.043,0-.246,0-.255.01-.255.26q0,2.729,0,5.457a.455.455,0,0,1-.547.512.436.436,0,0,1-.408-.411c-.005-.079,0-.159,0-.238Z" transform="translate(-8.001 -4.333)" fill="#ff00c7"/>
    <path id="Path_11632" data-name="Path 11632" d="M1032.634,973.933v.3q0,3.769,0,7.538c0,.362-.2.57-.52.559a.518.518,0,0,1-.47-.435,2.206,2.206,0,0,1,0-.238c0-2.652,0-5.3,0-7.955a.424.424,0,0,0-.284-.455,8.247,8.247,0,0,1-.851-.466.493.493,0,0,1-.2-.7.524.524,0,0,1,.731-.166c.311.16.617.329.926.495q.9.482,1.8.966a.508.508,0,0,1,.258.683.494.494,0,0,1-.7.224c-.108-.049-.211-.108-.317-.162Z" transform="translate(-11.172 -5.506)" fill="#ff00c7"/>
  </g>
</svg>
