<svg width="574" height="472" viewBox="0 0 574 472" fill="none" xmlns="http://www.w3.org/2000/svg">
<path d="M498.4 97.1V47.7H179.2V0.700012H0.0999756V405.3C0.0999756 441.7 29.7 471.4 66.1 471.4H495C538.1 471.4 573.1 436.4 573.1 393.3V97.1H498.4ZM8.09998 405.3V8.70001H171.2V55.7H490.5V97.1H124.2V405.3C124.2 437.3 98.2 463.4 66.2 463.4C34.1 463.4 8.09998 437.3 8.09998 405.3ZM565.1 393.3C565.1 432 533.7 463.4 495 463.4H97.6C98.4 463 99.2 462.5 100 462C100.2 461.9 100.4 461.7 100.6 461.6C101.3 461.2 102 460.7 102.7 460.3C102.8 460.2 102.9 460.2 103 460.1C103.8 459.6 104.5 459 105.3 458.5C105.5 458.4 105.7 458.2 105.8 458.1C106.4 457.6 107.1 457.1 107.7 456.6C107.8 456.5 108 456.4 108.1 456.3C108.8 455.7 109.5 455.1 110.2 454.5C110.3 454.4 110.5 454.2 110.6 454.1C111.2 453.6 111.8 453 112.3 452.5C112.4 452.4 112.6 452.2 112.7 452.1C113.4 451.4 114 450.7 114.7 450.1C114.8 450 114.9 449.9 115 449.8C115.5 449.2 116.1 448.6 116.6 447.9C116.7 447.7 116.9 447.6 117 447.4C117.6 446.7 118.2 445.9 118.8 445.2C118.8 445.1 118.9 445.1 118.9 445C119.4 444.3 119.9 443.6 120.4 442.9C120.5 442.7 120.7 442.5 120.8 442.3C121.9 440.7 122.9 439.1 123.8 437.4C123.9 437.2 124 437 124.1 436.8C124.5 436 124.9 435.3 125.3 434.5C125.3 434.4 125.4 434.3 125.4 434.2C125.8 433.3 126.2 432.5 126.6 431.6C126.7 431.4 126.8 431.2 126.9 431C127.2 430.2 127.5 429.5 127.8 428.7C127.9 428.5 127.9 428.4 128 428.2C128.3 427.3 128.6 426.4 128.9 425.5C129 425.3 129 425.1 129.1 424.9C129.3 424.1 129.6 423.4 129.8 422.6C129.9 422.4 129.9 422.2 130 422C130.2 421.1 130.5 420.1 130.7 419.2C130.7 419 130.8 418.8 130.8 418.7C131 417.9 131.1 417.1 131.2 416.3C131.2 416.1 131.3 415.8 131.3 415.6C131.4 414.6 131.6 413.7 131.7 412.7C131.7 412.6 131.7 412.5 131.7 412.3C131.8 411.4 131.9 410.5 131.9 409.7C131.9 409.4 131.9 409.2 131.9 408.9C131.9 407.9 132 406.9 132 405.9V105.1H498.3H565V393.3H565.1Z" fill="#FF09D0"/>
<path d="M406.6 378.6H292.6V372.2C292.6 340.8 318.2 315.2 349.6 315.2C381 315.2 406.6 340.8 406.6 372.2V378.6ZM300.6 370.6H398.6C397.8 344.3 376.1 323.2 349.6 323.2C323.1 323.2 301.4 344.3 300.6 370.6Z" fill="#FF09D0"/>
<path d="M289.9 265C299.896 265 308 256.896 308 246.9C308 236.904 299.896 228.8 289.9 228.8C279.904 228.8 271.8 236.904 271.8 246.9C271.8 256.896 279.904 265 289.9 265Z" fill="#FF09D0"/>
<path d="M409.2 265C419.196 265 427.3 256.896 427.3 246.9C427.3 236.904 419.196 228.8 409.2 228.8C399.204 228.8 391.1 236.904 391.1 246.9C391.1 256.896 399.204 265 409.2 265Z" fill="#FF09D0"/>
</svg>
