<svg width="372" height="135" viewBox="0 0 372 135" fill="none" xmlns="http://www.w3.org/2000/svg">
<path opacity="0.5" d="M5 134.23C3.67392 134.23 2.40215 133.703 1.46447 132.766C0.526784 131.828 0 130.556 0 129.23L0 43.265C0 43.265 90.207 -13.384 186.957 43.265C277.447 96.25 360.698 43.997 371.092 37.014V129.23C371.092 130.556 370.565 131.828 369.628 132.766C368.69 133.703 367.418 134.23 366.092 134.23H5Z" fill="#FF00C7"/>
<path opacity="0.5" d="M5 134.229C3.67392 134.229 2.40215 133.702 1.46447 132.765C0.526784 131.827 0 130.555 0 129.229L0 37.929C14.95 47.59 95.485 94.366 182.75 43.269C279.5 -13.38 369.707 43.269 369.707 43.269L371.092 82.088V129.23C371.092 130.556 370.565 131.828 369.628 132.766C368.69 133.703 367.418 134.23 366.092 134.23L5 134.229Z" fill="#FF00C7"/>
<path opacity="0.5" d="M5 125.374C3.67392 125.374 2.40215 124.847 1.46447 123.91C0.526784 122.972 0 121.7 0 120.374L0 51.101C14.95 58.552 95.485 94.627 182.75 55.22C279.5 11.529 369.707 55.22 369.707 55.22L371.091 85.161V120.373C371.091 121.699 370.564 122.971 369.627 123.909C368.689 124.846 367.417 125.373 366.091 125.373L5 125.374Z" fill="#FF00C7"/>
<path opacity="0.5" d="M5 134.23C3.67392 134.23 2.40215 133.703 1.46447 132.766C0.526784 131.828 0 130.556 0 129.23L0 29.393C0 29.393 90.207 -35.897 186.957 29.393C277.447 90.458 360.698 30.236 371.092 22.188V129.231C371.092 130.557 370.565 131.829 369.628 132.767C368.69 133.704 367.418 134.231 366.092 134.231L5 134.23Z" fill="#FF00C7"/>
</svg>
