<svg width="372" height="135" viewBox="0 0 372 135" fill="none" xmlns="http://www.w3.org/2000/svg">
<path opacity="0.5" d="M5 134.23C3.67392 134.23 2.40215 133.703 1.46447 132.766C0.526784 131.828 0 130.556 0 129.23L0 43.265C0 43.265 90.207 -13.384 186.957 43.265C277.447 96.25 360.698 43.997 371.092 37.014V129.23C371.092 130.556 370.565 131.828 369.628 132.766C368.69 133.703 367.418 134.23 366.092 134.23H5Z" fill="#5C17AE"/>
<path opacity="0.5" d="M5 134.229C3.67392 134.229 2.40215 133.702 1.46447 132.765C0.526784 131.827 0 130.555 0 129.229L0 37.929C14.95 47.59 95.485 94.366 182.75 43.269C279.5 -13.38 369.707 43.269 369.707 43.269L371.092 82.088V129.23C371.092 130.556 370.565 131.828 369.628 132.766C368.69 133.703 367.418 134.23 366.092 134.23L5 134.229Z" fill="#5C17AE"/>
<path opacity="0.5" d="M5 114.572C3.67392 114.572 2.40215 114.045 1.46447 113.108C0.526784 112.17 0 110.898 0 109.572L0 40.2992C14.95 47.7502 95.485 83.8252 182.75 44.4182C279.5 0.727221 369.707 44.4182 369.707 44.4182L371.091 74.3592V109.571C371.091 110.897 370.564 112.169 369.627 113.107C368.689 114.044 367.417 114.571 366.091 114.571L5 114.572Z" fill="#5C17AE"/>
<path opacity="0.5" d="M5 134.23C3.67392 134.23 2.40215 133.703 1.46447 132.766C0.526784 131.828 0 130.556 0 129.23L0 29.393C0 29.393 90.207 -35.897 186.957 29.393C277.447 90.458 360.698 30.236 371.092 22.188V129.231C371.092 130.557 370.565 131.829 369.628 132.767C368.69 133.704 367.418 134.231 366.092 134.231L5 134.23Z" fill="#5C17AE"/>
</svg>
