<svg xmlns="http://www.w3.org/2000/svg" width="311.834" height="285.878" viewBox="0 0 311.834 285.878">
  <g id="aserty" transform="translate(-26.6 -67.41)">
    <path id="Path_2001" data-name="Path 2001" d="M182.517,397.744c86.11,0,155.917-41,155.917-91.582S268.628,214.58,182.517,214.58,26.6,255.583,26.6,306.162,96.407,397.744,182.517,397.744Z" transform="translate(0 -44.456)" fill="#f5f5f5" opacity="0.16"/>
    <path id="Path_2002" data-name="Path 2002" d="M76.9,344.218c9.024,5.207,9.024,13.651,0,18.865s-23.653,5.207-32.67,0-9.024-13.651,0-18.865S67.876,339,76.9,344.218Z" transform="translate(-3.281 -82.434)" fill="#e0e0e0" opacity="0.2"/>
    <path id="Path_2003" data-name="Path 2003" d="M121.8,326.617l81.839,47.25a6.683,6.683,0,0,0,6.044,0l138.539-79.99c1.668-.963,1.668-2.526,0-3.49l-81.839-47.25a6.683,6.683,0,0,0-6.044,0L121.8,323.127C120.121,324.09,120.121,325.653,121.8,326.617Z" transform="translate(-28.377 -52.864)" fill="#e0e0e0" opacity="0.2"/>
    <path id="Path_2004" data-name="Path 2004" d="M414.792,268.69l-5.7-3.294s-3.392-14.1-2.038-26.787c1.9-17.839,11.5-25.607,18.111-23.011,4.4,1.731,5.758,6.728-1.633,17.35C419.168,239.217,413.815,252.268,414.792,268.69Z" transform="translate(-114.827 -44.616)" fill="#ff00c7"/>
    <g id="Group_1897" data-name="Group 1897" transform="translate(291.905 170.494)" opacity="0.3">
      <path id="Path_2005" data-name="Path 2005" d="M414.792,268.69l-5.7-3.294s-3.392-14.1-2.038-26.787c1.9-17.839,11.5-25.607,18.111-23.011,4.4,1.731,5.758,6.728-1.633,17.35C419.168,239.217,413.815,252.268,414.792,268.69Z" transform="translate(-406.733 -215.11)" opacity="0.3"/>
    </g>
    <path id="Path_2006" data-name="Path 2006" d="M414.334,263.007a.154.154,0,0,0,.056-.007.391.391,0,0,0,.314-.461c-3.127-16.45,2.624-34.945,9.743-42.636a.4.4,0,1,0-.579-.537c-7.244,7.831-13.107,26.626-9.939,43.32A.387.387,0,0,0,414.334,263.007Z" transform="translate(-116.735 -45.863)" fill="#fff"/>
    <path id="Path_2007" data-name="Path 2007" d="M431.1,283.664c.9.461,3.294-1.591,3.964-2.094a8.321,8.321,0,0,0,2.617-3.329,7.869,7.869,0,0,0,.461-4.739,17.881,17.881,0,0,0-.719-2.471c-.272-.8-.544-1.591-.824-2.394a6.132,6.132,0,0,1-.482-2.429c.126-1.668,1.542-2.91,2.833-3.978,1.424-1.186,2.9-2.729,2.785-4.725a7.074,7.074,0,0,0-1.968-4.1c-1.019-1.159-2.206-2.171-3.134-3.406a4.929,4.929,0,0,1-1.166-3.057,5.082,5.082,0,0,1,.579-1.975,27.688,27.688,0,0,0,1.926-4,3.924,3.924,0,0,0-.879-4.1,4.6,4.6,0,0,0-3.483-.684,7.969,7.969,0,0,0-3.141,1.284c-3.085,1.926-4.7,5.772-8.005,7.3a33.891,33.891,0,0,1-4.027,1.2,5.044,5.044,0,0,0-3.245,2.471c-1.11,2.533,1.333,5.458.6,8.117-.649,2.359-2.862,3.357-4.02,5.514a4.967,4.967,0,0,0-.44,3.064,14.693,14.693,0,0,0,1.535,5.067,45.6,45.6,0,0,0,3.043,4.683S430.958,283.594,431.1,283.664Z" transform="translate(-116.198 -50.963)" fill="#ff00c7"/>
    <g id="Group_1898" data-name="Group 1898" transform="translate(295.072 185.159)" opacity="0.15">
      <path id="Path_2008" data-name="Path 2008" d="M431.1,283.664c.9.461,3.294-1.591,3.964-2.094a8.321,8.321,0,0,0,2.617-3.329,7.869,7.869,0,0,0,.461-4.739,17.881,17.881,0,0,0-.719-2.471c-.272-.8-.544-1.591-.824-2.394a6.132,6.132,0,0,1-.482-2.429c.126-1.668,1.542-2.91,2.833-3.978,1.424-1.186,2.9-2.729,2.785-4.725a7.074,7.074,0,0,0-1.968-4.1c-1.019-1.159-2.206-2.171-3.134-3.406a4.929,4.929,0,0,1-1.166-3.057,5.082,5.082,0,0,1,.579-1.975,27.688,27.688,0,0,0,1.926-4,3.924,3.924,0,0,0-.879-4.1,4.6,4.6,0,0,0-3.483-.684,7.969,7.969,0,0,0-3.141,1.284c-3.085,1.926-4.7,5.772-8.005,7.3a33.891,33.891,0,0,1-4.027,1.2,5.044,5.044,0,0,0-3.245,2.471c-1.11,2.533,1.333,5.458.6,8.117-.649,2.359-2.862,3.357-4.02,5.514a4.967,4.967,0,0,0-.44,3.064,14.693,14.693,0,0,0,1.535,5.067,45.6,45.6,0,0,0,3.043,4.683S430.958,283.594,431.1,283.664Z" transform="translate(-411.27 -236.122)" opacity="0.15"/>
    </g>
    <path id="Path_2009" data-name="Path 2009" d="M426.9,280.52h.014a.4.4,0,0,0,.363-.433c-1.445-15.648,5.074-33.333,10.19-38.637a.395.395,0,0,0-.565-.551c-5.221,5.409-11.872,23.388-10.413,39.259A.4.4,0,0,0,426.9,280.52Z" transform="translate(-120.734 -52.37)" fill="#fff"/>
    <path id="Path_2010" data-name="Path 2010" d="M429.217,268.676a.356.356,0,0,0,.119-.021,52.994,52.994,0,0,1,11.286-2.408.4.4,0,0,0,.356-.433.382.382,0,0,0-.433-.356,54.079,54.079,0,0,0-11.488,2.457.4.4,0,0,0-.237.509A.417.417,0,0,0,429.217,268.676Z" transform="translate(-121.492 -59.824)" fill="#fff"/>
    <path id="Path_2011" data-name="Path 2011" d="M126.34,314.708a7.4,7.4,0,0,0,3.455,5.73l75.16,43.4a7.615,7.615,0,0,0,6.9,0l132.348-76.416a6.479,6.479,0,0,0,0-11.46l-75.16-43.4a7.615,7.615,0,0,0-6.9,0L129.795,308.971A7.419,7.419,0,0,0,126.34,314.708Z" transform="translate(-30.129 -49.638)" fill="#37474f"/>
    <path id="Path_2012" data-name="Path 2012" d="M130.672,312.956l75.16,43.4a7.615,7.615,0,0,0,6.9,0l132.348-76.409c1.905-1.1,1.905-2.882,0-3.985l-75.16-43.4a7.615,7.615,0,0,0-6.9,0L130.672,308.971C128.766,310.074,128.766,311.861,130.672,312.956Z" transform="translate(-31.005 -49.638)" fill="#455a64"/>
    <path id="Path_2013" data-name="Path 2013" d="M208.409,390.716v7.468a7.044,7.044,0,0,1-3.455-.824l-75.16-43.4a6.461,6.461,0,0,1-.356-11.237c-1.549,1.11-1.424,2.736.349,3.762l75.16,43.4A7.093,7.093,0,0,0,208.409,390.716Z" transform="translate(-30.129 -83.163)" fill="#263238"/>
    <path id="Path_2014" data-name="Path 2014" d="M120.969,259.459c-1.787-1.033-1.689-2.778-1.689-4.976V150.666a7.629,7.629,0,0,1,3.455-5.981L255.083,68.276a7.4,7.4,0,0,1,6.693-.126c1.787,1.033,1.689,2.778,1.689,4.976V176.943a7.629,7.629,0,0,1-3.455,5.981L127.662,259.333A7.4,7.4,0,0,1,120.969,259.459Z" transform="translate(-27.996 0)" fill="#37474f"/>
    <path id="Path_2015" data-name="Path 2015" d="M263.9,73.126c0-2.2-1.549-3.085-3.455-2L128.1,147.553a6.963,6.963,0,0,0-2.436,2.582l-4.927-2.868h-.007a7.15,7.15,0,0,1,2.443-2.582L255.514,68.276a7.4,7.4,0,0,1,6.693-.126C263.994,69.183,263.9,70.928,263.9,73.126Z" transform="translate(-28.434 0)" fill="#455a64"/>
    <path id="Path_2016" data-name="Path 2016" d="M127.26,294.106a7.393,7.393,0,0,1-6.281-.091c-1.787-1.026-1.689-2.771-1.689-4.976V185.229a7,7,0,0,1,1.012-3.4l4.927,2.854v.007a7.077,7.077,0,0,0-1.012,3.4V291.907C124.21,293.945,125.543,294.867,127.26,294.106Z" transform="translate(-27.999 -34.563)" fill="#263238"/>
    <path id="Path_2017" data-name="Path 2017" d="M133.053,155.939l127.6-73.652c1.145-.663,2.073-.126,2.073,1.193v90.626a4.584,4.584,0,0,1-2.073,3.587l-127.6,73.652c-1.145.663-2.073.126-2.073-1.193V159.527A4.585,4.585,0,0,1,133.053,155.939Z" transform="translate(-31.53 -4.408)" fill="#fafafa"/>
    <path id="Path_2018" data-name="Path 2018" d="M144.67,311.822l122.849-70.931a3.815,3.815,0,0,1,3.455,0l2.045,1.124a1.053,1.053,0,0,1,0,2l-122.87,70.91a3.815,3.815,0,0,1-3.455,0l-2.024-1.11A1.048,1.048,0,0,1,144.67,311.822Z" transform="translate(-35.449 -52.279)" fill="#263238"/>
    <path id="Path_2019" data-name="Path 2019" d="M158.431,320,281.28,249.077a3.525,3.525,0,0,1,3.155-.175l31.972,18.46c.789.454.656,1.27-.3,1.822l-122.7,70.833a3.525,3.525,0,0,1-3.155.174l-32.112-18.376C157.349,321.368,157.482,320.551,158.431,320Z" transform="translate(-39.579 -54.734)" fill="#263238"/>
    <path id="Path_2020" data-name="Path 2020" d="M266.227,280.027l3.846-2.219c.16-.1.181-.237.035-.321l-3.678-2.122a.609.609,0,0,0-.558.021l-3.846,2.219c-.161.091-.181.237-.035.321l3.678,2.122A.609.609,0,0,0,266.227,280.027Zm-5.611-7.677-3.846,2.219c-.161.1-.181.237-.035.321l3.678,2.122a.609.609,0,0,0,.558-.021l3.846-2.219c.161-.1.181-.237.035-.321l-3.678-2.122A.609.609,0,0,0,260.616,272.35Zm-12.43,7.175-6.512,3.755c-.16.091-.181.237-.035.321l3.678,2.122a.609.609,0,0,0,.558-.021l6.512-3.755c.161-.1.181-.237.035-.321l-3.678-2.122A.61.61,0,0,0,248.186,279.525Zm6.8-3.929-3.846,2.219c-.16.091-.181.237-.035.321l3.678,2.122a.609.609,0,0,0,.558-.021l3.846-2.219c.161-.1.181-.237.035-.321l-3.678-2.122A.61.61,0,0,0,254.991,275.6Zm-15.089,8.71-3.846,2.219c-.161.1-.182.237-.035.321l3.678,2.122a.609.609,0,0,0,.558-.021l3.846-2.219c.161-.091.174-.237.035-.321l-3.678-2.122A.61.61,0,0,0,239.9,284.306Zm-5.618,3.245-3.846,2.219c-.16.1-.181.237-.035.321l3.678,2.122a.609.609,0,0,0,.558-.021l3.846-2.219c.161-.1.181-.237.035-.321l-3.678-2.122A.609.609,0,0,0,234.283,287.551Zm14.419,8.668L252.548,294c.161-.091.181-.237.035-.321l-3.678-2.122a.609.609,0,0,0-.558.021L244.5,293.8c-.16.1-.181.237-.035.321l3.678,2.122A.631.631,0,0,0,248.7,296.219Zm-5.618,3.245,3.846-2.219c.16-.1.181-.237.035-.321l-3.678-2.122a.609.609,0,0,0-.558.021l-3.846,2.219c-.161.091-.181.237-.035.321l3.678,2.122A.609.609,0,0,0,243.084,299.465Zm-5.625,3.245,3.846-2.219c.161-.091.182-.237.035-.321l-3.678-2.122a.609.609,0,0,0-.558.021l-3.846,2.219c-.161.1-.181.237-.035.321l3.678,2.122A.609.609,0,0,0,237.459,302.71Zm-5.618,3.245,3.846-2.219c.161-.091.181-.237.035-.321l-3.678-2.122a.609.609,0,0,0-.558.021l-3.846,2.219c-.161.1-.182.237-.035.321l3.678,2.122A.609.609,0,0,0,231.841,305.955Zm28.769-22.683,3.846-2.219c.161-.091.181-.237.035-.321l-3.678-2.122a.609.609,0,0,0-.558.021l-3.846,2.219c-.16.1-.181.237-.035.321l3.678,2.122A.609.609,0,0,0,260.609,283.273Zm-6.281,9.7,8.578-4.955c.161-.1.181-.237.035-.321l-8.933-5.158a.609.609,0,0,0-.558.021l-4.439,2.561c-.16.1-.181.237-.035.321l4.732,2.729c.147.084.133.23-.035.321l-3.552,2.052c-.161.091-.181.237-.035.321l3.678,2.122A.622.622,0,0,0,254.328,292.974Zm-25.67-2.177-3.846,2.219c-.161.091-.182.237-.035.321l3.678,2.122a.609.609,0,0,0,.558-.021l3.846-2.219c.161-.1.181-.237.035-.321l-3.678-2.122A.609.609,0,0,0,228.658,290.8Zm-5.618,3.245-3.846,2.219c-.161.1-.181.237-.035.321l3.678,2.122a.609.609,0,0,0,.558-.021l3.846-2.219c.161-.091.181-.237.035-.321l-3.678-2.122A.609.609,0,0,0,223.04,294.042Zm-31.107,34.652a.609.609,0,0,0,.558-.021l3.846-2.219c.161-.1.181-.237.035-.321l-3.678-2.122a.609.609,0,0,0-.558.021l-3.846,2.219c-.161.1-.182.237-.035.321ZM178.065,320l-3.846,2.219c-.161.1-.181.237-.035.321l3.678,2.122a.609.609,0,0,0,.558-.021l3.846-2.219c.161-.091.181-.237.035-.321l-3.678-2.122A.631.631,0,0,0,178.065,320Zm7.126,6.512a.609.609,0,0,0,.558-.021l3.846-2.219c.161-.1.181-.237.035-.321l-3.678-2.122a.609.609,0,0,0-.558.021l-3.846,2.219c-.161.1-.182.237-.035.321ZM200.706,330l3.846-2.219c.161-.1.181-.237.035-.321l-3.678-2.122a.609.609,0,0,0-.558.021l-3.846,2.219c-.161.091-.181.237-.035.321l3.678,2.122A.609.609,0,0,0,200.706,330Zm-6.184,3.266a.609.609,0,0,0,.558-.021l3.846-2.219c.161-.1.181-.237.035-.321l-3.678-2.122a.609.609,0,0,0-.558.021l-3.846,2.219c-.16.1-.181.237-.035.321ZM183.69,316.759l-3.846,2.219c-.161.1-.181.237-.035.321l3.678,2.122a.609.609,0,0,0,.558-.021l3.846-2.219c.161-.1.181-.237.035-.321l-3.678-2.122A.631.631,0,0,0,183.69,316.759ZM211.8,300.532l-3.846,2.219c-.161.1-.181.237-.035.321l3.678,2.122a.609.609,0,0,0,.558-.021L216,302.954c.161-.091.181-.237.035-.321l-3.678-2.122A.609.609,0,0,0,211.8,300.532Zm-22.487,12.981-3.846,2.219c-.161.091-.181.237-.035.321l3.678,2.122a.609.609,0,0,0,.558-.021l3.846-2.219c.161-.1.181-.237.035-.321l-3.678-2.122A.631.631,0,0,0,189.309,313.514Zm28.106-16.227-3.846,2.219c-.161.091-.181.237-.035.321l3.678,2.122a.609.609,0,0,0,.558-.021l3.846-2.219c.16-.1.181-.237.035-.321l-3.678-2.122A.61.61,0,0,0,217.414,297.287Zm-11.244,6.491L202.325,306c-.161.1-.181.237-.035.321l3.678,2.122a.609.609,0,0,0,.558-.021l3.846-2.219c.161-.091.181-.237.035-.321l-3.678-2.122A.61.61,0,0,0,206.171,303.778Zm-5.618,3.245-3.846,2.219c-.16.1-.181.237-.035.321l3.678,2.122a.609.609,0,0,0,.558-.021l3.846-2.219c.161-.1.174-.237.035-.321L201.111,307A.631.631,0,0,0,200.552,307.023Zm-5.618,3.245-3.846,2.219c-.161.1-.181.237-.035.321l3.678,2.122a.609.609,0,0,0,.558-.021l3.846-2.219c.16-.1.181-.237.035-.321l-3.678-2.122A.631.631,0,0,0,194.934,310.269Zm25.663,2.177,3.846-2.219c.161-.1.182-.237.035-.321l-3.678-2.122a.609.609,0,0,0-.558.021l-3.846,2.219c-.161.1-.181.237-.035.321l3.678,2.122A.609.609,0,0,0,220.6,312.446Zm52.442-47.271-3.846,2.219c-.16.1-.181.237-.035.321l3.678,2.122a.609.609,0,0,0,.558-.021l3.846-2.219c.161-.1.174-.237.035-.321l-3.678-2.122A.61.61,0,0,0,273.039,265.175Zm-6.8,3.922-3.846,2.219c-.161.1-.181.237-.035.321l3.678,2.122a.609.609,0,0,0,.558-.021l3.846-2.219c.161-.1.181-.237.035-.321l-3.678-2.122A.655.655,0,0,0,266.234,269.1Zm12.43-7.168-3.846,2.219c-.161.1-.181.237-.035.321l3.678,2.122a.609.609,0,0,0,.558-.021l3.846-2.219c.161-.1.181-.237.035-.321l-3.678-2.122A.609.609,0,0,0,278.665,261.93Zm-31.072,28.859,3.846-2.219c.161-.1.181-.237.035-.321l-3.678-2.122a.609.609,0,0,0-.558.021l-3.846,2.219c-.161.1-.181.237-.035.321l3.678,2.122A.61.61,0,0,0,247.593,290.789Zm37.248-32.126a.609.609,0,0,0-.558.021l-3.846,2.219c-.161.1-.181.237-.035.321l3.678,2.122a.609.609,0,0,0,.558-.021l3.846-2.219c.161-.1.181-.237.035-.321ZM226.222,309.2l3.846-2.219c.161-.1.181-.237.035-.321l-3.678-2.122a.609.609,0,0,0-.558.021l-3.846,2.219c-.161.091-.181.237-.035.321l3.678,2.122A.61.61,0,0,0,226.222,309.2Zm68.934-39.8L299,267.178c.16-.1.181-.237.035-.321l-3.678-2.122a.609.609,0,0,0-.558.021l-3.846,2.219c-.161.091-.181.237-.035.321l3.678,2.122A.609.609,0,0,0,295.157,269.4Zm-10.881.209,3.846-2.219c.161-.091.181-.237.035-.321l-3.678-2.122a.609.609,0,0,0-.558.021l-3.846,2.219c-.161.1-.182.237-.035.321l3.678,2.122A.609.609,0,0,0,284.276,269.607ZM290.1,261.7a.609.609,0,0,0-.558.021l-3.846,2.219c-.161.1-.181.237-.035.321l3.678,2.122a.609.609,0,0,0,.558-.021l3.846-2.219c.161-.1.181-.237.035-.321Zm1.186-.684,8.933,5.158a.609.609,0,0,0,.558-.021l3.846-2.219c.161-.1.182-.237.035-.321l-8.933-5.158a.609.609,0,0,0-.558.021l-3.846,2.219C291.151,260.785,291.137,260.932,291.283,261.016ZM278.295,268.2l-3.846,2.219c-.161.091-.181.237-.035.321l3.678,2.122a.609.609,0,0,0,.558-.021l3.846-2.219c.161-.1.181-.237.035-.321l-3.671-2.115A.645.645,0,0,0,278.295,268.2Zm-42.308,24.427-3.846,2.219c-.161.1-.181.237-.035.321l3.678,2.122a.609.609,0,0,0,.558-.021l3.846-2.219c.161-.1.181-.237.035-.321l-3.678-2.122A.656.656,0,0,0,235.986,292.632Zm52.994-19.968a.609.609,0,0,0,.558-.021l3.846-2.219c.161-.1.182-.237.035-.321l-3.678-2.122a.609.609,0,0,0-.558.021l-3.846,2.219c-.161.091-.181.237-.035.321Zm-47.368,16.722-3.846,2.219c-.161.1-.181.237-.035.321l3.678,2.122a.609.609,0,0,0,.558-.021l3.846-2.219c.161-.1.182-.237.035-.321l-3.678-2.122A.654.654,0,0,0,241.612,289.386Zm-44.06,36.062a.609.609,0,0,0,.558-.021l3.846-2.219c.161-.1.181-.237.035-.321l-3.678-2.122a.609.609,0,0,0-.558.021l-3.846,2.219c-.161.1-.181.237-.035.321Zm-6.533-6.847-3.846,2.219c-.161.091-.181.237-.035.321l3.678,2.122a.609.609,0,0,0,.558-.021l3.846-2.219c.16-.1.181-.237.035-.321l-3.678-2.122A.609.609,0,0,0,191.019,318.6Zm12.716,3.58,3.846-2.219c.161-.091.181-.237.035-.321l-3.678-2.122a.609.609,0,0,0-.558.021l-3.846,2.219c-.161.1-.181.237-.035.321l3.678,2.122A.61.61,0,0,0,203.735,322.182Zm5.618-3.245,3.846-2.219c.161-.1.181-.237.035-.321l-3.678-2.122a.609.609,0,0,0-.558.021l-3.846,2.219c-.16.1-.181.237-.035.321l3.678,2.122A.609.609,0,0,0,209.353,318.937Zm5.625-3.245,3.846-2.219c.161-.1.181-.237.035-.321l-3.678-2.122a.609.609,0,0,0-.558.021l-3.846,2.219c-.161.1-.182.237-.035.321l3.678,2.122A.61.61,0,0,0,214.979,315.691Zm-18.342-.335-3.846,2.219c-.161.1-.181.237-.035.321l3.678,2.122a.609.609,0,0,0,.558-.021l3.846-2.219c.161-.1.181-.237.035-.321l-3.678-2.122A.609.609,0,0,0,196.637,315.356Zm5.625-3.245-3.846,2.219c-.16.1-.181.237-.035.321l3.678,2.122a.609.609,0,0,0,.558-.021l3.846-2.219c.161-.1.181-.237.035-.321l-3.678-2.122A.609.609,0,0,0,202.262,312.111Zm22.48-12.982-3.846,2.219c-.161.1-.181.237-.035.321l3.678,2.122a.609.609,0,0,0,.558-.021l3.846-2.219c.161-.1.181-.237.035-.321l-3.678-2.122A.61.61,0,0,0,224.743,299.13Zm-5.618,3.245-3.846,2.219c-.161.1-.182.237-.035.321l3.678,2.122a.609.609,0,0,0,.558-.021l3.846-2.219c.161-.1.181-.237.035-.321l-3.678-2.122A.609.609,0,0,0,219.124,302.375Zm11.244-6.5-3.846,2.219c-.161.1-.181.237-.035.321l3.678,2.122a.609.609,0,0,0,.558-.021l3.846-2.219c.161-.1.181-.237.035-.321l-3.678-2.122A.654.654,0,0,0,230.368,295.877Zm-22.487,12.988-3.846,2.219c-.161.1-.181.237-.035.321l3.678,2.122a.609.609,0,0,0,.558-.021l3.846-2.219c.161-.1.181-.237.035-.321l-3.678-2.122A.609.609,0,0,0,207.881,308.866Zm5.618-3.245-3.846,2.219c-.16.1-.181.237-.035.321l3.678,2.122a.609.609,0,0,0,.558-.021l3.846-2.219c.161-.1.181-.237.035-.321l-3.678-2.122A.61.61,0,0,0,213.5,305.62Zm-7.175,21.133,3.846-2.219c.161-.1.181-.237.035-.321l-3.678-2.122a.609.609,0,0,0-.558.021l-3.846,2.219c-.161.1-.181.237-.035.321l3.678,2.122A.609.609,0,0,0,206.324,326.754Zm-29.641-1.4-3.678-2.122a.609.609,0,0,0-.558.021l-3.846,2.219c-.161.1-.181.237-.035.321l3.678,2.122a.609.609,0,0,0,.558-.021l3.846-2.219C176.816,325.588,176.83,325.441,176.683,325.358Zm7.328,1.836-3.678-2.122a.609.609,0,0,0-.558.021l-5.918,3.413c-.161.1-.181.237-.035.321l3.678,2.122a.609.609,0,0,0,.558-.021l5.918-3.42C184.144,327.424,184.158,327.277,184.012,327.193Zm-12.821-6.03-3.678-2.122a.609.609,0,0,0-.558.021l-4.732,2.736c-.161.091-.181.237-.035.321l3.678,2.122a.609.609,0,0,0,.558-.021l4.732-2.736C171.323,321.386,171.337,321.247,171.191,321.163Zm3.629-2.1a.609.609,0,0,0,.558-.021l3.846-2.219c.16-.1.181-.237.035-.321l-3.678-2.122a.609.609,0,0,0-.558.021l-3.846,2.219c-.161.1-.181.237-.035.321Zm15.927,10.315-3.678-2.122a.609.609,0,0,0-.558.021l-7.4,4.271c-.161.1-.181.237-.035.321l3.678,2.122a.609.609,0,0,0,.558-.021l7.4-4.271C190.879,329.608,190.893,329.462,190.747,329.378Zm2.6,4.571-3.678-2.122a.609.609,0,0,0-.558.021l-4.732,2.736c-.161.1-.181.237-.035.321l3.678,2.122a.609.609,0,0,0,.558-.021l4.732-2.736C193.468,334.18,193.489,334.033,193.343,333.949Zm23.276-39.014a.609.609,0,0,0,.558-.021l3.846-2.219c.161-.091.181-.237.035-.321l-3.678-2.122a.609.609,0,0,0-.558.021l-3.846,2.219c-.161.1-.181.237-.035.321Zm-11.244,6.491a.609.609,0,0,0,.558-.021l3.846-2.219c.161-.091.181-.237.035-.321l-3.678-2.122a.609.609,0,0,0-.558.021l-3.846,2.219c-.161.1-.181.237-.035.321Zm-24.937,14.391A.609.609,0,0,0,181,315.8l3.846-2.219c.161-.1.181-.237.035-.321l-3.678-2.122a.609.609,0,0,0-.558.021l-3.846,2.219c-.161.091-.181.237-.035.321Zm30.555-17.637a.609.609,0,0,0,.558-.021l3.846-2.219c.161-.091.181-.237.035-.321l-3.678-2.122a.609.609,0,0,0-.558.021l-3.846,2.219c-.161.1-.182.237-.035.321Zm-11.244,6.491a.609.609,0,0,0,.558-.021l3.846-2.219c.161-.1.181-.237.035-.321l-3.678-2.122a.609.609,0,0,0-.558.021l-3.846,2.219c-.161.1-.181.237-.035.321ZM196.1,334.18a.609.609,0,0,0-.558.021l-5.918,3.42c-.161.091-.181.237-.035.321l3.678,2.122a.609.609,0,0,0,.558-.021l5.918-3.413c.161-.1.181-.237.035-.321Zm-4.418-24.853a.609.609,0,0,0,.558-.021l3.846-2.219c.16-.1.181-.237.035-.321l-3.678-2.122a.609.609,0,0,0-.558.021l-3.846,2.219c-.16.1-.181.237-.035.321Zm-5.618,3.245a.609.609,0,0,0,.558-.021l3.846-2.219c.161-.1.181-.237.035-.321l-3.678-2.122a.609.609,0,0,0-.558.021l-3.846,2.219c-.16.1-.181.237-.035.321Zm114.188-38.526a.609.609,0,0,0-.558.021l-9.471,5.465c-.16.1-.181.237-.035.321l3.678,2.122a.609.609,0,0,0,.558-.021l9.471-5.465c.161-.091.181-.237.035-.321Zm-12.43,7.175a.609.609,0,0,0-.558.021l-3.846,2.219c-.16.1-.181.237-.035.321l3.678,2.122a.609.609,0,0,0,.558-.021l3.846-2.219c.161-.091.181-.237.035-.321ZM211.95,323.508l3.846-2.219c.161-.1.181-.237.035-.321l-3.678-2.122a.609.609,0,0,0-.558.021l-3.846,2.219c-.161.1-.182.237-.035.321l3.678,2.122A.61.61,0,0,0,211.95,323.508Zm64.628-35.8a.609.609,0,0,0-.558.021l-3.846,2.219c-.16.1-.181.237-.035.321l3.678,2.122a.609.609,0,0,0,.558-.021l3.846-2.219c.161-.1.181-.237.035-.321ZM305.87,270.8a.609.609,0,0,0-.558.021l-3.846,2.219c-.161.091-.181.237-.035.321l3.678,2.122a.609.609,0,0,0,.558-.021l3.846-2.219c.161-.1.181-.237.035-.321Zm9.3-1.117-8.933-5.158a.609.609,0,0,0-.558.021l-3.846,2.219c-.161.1-.181.237-.035.321l8.934,5.158a.609.609,0,0,0,.558-.021l3.846-2.219C315.3,269.907,315.32,269.768,315.173,269.684Zm-59.6,30.157a.609.609,0,0,0-.558.021L250.28,302.6c-.16.091-.181.237-.035.321l3.678,2.122a.609.609,0,0,0,.558-.021l4.732-2.736c.161-.1.181-.237.035-.321Zm14.2-8.2a.609.609,0,0,0-.558.021l-5.918,3.42c-.16.091-.181.237-.035.321l3.678,2.122a.609.609,0,0,0,.558-.021l5.918-3.42c.161-.1.181-.237.035-.321Zm-27.219,15.717a.609.609,0,0,0-.558.021l-31.658,18.279c-.161.1-.181.237-.035.321l3.678,2.122a.609.609,0,0,0,.558-.021L246.2,309.8c.16-.1.181-.237.035-.321Zm-33.431,19.3a.609.609,0,0,0-.558.021l-4.732,2.736c-.161.1-.182.237-.035.321l3.678,2.122a.609.609,0,0,0,.558-.021l4.732-2.736c.16-.091.174-.237.035-.321Zm39.942-23.06a.609.609,0,0,0-.558.021l-4.732,2.736c-.161.1-.181.237-.035.321l3.678,2.122a.609.609,0,0,0,.558-.021l4.732-2.736c.161-.091.181-.237.035-.321Zm-46.454,26.814a.609.609,0,0,0-.558.021l-4.732,2.736c-.161.1-.181.237-.035.321l3.678,2.122a.609.609,0,0,0,.558-.021l4.732-2.736c.161-.1.181-.237.035-.321Zm59.47-34.331a.609.609,0,0,0-.558.021l-4.732,2.736c-.161.1-.181.237-.035.321l3.678,2.122a.609.609,0,0,0,.558-.021l4.732-2.736c.161-.1.181-.237.035-.321ZM282.2,284.466a.609.609,0,0,0-.558.021l-3.846,2.219c-.161.1-.181.237-.035.321l3.678,2.122a.609.609,0,0,0,.558-.021l3.846-2.219c.161-.1.182-.237.035-.321Zm12.591-8.787,3.846-2.219c.161-.1.181-.237.035-.321L295,271.017a.609.609,0,0,0-.558.021l-3.846,2.219c-.161.1-.181.237-.035.321l3.678,2.122A.61.61,0,0,0,294.794,275.679Zm-22.941,1.1,3.846-2.219c.161-.091.181-.237.035-.321l-3.678-2.122a.609.609,0,0,0-.558.021l-3.846,2.219c-.161.1-.181.237-.035.321l3.678,2.122A.609.609,0,0,0,271.853,276.782Zm-14.929,20.763,11.244-6.491c.161-.1.181-.237.035-.321l-3.678-2.122a.609.609,0,0,0-.558.021l-11.244,6.491c-.161.091-.181.237-.035.321l3.678,2.122A.61.61,0,0,0,256.924,297.545Zm31.686-18.6a.609.609,0,0,0,.558-.021l3.846-2.219c.161-.1.182-.237.035-.321l-3.678-2.122a.609.609,0,0,0-.558.021l-3.846,2.219c-.16.091-.174.237-.035.321Zm-4.7-3.057,3.846-2.219c.16-.091.181-.237.035-.321l-3.678-2.122a.609.609,0,0,0-.558.021l-3.846,2.219c-.161.1-.181.237-.035.321l3.678,2.122A.609.609,0,0,0,283.913,275.889Zm-32.614,24.9,3.846-2.219c.16-.1.181-.237.035-.321l-3.678-2.122a.609.609,0,0,0-.558.021l-3.846,2.219c-.161.091-.181.237-.035.321l3.678,2.122A.609.609,0,0,0,251.3,300.791Zm24.888-14.67a.609.609,0,0,0,.558-.021l3.846-2.22c.161-.1.181-.237.035-.321l-3.678-2.122a.609.609,0,0,0-.558.021l-3.846,2.219c-.161.1-.181.237-.035.321Zm-52.994,30.9,3.846-2.219c.161-.091.175-.237.035-.321l-3.678-2.122a.609.609,0,0,0-.558.021l-3.846,2.219c-.161.091-.181.237-.035.321l3.678,2.122A.61.61,0,0,0,223.193,317.017Zm5.618-3.245,3.846-2.219c.161-.1.181-.237.035-.321l-3.678-2.122a.609.609,0,0,0-.558.021l-3.846,2.219c-.16.091-.181.237-.035.321l3.678,2.122A.609.609,0,0,0,228.812,313.772Zm-11.244,6.491,3.846-2.219c.161-.1.181-.237.035-.321L217.77,315.6a.609.609,0,0,0-.558.021l-3.846,2.219c-.161.1-.181.237-.035.321l3.678,2.122A.609.609,0,0,0,217.568,320.263Zm22.487-12.981,3.846-2.219c.161-.1.181-.237.035-.321l-3.678-2.122a.609.609,0,0,0-.558.021l-3.846,2.219c-.161.091-.181.237-.035.321L239.5,307.3A.609.609,0,0,0,240.055,307.281Zm-5.618,3.245,3.846-2.219c.161-.091.181-.237.035-.321l-3.678-2.122a.609.609,0,0,0-.558.021l-3.846,2.219c-.16.1-.181.237-.035.321l3.678,2.122A.61.61,0,0,0,234.437,310.527Zm11.244-6.491,3.846-2.219c.161-.091.181-.237.035-.321l-3.678-2.122a.609.609,0,0,0-.558.021l-3.846,2.219c-.161.091-.181.237-.035.321l3.678,2.122A.61.61,0,0,0,245.68,304.036Zm30.674-45.149a.609.609,0,0,0,.558-.021l3.846-2.219c.161-.1.181-.237.035-.321l-.977-.565a.609.609,0,0,0-.558.021L275.412,258c-.161.091-.181.237-.035.321Zm-27.938,17.692a.609.609,0,0,0,.558-.021l3.846-2.219c.161-.1.181-.237.035-.321l-3.678-2.122a.609.609,0,0,0-.558.021l-3.846,2.219c-.161.1-.181.237-.035.321Zm11.244-6.5a.609.609,0,0,0,.558-.021l3.846-2.219c.161-.1.181-.237.035-.321l-3.678-2.122a.609.609,0,0,0-.558.021l-3.846,2.219c-.161.1-.181.237-.035.321Zm-18.111,10.455a.609.609,0,0,0,.558-.021l3.846-2.219c.161-.091.181-.237.035-.321l-3.678-2.122a.609.609,0,0,0-.558.021l-3.846,2.219c-.161.1-.181.237-.035.321Zm12.486-7.2a.609.609,0,0,0,.558-.021l3.846-2.22c.161-.1.181-.237.035-.321l-3.678-2.122a.609.609,0,0,0-.558.021l-3.846,2.219c-.161.1-.181.237-.035.321Zm-23.73,13.7a.609.609,0,0,0,.558-.021l3.846-2.219c.16-.1.181-.237.035-.321l-3.678-2.122a.609.609,0,0,0-.558.021l-3.846,2.219c-.161.1-.174.237-.035.321Zm5.625-3.252a.609.609,0,0,0,.558-.021l3.846-2.219c.161-.1.174-.237.035-.321l-3.678-2.122a.609.609,0,0,0-.558.021l-3.846,2.219c-.161.1-.181.237-.035.321Zm29.18-18.4a.609.609,0,0,0,.558-.021l3.846-2.219c.16-.091.174-.237.035-.321l-.977-.565a.609.609,0,0,0-.558.021l-3.846,2.219c-.161.1-.181.237-.035.321Zm16.869-9.736a.609.609,0,0,0,.558-.021l3.846-2.219c.161-.1.181-.237.035-.321l-.977-.565a.609.609,0,0,0-.558.021l-3.846,2.219c-.161.1-.181.237-.035.321Zm7.726,4.46a.609.609,0,0,0,.558-.021l3.846-2.219c.161-.1.181-.237.035-.321l-3.678-2.122a.609.609,0,0,0-.558.021l-3.846,2.219c-.161.1-.181.237-.035.321Zm10.706,12.332,3.846-2.219c.16-.091.181-.237.035-.321l-3.678-2.122a.609.609,0,0,0-.558.021l-3.846,2.219c-.161.1-.181.237-.035.321l3.678,2.122A.609.609,0,0,0,300.412,272.434Zm-29.676-10.3a.609.609,0,0,0,.558-.021l3.846-2.219c.16-.1.181-.237.035-.321l-.977-.565a.609.609,0,0,0-.558.021l-3.846,2.219c-.16.1-.181.237-.035.321ZM224.687,290.28a.609.609,0,0,0,.558-.021l3.846-2.219c.161-.1.181-.237.035-.321l-3.678-2.122a.609.609,0,0,0-.558.021l-3.846,2.219c-.161.091-.181.237-.035.321Z" transform="translate(-40.927 -55.897)" fill="#455a64"/>
    <path id="Path_2021" data-name="Path 2021" d="M275.61,338.69l.789.454,20.952,12.088,37.248-21.5.775-.447L313.64,316.74Z" transform="translate(-75.219 -75.315)" fill="#37474f"/>
    <path id="Path_2022" data-name="Path 2022" d="M276.74,339.53l20.952,12.088,37.248-21.5-20.959-12.1Z" transform="translate(-75.56 -75.702)" fill="#263238"/>
    <path id="Path_2023" data-name="Path 2023" d="M102.512,210.97l-8.536-4.927c-.377-.216-.656-.272-.8-.188-.181.1-.886.516-1.04.6-.181.1-.181.412.049.886l2.073,4.3-1.549,1.424a1.206,1.206,0,0,0,.223,2.052l8.536,4.927,1.04-.6V210.97Z" transform="translate(-19.756 -41.809)" fill="#ff00c7"/>
    <path id="Path_2024" data-name="Path 2024" d="M102.512,210.97l-8.536-4.927c-.377-.216-.656-.272-.8-.188-.181.1-.886.516-1.04.6-.181.1-.181.412.049.886l2.073,4.3-1.549,1.424a1.206,1.206,0,0,0,.223,2.052l8.536,4.927,1.04-.6V210.97Z" transform="translate(-19.756 -41.809)" fill="#fff" opacity="0.5"/>
    <path id="Path_2025" data-name="Path 2025" d="M92.936,206.912c-.837-.482-1.173-.168-.754.7l2.073,4.3-1.549,1.424a1.206,1.206,0,0,0,.223,2.052l8.536,4.927V211.84Z" transform="translate(-19.756 -42.071)" fill="#ff00c7"/>
    <path id="Path_2026" data-name="Path 2026" d="M106.575,238.97a1,1,0,0,1-1.005-1.005v-28.35a1.005,1.005,0,1,1,2.01,0v28.35A1.01,1.01,0,0,1,106.575,238.97Z" transform="translate(-23.855 -42.652)" fill="#455a64"/>
    <path id="Path_2027" data-name="Path 2027" d="M54.39,357.455v-1.773h.44a7,7,0,0,1,2.868-2.82,17.638,17.638,0,0,1,15.969,0,6.96,6.96,0,0,1,2.868,2.82h.433V357.4c.035,1.7-1.061,3.392-3.3,4.69a17.638,17.638,0,0,1-15.969,0C55.479,360.813,54.376,359.13,54.39,357.455Z" transform="translate(-8.395 -85.65)" fill="#263238"/>
    <path id="Path_2028" data-name="Path 2028" d="M65.673,361.437c6.237,0,11.292-2.919,11.292-6.519S71.909,348.4,65.673,348.4s-11.292,2.919-11.292,6.519S59.436,361.437,65.673,361.437Z" transform="translate(-8.392 -84.879)" fill="#455a64"/>
    <path id="Path_2029" data-name="Path 2029" d="M72.214,269.77v60.615a1.445,1.445,0,0,1-.851,1.187,4.539,4.539,0,0,1-4.111,0,1.445,1.445,0,0,1-.851-1.187V269.77Z" transform="translate(-12.022 -61.127)" fill="#37474f"/>
    <path id="Path_2030" data-name="Path 2030" d="M66.4,280.28v5.7l5.814,3.35v-5.688Z" transform="translate(-12.022 -64.302)" fill="#263238"/>
    <path id="Path_2031" data-name="Path 2031" d="M92.9,260.267l10.748,6.212a.778.778,0,0,1-.209.216l-18.8,10.853c-.161.091-.286.021-.286-.167V263.833a21.152,21.152,0,0,1,1.57-7.593Z" transform="translate(-17.445 -57.04)" fill="#ff00c7"/>
    <path id="Path_2032" data-name="Path 2032" d="M92.9,260.267l10.748,6.212a.778.778,0,0,1-.209.216l-18.8,10.853c-.161.091-.286.021-.286-.167V263.833a21.152,21.152,0,0,1,1.57-7.593Z" transform="translate(-17.445 -57.04)" opacity="0.4"/>
    <path id="Path_2033" data-name="Path 2033" d="M104.411,246.072v15.159L86.6,250.951c.021-.049.035-.1.056-.147,1.912-4.767,5.13-8.815,8.619-10.825A8.129,8.129,0,0,1,99.3,238.73C102.45,238.73,104.411,241.543,104.411,246.072Z" transform="translate(-18.124 -51.751)" fill="#ff00c7"/>
    <path id="Path_2034" data-name="Path 2034" d="M104.411,246.072v15.159L86.6,250.951c.021-.049.035-.1.056-.147,1.912-4.767,5.13-8.815,8.619-10.825A8.129,8.129,0,0,1,99.3,238.73C102.45,238.73,104.411,241.543,104.411,246.072Z" transform="translate(-18.124 -51.751)" opacity="0.3"/>
    <path id="Path_2035" data-name="Path 2035" d="M122.648,288.985v-1.354h-.126v.2a5.426,5.426,0,0,0-.356-1.1,10.2,10.2,0,0,0-4.495-4.571l-12.723-7.349a2.114,2.114,0,0,0-1.919,0L83.571,286.04a2.737,2.737,0,0,1-.621-.684v1.361a.669.669,0,0,0,.4.551l12.723,7.349a24.33,24.33,0,0,0,12.172,2.875,21.161,21.161,0,0,0,10.127-2.464C121.231,293.4,122.641,291.212,122.648,288.985Z" transform="translate(-17.022 -62.58)" fill="#ff00c7"/>
    <path id="Path_2036" data-name="Path 2036" d="M122.648,288.985v-1.354h-.126v.2a5.426,5.426,0,0,0-.356-1.1,10.2,10.2,0,0,0-4.495-4.571l-12.723-7.349a2.114,2.114,0,0,0-1.919,0L83.571,286.04a2.737,2.737,0,0,1-.621-.684v1.361a.669.669,0,0,0,.4.551l12.723,7.349a24.33,24.33,0,0,0,12.172,2.875,21.161,21.161,0,0,0,10.127-2.464C121.231,293.4,122.641,291.212,122.648,288.985Z" transform="translate(-17.022 -62.58)" opacity="0.4"/>
    <path id="Path_2037" data-name="Path 2037" d="M122.435,286.731a10.2,10.2,0,0,0-4.495-4.571l-12.723-7.349a2.114,2.114,0,0,0-1.919,0L83.84,286.04l12.5,7.217a24.329,24.329,0,0,0,12.172,2.875,21.162,21.162,0,0,0,10.127-2.464c2.568-1.48,3.971-3.385,4.229-5.374A5.7,5.7,0,0,0,122.435,286.731Z" transform="translate(-17.29 -62.58)" fill="#ff00c7"/>
    <path id="Path_2038" data-name="Path 2038" d="M122.435,286.731a10.2,10.2,0,0,0-4.495-4.571l-12.723-7.349a2.114,2.114,0,0,0-1.919,0L83.84,286.04l12.5,7.217a24.329,24.329,0,0,0,12.172,2.875,21.162,21.162,0,0,0,10.127-2.464c2.568-1.48,3.971-3.385,4.229-5.374A5.7,5.7,0,0,0,122.435,286.731Z" transform="translate(-17.29 -62.58)" opacity="0.2"/>
    <path id="Path_2039" data-name="Path 2039" d="M122.6,287.706a5.5,5.5,0,0,0-.44-1.577,10.2,10.2,0,0,0-4.495-4.571l-12.723-7.349a2.115,2.115,0,0,0-1.919,0l-19.458,11.23-.223-.126a.586.586,0,0,1,0-1.11l19.675-11.362a2.114,2.114,0,0,1,1.919,0l12.723,7.349a10.2,10.2,0,0,1,4.495,4.571,5.632,5.632,0,0,1,.447,1.675A4.555,4.555,0,0,1,122.6,287.706Z" transform="translate(-17.019 -61.985)" fill="#ff00c7"/>
    <path id="Path_2040" data-name="Path 2040" d="M122.6,287.706a5.5,5.5,0,0,0-.44-1.577,10.2,10.2,0,0,0-4.495-4.571l-12.723-7.349a2.115,2.115,0,0,0-1.919,0l-19.458,11.23-.223-.126a.586.586,0,0,1,0-1.11l19.675-11.362a2.114,2.114,0,0,1,1.919,0l12.723,7.349a10.2,10.2,0,0,1,4.495,4.571,5.632,5.632,0,0,1,.447,1.675A4.555,4.555,0,0,1,122.6,287.706Z" transform="translate(-17.019 -61.985)" opacity="0.3"/>
    <path id="Path_2041" data-name="Path 2041" d="M84.14,283.6l19.675-11.362-.433-1.026L84.573,282.07Z" transform="translate(-17.381 -61.562)" fill="#ff00c7"/>
    <path id="Path_2042" data-name="Path 2042" d="M84.14,283.6l19.675-11.362-.433-1.026L84.573,282.07Z" transform="translate(-17.381 -61.562)" opacity="0.1"/>
    <path id="Path_2043" data-name="Path 2043" d="M98.224,241.575a1.026,1.026,0,0,0-.468-.81L73.8,226.932a1.05,1.05,0,0,0-.935,0l-.53.307a1.026,1.026,0,0,0-.468.81v18.362a1.026,1.026,0,0,0,.468.81l23.953,13.833a1.049,1.049,0,0,0,.935,0l.53-.307a1.037,1.037,0,0,0,.468-.81Z" transform="translate(-13.675 -48.154)" fill="#f5f5f5"/>
    <path id="Path_2044" data-name="Path 2044" d="M98.152,241.115l-1.326.768L72.07,227.589a.99.99,0,0,1,.328-.349l.53-.3a1.007,1.007,0,0,1,.935,0l23.953,13.833A.833.833,0,0,1,98.152,241.115Z" transform="translate(-13.735 -48.155)" fill="#e0e0e0"/>
    <path id="Path_2045" data-name="Path 2045" d="M107.38,276.01a.365.365,0,0,0,.091.007h-.028A.172.172,0,0,1,107.38,276.01Z" transform="translate(-24.401 -63.012)" fill="#ff00c7"/>
    <path id="Path_2046" data-name="Path 2046" d="M96.765,242.2l-.244.147a.4.4,0,0,1,.244.4V261.11a.324.324,0,0,1-.147.307.3.3,0,0,1-.223.007c-.035-.014-.07-.028-.1-.042L72.338,247.55a1.048,1.048,0,0,1-.468-.81V228.378a.98.98,0,0,1,.14-.468Z" transform="translate(-13.675 -48.482)" fill="#ebebeb"/>
    <path id="Path_2047" data-name="Path 2047" d="M96.755,242.192l-11.1,4.146a1.811,1.811,0,0,1-2.143-.7l-1.78-2.729L71.909,227.85l9.471,15.159-9.52,3.727a.919.919,0,0,0,.147.468l9.4-4.153,2.073,3.315a1.8,1.8,0,0,0,2.254.691l1.473-.649,9.4,15a.324.324,0,0,0,.147-.307v-.307L87.263,246.38Z" transform="translate(-13.672 -48.464)" opacity="0.2"/>
    <path id="Path_2048" data-name="Path 2048" d="M90.1,246.225a1.026,1.026,0,0,0-.468-.81L65.683,231.582a1.049,1.049,0,0,0-.935,0l-.53.307a1.026,1.026,0,0,0-.468.81v18.362a1.026,1.026,0,0,0,.468.81L88.171,265.7a1.049,1.049,0,0,0,.935,0l.53-.307a1.037,1.037,0,0,0,.468-.81Z" transform="translate(-11.222 -49.558)" fill="#f5f5f5"/>
    <path id="Path_2049" data-name="Path 2049" d="M90.022,245.765l-1.326.768L63.94,232.239a.99.99,0,0,1,.328-.349l.53-.3a1.007,1.007,0,0,1,.935,0l23.953,13.833A.878.878,0,0,1,90.022,245.765Z" transform="translate(-11.279 -49.559)" fill="#e0e0e0"/>
    <path id="Path_2050" data-name="Path 2050" d="M99.25,280.67a.367.367,0,0,0,.091.007h-.028A.173.173,0,0,1,99.25,280.67Z" transform="translate(-21.945 -64.42)" fill="#ff00c7"/>
    <path id="Path_2051" data-name="Path 2051" d="M88.635,246.864l-.244.147a.4.4,0,0,1,.244.4V265.77a.324.324,0,0,1-.147.307.3.3,0,0,1-.223.007c-.035-.014-.07-.028-.1-.042L64.208,252.21a1.048,1.048,0,0,1-.468-.81V233.038a.98.98,0,0,1,.14-.468Z" transform="translate(-11.219 -49.89)" fill="#ebebeb"/>
    <path id="Path_2052" data-name="Path 2052" d="M88.635,246.842l-11.1,4.146a1.811,1.811,0,0,1-2.143-.7l-1.78-2.729L63.789,232.5l9.471,15.159-9.52,3.727a.919.919,0,0,0,.147.468l9.4-4.153,2.073,3.315a1.8,1.8,0,0,0,2.254.691l1.473-.649,9.4,15a.324.324,0,0,0,.147-.307v-.307l-9.5-14.405Z" transform="translate(-11.219 -49.869)" opacity="0.2"/>
    <path id="Path_2053" data-name="Path 2053" d="M81.974,250.885a1.026,1.026,0,0,0-.468-.81L57.553,236.242a1.049,1.049,0,0,0-.935,0l-.53.307a1.026,1.026,0,0,0-.468.81v18.363a1.026,1.026,0,0,0,.468.81l23.953,13.833a1.049,1.049,0,0,0,.935,0l.53-.307a1.037,1.037,0,0,0,.468-.81Z" transform="translate(-8.766 -50.966)" fill="#f5f5f5"/>
    <path id="Path_2054" data-name="Path 2054" d="M81.9,250.425l-1.326.768L55.82,236.9a.99.99,0,0,1,.328-.349l.53-.3a1.007,1.007,0,0,1,.935,0l23.953,13.833A.878.878,0,0,1,81.9,250.425Z" transform="translate(-8.827 -50.967)" fill="#e0e0e0"/>
    <path id="Path_2055" data-name="Path 2055" d="M91.13,285.33a.372.372,0,0,0,.091.007h-.028A.217.217,0,0,0,91.13,285.33Z" transform="translate(-19.493 -65.827)" fill="#ff00c7"/>
    <path id="Path_2056" data-name="Path 2056" d="M80.515,251.517l-.244.147a.4.4,0,0,1,.244.4v18.362a.324.324,0,0,1-.147.307.3.3,0,0,1-.223.007c-.035-.014-.07-.028-.1-.042l-23.96-13.833a1.048,1.048,0,0,1-.468-.81V237.7a.98.98,0,0,1,.14-.468Z" transform="translate(-8.766 -51.298)" fill="#ebebeb"/>
    <path id="Path_2057" data-name="Path 2057" d="M80.505,251.5l-11.1,4.146a1.811,1.811,0,0,1-2.143-.7l-1.78-2.729L55.659,237.16l9.471,15.159-9.52,3.727a.919.919,0,0,0,.147.468l9.4-4.153,2.073,3.315a1.8,1.8,0,0,0,2.254.691l1.473-.649,9.4,15a.324.324,0,0,0,.147-.307V270.1l-9.5-14.405Z" transform="translate(-8.763 -51.277)" opacity="0.2"/>
    <path id="Path_2058" data-name="Path 2058" d="M88,230.4c-1.905-1-4.432-.824-7.2.775a21.878,21.878,0,0,0-7.866,8.731,27.338,27.338,0,0,0-1.228,2.638A22.264,22.264,0,0,0,70,250.7v15.48a2.017,2.017,0,0,1-.956-.23L41.486,250.019a2.143,2.143,0,0,1-.956-1.661v-14.7c0-7.342,4.837-16.08,10.8-19.528,2.827-1.633,5.395-1.766,7.321-.684l.007-.014Z" transform="translate(-4.208 -43.902)" fill="#ff00c7"/>
    <path id="Path_2059" data-name="Path 2059" d="M88,230.4c-1.905-1-4.432-.824-7.2.775a21.878,21.878,0,0,0-7.866,8.731,27.338,27.338,0,0,0-1.228,2.638A22.264,22.264,0,0,0,70,250.7v15.48a2.017,2.017,0,0,1-.956-.23L41.486,250.019a2.143,2.143,0,0,1-.956-1.661v-14.7c0-7.342,4.837-16.08,10.8-19.528,2.827-1.633,5.395-1.766,7.321-.684l.007-.014Z" transform="translate(-4.208 -43.902)" opacity="0.2"/>
    <path id="Path_2060" data-name="Path 2060" d="M41.486,257.2l27.561,15.92a2.017,2.017,0,0,0,.956.23v-15.48a19.533,19.533,0,0,1,.516-4.334L41.039,236.51a19.926,19.926,0,0,0-.509,4.327v14.7A2.143,2.143,0,0,0,41.486,257.2Z" transform="translate(-4.208 -51.08)" opacity="0.1"/>
    <path id="Path_2061" data-name="Path 2061" d="M84.313,250.509a22.264,22.264,0,0,0-1.71,8.152v15.48a1.906,1.906,0,0,1-.349-.035c-.007-.893-.014-5.863-.014-15.445,0-11.39,8.759-18.628,11.167-19.521a21.878,21.878,0,0,0-7.866,8.731A27.343,27.343,0,0,0,84.313,250.509Z" transform="translate(-16.807 -51.875)" fill="#ff00c7"/>
    <path id="Path_2062" data-name="Path 2062" d="M84.313,250.509a22.264,22.264,0,0,0-1.71,8.152v15.48a1.906,1.906,0,0,1-.349-.035c-.007-.893-.014-5.863-.014-15.445,0-11.39,8.759-18.628,11.167-19.521a21.878,21.878,0,0,0-7.866,8.731A27.343,27.343,0,0,0,84.313,250.509Z" transform="translate(-16.807 -51.875)" opacity="0.4"/>
    <path id="Path_2063" data-name="Path 2063" d="M84.162,271.776c-.161.091-.286.014-.286-.168V258.062a21.151,21.151,0,0,1,1.57-7.593c.021-.049.035-.1.056-.147a25.509,25.509,0,0,1,1.312-2.792,20.545,20.545,0,0,1,7.307-8.033,8.13,8.13,0,0,1,4.027-1.249,4.454,4.454,0,0,1,2.122.509c1.884,1.005,2.987,3.434,2.987,6.833v14.824a.627.627,0,0,1-.286.5l.44,1.026c.035-.021.07-.042.1-.063a1.721,1.721,0,0,0,.4-.384v-.007a2.054,2.054,0,0,0,.461-1.214V245.576c0-3.929-1.389-6.665-3.594-7.824-1.912-1-4.432-.824-7.2.775a21.878,21.878,0,0,0-7.866,8.731A26.538,26.538,0,0,0,84.49,249.9a22.264,22.264,0,0,0-1.71,8.152v15.473a1.36,1.36,0,0,0,.167-.007,1.923,1.923,0,0,0,.8-.223Z" transform="translate(-16.97 -51.268)" fill="#ff00c7"/>
    <path id="Path_2064" data-name="Path 2064" d="M84.162,271.776c-.161.091-.286.014-.286-.168V258.062a21.151,21.151,0,0,1,1.57-7.593c.021-.049.035-.1.056-.147a25.509,25.509,0,0,1,1.312-2.792,20.545,20.545,0,0,1,7.307-8.033,8.13,8.13,0,0,1,4.027-1.249,4.454,4.454,0,0,1,2.122.509c1.884,1.005,2.987,3.434,2.987,6.833v14.824a.627.627,0,0,1-.286.5l.44,1.026c.035-.021.07-.042.1-.063a1.721,1.721,0,0,0,.4-.384v-.007a2.054,2.054,0,0,0,.461-1.214V245.576c0-3.929-1.389-6.665-3.594-7.824-1.912-1-4.432-.824-7.2.775a21.878,21.878,0,0,0-7.866,8.731A26.538,26.538,0,0,0,84.49,249.9a22.264,22.264,0,0,0-1.71,8.152v15.473a1.36,1.36,0,0,0,.167-.007,1.923,1.923,0,0,0,.8-.223Z" transform="translate(-16.97 -51.268)" opacity="0.1"/>
    <path id="Path_2065" data-name="Path 2065" d="M178.94,205.979a4,4,0,0,1,1.815-3.141l89.454-51.647a4.007,4.007,0,0,1,3.629,0l2.045,1.179a4.017,4.017,0,0,1,1.815,3.141v71.1a4.028,4.028,0,0,1-1.815,3.141L186.429,281.4a4.007,4.007,0,0,1-3.629,0l-2.045-1.18a4.017,4.017,0,0,1-1.815-3.141Z" transform="translate(-46.018 -25.177)" fill="#ff00c7"/>
    <g id="Group_1900" data-name="Group 1900" transform="translate(132.922 125.581)" opacity="0.7">
      <g id="Group_1899" data-name="Group 1899" opacity="0.7">
        <path id="Path_2066" data-name="Path 2066" d="M178.94,205.979a4,4,0,0,1,1.815-3.141l89.454-51.647a4.007,4.007,0,0,1,3.629,0l2.045,1.179a4.017,4.017,0,0,1,1.815,3.141v71.1a4.028,4.028,0,0,1-1.815,3.141L186.429,281.4a4.007,4.007,0,0,1-3.629,0l-2.045-1.18a4.017,4.017,0,0,1-1.815-3.141Z" transform="translate(-178.94 -150.758)" fill="#fff" opacity="0.7"/>
      </g>
    </g>
    <path id="Path_2067" data-name="Path 2067" d="M179.7,204.193l5.144,2.966,92.545-53.433a3.8,3.8,0,0,0-1.277-1.354L274.06,151.2a3.95,3.95,0,0,0-3.622,0l-89.454,51.64A3.643,3.643,0,0,0,179.7,204.193Z" transform="translate(-46.247 -25.178)" fill="#ff00c7"/>
    <path id="Path_2068" data-name="Path 2068" d="M179.7,204.193l5.144,2.966,92.545-53.433a3.8,3.8,0,0,0-1.277-1.354L274.06,151.2a3.95,3.95,0,0,0-3.622,0l-89.454,51.64A3.643,3.643,0,0,0,179.7,204.193Z" transform="translate(-46.247 -25.178)" fill="#fff" opacity="0.8"/>
    <path id="Path_2069" data-name="Path 2069" d="M178.94,229.1v71.1a4.006,4.006,0,0,0,1.822,3.141l2.045,1.186a3.216,3.216,0,0,0,.5.223,4.027,4.027,0,0,0,.747.175,4.464,4.464,0,0,0,1.431-.049c.119-.028.244-.056.356-.091.077-.028.161-.049.223-.077a1.084,1.084,0,0,1-.879-.035,1.261,1.261,0,0,1-.558-1.193v-71.1a1.585,1.585,0,0,1,.942-1.542l-.942-.551-5.144-2.966A3.625,3.625,0,0,0,178.94,229.1Z" transform="translate(-46.018 -48.304)" fill="#ff00c7" opacity="0.1"/>
    <path id="Path_2070" data-name="Path 2070" d="M178.94,229.1v71.1a4.006,4.006,0,0,0,1.822,3.141l2.045,1.186a3.216,3.216,0,0,0,.5.223,4.027,4.027,0,0,0,.747.175,4.464,4.464,0,0,0,1.431-.049c.119-.028.244-.056.356-.091.077-.028.161-.049.223-.077a1.084,1.084,0,0,1-.879-.035,1.261,1.261,0,0,1-.558-1.193v-71.1a1.585,1.585,0,0,1,.942-1.542l-.942-.551-5.144-2.966A3.625,3.625,0,0,0,178.94,229.1Z" transform="translate(-46.018 -48.304)" opacity="0.05"/>
    <path id="Path_2071" data-name="Path 2071" d="M187.067,208.446,230.024,224.5a6.979,6.979,0,0,0,8.284-2.729l6.9-10.567,34.4-56.183L246.579,211.6l33.556,16.339a3.748,3.748,0,0,1-.565,1.808l-33.1-17.986-8.019,12.828a6.981,6.981,0,0,1-8.738,2.687l-5.709-2.52-36.39,58.082a1.261,1.261,0,0,1-.558-1.193v-1.186l36.774-55.778Z" transform="translate(-48.47 -26.464)" fill="#ff00c7" opacity="0.2"/>
    <path id="Path_2072" data-name="Path 2072" d="M187.067,208.446,230.024,224.5a6.979,6.979,0,0,0,8.284-2.729l6.9-10.567,34.4-56.183L246.579,211.6l33.556,16.339a3.748,3.748,0,0,1-.565,1.808l-33.1-17.986-8.019,12.828a6.981,6.981,0,0,1-8.738,2.687l-5.709-2.52-36.39,58.082a1.261,1.261,0,0,1-.558-1.193v-1.186l36.774-55.778Z" transform="translate(-48.47 -26.464)" opacity="0.05"/>
    <path id="Path_2073" data-name="Path 2073" d="M211.44,224.759a4,4,0,0,1,1.815-3.141l89.453-51.647a4.007,4.007,0,0,1,3.629,0l2.045,1.18a4.017,4.017,0,0,1,1.815,3.141v71.1a4.028,4.028,0,0,1-1.815,3.141l-89.454,51.647a4.007,4.007,0,0,1-3.629,0L213.255,299a4.017,4.017,0,0,1-1.815-3.141Z" transform="translate(-55.835 -30.85)" fill="#ff00c7"/>
    <g id="Group_1902" data-name="Group 1902" transform="translate(155.605 138.688)" opacity="0.5">
      <g id="Group_1901" data-name="Group 1901" opacity="0.5">
        <path id="Path_2074" data-name="Path 2074" d="M211.44,224.759a4,4,0,0,1,1.815-3.141l89.453-51.647a4.007,4.007,0,0,1,3.629,0l2.045,1.18a4.017,4.017,0,0,1,1.815,3.141v71.1a4.028,4.028,0,0,1-1.815,3.141l-89.454,51.647a4.007,4.007,0,0,1-3.629,0L213.255,299a4.017,4.017,0,0,1-1.815-3.141Z" transform="translate(-211.44 -169.537)" fill="#fff" opacity="0.5"/>
      </g>
    </g>
    <path id="Path_2075" data-name="Path 2075" d="M212.19,222.973l5.144,2.966,92.545-53.433a3.8,3.8,0,0,0-1.277-1.354l-2.052-1.173a3.95,3.95,0,0,0-3.622,0l-89.454,51.64A3.7,3.7,0,0,0,212.19,222.973Z" transform="translate(-56.061 -30.85)" fill="#ff00c7"/>
    <path id="Path_2076" data-name="Path 2076" d="M212.19,222.973l5.144,2.966,92.545-53.433a3.8,3.8,0,0,0-1.277-1.354l-2.052-1.173a3.95,3.95,0,0,0-3.622,0l-89.454,51.64A3.7,3.7,0,0,0,212.19,222.973Z" transform="translate(-56.061 -30.85)" fill="#fff" opacity="0.6"/>
    <path id="Path_2077" data-name="Path 2077" d="M211.43,247.88v71.105a4.005,4.005,0,0,0,1.822,3.141l2.045,1.187a3.225,3.225,0,0,0,.5.223,4.032,4.032,0,0,0,.747.174,4.467,4.467,0,0,0,1.431-.049c.119-.028.237-.063.349-.1a2.006,2.006,0,0,0,.216-.084,1.084,1.084,0,0,1-.865-.014,1.261,1.261,0,0,1-.558-1.193V251.16a1.585,1.585,0,0,1,.942-1.542l-.942-.551-5.144-2.966A3.7,3.7,0,0,0,211.43,247.88Z" transform="translate(-55.832 -53.977)" opacity="0.1"/>
    <path id="Path_2078" data-name="Path 2078" d="M219.57,227.226l42.957,16.052a6.98,6.98,0,0,0,8.284-2.729l6.9-10.567,34.4-56.183-33.026,56.581,33.556,16.339a3.748,3.748,0,0,1-.565,1.808l-33.089-17.986-8.019,12.828a6.98,6.98,0,0,1-8.738,2.687l-5.709-2.519-36.39,58.082a1.261,1.261,0,0,1-.558-1.194v-1.186l36.774-55.778Z" transform="translate(-58.291 -32.137)" fill="#ff00c7" opacity="0.4"/>
    <path id="Path_2079" data-name="Path 2079" d="M219.57,227.226l42.957,16.052a6.98,6.98,0,0,0,8.284-2.729l6.9-10.567,34.4-56.183-33.026,56.581,33.556,16.339a3.748,3.748,0,0,1-.565,1.808l-33.089-17.986-8.019,12.828a6.98,6.98,0,0,1-8.738,2.687l-5.709-2.519-36.39,58.082a1.261,1.261,0,0,1-.558-1.194v-1.186l36.774-55.778Z" transform="translate(-58.291 -32.137)" opacity="0.05"/>
    <path id="Path_2080" data-name="Path 2080" d="M244.2,245l93.09-53.747,3.727,2.15a3.887,3.887,0,0,1,1.752,3.036V265.1a3.9,3.9,0,0,1-1.752,3.036L251.43,319.864a3.874,3.874,0,0,1-3.5,0l-1.975-1.138a3.887,3.887,0,0,1-1.752-3.036Z" transform="translate(-65.731 -37.408)" fill="#ff00c7"/>
    <path id="Path_2081" data-name="Path 2081" d="M244.2,245l93.09-53.747,3.727,2.15a3.887,3.887,0,0,1,1.752,3.036V265.1a3.9,3.9,0,0,1-1.752,3.036L251.43,319.864a3.874,3.874,0,0,1-3.5,0l-1.975-1.138a3.887,3.887,0,0,1-1.752-3.036Z" transform="translate(-65.731 -37.408)" opacity="0.2"/>
    <path id="Path_2082" data-name="Path 2082" d="M336.786,175.434l.384-.209-1.445-.838a2.755,2.755,0,0,0-.384-.181l-40.968-15.18a2.827,2.827,0,0,0-3.148,1L245.4,226.948a7.9,7.9,0,0,0-1.18,3.818v4.446l1.424.824,91.673-54.571v-4.446A3.224,3.224,0,0,0,336.786,175.434Z" transform="translate(-65.737 -27.63)" fill="#ff00c7"/>
    <path id="Path_2083" data-name="Path 2083" d="M293.253,160.624a2.318,2.318,0,0,0-.475.5L246.945,228.05a7.123,7.123,0,0,0-.851,1.912l-1.424-.824a9.13,9.13,0,0,1,.37-1.012c.007-.014.007-.021.014-.028.063-.14.126-.272.2-.4.014-.021.021-.042.035-.063a3.648,3.648,0,0,1,.244-.4L291.354,160.3a2.226,2.226,0,0,1,.23-.279c.077-.077.161-.154.244-.223Z" transform="translate(-65.873 -27.908)" opacity="0.1"/>
    <path id="Path_2084" data-name="Path 2084" d="M357.7,175.216a2.233,2.233,0,0,0-.391-.188L316.33,159.841a2.809,2.809,0,0,0-2.666.5l-1.424-.824a2.841,2.841,0,0,1,2.673-.5l40.968,15.18a2.168,2.168,0,0,1,.384.188Z" transform="translate(-86.284 -27.628)" fill="#fff" opacity="0.35"/>
    <path id="Path_2085" data-name="Path 2085" d="M245.55,256.815a4.438,4.438,0,0,1,.244-.4A4.438,4.438,0,0,0,245.55,256.815Z" transform="translate(-66.139 -57.091)" fill="#ff00c7"/>
    <path id="Path_2086" data-name="Path 2086" d="M311.89,160.023c.077-.077.161-.154.244-.223C312.051,159.87,311.967,159.947,311.89,160.023Z" transform="translate(-86.178 -27.908)" fill="#ff00c7"/>
    <path id="Path_2087" data-name="Path 2087" d="M244.67,258.712a8.646,8.646,0,0,1,.37-1.012A9.131,9.131,0,0,0,244.67,258.712Z" transform="translate(-65.873 -57.481)" fill="#ff00c7"/>
    <path id="Path_2088" data-name="Path 2088" d="M245.22,257.488c.063-.14.126-.272.2-.4C245.346,257.216,245.283,257.348,245.22,257.488Z" transform="translate(-66.039 -57.297)" fill="#ff00c7"/>
    <path id="Path_2089" data-name="Path 2089" d="M245.2,257.688c.007-.007.007-.021.014-.028S245.207,257.681,245.2,257.688Z" transform="translate(-66.033 -57.469)" opacity="0.2"/>
    <path id="Path_2090" data-name="Path 2090" d="M245.5,257.05c.014-.021.021-.049.035-.07A.647.647,0,0,0,245.5,257.05Z" transform="translate(-66.123 -57.264)" opacity="0.2"/>
    <path id="Path_2091" data-name="Path 2091" d="M311.56,160.4a2.882,2.882,0,0,1,.23-.279A1.821,1.821,0,0,0,311.56,160.4Z" transform="translate(-86.078 -28.005)" opacity="0.2"/>
    <path id="Path_2092" data-name="Path 2092" d="M293.255,161.2,247.43,228.128a7.9,7.9,0,0,0-1.18,3.818v4.446l93.09-53.747V178.2a3.221,3.221,0,0,0-1.961-2.82l-40.968-15.18A2.816,2.816,0,0,0,293.255,161.2Z" transform="translate(-66.35 -27.986)" fill="#ff00c7"/>
    <path id="Path_2093" data-name="Path 2093" d="M339.33,185.383a2.972,2.972,0,0,0-.5-1.563l-92.266,53.4a.025.025,0,0,0-.007.014,7.063,7.063,0,0,0-.321,1.891v4.446l93.09-53.747Z" transform="translate(-66.347 -35.164)" opacity="0.05"/>
    <path id="Path_2094" data-name="Path 2094" d="M338.336,157.854a1.064,1.064,0,0,0-.44-.977c-.272-.161-2.568-1.48-2.841-1.64a1.063,1.063,0,0,0-1.068.1l-76.353,44.081a3.336,3.336,0,0,0-1.515,2.617v91.443a1.065,1.065,0,0,0,.44.977c.272.16,2.561,1.48,2.834,1.64a1.063,1.063,0,0,0,1.068-.1l76.353-44.081a3.336,3.336,0,0,0,1.515-2.617Z" transform="translate(-69.331 -26.499)" fill="#f0f0f0"/>
    <path id="Path_2095" data-name="Path 2095" d="M261.695,296.714l76.353-44.081a3.336,3.336,0,0,0,1.514-2.617V158.573c0-.963-.677-1.354-1.514-.872l-76.353,44.081a3.336,3.336,0,0,0-1.515,2.617v91.443C260.187,296.8,260.864,297.2,261.695,296.714Z" transform="translate(-70.558 -27.212)" fill="#fafafa"/>
    <path id="Path_2096" data-name="Path 2096" d="M323.073,226.783a13.515,13.515,0,0,1-.572,3.043,12.976,12.976,0,0,1-1.1,2.554,9.918,9.918,0,0,1-1.438,1.947,6.333,6.333,0,0,1-1.6,1.228,3.39,3.39,0,0,1-2.2.53,1.939,1.939,0,0,1-1.138-.712c-.168.356-.335.719-.523,1.089a6.49,6.49,0,0,1-.691,1.1,7.264,7.264,0,0,1-1.026,1.061,7.74,7.74,0,0,1-1.5.97,2.917,2.917,0,0,1-1.9.377,2.248,2.248,0,0,1-1.41-.984,5.632,5.632,0,0,1-.838-2.219,14.4,14.4,0,0,1-.188-3.329,21.027,21.027,0,0,1,.454-3.664,16.9,16.9,0,0,1,1-3.155,10.215,10.215,0,0,1,1.494-2.485,6.187,6.187,0,0,1,1.933-1.605,2.287,2.287,0,0,1,1.731-.37,1.813,1.813,0,0,1,.893.837l.014-.377a2.158,2.158,0,0,1,.258-.914,1.388,1.388,0,0,1,.558-.614l1.494-.761a.416.416,0,0,1,.53.056.887.887,0,0,1,.2.677l-.356,8.927c-.028.67.1,1.11.384,1.326a.877.877,0,0,0,1,.021,2.532,2.532,0,0,0,1.012-1.075,5.315,5.315,0,0,0,.551-2.15c.07-.775.119-1.57.154-2.4s.035-1.584.007-2.282a14.187,14.187,0,0,0-.551-3.7,4.054,4.054,0,0,0-1.389-2.143,3.29,3.29,0,0,0-2.338-.51,10.2,10.2,0,0,0-3.406,1.166,11.46,11.46,0,0,0-3.008,2.219,15.309,15.309,0,0,0-2.345,3.085,19.393,19.393,0,0,0-1.64,3.734,22.379,22.379,0,0,0-.893,4.111c-.056.384-.1.879-.133,1.48s-.063,1.235-.091,1.891-.049,1.291-.063,1.9-.014,1.1.014,1.473a11.113,11.113,0,0,0,.6,3.308,4.95,4.95,0,0,0,1.4,2.136,3.339,3.339,0,0,0,2.192.768,6.4,6.4,0,0,0,2.959-.838,17.235,17.235,0,0,0,2.045-1.207,12.408,12.408,0,0,0,1.522-1.235,12.58,12.58,0,0,0,1.131-1.214c.314-.391.6-.782.858-1.159.216-.328.391-.579.523-.74a1.575,1.575,0,0,1,.509-.4l2.122-1.089a.468.468,0,0,1,.544.028.837.837,0,0,1,.181.747,1.717,1.717,0,0,1-.223.733c-.426.8-.907,1.626-1.438,2.5a19.01,19.01,0,0,1-1.884,2.568,20.707,20.707,0,0,1-2.568,2.464,20.3,20.3,0,0,1-3.49,2.24,8.821,8.821,0,0,1-4.348,1.18,4.76,4.76,0,0,1-3.085-1.256,7.273,7.273,0,0,1-1.884-3.183,16.613,16.613,0,0,1-.719-4.578q0-.576.021-1.549c.014-.649.042-1.333.07-2.045s.063-1.389.1-2.038.07-1.159.1-1.528a28.567,28.567,0,0,1,1.075-5.458,26.633,26.633,0,0,1,2.219-5.3,22.984,22.984,0,0,1,3.343-4.606A16.122,16.122,0,0,1,312.736,214a11.366,11.366,0,0,1,4.92-1.494,4.631,4.631,0,0,1,3.231,1.138,6.458,6.458,0,0,1,1.78,3.238,20.728,20.728,0,0,1,.607,4.781c.007.7-.007,1.542-.042,2.506S323.135,226.008,323.073,226.783Zm-13.107,5.109a5.618,5.618,0,0,0,.419,2.9c.335.572.831.684,1.5.342a3.618,3.618,0,0,0,1.64-1.926,10.168,10.168,0,0,0,.656-3.476,5.971,5.971,0,0,0-.4-2.931q-.482-.879-1.549-.335a3.611,3.611,0,0,0-1.6,1.947A10.361,10.361,0,0,0,309.965,231.891Z" transform="translate(-82.997 -43.83)" fill="#ff00c7"/>
    <path id="Path_2097" data-name="Path 2097" d="M258.954,314.789a1.14,1.14,0,0,0,.356.921c-.51-.286-2.492-1.438-2.743-1.577a1.053,1.053,0,0,1-.447-.977v-91.45a3.029,3.029,0,0,1,.447-1.487l2.834,1.633a3.053,3.053,0,0,0-.447,1.494Z" transform="translate(-69.331 -46.159)" fill="#e0e0e0"/>
    <path id="Path_2098" data-name="Path 2098" d="M342.458,292.493a.848.848,0,0,1-.1.14l-38.791-12.3a6.676,6.676,0,0,0-8.382,2.582l-41.471,61.641-1.535.886-.014.007a1.25,1.25,0,0,1-1.186.133l42.65-63.532a6.7,6.7,0,0,1,8.389-2.589Z" transform="translate(-67.779 -63.882)" fill="#ff00c7"/>
    <path id="Path_2099" data-name="Path 2099" d="M291.359,292.933l.1-.084-37.751,55.674-1.535.886-.014.007a1.268,1.268,0,0,1-1.186.133l38.9-57.509Z" transform="translate(-67.776 -67.854)" fill="#fff" opacity="0.4"/>
    <path id="Path_2100" data-name="Path 2100" d="M360.923,292.488a.842.842,0,0,1-.1.14l-38.8-12.3a6.68,6.68,0,0,0-8.382,2.582l-1.535-.893a6.7,6.7,0,0,1,8.375-2.568Z" transform="translate(-86.244 -63.877)" fill="#fff" opacity="0.4"/>
    <path id="Path_2101" data-name="Path 2101" d="M345.5,196.349h-.007c-.084-.5-.349-.642-.691-.4a2.017,2.017,0,0,0-.447.461l-.2.272-38.281,58.2-5.716,7.963a3.261,3.261,0,0,1-3.148,1.179l-4.934-1.173L254.414,248.98a1.92,1.92,0,0,0-.768-.028,1.366,1.366,0,0,0-.286.091l1.417-.824,36.111,13.233,4.753,1.7a3.242,3.242,0,0,0,3.148-1.179l5.716-7.956,38.47-58.473a1.54,1.54,0,0,1,.433-.4l-3.329-1.919,1.4-.8,2.3,1.326A4.009,4.009,0,0,1,345.5,196.349Z" transform="translate(-68.498 -37.762)" fill="#ff00c7"/>
    <path id="Path_2102" data-name="Path 2102" d="M322.638,281.565l-5.716,7.963a3.261,3.261,0,0,1-3.148,1.18l-4.934-1.172.1-.084.237-.377,3.232.768a3.242,3.242,0,0,0,3.148-1.18l5.66-7.873Z" transform="translate(-85.257 -64.456)" fill="#fff" opacity="0.4"/>
    <path id="Path_2103" data-name="Path 2103" d="M365.9,193.746l-2.3-1.326-1.4.8,3.329,1.919.007.007h-.007a1.566,1.566,0,0,0-.433.4l-38.47,58.465-.056.077v.007l1.424.775,38.281-58.2.2-.272a2.014,2.014,0,0,1,.447-.461c.342-.237.607-.1.691.4h.007A3.993,3.993,0,0,0,365.9,193.746Z" transform="translate(-90.612 -37.762)" opacity="0.1"/>
    <path id="Path_2104" data-name="Path 2104" d="M252.415,273,244.2,268.25v70.693a3.9,3.9,0,0,0,1.752,3.036l1.975,1.138a3.873,3.873,0,0,0,3.5,0l.984-.572Z" transform="translate(-65.731 -60.668)" fill="#ff00c7"/>
    <path id="Path_2105" data-name="Path 2105" d="M252.415,273,244.2,268.25v70.693a3.9,3.9,0,0,0,1.752,3.036l1.975,1.138a3.873,3.873,0,0,0,3.5,0l.984-.572Z" transform="translate(-65.731 -60.668)" opacity="0.15"/>
    <path id="Path_2106" data-name="Path 2106" d="M345.14,198.263v68.669a3.57,3.57,0,0,1-.544,1.773,3.824,3.824,0,0,1-1.026,1.152l-.07.035a1.066,1.066,0,0,1-.112.077L253.8,321.685l-.014.007a1.249,1.249,0,0,1-1.193.14,1.063,1.063,0,0,1-.523-.837,2.225,2.225,0,0,1-.021-.314V252a1.522,1.522,0,0,1,1.968-1.549l37.667,13.868,4.934,1.173a3.261,3.261,0,0,0,3.148-1.18l5.716-7.963,38.281-58.2.2-.272C344.609,196.979,345.14,197.147,345.14,198.263Z" transform="translate(-68.102 -39.236)" fill="#ff00c7"/>
    <path id="Path_2107" data-name="Path 2107" d="M366.518,295.524a.632.632,0,0,0,.112-.077l.07-.042a3.881,3.881,0,0,0,1.026-1.145,3.639,3.639,0,0,0,.544-1.745L328.62,281.9l26.556,20.17Z" transform="translate(-91.232 -64.791)" fill="#ff00c7"/>
    <path id="Path_2108" data-name="Path 2108" d="M366.518,295.524a.632.632,0,0,0,.112-.077l.07-.042a3.881,3.881,0,0,0,1.026-1.145,3.639,3.639,0,0,0,.544-1.745L328.62,281.9l26.556,20.17Z" transform="translate(-91.232 -64.791)" opacity="0.2"/>
    <path id="Path_2109" data-name="Path 2109" d="M252.05,349.678a1.209,1.209,0,0,0,.544,1.152,1.263,1.263,0,0,0,1.193-.133l.014-.007,30.842-17.8,7.042-39.566L252.05,348.54Z" transform="translate(-68.102 -68.241)" fill="#ff00c7"/>
    <path id="Path_2110" data-name="Path 2110" d="M295.489,284.256l-42.895,63.567a1.209,1.209,0,0,1-.544-1.152v-1.138l41.9-62.144c0-.007.007-.014.014-.021Z" transform="translate(-68.102 -65.235)" opacity="0.15"/>
    <path id="Path_2111" data-name="Path 2111" d="M344.831,293.712a3.717,3.717,0,0,1-1.026,1.145l-.07.042-89.7,51.793-.014.007a1.244,1.244,0,0,1-1.193.133l42.9-63.581a6.733,6.733,0,0,1,8.431-2.589Z" transform="translate(-68.338 -64.243)" fill="#ff00c7"/>
    <path id="Path_2112" data-name="Path 2112" d="M244.528,259.15l1.424.824a6.961,6.961,0,0,0-.328,1.912v4.439L244.2,265.5v-4.446A6.958,6.958,0,0,1,244.528,259.15Z" transform="translate(-65.731 -57.919)" opacity="0.15"/>
    <path id="Path_2113" data-name="Path 2113" d="M252.63,271.132l-1.424.824-1.438-.831-3.538-2.038,1.375-.817Z" transform="translate(-66.344 -60.674)" fill="#ff00c7"/>
    <path id="Path_2114" data-name="Path 2114" d="M252.7,271.159l-5.081-2.889-1.375.817,3.539,2.038,1.438.831.014-.007a1.553,1.553,0,0,1,.272-.084,1.919,1.919,0,0,1,.768.028l2.861,1.054,32.879,12.1.516-.761Z" transform="translate(-66.347 -60.674)" opacity="0.1"/>
    <path id="Path_2115" data-name="Path 2115" d="M131.524,100.811l-5.318,3.071a6.061,6.061,0,0,0,.042-.7v-1.542c0-2.743-1.926-3.853-4.3-2.485a8.4,8.4,0,0,0-2.561,2.464c-.391-3.448-3.092-4.732-6.379-2.834a14.208,14.208,0,0,0-6.428,11.139v2.3a6.093,6.093,0,0,0,.544,2.673l-4.418,2.547a5.27,5.27,0,0,0-2.387,4.132c0,1.521,1.068,2.136,2.387,1.375l28.811-16.639a5.27,5.27,0,0,0,2.387-4.132C133.9,100.671,132.836,100.057,131.524,100.811Z" transform="translate(-22.269 -9.21)" fill="#f0f0f0"/>
    <path id="Path_2116" data-name="Path 2116" d="M91.517,75.412l-6.547,3.776a7.3,7.3,0,0,0,.056-.865v-1.9c0-3.378-2.366-4.739-5.29-3.057A10.166,10.166,0,0,0,76.581,76.4c-.482-4.243-3.811-5.821-7.852-3.49a17.516,17.516,0,0,0-7.915,13.714v2.834a7.525,7.525,0,0,0,.67,3.287l-5.437,3.141a6.492,6.492,0,0,0-2.938,5.081c0,1.87,1.312,2.631,2.938,1.7L91.517,82.189a6.492,6.492,0,0,0,2.938-5.081C94.455,75.23,93.143,74.477,91.517,75.412Z" transform="translate(-8.008 -1.337)" fill="#f0f0f0"/>
    <path id="Path_2117" data-name="Path 2117" d="M404.96,157.878l24.686-15.808,10.881,3.49Z" transform="translate(-114.292 -22.553)" fill="#ff00c7"/>
    <path id="Path_2118" data-name="Path 2118" d="M404.96,154.649l21.336-17.8-4.739-5.472Z" transform="translate(-114.292 -19.323)" fill="#ff00c7"/>
    <path id="Path_2119" data-name="Path 2119" d="M426.3,139.22v4.132L404.96,157.017Z" transform="translate(-114.292 -21.692)" fill="#ff00c7"/>
    <path id="Path_2120" data-name="Path 2120" d="M426.3,139.22v4.132L404.96,157.017Z" transform="translate(-114.292 -21.692)" opacity="0.25"/>
    <path id="Path_2121" data-name="Path 2121" d="M414.748,120.464a.523.523,0,0,1-.356-.907,18.2,18.2,0,0,0,2.017-2.2.522.522,0,1,1,.824.642,19.214,19.214,0,0,1-2.136,2.331A.543.543,0,0,1,414.748,120.464Zm3.929-5.214a.533.533,0,0,1-.23-.056.524.524,0,0,1-.23-.7,17.517,17.517,0,0,0,1.382-3.811.523.523,0,1,1,1.019.237,18.278,18.278,0,0,1-1.466,4.041A.537.537,0,0,1,418.678,115.25Zm1.905-7.377h-.021a.532.532,0,0,1-.5-.544c.014-.279.021-.565.021-.845a19.248,19.248,0,0,0-.272-3.217.518.518,0,0,1,.426-.6.525.525,0,0,1,.6.426,20.61,20.61,0,0,1,.286,3.392c0,.3-.007.593-.021.893A.511.511,0,0,1,420.583,107.873Zm-1.124-7.545a.524.524,0,0,1-.5-.349,22.44,22.44,0,0,0-1.689-3.72.523.523,0,0,1,.2-.712.517.517,0,0,1,.712.2,23.74,23.74,0,0,1,1.773,3.894.516.516,0,0,1-.321.663A.822.822,0,0,1,419.459,100.329Zm-3.671-6.707a.516.516,0,0,1-.412-.2,26.73,26.73,0,0,0-2.75-3.043.523.523,0,1,1,.719-.761,28.215,28.215,0,0,1,2.861,3.162.522.522,0,0,1-.1.733A.513.513,0,0,1,415.788,93.621Zm-5.465-5.36a.515.515,0,0,1-.314-.1,33.212,33.212,0,0,0-3.434-2.268.521.521,0,1,1,.523-.9,33.534,33.534,0,0,1,3.545,2.345.524.524,0,0,1,.1.733A.569.569,0,0,1,410.323,88.261Zm-54.85-2.024a.513.513,0,0,1-.454-.265.521.521,0,0,1,.189-.712c1.214-.7,2.471-1.361,3.748-1.961a.525.525,0,0,1,.447.949c-1.249.586-2.485,1.235-3.671,1.919A.514.514,0,0,1,355.473,86.237Zm48.276-1.912a.547.547,0,0,1-.23-.049c-1.242-.6-2.52-1.152-3.8-1.647a.524.524,0,0,1,.377-.977c1.312.5,2.617,1.068,3.881,1.682a.525.525,0,0,1,.244.7A.5.5,0,0,1,403.749,84.325Zm-41.366-1.4a.525.525,0,0,1-.2-1.012c1.305-.509,2.652-.977,4-1.382a.525.525,0,0,1,.649.349.514.514,0,0,1-.349.649c-1.319.4-2.638.851-3.915,1.354A.438.438,0,0,1,362.383,82.922Zm34.226-1.389a.581.581,0,0,1-.154-.021c-1.312-.4-2.659-.754-4.006-1.047a.524.524,0,0,1-.4-.621.519.519,0,0,1,.621-.4c1.375.3,2.75.656,4.09,1.068a.524.524,0,0,1,.349.656A.532.532,0,0,1,396.609,81.533Zm-26.9-.879a.521.521,0,0,1-.51-.4.527.527,0,0,1,.391-.628c1.368-.314,2.764-.579,4.153-.782a.522.522,0,0,1,.154,1.033c-1.361.2-2.736.461-4.076.768A.29.29,0,0,1,369.711,80.654Zm19.416-.8a.286.286,0,0,1-.077-.007c-1.361-.2-2.743-.342-4.125-.433a.525.525,0,1,1,.07-1.047c1.4.091,2.82.237,4.2.44a.521.521,0,0,1,.44.593A.513.513,0,0,1,389.127,79.851Zm-11.837-.37a.524.524,0,0,1-.042-1.047c1.4-.112,2.82-.175,4.223-.175a.523.523,0,0,1,0,1.047c-1.375,0-2.764.063-4.139.174Z" transform="translate(-99.185 -3.277)" fill="#e0e0e0"/>
  </g>
</svg>
