<svg xmlns="http://www.w3.org/2000/svg" width="35.499" height="35.499" viewBox="0 0 35.499 35.499">
  <g id="Group_5067" data-name="Group 5067" transform="translate(-1217.357 -869)">
    <path id="Path_16778" data-name="Path 16778" d="M1583.172,1199.436a.775.775,0,0,1-.085-.008,17.689,17.689,0,0,0,4.875,11.4l11.392-11.392Z" transform="translate(-365.724 -311.849)" fill="#3fe899"/>
    <path id="Path_16779" data-name="Path 16779" d="M1583.165,1174.182h17.018v-17.017a.769.769,0,0,1,.009-.09,17.751,17.751,0,0,0-17.116,17.116A.769.769,0,0,1,1583.165,1174.182Z" transform="translate(-365.718 -288.075)" fill="#561f80"/>
    <path id="Path_16780" data-name="Path 16780" d="M1609.259,1157.087a.778.778,0,0,1,.008.085v17.486a.738.738,0,0,1-.111.9l-12.533,12.533a17.756,17.756,0,1,0,12.635-31Z" transform="translate(-373.323 -288.082)" fill="#ff00c7"/>
  </g>
</svg>
