<svg xmlns="http://www.w3.org/2000/svg" width="44.321" height="35.499" viewBox="0 0 44.321 35.499">
  <path id="Path_16781" data-name="Path 16781" d="M1733.782,1209.164v-2.8l8.443-15.176h3.278c.038-1.181.022-4-.022-4.256-1.334-.037-3.983-.022-4.24.024v2.638l-8.367,15.04h-2.01l-11.237-8.839v-3.331h-4.262v3.331l-1.162,1.163h-.022v.021l-4.319,4.319h-.021v.02l-5.5,5.5h-.927V1181.2h-.073l0-.005a.089.089,0,0,0-.013-.013H1702.2l-.014.018h-.409v25.633h-.551c-.04,1.07-.023,4.232.022,4.485.174.009.35,0,.529,0v5.36h43.71v-.805h.01V1214.7h-42.086v-3.4h2.138v-3.39l5.447-5.446h.02v-.021l5.5-5.5h1.932l11.073,8.71v3.505Z" transform="translate(-1701.203 -1181.18)" fill="#ff00c7"/>
</svg>
