<svg xmlns="http://www.w3.org/2000/svg" width="37.924" height="35.499" viewBox="0 0 37.924 35.499">
  <path id="Path_16782" data-name="Path 16782" d="M1528.43,1195.5c-.457.005-.913,0-1.37,0-.082,0-.165-.009-.262-.014v-.334q0-3.967,0-7.933c0-.312,0-.312-.312-.312h-5.5v-.31c0-1.4-.005-2.8,0-4.2,0-.234-.058-.311-.3-.31-1.668.011-3.337.006-5.005.006h-.317v-11.155c0-.32,0-.321-.328-.321h-5.48v-.349c0-2.322,0-4.644,0-6.966,0-.227-.066-.294-.294-.293q-2.986.012-5.973,0c-.238,0-.309.064-.307.3.011,1.408.005,2.817.005,4.226v.291h-5.3c-.317,0-.318,0-.318.308v4.494h-5.724V1161.02h-.232l0-.005a3.052,3.052,0,0,0-.628.005c-.041.007-.067.219-.067.337q0,17.377,0,34.755c0,.387,0,.387.379.387h37.163c.063,0,.127,0,.189,0,.145.01.195-.062.192-.2-.006-.2-.008-.394,0-.591C1528.647,1195.552,1528.578,1195.5,1528.43,1195.5Zm-31.053-.341c0,.342,0,.342-.348.342-1.408,0-2.817,0-4.226.005-.223,0-.293-.056-.293-.288q.009-10.767,0-21.534c0-.231.07-.29.293-.288,1.417.01,2.833,0,4.25.005.323,0,.324,0,.324.318v21.439Zm5.619.012c0,.33,0,.33-.335.33-1.354,0-2.708,0-4.062,0-.212,0-.281-.054-.281-.275q.008-13.093,0-26.186c0-.221.07-.277.281-.276,1.354.008,2.708,0,4.062,0,.335,0,.335,0,.335.33q0,6.53,0,13.058Q1503,1188.67,1503,1195.176Zm5.809-.012c0,.342,0,.342-.347.342-1.409,0-2.818,0-4.227.005-.223,0-.294-.056-.294-.288q.008-15.49,0-30.979c0-.231.069-.29.293-.289,1.409.01,2.818,0,4.227,0,.347,0,.348,0,.348.342v30.861Zm5.62.011c0,.331,0,.331-.335.331-1.417,0-2.833,0-4.25,0-.211,0-.282-.053-.281-.275q.008-11.676,0-23.352c0-.22.069-.277.281-.276,1.425.008,2.849,0,4.274,0,.313,0,.313,0,.313.33v23.234Zm5.809.024c0,.306,0,.307-.312.307-1.424,0-2.849,0-4.273,0-.211,0-.282-.054-.282-.275q.01-5.962,0-11.924c0-.221.07-.277.281-.276,1.424.008,2.849,0,4.274,0,.311,0,.312,0,.312.306q0,2.963,0,5.927T1520.233,1195.2Zm5.625.024c0,.231-.071.289-.294.288q-2.149-.014-4.3,0c-.211,0-.282-.054-.281-.275q.011-3.553,0-7.107c0-.222.07-.277.281-.275q2.149.012,4.3,0c.224,0,.3.056.294.287-.012,1.181-.005,2.361-.005,3.542S1525.847,1194.043,1525.858,1195.223Z" transform="translate(-1490.718 -1161)" fill="#ff00c7"/>
</svg>
