<svg xmlns="http://www.w3.org/2000/svg" width="74" height="74" viewBox="0 0 74 74">
  <g id="Group_534" data-name="Group 534" transform="translate(-0.36 -0.303)">
    <circle id="Ellipse_1" data-name="Ellipse 1" cx="37" cy="37" r="37" transform="translate(0.36 0.303)" fill="#712b8e"/>
    <path id="layers" d="M32.514,15.217,27.259,12.59l5.255-2.628a1.279,1.279,0,0,0,0-2.287L17.431.134a1.28,1.28,0,0,0-1.143,0L1.2,7.676a1.279,1.279,0,0,0,0,2.287L6.46,12.59,1.2,15.217a1.279,1.279,0,0,0,0,2.287L6.46,20.131,1.2,22.759a1.279,1.279,0,0,0,0,2.287l15.083,7.541a1.279,1.279,0,0,0,1.143,0l15.083-7.541a1.279,1.279,0,0,0,0-2.287l-5.255-2.627L32.514,17.5a1.279,1.279,0,0,0,0-2.287ZM16.859,2.707,29.084,8.819,16.859,14.932,4.635,8.819ZM29.084,23.9,16.859,30.014,4.635,23.9l4.683-2.342,6.97,3.485a1.279,1.279,0,0,0,1.143,0l6.97-3.485ZM16.859,22.473,4.635,16.361l4.683-2.342,6.97,3.485a1.279,1.279,0,0,0,1.143,0l6.97-3.485,4.683,2.342Zm0,0" transform="translate(20.77 21.303)" fill="#fff"/>
  </g>
</svg>
