<svg xmlns="http://www.w3.org/2000/svg" width="113.936" height="51.096" viewBox="0 0 113.936 51.096">
  <g id="Group_64" data-name="Group 64" transform="translate(-270 -402)">
    <path id="Path_90" data-name="Path 90" d="M12.111,3.558c-4.155-5.683-8.54-3.712-10.56.031s-2.836,8.819,2.438,11.36S20.011,14.372,12.111,3.558Z" transform="translate(270 418.841)" fill="#fff"/>
    <path id="Path_91" data-name="Path 91" d="M4.622.049C-2.093-.677-.291,6.82,2.539,8.928,6.919,12.189,11.339.775,4.622.049Z" transform="translate(273.12 437.818)" fill="#fff"/>
    <g id="Group_29" data-name="Group 29">
      <g id="Group_28" data-name="Group 28">
        <path id="Rectangle_3" data-name="Rectangle 3" d="M0,0H12.695V9.766H0Z" transform="translate(271.048 437.686)" fill="none"/>
      </g>
    </g>
    <path id="Path_93" data-name="Path 93" d="M2.3,17.2a1.143,1.143,0,0,1-1.151,1.149A1.163,1.163,0,0,1,0,17.2V1.148A1.163,1.163,0,0,1,1.149,0,1.142,1.142,0,0,1,2.3,1.148Z" transform="translate(292.062 434.74)" fill="#fff"/>
    <path id="Path_94" data-name="Path 94" d="M1.121,1.315l.1-.1A4.143,4.143,0,0,1,4.176,0h4.2a7.9,7.9,0,0,1,7.812,7.845V10.5a7.9,7.9,0,0,1-7.812,7.847h-4.2a4.147,4.147,0,0,1-2.955-1.215l-.1-.131A4.025,4.025,0,0,1,0,14.182V4.171A4.083,4.083,0,0,1,1.116,1.348ZM2.8,2.923a1.823,1.823,0,0,0-.46,1.248v10.01a1.825,1.825,0,0,0,.46,1.248l.065.065a1.788,1.788,0,0,0,1.314.558h4.2a5.416,5.416,0,0,0,3.873-1.641h.033a5.539,5.539,0,0,0,1.609-3.906V7.847A5.543,5.543,0,0,0,12.277,3.94h-.033A5.416,5.416,0,0,0,8.371,2.3h-4.2a1.785,1.785,0,0,0-1.314.559Z" transform="translate(298.24 434.738)" fill="#fff"/>
    <path id="Path_95" data-name="Path 95" d="M2.33,8.009H12.7a1.166,1.166,0,0,1,0,2.331H2.33V10.5a5.577,5.577,0,0,0,5.515,5.547h5.941a1.15,1.15,0,0,1,0,2.3H7.845A7.887,7.887,0,0,1,0,10.506V7.845A7.887,7.887,0,0,1,7.845,0h5.941a1.15,1.15,0,0,1,0,2.3H7.845A5.577,5.577,0,0,0,2.33,7.848Z" transform="translate(316.981 434.74)" fill="#fff"/>
    <path id="Path_96" data-name="Path 96" d="M2.331,8.009H12.7a1.166,1.166,0,0,1,0,2.331H2.331V10.5a5.577,5.577,0,0,0,5.514,5.547h5.942a1.15,1.15,0,0,1,0,2.3H7.845A7.887,7.887,0,0,1,0,10.506V7.845A7.887,7.887,0,0,1,7.845,0h5.942a1.15,1.15,0,0,1,0,2.3H7.845A5.577,5.577,0,0,0,2.331,7.848Z" transform="translate(333.018 434.74)" fill="#fff"/>
    <path id="Path_97" data-name="Path 97" d="M34.681,17.113,33.1,3.165A3.263,3.263,0,0,0,29.441.075a4.607,4.607,0,0,0-1.99.782,4.018,4.018,0,0,0-.634.541c-.2.216-9.543,12.5-11.233,14.719H3.579a1.312,1.312,0,0,1-1.346-1.346,1.387,1.387,0,0,1,.657-1.116L14.871,6.63A3.63,3.63,0,0,0,16.61,3.578,3.558,3.558,0,0,0,13.065,0H1.281a1.116,1.116,0,1,0,0,2.232H13.065a1.346,1.346,0,0,1,1.313,1.347,1.206,1.206,0,0,1-.656,1.115L1.774,11.719a3.554,3.554,0,0,0,1.8,6.63H15.719a2.3,2.3,0,0,0,1.662-.915C19.154,15.1,28.52,2.769,28.646,2.662a1.557,1.557,0,0,1,.53-.288A1.737,1.737,0,0,1,29.7,2.29c.722,0,1.084.426,1.17,1.142l.927,8.16H24.934a1.116,1.116,0,1,0,0,2.232h7.124l.4,3.543a1.116,1.116,0,1,0,2.218-.254Z" transform="translate(349.253 434.74)" fill="#fff"/>
    <path id="Path_98" data-name="Path 98" d="M36.234,12.089C36.234,5.412,28.045,0,17.945,0,10.369,0,4.2,3.269,1.4,7.256a7.633,7.633,0,0,0,.646,9.606c2.206,2.566,3.1,4.113,4.986,8.655,1.363,3.277,4.292,4.27,7.551,4.293,2.682.019,5.176-1.842,6.77-3.719a20.2,20.2,0,0,1,7.528-4.907C33.519,19.654,36.234,16.417,36.234,12.089Z" transform="translate(280.426 402)" fill="#fff"/>
    <g id="Group_33" data-name="Group 33">
      <g id="Group_32" data-name="Group 32">
        <path id="Rectangle_5" data-name="Rectangle 5" d="M0,0H5.176V12.207H0Z" transform="translate(281.61 421.784)" fill="none"/>
      </g>
    </g>
    <path id="Path_101" data-name="Path 101" d="M13.157,6.621c-.231-.239-2.351-1.463-3.1-2A35.18,35.18,0,0,0,5,1.914c-.491-.2-.93-.529-1.407-.771C2.926.8,2.247.481,1.564.168a1.007,1.007,0,0,0-1.558.949c-.02.536.06,12.72.045,13.59a1.705,1.705,0,0,0,2.007,1.878,4.062,4.062,0,0,0,1.451-.614,22.025,22.025,0,0,0,2.475-1.539c1.2-.824,6.278-5.663,7.03-6.183a1.015,1.015,0,0,0,.143-1.625" transform="translate(292.404 407.134)" fill="#f301c3"/>
  </g>
</svg>
