<svg width="114" height="52" viewBox="0 0 114 52" fill="none" xmlns="http://www.w3.org/2000/svg">
<path d="M12.111 20.3991C7.95595 14.7161 3.57095 16.6871 1.55095 20.4301C-0.469046 24.1731 -1.28504 29.2491 3.98896 31.7901C9.26296 34.3311 20.011 31.2131 12.111 20.3991Z" fill="white"/>
<path d="M7.74195 35.8672C1.02695 35.1412 2.82896 42.6382 5.65896 44.7462C10.039 48.0072 14.459 36.5932 7.74195 35.8672Z" fill="white"/>
<path d="M24.362 49.9403C24.3628 50.0915 24.3335 50.2415 24.2759 50.3814C24.2183 50.5213 24.1336 50.6483 24.0265 50.7552C23.9194 50.8621 23.7922 50.9466 23.6522 51.004C23.5122 51.0613 23.3622 51.0903 23.211 51.0893C22.9073 51.0856 22.6172 50.9634 22.4025 50.7487C22.1878 50.534 22.0656 50.2439 22.062 49.9403V33.8883C22.0658 33.5848 22.1882 33.2949 22.4028 33.0805C22.6175 32.866 22.9075 32.7439 23.211 32.7403C23.362 32.7393 23.5118 32.7684 23.6515 32.8257C23.7913 32.8831 23.9183 32.9676 24.0251 33.0744C24.132 33.1811 24.2166 33.3081 24.2741 33.4478C24.3316 33.5875 24.3607 33.7372 24.3599 33.8883L24.362 49.9403Z" fill="white"/>
<path d="M29.361 34.0533L29.461 33.9534C29.8486 33.5653 30.3094 33.2581 30.8166 33.0495C31.3239 32.841 31.8675 32.7352 32.4159 32.7383H36.611C38.6814 32.7614 40.66 33.5963 42.121 35.0635C43.5821 36.5307 44.4087 38.5128 44.423 40.5833V43.2423C44.4092 45.3132 43.5828 47.2959 42.1217 48.7635C40.6607 50.2311 38.6817 51.0663 36.611 51.0894H32.411C31.8625 51.0923 31.319 50.9864 30.8117 50.7779C30.3045 50.5693 29.8437 50.2622 29.456 49.8743L29.356 49.7433C28.6298 48.9841 28.2293 47.9709 28.24 46.9203V36.9093C28.2353 35.8599 28.635 34.849 29.356 34.0863L29.361 34.0533ZM31.035 35.6614C30.7299 36.0046 30.5656 36.4503 30.575 36.9093V46.9193C30.5658 47.3784 30.7301 47.824 31.035 48.1674L31.1 48.2323C31.2689 48.4106 31.4728 48.5522 31.6988 48.6482C31.9249 48.7442 32.1683 48.7926 32.414 48.7903H36.611C37.3333 48.7889 38.0481 48.643 38.7133 48.3612C39.3784 48.0794 39.9805 47.6673 40.484 47.1493H40.517C41.5482 46.111 42.1267 44.7068 42.126 43.2433V40.5854C42.1265 39.1217 41.5481 37.7172 40.517 36.6783H40.484C39.9805 36.1604 39.3784 35.7483 38.7133 35.4665C38.0481 35.1847 37.3333 35.0388 36.611 35.0373H32.411C32.1653 35.0351 31.9217 35.0835 31.6956 35.1797C31.4695 35.2759 31.2657 35.4178 31.0969 35.5963L31.035 35.6614Z" fill="white"/>
<path d="M49.311 40.7492H59.684C59.9872 40.7581 60.275 40.8848 60.4863 41.1024C60.6976 41.32 60.8158 41.6114 60.8158 41.9147C60.8158 42.2181 60.6976 42.5095 60.4863 42.7271C60.275 42.9447 59.9872 43.0714 59.684 43.0802H49.311V43.2442C49.3187 44.7075 49.9013 46.109 50.933 47.1467C51.9646 48.1844 53.3628 48.775 54.826 48.7912H60.767C61.072 48.7912 61.3645 48.9124 61.5801 49.1281C61.7958 49.3437 61.917 49.6362 61.917 49.9412C61.917 50.2462 61.7958 50.5387 61.5801 50.7544C61.3645 50.9701 61.072 51.0912 60.767 51.0912H54.826C52.7487 51.0802 50.7597 50.2501 49.2909 48.7813C47.8221 47.3125 46.992 45.3235 46.981 43.2462V40.5852C46.992 38.508 47.8221 36.519 49.2909 35.0502C50.7597 33.5813 52.7487 32.7513 54.826 32.7402H60.767C61.072 32.7402 61.3645 32.8614 61.5801 33.0771C61.7958 33.2927 61.917 33.5852 61.917 33.8902C61.917 34.1952 61.7958 34.4877 61.5801 34.7034C61.3645 34.9191 61.072 35.0402 60.767 35.0402H54.826C53.3626 35.0565 51.9643 35.6473 50.9326 36.6851C49.9009 37.723 49.3185 39.1248 49.311 40.5882V40.7492Z" fill="white"/>
<path d="M65.349 40.7492H75.7209C76.0241 40.7581 76.3119 40.8848 76.5233 41.1024C76.7346 41.32 76.8528 41.6114 76.8528 41.9147C76.8528 42.2181 76.7346 42.5095 76.5233 42.7271C76.3119 42.9447 76.0241 43.0714 75.7209 43.0802H65.349V43.2442C65.3567 44.7073 65.9391 46.1087 66.9706 47.1463C68.002 48.184 69.4 48.7747 70.8629 48.7912H76.8049C77.1099 48.7912 77.4025 48.9124 77.6181 49.1281C77.8338 49.3437 77.9549 49.6362 77.9549 49.9412C77.9549 50.2462 77.8338 50.5387 77.6181 50.7544C77.4025 50.9701 77.1099 51.0912 76.8049 51.0912H70.8629C68.7857 51.0802 66.7967 50.2501 65.3279 48.7813C63.859 47.3125 63.029 45.3235 63.0179 43.2462V40.5852C63.029 38.508 63.859 36.519 65.3279 35.0502C66.7967 33.5813 68.7857 32.7513 70.8629 32.7402H76.8049C77.1099 32.7402 77.4025 32.8614 77.6181 33.0771C77.8338 33.2927 77.9549 33.5852 77.9549 33.8902C77.9549 34.1952 77.8338 34.4877 77.6181 34.7034C77.4025 34.9191 77.1099 35.0402 76.8049 35.0402H70.8629C69.3998 35.0567 68.0017 35.6476 66.9702 36.6855C65.9387 37.7233 65.3565 39.125 65.349 40.5882V40.7492Z" fill="white"/>
<path d="M113.934 49.8532L112.349 35.9052C112.328 35.4564 112.215 35.0166 112.017 34.6134C111.819 34.2103 111.539 33.8524 111.196 33.5624C110.853 33.2723 110.454 33.0562 110.023 32.9276C109.592 32.799 109.14 32.7608 108.694 32.8152C107.978 32.9162 107.297 33.1841 106.704 33.5972C106.474 33.7551 106.262 33.9364 106.07 34.1382C105.87 34.3542 96.5269 46.6382 94.8369 48.8572H82.8319C82.6539 48.8619 82.4768 48.8303 82.3114 48.7643C82.146 48.6983 81.9957 48.5993 81.8698 48.4734C81.7438 48.3475 81.6449 48.1972 81.5789 48.0318C81.5129 47.8664 81.4813 47.6893 81.4859 47.5112C81.4964 47.2858 81.5617 47.0663 81.6762 46.8718C81.7907 46.6774 81.9509 46.5138 82.1429 46.3952L94.1239 39.3702C94.6484 39.0502 95.083 38.6024 95.3872 38.0686C95.6913 37.5348 95.855 36.9325 95.8629 36.3182C95.8656 35.8504 95.7759 35.3866 95.5991 34.9535C95.4223 34.5204 95.1618 34.1263 94.8325 33.794C94.5032 33.4617 94.1117 33.1975 93.6802 33.0167C93.2487 32.8359 92.7858 32.7419 92.3179 32.7402H80.5339C80.238 32.7402 79.9541 32.8578 79.7448 33.0671C79.5355 33.2764 79.418 33.5603 79.418 33.8562C79.418 34.1522 79.5355 34.4361 79.7448 34.6454C79.9541 34.8547 80.238 34.9722 80.5339 34.9722H92.3179C92.6693 34.9809 93.0034 35.1266 93.2488 35.3783C93.4942 35.63 93.6313 35.9677 93.6309 36.3192C93.6388 36.5482 93.5813 36.7747 93.4651 36.9721C93.3489 37.1696 93.1789 37.3299 92.9749 37.4342L81.0269 44.4592C80.3486 44.8518 79.819 45.4576 79.5207 46.1823C79.2223 46.9071 79.1719 47.7101 79.3772 48.4665C79.5826 49.2228 80.0322 49.8901 80.6561 50.3645C81.28 50.8388 82.0432 51.0936 82.8269 51.0892H94.9719C95.2981 51.0637 95.6151 50.9689 95.9017 50.8111C96.1883 50.6533 96.4379 50.4362 96.6339 50.1742C98.4069 47.8382 107.773 35.5092 107.899 35.4022C108.055 35.2726 108.235 35.1748 108.429 35.1142C108.6 35.0591 108.778 35.0307 108.958 35.0302C109.68 35.0302 110.042 35.4562 110.128 36.1722L111.055 44.3322H104.187C103.891 44.3322 103.607 44.4498 103.398 44.6591C103.189 44.8684 103.071 45.1523 103.071 45.4482C103.071 45.7442 103.189 46.0281 103.398 46.2374C103.607 46.4467 103.891 46.5642 104.187 46.5642H111.311L111.711 50.1072C111.728 50.2529 111.773 50.3938 111.844 50.522C111.915 50.6501 112.011 50.763 112.126 50.8542C112.24 50.9454 112.372 51.0131 112.513 51.0534C112.654 51.0937 112.801 51.1059 112.947 51.0892C113.093 51.0726 113.234 51.0274 113.362 50.9562C113.49 50.8851 113.603 50.7894 113.694 50.6746C113.785 50.5598 113.853 50.4282 113.893 50.2873C113.933 50.1464 113.946 49.9989 113.929 49.8532H113.934Z" fill="white"/>
<path d="M46.66 12.089C46.66 5.412 38.471 0 28.371 0C20.795 0 14.622 3.269 11.826 7.256C10.814 8.6878 10.3258 10.4243 10.4434 12.1737C10.5611 13.9231 11.2774 15.5786 12.472 16.862C14.678 19.428 15.572 20.975 17.458 25.517C18.821 28.794 21.75 29.787 25.009 29.81C27.691 29.829 30.185 27.968 31.779 26.091C33.888 23.9109 36.461 22.2337 39.307 21.184C43.945 19.654 46.66 16.417 46.66 12.089Z" fill="white"/>
<path d="M35.561 11.7554C35.33 11.5164 33.21 10.2924 32.461 9.75537C30.8528 8.71704 29.1625 7.8117 27.407 7.04837C26.916 6.84837 26.477 6.51937 26 6.27737C25.33 5.93737 24.651 5.61537 23.968 5.30237C23.8084 5.19645 23.622 5.13821 23.4306 5.13447C23.2392 5.13073 23.0506 5.18165 22.8871 5.28126C22.7235 5.38087 22.5918 5.52504 22.5073 5.69686C22.4228 5.86868 22.389 6.06104 22.41 6.25137C22.39 6.78737 22.47 18.9714 22.455 19.8414C22.4232 20.1071 22.4545 20.3766 22.5462 20.628C22.638 20.8794 22.7876 21.1057 22.983 21.2885C23.1784 21.4714 23.4141 21.6056 23.671 21.6805C23.928 21.7553 24.1989 21.7687 24.462 21.7194C24.9811 21.6114 25.474 21.4028 25.913 21.1054C26.771 20.6476 27.5978 20.1335 28.388 19.5664C29.588 18.7424 34.666 13.9034 35.418 13.3834C35.5532 13.3005 35.6671 13.1871 35.7506 13.0523C35.8341 12.9174 35.8849 12.7649 35.8988 12.6069C35.9127 12.4489 35.8894 12.2898 35.8307 12.1425C35.772 11.9951 35.6797 11.8636 35.561 11.7584" fill="#F301C3"/>
</svg>
