<svg id="instagram" xmlns="http://www.w3.org/2000/svg" width="40.464" height="40.464" viewBox="0 0 40.464 40.464">
  <path id="Path_338" data-name="Path 338" d="M214.745,210.873A3.873,3.873,0,1,1,210.873,207,3.873,3.873,0,0,1,214.745,210.873Zm0,0" transform="translate(-190.64 -190.64)" fill="#818181"/>
  <path id="Path_339" data-name="Path 339" d="M154.066,138.161a3.847,3.847,0,0,0-2.2-2.2,6.429,6.429,0,0,0-2.157-.4c-1.225-.056-1.593-.068-4.695-.068s-3.47.012-4.695.068a6.433,6.433,0,0,0-2.157.4,3.849,3.849,0,0,0-2.205,2.2,6.43,6.43,0,0,0-.4,2.157c-.056,1.225-.068,1.592-.068,4.695s.012,3.469.068,4.695a6.428,6.428,0,0,0,.4,2.157,3.847,3.847,0,0,0,2.2,2.2,6.418,6.418,0,0,0,2.157.4c1.225.056,1.592.068,4.694.068s3.47-.012,4.695-.068a6.419,6.419,0,0,0,2.157-.4,3.847,3.847,0,0,0,2.2-2.2,6.434,6.434,0,0,0,.4-2.157c.056-1.225.068-1.593.068-4.695s-.012-3.47-.068-4.695A6.42,6.42,0,0,0,154.066,138.161Zm-9.057,12.817a5.966,5.966,0,1,1,5.966-5.966A5.966,5.966,0,0,1,145.009,150.979Zm6.2-10.773a1.394,1.394,0,1,1,1.394-1.394A1.394,1.394,0,0,1,151.211,140.206Zm0,0" transform="translate(-124.777 -124.781)" fill="#818181"/>
  <path id="Path_340" data-name="Path 340" d="M20.232,0A20.232,20.232,0,1,0,40.464,20.232,20.234,20.234,0,0,0,20.232,0ZM31.78,25.022a8.524,8.524,0,0,1-.54,2.82,5.94,5.94,0,0,1-3.4,3.4,8.53,8.53,0,0,1-2.82.54c-1.239.056-1.635.07-4.79.07s-3.551-.014-4.79-.07a8.53,8.53,0,0,1-2.82-.54,5.94,5.94,0,0,1-3.4-3.4,8.522,8.522,0,0,1-.54-2.82c-.057-1.239-.07-1.635-.07-4.79s.013-3.551.07-4.79a8.525,8.525,0,0,1,.54-2.82,5.944,5.944,0,0,1,3.4-3.4,8.532,8.532,0,0,1,2.82-.54c1.239-.056,1.635-.07,4.79-.07s3.551.014,4.79.07a8.533,8.533,0,0,1,2.82.539,5.942,5.942,0,0,1,3.4,3.4,8.523,8.523,0,0,1,.54,2.82c.056,1.239.07,1.635.07,4.79S31.837,23.783,31.78,25.022Zm0,0" fill="#818181"/>
</svg>
