<svg xmlns="http://www.w3.org/2000/svg" width="100.469" height="50" viewBox="0 0 100.469 50">
  <g id="Frame_1" data-name="Frame 1" transform="translate(0 5)">
    <g id="Group_34" data-name="Group 34">
      <path id="Path_90" data-name="Path 90" d="M10.679,3.138C7.016-1.874,3.149-.136,1.368,3.165s-2.5,7.777,2.15,10.017S17.646,12.673,10.679,3.138Z" transform="translate(0 14.794)" fill="#fff"/>
      <path id="Path_91" data-name="Path 91" d="M4.075.043C-1.846-.6-.257,6.014,2.239,7.873,6.1,10.749,10,.684,4.075.043Z" transform="translate(2.751 31.527)" fill="#fff"/>
      <g id="Group_29" data-name="Group 29">
        <g id="Group_28" data-name="Group 28">
          <path id="Rectangle_3" data-name="Rectangle 3" d="M0,0H11.194V8.612H0Z" transform="translate(0.924 31.411)" fill="none"/>
        </g>
      </g>
      <path id="Path_93" data-name="Path 93" d="M2.028,15.167A1.008,1.008,0,0,1,1.013,16.18,1.026,1.026,0,0,1,0,15.167V1.012A1.026,1.026,0,0,1,1.013,0,1.007,1.007,0,0,1,2.026,1.012Z" transform="translate(19.454 28.813)" fill="#fff"/>
      <path id="Path_94" data-name="Path 94" d="M.989,1.16l.088-.088A3.653,3.653,0,0,1,3.683,0h3.7A6.966,6.966,0,0,1,14.27,6.918V9.262a6.966,6.966,0,0,1-6.889,6.919h-3.7a3.657,3.657,0,0,1-2.606-1.071L.984,15A3.549,3.549,0,0,1,0,12.506V3.678A3.6,3.6,0,0,1,.984,1.189ZM2.465,2.578a1.608,1.608,0,0,0-.406,1.1V12.5a1.609,1.609,0,0,0,.406,1.1l.057.057a1.577,1.577,0,0,0,1.159.492h3.7A4.776,4.776,0,0,0,10.8,12.708h.029a4.884,4.884,0,0,0,1.419-3.444V6.92a4.888,4.888,0,0,0-1.419-3.445H10.8A4.776,4.776,0,0,0,7.382,2.027h-3.7a1.574,1.574,0,0,0-1.159.493Z" transform="translate(24.902 28.812)" fill="#fff"/>
      <path id="Path_95" data-name="Path 95" d="M2.055,7.062H11.2a1.028,1.028,0,0,1,0,2.055H2.055v.145a4.918,4.918,0,0,0,4.863,4.891h5.239a1.014,1.014,0,0,1,0,2.028H6.918A6.955,6.955,0,0,1,0,9.264V6.918A6.955,6.955,0,0,1,6.918,0h5.239a1.014,1.014,0,1,1,0,2.028H6.918A4.918,4.918,0,0,0,2.055,6.92Z" transform="translate(41.428 28.813)" fill="#fff"/>
      <path id="Path_96" data-name="Path 96" d="M2.055,7.062H11.2a1.028,1.028,0,0,1,0,2.055H2.055v.145a4.918,4.918,0,0,0,4.862,4.891h5.24a1.014,1.014,0,0,1,0,2.028H6.918A6.955,6.955,0,0,1,0,9.264V6.918A6.955,6.955,0,0,1,6.918,0h5.24a1.014,1.014,0,1,1,0,2.028H6.918A4.918,4.918,0,0,0,2.055,6.92Z" transform="translate(55.569 28.813)" fill="#fff"/>
      <path id="Path_97" data-name="Path 97" d="M30.582,15.09l-1.4-12.3A2.877,2.877,0,0,0,25.961.066a4.062,4.062,0,0,0-1.755.69,3.543,3.543,0,0,0-.559.477c-.176.19-8.415,11.022-9.905,12.979H3.156a1.157,1.157,0,0,1-1.187-1.187,1.223,1.223,0,0,1,.579-.984L13.113,5.846a3.2,3.2,0,0,0,1.533-2.691A3.137,3.137,0,0,0,11.521,0H1.129a.984.984,0,1,0,0,1.968H11.521a1.187,1.187,0,0,1,1.158,1.188,1.063,1.063,0,0,1-.578.983L1.564,10.334A3.134,3.134,0,0,0,3.151,16.18H13.861a2.028,2.028,0,0,0,1.466-.807c1.563-2.06,9.822-12.932,9.933-13.026a1.373,1.373,0,0,1,.467-.254,1.532,1.532,0,0,1,.466-.074c.637,0,.956.376,1.032,1.007l.817,7.2H21.987a.984.984,0,1,0,0,1.968h6.282l.353,3.124a.984.984,0,1,0,1.956-.224Z" transform="translate(69.885 28.813)" fill="#fff"/>
      <path id="Path_98" data-name="Path 98" d="M31.951,10.66C31.951,4.772,24.73,0,15.824,0,9.143,0,3.7,2.883,1.234,6.4a6.731,6.731,0,0,0,.57,8.471C3.749,17.132,4.537,18.5,6.2,22.5c1.2,2.89,3.785,3.765,6.658,3.786,2.365.017,4.564-1.624,5.97-3.279a17.812,17.812,0,0,1,6.638-4.327C29.557,17.331,31.951,14.476,31.951,10.66Z" transform="translate(9.194 -0.057)" fill="#fff"/>
      <g id="Group_31" data-name="Group 31">
        <g id="Group_30" data-name="Group 30">
          <path id="Rectangle_4" data-name="Rectangle 4" d="M0,0H30.914V33.67H0Z" transform="translate(10.238 -5)" fill="none"/>
        </g>
      </g>
      <g id="Group_33" data-name="Group 33">
        <g id="Group_32" data-name="Group 32">
          <path id="Rectangle_5" data-name="Rectangle 5" d="M0,0H4.564V10.764H0Z" transform="translate(10.238 17.389)" fill="none"/>
        </g>
      </g>
      <path id="Path_101" data-name="Path 101" d="M11.6,5.838c-.2-.211-2.073-1.29-2.734-1.764A31.022,31.022,0,0,0,4.412,1.688c-.433-.176-.82-.466-1.241-.68C2.58.708,1.981.424,1.379.148A.888.888,0,0,0,.005.985c-.018.473.053,11.216.04,11.984a1.5,1.5,0,0,0,1.77,1.656,3.582,3.582,0,0,0,1.279-.541,19.422,19.422,0,0,0,2.182-1.357c1.058-.727,5.536-4.994,6.2-5.452A.9.9,0,0,0,11.6,5.841" transform="translate(19.756 4.47)" fill="#4c2d7f"/>
    </g>
  </g>
</svg>
