<svg xmlns="http://www.w3.org/2000/svg" width="40" height="40" viewBox="0 0 40 40">
  <path id="twitter" d="M37.115,0H2.885A2.885,2.885,0,0,0,0,2.885v34.23A2.885,2.885,0,0,0,2.885,40h34.23A2.885,2.885,0,0,0,40,37.115V2.885A2.885,2.885,0,0,0,37.115,0ZM29.132,15.594q.013.3.013.593A12.972,12.972,0,0,1,16.084,29.248h0a12.994,12.994,0,0,1-7.036-2.062,9.337,9.337,0,0,0,1.095.063,9.211,9.211,0,0,0,5.7-1.965A4.6,4.6,0,0,1,11.555,22.1a4.575,4.575,0,0,0,2.073-.079,4.592,4.592,0,0,1-3.683-4.5c0-.021,0-.039,0-.059a4.559,4.559,0,0,0,2.079.574A4.594,4.594,0,0,1,10.6,11.9a13.033,13.033,0,0,0,9.462,4.8,4.593,4.593,0,0,1,7.823-4.186A9.207,9.207,0,0,0,30.8,11.4a4.608,4.608,0,0,1-2.019,2.539,9.155,9.155,0,0,0,2.636-.723,9.329,9.329,0,0,1-2.29,2.377Zm0,0" transform="translate(0)" fill="#818181"/>
</svg>
