<svg xmlns="http://www.w3.org/2000/svg" width="18.14" height="18.151" viewBox="0 0 18.14 18.151">
  <g id="Group_3139" data-name="Group 3139" transform="translate(588.389 -393.068)">
    <path id="Path_11448" data-name="Path 11448" d="M-580.054,411.219a13.116,13.116,0,0,1-1.357-.224,8.978,8.978,0,0,1-3.768-1.906,9,9,0,0,1-2.91-4.589,8.915,8.915,0,0,1-.264-3.136,8.866,8.866,0,0,1,1.91-4.828,8.825,8.825,0,0,1,5.446-3.3,8.76,8.76,0,0,1,6.316,1.111,8.907,8.907,0,0,1,4.3,6.176c.057.294.087.593.13.89V402.9c-.043.3-.068.6-.13.889a8.957,8.957,0,0,1-6.491,7.116,9.149,9.149,0,0,1-1.7.313Zm.742-.855a8.208,8.208,0,0,0,8.212-8.192,8.23,8.23,0,0,0-8.2-8.225,8.228,8.228,0,0,0-8.221,8.206A8.211,8.211,0,0,0-579.311,410.364Z" transform="translate(0)"/>
    <path id="Path_11449" data-name="Path 11449" d="M-494.366,495.955a1.232,1.232,0,0,0,.525-.093c.124-.049.148,0,.119.112-.024.091-.049.182-.069.274a.219.219,0,0,1-.155.174,5.237,5.237,0,0,1-1.526.417,1.553,1.553,0,0,1-1.508-.653,1.442,1.442,0,0,1-.1-1.1c.125-.661.357-1.294.529-1.943a5.885,5.885,0,0,0,.187-.9.485.485,0,0,0-.518-.6,1.794,1.794,0,0,0-.693.111c-.128.048-.162.02-.142-.127a.572.572,0,0,1,.47-.542,6.227,6.227,0,0,1,1.333-.324,1.667,1.667,0,0,1,1.189.355,1.093,1.093,0,0,1,.367.92,5.575,5.575,0,0,1-.3,1.448,12.715,12.715,0,0,0-.446,1.763c-.07.507.1.7.607.7Z" transform="translate(-83.635 -90.12)"/>
    <path id="Path_11450" data-name="Path 11450" d="M-473.787,451.707a1.094,1.094,0,0,1,.957.426,1.014,1.014,0,0,1-.343,1.562,1.265,1.265,0,0,1-1.514-.229,1.021,1.021,0,0,1,.3-1.617A1.059,1.059,0,0,1-473.787,451.707Z" transform="translate(-104.63 -54.09)"/>
  </g>
</svg>
