<svg xmlns="http://www.w3.org/2000/svg" width="24.97" height="24.97" viewBox="0 0 24.97 24.97">
  <g id="Group_3067" data-name="Group 3067" transform="translate(1030 -365)">
    <g id="Group_11" data-name="Group 11" transform="translate(-1023.806 367.591)">
      <path id="Path_210" data-name="Path 210" d="M168.167,48.245a.225.225,0,1,1-.448,0,.225.225,0,1,1,.448,0Z" transform="translate(-167.454 -48)" fill="none" stroke="#333" stroke-linecap="round" stroke-linejoin="round" stroke-width="2"/>
      <path id="Path_211" data-name="Path 211" d="M64.487,304a.469.469,0,0,0-.488.353.043.043,0,0,0,.04.055h.9a.043.043,0,0,0,.04-.055A.469.469,0,0,0,64.487,304Z" transform="translate(-63.998 -303.348)" fill="none" stroke="#333" stroke-miterlimit="10" stroke-width="2"/>
    </g>
    <path id="call-to-action" d="M24.97,9.453a3.2,3.2,0,0,0-2.477-3.1V.731a.731.731,0,0,0-.97-.692L10.373,3.886H5.033a41.837,41.837,0,0,0-4.45.731A.731.731,0,0,0,0,5.334v8.239a.732.732,0,0,0,.583.716c.292.06,2.434.5,3.718.667v6.578a3.463,3.463,0,0,0,6.925,0v-6.22l10.3,3.552a.732.732,0,0,0,.97-.692V12.553a3.194,3.194,0,0,0,2.477-3.1Zm-19.124,4.1V5.35h1.2v8.207ZM8.507,5.35h1.2v8.207h-1.2Zm-7.044.582c.956-.19,2.15-.411,2.919-.518v8.079c-.769-.106-1.964-.328-2.919-.518Zm6.3,17.575a1.989,1.989,0,0,1-2-1.973V15.019h4v6.514A1.989,1.989,0,0,1,7.764,23.506Zm13.265-6.358-9.86-3.4V5.159l9.86-3.4Zm1.463-6.132V7.89a1.711,1.711,0,0,1,0,3.126Zm0,0" transform="translate(-1030 365)"/>
  </g>
</svg>
