<svg xmlns="http://www.w3.org/2000/svg" width="18.154" height="21.266" viewBox="0 0 18.154 21.266">
  <g id="new" transform="translate(-5.188)">
    <g id="Group_3236" data-name="Group 3236" transform="translate(5.188)">
      <path id="Path_11484" data-name="Path 11484" d="M23.336,6.947a.632.632,0,0,0-.033-.165l-.02-.053a.609.609,0,0,0-.126-.186L16.8.183A.64.64,0,0,0,16.6.055L16.557.038A.615.615,0,0,0,16.386,0l-.031,0h-4.2A2.744,2.744,0,0,0,9.411,2.741v.369H7.928A2.744,2.744,0,0,0,5.188,5.85V18.526a2.744,2.744,0,0,0,2.74,2.741h8.451a2.744,2.744,0,0,0,2.74-2.741v-.369H20.6a2.744,2.744,0,0,0,2.741-2.741V6.989Zm-6.355-4.8L21.2,6.361H18.466a1.486,1.486,0,0,1-1.484-1.485V2.143Zm.882,16.382a1.487,1.487,0,0,1-1.485,1.485H7.928a1.487,1.487,0,0,1-1.485-1.485V5.849A1.487,1.487,0,0,1,7.928,4.364H11.5v3.62a2.744,2.744,0,0,0,2.741,2.741h3.62ZM12.758,7.985V5.253L16.976,9.47H14.243A1.487,1.487,0,0,1,12.758,7.985Zm9.328,7.431A1.487,1.487,0,0,1,20.6,16.9H19.119V10.1l-.006-.041a.637.637,0,0,0-.033-.164l-.022-.057a.616.616,0,0,0-.123-.181L12.574,3.292a.6.6,0,0,0-.175-.119.465.465,0,0,0-.062-.024.6.6,0,0,0-.164-.033h0l-.042-.007H10.667V2.741a1.487,1.487,0,0,1,1.485-1.485h3.575v3.62a2.743,2.743,0,0,0,2.74,2.741h3.62Z" transform="translate(-5.188)"/>
      <path id="Path_11485" data-name="Path 11485" d="M20.429,37.347a.6.6,0,0,0-1.2,0V39.5H17.078a.6.6,0,1,0,0,1.2h2.151v2.151a.6.6,0,0,0,1.2,0V40.7H22.58a.6.6,0,1,0,0-1.2H20.429Z" transform="translate(-13.092 -25.725)"/>
    </g>
  </g>
</svg>
