<svg xmlns="http://www.w3.org/2000/svg" width="24.468" height="21.951" viewBox="0 0 24.468 21.951">
  <g id="book-outline" transform="translate(-31 -63)">
    <path id="Path_236" data-name="Path 236" d="M43.234,68.814c.8-3.168,3.833-4.785,10.431-4.814a.8.8,0,0,1,.8.8V79.246a.8.8,0,0,1-.8.8c-6.419,0-8.9,1.294-10.431,3.21-1.523-1.906-4.012-3.21-10.431-3.21a.823.823,0,0,1-.8-.9V64.8a.8.8,0,0,1,.8-.8C39.4,64.029,42.431,65.647,43.234,68.814Z" transform="translate(0 0)" fill="none" stroke="#000" stroke-linecap="round" stroke-linejoin="round" stroke-width="2"/>
    <line id="Line_10" data-name="Line 10" y2="14.581" transform="translate(43.234 69.369)" fill="none" stroke="#000" stroke-linecap="round" stroke-linejoin="round" stroke-width="2"/>
  </g>
</svg>
