<svg xmlns="http://www.w3.org/2000/svg" width="17.435" height="17.435" viewBox="0 0 17.435 17.435">
  <path id="Path_11444" data-name="Path 11444" d="M17.634,13.275H16.388V10.784a.623.623,0,0,0-.623-.623h-5.6V5.8h3.113A.623.623,0,0,0,13.9,5.18V1.444a.623.623,0,0,0-.623-.623H5.8a.623.623,0,0,0-.623.623V5.18A.623.623,0,0,0,5.8,5.8H8.916v4.359h-5.6a.623.623,0,0,0-.623.623v2.491H1.444a.623.623,0,0,0-.623.623v3.736a.623.623,0,0,0,.623.623H5.18a.623.623,0,0,0,.623-.623V13.9a.623.623,0,0,0-.623-.623H3.935V11.407H8.916v1.868H7.671a.623.623,0,0,0-.623.623v3.736a.623.623,0,0,0,.623.623h3.736a.623.623,0,0,0,.623-.623V13.9a.623.623,0,0,0-.623-.623H10.161V11.407h4.981v1.868H13.9a.623.623,0,0,0-.623.623v3.736a.623.623,0,0,0,.623.623h3.736a.623.623,0,0,0,.623-.623V13.9A.623.623,0,0,0,17.634,13.275ZM6.425,2.067h6.227V4.557H6.425ZM4.557,17.011H2.067V14.52H4.557Zm6.227,0H8.293V14.52h2.491Zm6.227,0H14.52V14.52h2.491Z" transform="translate(-0.821 -0.821)" fill="#333"/>
</svg>
