<svg xmlns="http://www.w3.org/2000/svg" width="15.238" height="15.238" viewBox="0 0 15.238 15.238">
  <g id="Page-1" transform="translate(-573 -181.001)">
    <g id="_001---Degree" data-name="001---Degree" transform="translate(573 181.001)">
      <path id="Shape" d="M14.906,2.57,7.8.031a.521.521,0,0,0-.347,0L.344,2.57a.508.508,0,0,0,0,.956l3.472,1.24V6.35c0,.987,3.42,1.016,3.809,1.016s3.809-.028,3.809-1.016V4.766L12.2,4.5V5.08a.508.508,0,0,0,.508.508h.508a.508.508,0,0,0,.508-.508V4.318a.751.751,0,0,0-.083-.338l1.27-.454a.508.508,0,0,0,0-.956ZM10.927,5.791a10.542,10.542,0,0,0-3.3-.457,10.542,10.542,0,0,0-3.3.457V3.579a6.719,6.719,0,0,1,3.3-.53,6.719,6.719,0,0,1,3.3.53Zm-3.3,1.067a7.207,7.207,0,0,1-3.28-.508,7.209,7.209,0,0,1,3.28-.508,7.209,7.209,0,0,1,3.28.508A7.207,7.207,0,0,1,7.625,6.858Zm4.69-2.945-.881.314V3.556c0-.987-3.42-1.016-3.809-1.016s-3.809.028-3.809,1.016v.671L.514,3.048,7.629.509,12.7,2.322V3.6A.763.763,0,0,0,12.315,3.913Zm.9,1.167H12.7V4.318a.254.254,0,1,1,.508,0Zm0-1.487V2.5l1.524.544Z" transform="translate(-0.006 -0.001)"/>
      <path id="Shape-2" data-name="Shape" d="M14.476,31a.248.248,0,0,0-.045,0,42.524,42.524,0,0,1-6.812.5A42.524,42.524,0,0,1,.807,31a.286.286,0,0,0-.045,0C.584,31,0,31.2,0,33.794s.584,2.794.762,2.794a.288.288,0,0,0,.045,0,39.719,39.719,0,0,1,5.232-.477l-.5,1.189a.506.506,0,0,0,.671.652l.194-.083.084.193a.505.505,0,0,0,.467.308h.006a.506.506,0,0,0,.466-.317l.441-1.056.44,1.052a.508.508,0,0,0,.467.321h.008a.5.5,0,0,0,.465-.3l.085-.195.191.082a.506.506,0,0,0,.673-.655l-.486-1.166a38.723,38.723,0,0,1,4.717.457.247.247,0,0,0,.044,0c.178,0,.762-.2.762-2.794S14.654,31,14.476,31ZM8.432,32.008A5.348,5.348,0,0,1,8.615,33.2a1.762,1.762,0,0,0-1.768.164,6.861,6.861,0,0,0-.174-1.354q.461.01.947.01C7.9,32.016,8.166,32.013,8.432,32.008Zm-.559,4.071a1.27,1.27,0,1,1,1.27-1.27A1.27,1.27,0,0,1,7.873,36.079ZM.762,31.635a7.123,7.123,0,0,1,.254,2.159,7.123,7.123,0,0,1-.254,2.159,7.123,7.123,0,0,1-.254-2.159A7.123,7.123,0,0,1,.762,31.635ZM1.275,36a7.092,7.092,0,0,0,.249-2.2,7.088,7.088,0,0,0-.249-2.2,44.56,44.56,0,0,0,4.867.4,6.537,6.537,0,0,1,.207,1.8c0,.037,0,.072,0,.107a1.759,1.759,0,0,0-.082,1.664l-.011.027a44.23,44.23,0,0,0-4.98.4ZM6.96,37.857l-.185-.427a.254.254,0,0,0-.333-.132l-.427.189.6-1.428a1.776,1.776,0,0,0,.9.49ZM9.3,37.3a.254.254,0,0,0-.333.132l-.188.422-.544-1.3a1.778,1.778,0,0,0,.9-.49l.594,1.422Zm5.121-1.232A41.129,41.129,0,0,0,9.5,35.609l-.018-.044a1.767,1.767,0,0,0-.342-2A7.069,7.069,0,0,0,8.957,32a42.394,42.394,0,0,0,5.469-.478,5.991,5.991,0,0,1,.3,2.273,6.017,6.017,0,0,1-.3,2.273Z" transform="translate(0 -23.127)"/>
    </g>
  </g>
</svg>
