<svg xmlns="http://www.w3.org/2000/svg" width="30.13" height="29.776" viewBox="0 0 30.13 29.776">
  <g id="Paticipatation" transform="translate(-1.604 -1.875)">
    <path id="Path_1251" data-name="Path 1251" d="M31.428,25.07l-2.09-2.1a.493.493,0,0,0-.349-.145h0a.493.493,0,0,0-.349.148l-.348.348-.252-.252-.663-2.653a.5.5,0,0,0-.129-.229l-5.155-5.159V8.9a.493.493,0,0,0-.07-.254L20.614,6.3V5.944h.493a.493.493,0,0,0,.493-.493V2.493A.493.493,0,0,0,21.107,2H13.219a.493.493,0,0,0-.493.493V5.451a.493.493,0,0,0,.493.493v.289L11.392,8.06a.493.493,0,0,0-.144.349v5.915a1.464,1.464,0,0,0,.124.584L6.092,20.19a.5.5,0,0,0-.129.229L5.3,23.073l-.254.253L4.7,22.979a.493.493,0,0,0-.7,0L1.911,25.07a.493.493,0,0,0,0,.7l5.577,5.577a.493.493,0,0,0,.7,0l2.091-2.092a.493.493,0,0,0,0-.7l.2-.2h2.587a.493.493,0,0,0,.348-.144L16.67,24.95l3.253,3.259a.493.493,0,0,0,.349.144h2.586l.2.2h0a.493.493,0,0,0,0,.695l2.09,2.09a.493.493,0,0,0,.7,0l5.575-5.575A.493.493,0,0,0,31.428,25.07ZM13.712,2.986h6.9V4.958h-6.9Zm.349,3.8a.493.493,0,0,0,.144-.349V5.944h5.423v.493a.493.493,0,0,0,.07.254l1.408,2.347v5.237a1.541,1.541,0,0,0-.986.006v-.943h-.986v1.528l-.253-.253a1.472,1.472,0,0,0-.733-.4v-.874h-.986v1a1.4,1.4,0,0,0-.657.684l-.065-.065a1.446,1.446,0,0,0-.265-.207V13.338h-.986v1.209a1.473,1.473,0,0,0-.841.415,1.45,1.45,0,0,0-.219.288,1.452,1.452,0,0,0-.1-.246,1.445,1.445,0,0,0,.173-.679V11.366h-.986v2.908a1.483,1.483,0,0,0-.986,0V8.612ZM7.836,30.3l-4.88-4.88,1.395-1.394,4.88,4.88Zm5.026-2.931H10.276a.493.493,0,0,0-.348.144l-.348.345L5.745,24.024l.35-.35a.5.5,0,0,0,.13-.229l.662-2.653,5.472-5.479a.5.5,0,0,1,.695-.012l.024.028a.489.489,0,0,1-.016.678h0l-2.44,2.44.7.7,2.44-2.44h0a1.487,1.487,0,0,0,.22-.29,1.46,1.46,0,0,0,.369.641l.062.062A1.491,1.491,0,0,0,14,17.4a1.471,1.471,0,0,0-.418.876l-.213.213-1.351,1.351.7.7,1.175-1.175a1.441,1.441,0,0,0,.11.13l.579.577L13.41,21.237l.7.7,1.167-1.167.065.065a.441.441,0,0,0,.038.042l.592.592L13.41,24.022l.7.7,1.282-1.282a1.467,1.467,0,0,0,.353.586l.228.229Zm7.616,0-4.036-4.042a.493.493,0,0,1,0-.7.439.439,0,0,1,.228-.125.485.485,0,0,0,.119-.015.485.485,0,0,1,.34.131h0l2.1,2.1.7-.7L14.69,18.79a.474.474,0,0,1-.138-.324.493.493,0,0,1,.471-.515.52.52,0,0,0,.056,0,.505.505,0,0,1,.314.141l3.835,3.835.7-.7-4.88-4.88a.493.493,0,0,1,0-.7.488.488,0,0,1,.351-.141.471.471,0,0,1,.148.025.454.454,0,0,1,.2.117l4.88,4.88.7-.7L17.482,16a.473.473,0,0,1-.138-.325.493.493,0,0,1,.142-.365.531.531,0,0,1,.29-.141.26.26,0,0,1,.057,0,.5.5,0,0,1,.351.148l3.835,3.835.7-.7-2.44-2.44a.493.493,0,0,1,0-.7.5.5,0,0,1,.7,0l5.479,5.481.662,2.652a.5.5,0,0,0,.13.229l.349.349-3.836,3.837-.345-.345a.493.493,0,0,0-.349-.144ZM25.506,30.3l-1.4-1.4,4.88-4.88,1.392,1.4Z" fill="#333" stroke="#333" stroke-width="0.25"/>
    <path id="Path_1252" data-name="Path 1252" d="M15.264,16.79l-.641-.749a10.367,10.367,0,0,0-3.507,9.419l.975-.148a9.46,9.46,0,0,1-.1-1.4,9.36,9.36,0,0,1,3.278-7.118Z" transform="translate(-4.682 -7.119)" fill="#333" stroke="#333" stroke-width="0.25"/>
    <path id="Path_1253" data-name="Path 1253" d="M31.984,51.961l-.049-.986c-.311.015-.627.015-.937,0l-.049.986c.171.008.345.012.517.012S31.812,51.969,31.984,51.961Z" transform="translate(-14.797 -24.833)" fill="#333" stroke="#333" stroke-width="0.25"/>
    <path id="Path_1254" data-name="Path 1254" d="M48.565,24.943c.034-.341.049-.69.049-1.035a10.345,10.345,0,0,0-3.623-7.867l-.641.749a9.36,9.36,0,0,1,3.278,7.118c0,.314-.016.629-.046.937Z" transform="translate(-21.592 -7.119)" fill="#333" stroke="#333" stroke-width="0.25"/>
    <path id="Path_1255" data-name="Path 1255" d="M8.231,22.836A11.357,11.357,0,0,1,14.6,10.164l-.411-.9A12.345,12.345,0,0,0,7.266,23.041Z" transform="translate(-2.653 -3.685)" fill="#333" stroke="#333" stroke-width="0.25"/>
    <path id="Path_1256" data-name="Path 1256" d="M28,54.682l-.164.972a12.449,12.449,0,0,0,4.107,0l-.164-.972a11.525,11.525,0,0,1-3.78,0Z" transform="translate(-13.218 -26.712)" fill="#333" stroke="#333" stroke-width="0.25"/>
    <path id="Path_1257" data-name="Path 1257" d="M49.169,21.02a11.4,11.4,0,0,1-.246,2.362l.965.205a12.346,12.346,0,0,0-5.894-13.242L43.5,11.2a11.381,11.381,0,0,1,5.669,9.821Z" transform="translate(-21.161 -4.231)" fill="#333" stroke="#333" stroke-width="0.25"/>
  </g>
</svg>
