<svg id="corporate" xmlns="http://www.w3.org/2000/svg" width="16.626" height="16.626" viewBox="0 0 16.626 16.626">
  <circle id="Ellipse_63" data-name="Ellipse 63" cx="1.039" cy="1.039" r="1.039" transform="translate(7.274 5.542)"/>
  <path id="Path_11460" data-name="Path 11460" d="M12.637,14.078a.52.52,0,0,1-.52-.52.52.52,0,0,0-.52-.52H10.559a.52.52,0,0,0-.52.52.52.52,0,0,1-1.039,0A1.561,1.561,0,0,1,10.559,12H11.6a1.561,1.561,0,0,1,1.559,1.559A.52.52,0,0,1,12.637,14.078Z" transform="translate(-2.765 -3.687)"/>
  <path id="Path_11461" data-name="Path 11461" d="M9.849,14.7A4.849,4.849,0,1,1,14.7,9.849,4.855,4.855,0,0,1,9.849,14.7Zm0-8.659a3.81,3.81,0,1,0,3.81,3.81A3.815,3.815,0,0,0,9.849,6.039Z" transform="translate(-1.536 -1.536)"/>
  <path id="Path_11462" data-name="Path 11462" d="M18.787,19.307a.515.515,0,0,1-.367-.152L16,16.736A.52.52,0,0,1,16.737,16l2.418,2.418a.52.52,0,0,1-.368.887Z" transform="translate(-4.87 -4.87)"/>
  <path id="Path_11463" data-name="Path 11463" d="M6.1,6.617a.515.515,0,0,1-.367-.152L3.312,4.046a.52.52,0,0,1,.735-.735L6.465,5.729a.52.52,0,0,1-.368.887Z" transform="translate(-0.971 -0.971)"/>
  <path id="Path_11464" data-name="Path 11464" d="M16.37,6.617A.52.52,0,0,1,16,5.729L18.42,3.311a.52.52,0,1,1,.735.735L16.737,6.464a.519.519,0,0,1-.368.152Z" transform="translate(-4.87 -0.971)"/>
  <path id="Path_11465" data-name="Path 11465" d="M3.68,19.307a.52.52,0,0,1-.367-.887L5.73,16a.52.52,0,0,1,.735.735L4.047,19.154a.517.517,0,0,1-.368.152Z" transform="translate(-0.971 -4.87)"/>
  <path id="Path_11466" data-name="Path 11466" d="M1.732,22.464a1.732,1.732,0,1,1,1.732-1.732A1.734,1.734,0,0,1,1.732,22.464Zm0-2.425a.693.693,0,1,0,.693.693A.693.693,0,0,0,1.732,20.039Z" transform="translate(0 -5.838)"/>
  <path id="Path_11467" data-name="Path 11467" d="M1.732,3.464A1.732,1.732,0,1,1,3.464,1.732,1.734,1.734,0,0,1,1.732,3.464Zm0-2.425a.693.693,0,1,0,.693.693A.693.693,0,0,0,1.732,1.039Z" transform="translate(0 0)"/>
  <path id="Path_11468" data-name="Path 11468" d="M20.732,3.464a1.732,1.732,0,1,1,1.732-1.732A1.734,1.734,0,0,1,20.732,3.464Zm0-2.425a.693.693,0,1,0,.693.693A.693.693,0,0,0,20.732,1.039Z" transform="translate(-5.838 0)"/>
  <path id="Path_11469" data-name="Path 11469" d="M20.732,22.464a1.732,1.732,0,1,1,1.732-1.732A1.734,1.734,0,0,1,20.732,22.464Zm0-2.425a.693.693,0,1,0,.693.693A.693.693,0,0,0,20.732,20.039Z" transform="translate(-5.838 -5.838)"/>
</svg>
