<svg xmlns="http://www.w3.org/2000/svg" width="28.147" height="28.147" viewBox="0 0 28.147 28.147">
  <g id="factory" transform="translate(-1 -1)">
    <path id="Path_11462" data-name="Path 11462" d="M25.462,11.9H21.936l-.908,7.264H17.343V11.9H15.527V10.08H12.8V5.54h-.951L11.4,1H8.76L8.306,5.54H7.356V3.724H3.724V5.54H2.816V16.272a5.879,5.879,0,0,0,0,8.5v4.377H28.239V19.159H26.37Zm-.8.908.113.908H22.625l.113-.908ZM22.511,14.62h2.376l.567,4.54H21.943Zm-6.076,4.54h-3.8a5.914,5.914,0,0,0-4.375-4.375V12.8h8.172ZM8.588,25.216A6.292,6.292,0,0,0,9.219,23.7h1.531A5.011,5.011,0,0,1,8.588,25.216ZM3.052,23.7H4.584a6.274,6.274,0,0,0,.631,1.517A5.016,5.016,0,0,1,3.052,23.7Zm2.163-7.873a6.274,6.274,0,0,0-.631,1.517H3.052A5.015,5.015,0,0,1,5.216,15.827ZM5.54,9.172H3.724V8.264H5.54Zm0,.908v.908H3.724V10.08Zm0,1.816V12.8H3.724V11.9Zm4.076,8.172a12.451,12.451,0,0,0-.186-1.816h1.914a4.957,4.957,0,0,1,.528,1.816Zm-4.52,0A11.309,11.309,0,0,1,5.3,18.251H8.5a11.257,11.257,0,0,1,.209,1.816Zm3.613.908A11.309,11.309,0,0,1,8.5,22.791H5.3A11.258,11.258,0,0,1,5.1,20.975Zm.511-3.632a6.274,6.274,0,0,0-.631-1.517,5.007,5.007,0,0,1,2.163,1.517Zm-.952,0H5.535c.358-1.123.878-1.816,1.366-1.816S7.91,16.221,8.268,17.343Zm-3.894.908a12.451,12.451,0,0,0-.186,1.816H1.931a4.948,4.948,0,0,1,.528-1.816Zm-.186,2.724a12.451,12.451,0,0,0,.186,1.816H2.459a4.957,4.957,0,0,1-.528-1.816ZM5.536,23.7H8.268C7.91,24.822,7.39,25.515,6.9,25.515S5.894,24.822,5.536,23.7Zm5.809-.908H9.43a12.451,12.451,0,0,0,.186-1.816h2.257a4.957,4.957,0,0,1-.528,1.816ZM14.62,11.9H10.08v-.908h4.54ZM11.9,10.08H9.172V11.9H7.356v2.747c-.15-.012-.3-.023-.454-.023s-.3.011-.454.023V6.448H11.9ZM9.583,1.908h.994L10.94,5.54H9.219ZM4.632,4.632H6.448V5.54H4.632ZM5.54,6.448v.908H3.724V6.448ZM3.724,13.712H5.54v1.073a5.855,5.855,0,0,0-1.816.772Zm0,11.775a5.86,5.86,0,0,0,6.356,0v2.753H3.724Zm10.9,2.753H12.8V24.607H14.62Zm5.448,0H18.251V24.607h1.816Zm5.448,0H23.7V24.607h1.816Zm.908,0V23.7H22.791v4.54H20.975V23.7H17.343v4.54H15.527V23.7H11.9v4.54h-.908V24.77a5.9,5.9,0,0,0,1.651-2.887H27.331v6.356Zm.908-7.264H12.78c.012-.15.023-.3.023-.454s-.011-.3-.023-.454H27.331Z" fill="#101010"/>
    <path id="Path_11463" data-name="Path 11463" d="M53.086,8.816h-.92A2.046,2.046,0,0,0,50.135,7H49v.908h1.135A1.136,1.136,0,0,1,51.27,9.043v.681h1.816a1.362,1.362,0,0,1,0,2.724H51.724a1.364,1.364,0,0,0-1.362,1.362v.454h.908V13.81a.454.454,0,0,1,.454-.454h1.362a2.27,2.27,0,0,0,0-4.54Z" transform="translate(-26.209 -3.276)" fill="#101010"/>
    <path id="Path_11464" data-name="Path 11464" d="M38.362,13.356H41.54a.454.454,0,0,1,.454.454v.454H42.9V13.81a1.364,1.364,0,0,0-1.362-1.362H38.362a.454.454,0,1,1,0-.908h2.724v-.908h-.908a1.362,1.362,0,1,1,0-2.724H41.54V7H40.178a2.272,2.272,0,0,0-2.27,2.27,2.246,2.246,0,0,0,.466,1.362h-.012a1.362,1.362,0,0,0,0,2.724Z" transform="translate(-19.657 -3.276)" fill="#101010"/>
    <path id="Path_11465" data-name="Path 11465" d="M31,29h.908v.908H31Z" transform="translate(-16.38 -15.288)" fill="#101010"/>
    <path id="Path_11466" data-name="Path 11466" d="M23,29h.908v.908H23Z" transform="translate(-12.012 -15.288)" fill="#101010"/>
    <path id="Path_11467" data-name="Path 11467" d="M19,29h.908v.908H19Z" transform="translate(-9.828 -15.288)" fill="#101010"/>
    <path id="Path_11468" data-name="Path 11468" d="M27,29h.908v.908H27Z" transform="translate(-14.196 -15.288)" fill="#101010"/>
    <path id="Path_11469" data-name="Path 11469" d="M27,33h.908v.908H27Z" transform="translate(-14.196 -17.473)" fill="#101010"/>
    <path id="Path_11470" data-name="Path 11470" d="M31,33h.908v.908H31Z" transform="translate(-16.38 -17.473)" fill="#101010"/>
    <path id="Path_11471" data-name="Path 11471" d="M27,37h.908v.908H27Z" transform="translate(-14.196 -19.657)" fill="#101010"/>
    <path id="Path_11472" data-name="Path 11472" d="M31,37h.908v.908H31Z" transform="translate(-16.38 -19.657)" fill="#101010"/>
  </g>
</svg>
