<svg xmlns="http://www.w3.org/2000/svg" width="20.03" height="23.11" viewBox="0 0 20.03 23.11">
  <path id="finger-print-outline" d="M64.469,18.853a.5.5,0,0,1-.256-.069,12.608,12.608,0,0,0-12.4,0,.553.553,0,0,1-.757-.233.6.6,0,0,1,.223-.786,13.709,13.709,0,0,1,13.444-.01.578.578,0,0,1,.234.774A.544.544,0,0,1,64.469,18.853ZM48.543,24.919a.565.565,0,0,1-.323-.1.59.59,0,0,1-.134-.809,11.644,11.644,0,0,1,4.174-3.778,12.43,12.43,0,0,1,11.474-.012,11.689,11.689,0,0,1,4.174,3.755.592.592,0,0,1-.134.809A.542.542,0,0,1,67,24.642a10.57,10.57,0,0,0-3.773-3.4,11.341,11.341,0,0,0-10.462.012,10.7,10.7,0,0,0-3.784,3.418A.481.481,0,0,1,48.543,24.919ZM55.5,38.868a.513.513,0,0,1-.389-.173,11.679,11.679,0,0,1-2.237-3.052A10.545,10.545,0,0,1,51.7,30.627a6.3,6.3,0,0,1,12.6,0,.557.557,0,1,1-1.113,0,5.189,5.189,0,0,0-10.375,0,9.331,9.331,0,0,0,1.035,4.449,10.94,10.94,0,0,0,2.059,2.8.61.61,0,0,1,0,.818.6.6,0,0,1-.412.177Zm7.98-2.138a5.834,5.834,0,0,1-3.45-1.028,6.216,6.216,0,0,1-2.648-5.073.557.557,0,1,1,1.113,0,5.021,5.021,0,0,0,2.159,4.114,4.748,4.748,0,0,0,2.827.818,7.1,7.1,0,0,0,1.155-.116.557.557,0,0,1,.645.474.574.574,0,0,1-.456.67,7.332,7.332,0,0,1-1.346.139Zm-2.237,2.378a.626.626,0,0,1-.144-.023,8.728,8.728,0,0,1-6.555-8.458,3.428,3.428,0,0,1,6.855,0,2.316,2.316,0,0,0,4.63,0,7.986,7.986,0,0,0-8.069-7.892A8.1,8.1,0,0,0,50.6,27.392a7.686,7.686,0,0,0-.657,3.235A11.874,11.874,0,0,0,50.69,34.8a.57.57,0,0,1-.323.74.546.546,0,0,1-.712-.337,13.307,13.307,0,0,1-.813-4.574,8.959,8.959,0,0,1,.757-3.744,9.2,9.2,0,0,1,17.54,3.732,3.428,3.428,0,0,1-6.856,0,2.316,2.316,0,0,0-4.629,0,7.423,7.423,0,0,0,2.081,5.211,7.528,7.528,0,0,0,3.639,2.138.576.576,0,0,1,.389.7A.548.548,0,0,1,61.241,39.109Z" transform="translate(-47.982 -15.999)" fill="#333"/>
</svg>
