<svg xmlns="http://www.w3.org/2000/svg" width="22" height="22" viewBox="0 0 22 22">
  <path id="list" d="M6.763,6.359H3.18A3.18,3.18,0,0,1,3.18,0H6.789a.859.859,0,0,1,0,1.719H3.18a1.461,1.461,0,1,0,0,2.922H6.763a.859.859,0,1,1,0,1.719ZM22,3.18A3.183,3.183,0,0,0,18.82,0H10.227a.859.859,0,0,0,0,1.719H18.82a1.461,1.461,0,0,1,0,2.922H10.2a.859.859,0,1,0,0,1.719h8.62A3.183,3.183,0,0,0,22,3.18ZM21.957,11a3.183,3.183,0,0,0-3.18-3.18h-1.2a.859.859,0,0,0,0,1.719h1.2a1.461,1.461,0,0,1,0,2.922h-1.2a.859.859,0,0,0,0,1.719h1.2A3.183,3.183,0,0,0,21.957,11ZM15,13.32a.859.859,0,0,0-.859-.859H3.18a1.461,1.461,0,1,1,0-2.922H14.137a.859.859,0,0,0,0-1.719H3.18a3.18,3.18,0,1,0,0,6.359H14.137A.859.859,0,0,0,15,13.32Zm6.961,5.5a3.183,3.183,0,0,0-3.18-3.18H12.332a.859.859,0,1,0,0,1.719h6.445a1.461,1.461,0,0,1,0,2.922H12.332a.859.859,0,1,0,0,1.719h6.445A3.183,3.183,0,0,0,21.957,18.82Zm-12.2,2.32a.859.859,0,0,0-.859-.859H3.18a1.461,1.461,0,1,1,0-2.922H8.895a.859.859,0,0,0,0-1.719H3.18A3.18,3.18,0,1,0,3.18,22H8.895A.859.859,0,0,0,9.754,21.141Z" transform="translate(0)"/>
</svg>
