<svg xmlns="http://www.w3.org/2000/svg" width="22.007" height="21.993" viewBox="0 0 22.007 21.993">
  <g id="rocket-outline" transform="translate(-47.01 -47.164)">
    <path id="Path_227" data-name="Path 227" d="M67.9,48.449a.211.211,0,0,0-.159-.163c-2.613-.639-8.651,1.638-11.925,4.91a14.173,14.173,0,0,0-1.59,1.878,5.914,5.914,0,0,0-2.878.36c-2.427,1.067-3.133,3.853-3.33,5.05a.433.433,0,0,0,.471.5l3.9-.428a8.667,8.667,0,0,0,.053.879.872.872,0,0,0,.255.533L54.2,63.478a.872.872,0,0,0,.533.255,8.645,8.645,0,0,0,.874.053l-.427,3.893a.433.433,0,0,0,.5.47c1.2-.192,3.989-.9,5.05-3.324a5.944,5.944,0,0,0,.365-2.869,14.124,14.124,0,0,0,1.883-1.59C66.266,57.1,68.529,51.193,67.9,48.449Zm-7.841,7.683a2.05,2.05,0,1,1,1.451.6A2.052,2.052,0,0,1,60.059,56.132Z" transform="translate(0)" fill="none" stroke="#333" stroke-linecap="round" stroke-linejoin="round" stroke-width="2"/>
    <path id="Path_228" data-name="Path 228" d="M66.193,352a2.166,2.166,0,0,0-1.266.617c-.847.85-.927,4-.927,4s3.149-.08,4-.928a2.15,2.15,0,0,0,.618-1.267" transform="translate(-15.219 -289.22)" fill="none" stroke="#333" stroke-linecap="round" stroke-linejoin="round" stroke-width="2"/>
  </g>
</svg>
