<svg xmlns="http://www.w3.org/2000/svg" width="22.148" height="22.047" viewBox="0 0 22.148 22.047">
  <g id="chatbubbles-outline" transform="translate(-46.898 -47)">
    <path id="Path_234" data-name="Path 234" d="M131.465,61.136a.883.883,0,0,1,.159-.588,1.624,1.624,0,0,1,.1-.149,7.807,7.807,0,0,0,1.33-4.352A8.2,8.2,0,0,0,124.685,48a8.313,8.313,0,0,0-8.207,6.4,7.745,7.745,0,0,0-.178,1.648,8.175,8.175,0,0,0,8.24,8.149,9.924,9.924,0,0,0,2.275-.371c.545-.149,1.084-.347,1.224-.4a1.274,1.274,0,0,1,.448-.082,1.253,1.253,0,0,1,.487.1l2.732.969a.651.651,0,0,0,.188.048.386.386,0,0,0,.386-.386.62.62,0,0,0-.024-.13Z" transform="translate(-65.009)" fill="none" stroke="#000" stroke-linecap="round" stroke-miterlimit="10" stroke-width="2"/>
    <path id="Path_235" data-name="Path 235" d="M48.889,232a7.047,7.047,0,0,0,.308,7.357c.111.168.174.3.155.386s-.575,2.981-.575,2.981a.386.386,0,0,0,.131.37.394.394,0,0,0,.249.086.35.35,0,0,0,.14-.029L52,242.091a.757.757,0,0,1,.578.01,8.162,8.162,0,0,0,2.931.578,7.673,7.673,0,0,0,3.858-1.036" transform="translate(0 -175.133)" fill="none" stroke="#000" stroke-linecap="round" stroke-miterlimit="10" stroke-width="2"/>
  </g>
</svg>
