<svg xmlns="http://www.w3.org/2000/svg" width="21.707" height="15.928" viewBox="0 0 21.707 15.928">
  <g id="people-outline" transform="translate(-31.237 -95.25)">
    <path id="Path_200" data-name="Path 200" d="M275.75,99.246a2.987,2.987,0,1,1-5.952,0,2.987,2.987,0,1,1,5.952,0Z" transform="translate(-227.077)" fill="none" stroke="#000" stroke-linecap="round" stroke-linejoin="round" stroke-width="1.5"/>
    <path id="Path_201" data-name="Path 201" d="M198.5,304c-2.938,0-5.764,1.459-6.472,4.3a.573.573,0,0,0,.528.748H204.44a.574.574,0,0,0,.528-.748C204.261,305.414,201.435,304,198.5,304Z" transform="translate(-152.799 -198.622)" fill="none" stroke="#000" stroke-miterlimit="10" stroke-width="1.5"/>
    <path id="Path_202" data-name="Path 202" d="M98.621,130.612a2.4,2.4,0,1,1-4.779,0,2.4,2.4,0,1,1,4.779,0Z" transform="translate(-59.056 -30.557)" fill="none" stroke="#000" stroke-linecap="round" stroke-linejoin="round" stroke-width="1.5"/>
    <path id="Path_203" data-name="Path 203" d="M39.836,295.066a6.316,6.316,0,0,0-2.66-.516c-2.345,0-4.6,1.165-5.169,3.436a.458.458,0,0,0,.422.6h5.062" transform="translate(0 -189.598)" fill="none" stroke="#000" stroke-linecap="round" stroke-miterlimit="10" stroke-width="1.5"/>
  </g>
</svg>
