<svg xmlns="http://www.w3.org/2000/svg" width="18" height="18" viewBox="0 0 18 18">
  <path id="process" d="M14.308,2.145H11.637V0H6.363V2.418L4.627.682l-.746.746.717.717H.527V3.2H4.548l-.671.686.754.737L6.363,2.852V5.309h5.273V3.2h2.672a2.637,2.637,0,1,1,0,5.273h-.871l.682-.682-.746-.746L11.637,8.782V6.363H6.363V8.473H3.726a3.692,3.692,0,1,0,0,7.383h.836l-.682.682.746.746,1.737-1.736V18h5.273V12.691H6.363V15.11L4.627,13.373l-.746.746.682.682H3.726a2.637,2.637,0,1,1,0-5.273H6.363v2.109h5.273V9.218l1.737,1.736.746-.746-.682-.682h.871a3.691,3.691,0,1,0,0-7.383ZM10.582,4.254H7.418v-3.2h3.164ZM7.418,13.746h3.164v3.2H7.418Zm3.164-3.164H7.418V7.418h3.164Zm0,0" transform="translate(0)"/>
</svg>
