<svg xmlns="http://www.w3.org/2000/svg" width="21.97" height="27.961" viewBox="0 0 21.97 27.961">
  <g id="document-outline" transform="translate(-95 -47)">
    <path id="Path_232" data-name="Path 232" d="M115.97,58.812V70.966a3,3,0,0,1-3,3H99a3,3,0,0,1-3-3V51a3,3,0,0,1,3-3h6.163a2,2,0,0,1,1.411.585l8.816,8.816A2,2,0,0,1,115.97,58.812Z" transform="translate(0 0)" fill="none" stroke="#000" stroke-linejoin="round" stroke-width="2"/>
    <path id="Path_233" data-name="Path 233" d="M256,56v7.489a2,2,0,0,0,2,2h7.489" transform="translate(-150.015 -7.501)" fill="none" stroke="#000" stroke-linecap="round" stroke-linejoin="round" stroke-width="2"/>
  </g>
</svg>
