<svg xmlns="http://www.w3.org/2000/svg" width="19.241" height="18" viewBox="0 0 19.241 18">
  <g id="robot" transform="translate(0 1.168)">
    <path id="Path_11470" data-name="Path 11470" d="M.31,6.591H2.032a4.616,4.616,0,0,0,.437,1.052L1.251,8.86a.311.311,0,0,0,0,.439l1.317,1.317a.311.311,0,0,0,.439,0L4.225,9.4a4.612,4.612,0,0,0,1.051.437v1.722a.31.31,0,0,0,.31.31H7.448a.31.31,0,0,0,.31-.31V9.834A4.612,4.612,0,0,0,8.81,9.4l1.219,1.219a.319.319,0,0,0,.439,0L11.784,9.3a.311.311,0,0,0,0-.439L10.565,7.642A4.615,4.615,0,0,0,11,6.591h1.722a.31.31,0,0,0,.31-.31V4.418a.31.31,0,0,0-.31-.31H11a4.617,4.617,0,0,0-.437-1.051l1.219-1.218a.311.311,0,0,0,0-.439L10.467.082a.31.31,0,0,0-.439,0L8.81,1.3A4.626,4.626,0,0,0,7.759.864V-.858a.31.31,0,0,0-.31-.31H5.586a.31.31,0,0,0-.31.31V.864A4.626,4.626,0,0,0,4.225,1.3L3.006.082a.319.319,0,0,0-.439,0L1.25,1.4a.311.311,0,0,0,0,.439L2.469,3.056a4.617,4.617,0,0,0-.437,1.051H.31a.31.31,0,0,0-.31.31V6.28a.31.31,0,0,0,.31.31Zm.31-1.862H2.275a.31.31,0,0,0,.3-.244,3.993,3.993,0,0,1,.544-1.308A.31.31,0,0,0,3.08,2.79L1.909,1.619,2.787.741,3.957,1.912a.31.31,0,0,0,.387.042A4,4,0,0,1,5.653,1.41a.311.311,0,0,0,.244-.3V-.547H7.138V1.107a.311.311,0,0,0,.244.3,4,4,0,0,1,1.308.544.31.31,0,0,0,.387-.042L10.248.741l.878.878L9.955,2.789a.31.31,0,0,0-.042.387,3.992,3.992,0,0,1,.543,1.308.311.311,0,0,0,.3.244h1.655V5.97H10.759a.31.31,0,0,0-.3.244,3.988,3.988,0,0,1-.543,1.307.311.311,0,0,0,.042.387L11.126,9.08l-.878.878L9.077,8.787a.311.311,0,0,0-.387-.042,3.99,3.99,0,0,1-1.307.544.31.31,0,0,0-.244.3v1.654H5.9V9.592a.31.31,0,0,0-.244-.3,3.99,3.99,0,0,1-1.307-.544.311.311,0,0,0-.387.042L2.787,9.958,1.909,9.08,3.08,7.909a.31.31,0,0,0,.042-.387,3.994,3.994,0,0,1-.544-1.308.31.31,0,0,0-.3-.244H.621Zm0,0"/>
    <path id="Path_11471" data-name="Path 11471" d="M132.483,133.8A2.483,2.483,0,1,0,130,131.315,2.483,2.483,0,0,0,132.483,133.8Zm0-4.345a1.862,1.862,0,1,1-1.862,1.862A1.862,1.862,0,0,1,132.483,129.453Zm0,0" transform="translate(-125.966 -125.966)"/>
    <path id="Path_11472" data-name="Path 11472" d="M103.414,105.66A3.414,3.414,0,1,0,100,102.246,3.414,3.414,0,0,0,103.414,105.66Zm0-6.207a2.793,2.793,0,1,1-2.793,2.793A2.793,2.793,0,0,1,103.414,99.453Zm0,0" transform="translate(-96.897 -96.897)"/>
    <path id="Path_11473" data-name="Path 11473" d="M17.69,284.418v-2.483a.31.31,0,0,0-.31-.31h-.621v-2.483a.31.31,0,0,0-.31-.31H13.655a.31.31,0,0,0-.31.31v2.483H11.793a.31.31,0,0,0-.31.31v2.483H1.552A1.554,1.554,0,0,0,0,285.97v.621a1.553,1.553,0,0,0,1.552,1.552H17.69a1.553,1.553,0,0,0,1.552-1.552v-.621A1.554,1.554,0,0,0,17.69,284.418Zm-.621,0H14.9v-2.172h2.172Zm-3.1-4.965h2.172v2.172H13.965ZM12.1,282.246h2.172v2.172H12.1Zm6.517,4.345a.931.931,0,0,1-.931.931H1.552a.931.931,0,0,1-.931-.931v-.621a.931.931,0,0,1,.931-.931H17.69a.931.931,0,0,1,.931.931Zm0,0" transform="translate(0 -271.31)"/>
    <path id="Path_11474" data-name="Path 11474" d="M280.931,488.832a.931.931,0,1,0,.931.931A.931.931,0,0,0,280.931,488.832Zm0,1.241a.31.31,0,1,1,.31-.31A.31.31,0,0,1,280.931,490.073Zm0,0" transform="translate(-271.31 -474.793)"/>
    <path id="Path_11475" data-name="Path 11475" d="M180.931,488.832a.931.931,0,1,0,.931.931A.931.931,0,0,0,180.931,488.832Zm0,1.241a.31.31,0,1,1,.31-.31A.31.31,0,0,1,180.931,490.073Zm0,0" transform="translate(-174.414 -474.793)"/>
    <path id="Path_11476" data-name="Path 11476" d="M380.931,488.832a.931.931,0,1,0,.931.931A.931.931,0,0,0,380.931,488.832Zm0,1.241a.31.31,0,1,1,.31-.31A.31.31,0,0,1,380.931,490.073Zm0,0" transform="translate(-368.207 -474.793)"/>
    <path id="Path_11477" data-name="Path 11477" d="M80.931,488.832a.931.931,0,1,0,.931.931A.931.931,0,0,0,80.931,488.832Zm0,1.241a.31.31,0,1,1,.31-.31A.31.31,0,0,1,80.931,490.073Zm0,0" transform="translate(-77.517 -474.793)"/>
    <path id="Path_11478" data-name="Path 11478" d="M480.931,488.832a.931.931,0,1,0,.931.931A.931.931,0,0,0,480.931,488.832Zm0,1.241a.31.31,0,1,1,.31-.31A.31.31,0,0,1,480.931,490.073Zm0,0" transform="translate(-465.104 -474.793)"/>
  </g>
</svg>
