<svg xmlns="http://www.w3.org/2000/svg" width="16.114" height="16.114" viewBox="0 0 16.114 16.114">
  <g id="support" transform="translate(-0.274 0)">
    <path id="Path_11452" data-name="Path 11452" d="M.349,1.554,1.422,3.433a.268.268,0,0,0,.168.127l1,.25L6.028,7.247l.38-.38-3.49-3.49a.268.268,0,0,0-.125-.071l-.963-.242-.914-1.6L1.7.681,3.3,1.6l.242.963a.268.268,0,0,0,.071.125L7.1,6.173l.38-.38L4.047,2.357l-.25-1a.269.269,0,0,0-.127-.168L1.79.114a.268.268,0,0,0-.322.043L.395,1.231a.268.268,0,0,0-.046.323Zm0,0" transform="translate(-0.04 -0.077)"/>
    <path id="Path_11453" data-name="Path 11453" d="M180.267,174.1,174.361,180l-.38-.38,5.906-5.906Zm0,0" transform="translate(-168.797 -168.808)"/>
    <path id="Path_11454" data-name="Path 11454" d="M50.668,398.966a.268.268,0,0,0-.23-.13H48.827a.268.268,0,0,0-.23.13l-.805,1.342a.268.268,0,0,0,0,.277l.805,1.342a.269.269,0,0,0,.23.13h1.611a.269.269,0,0,0,.23-.13l.805-1.342a.268.268,0,0,0,0-.277Zm-.382,2.554H48.979l-.644-1.074.644-1.074h1.307l.644,1.074Zm0,0" transform="translate(-46.137 -387.56)"/>
    <path id="Path_11455" data-name="Path 11455" d="M13.159,6.443a3.21,3.21,0,0,0,3.123-4,.268.268,0,0,0-.45-.125L14.16,3.988l-1.326-.442-.442-1.326L14.063.549A.268.268,0,0,0,13.938.1a3.211,3.211,0,0,0-4,3.123A3.151,3.151,0,0,0,10,3.851L4.124,9.73A3.167,3.167,0,0,0,3.5,9.664a3.221,3.221,0,1,0,3.221,3.221,3.159,3.159,0,0,0-.065-.629l1.407-1.407.616.616a.269.269,0,0,0,.38,0l.134-.134a.3.3,0,0,1,.426.425h0l-.134.134a.268.268,0,0,0,0,.38l3.2,3.2a2.167,2.167,0,1,0,3.078-3.05l-.014-.014-3.2-3.2a.268.268,0,0,0-.38,0l-.134.134a.3.3,0,0,1-.426-.425h0l.134-.134a.268.268,0,0,0,0-.38l-.616-.616L12.53,6.378a3.159,3.159,0,0,0,.629.065Zm1.055,9.127a1.631,1.631,0,0,1-.571-.1l2.1-2.1a1.628,1.628,0,0,1-1.526,2.2ZM11.173,8.593a.838.838,0,0,0,1.181,1.18l3.013,3.015c.033.033.063.067.093.1l-2.3,2.3c-.035-.029-.07-.06-.1-.093l-3.015-3.015A.838.838,0,0,0,8.865,10.9l-.429-.429,2.307-2.3Zm1.084-2.7-6.09,6.089a.269.269,0,0,0-.071.255,2.7,2.7,0,1,1-1.952-1.952.271.271,0,0,0,.255-.071l6.088-6.089a.268.268,0,0,0,.071-.255A2.671,2.671,0,0,1,13.312.542L11.9,1.958a.268.268,0,0,0-.065.275l.537,1.611a.269.269,0,0,0,.17.17l1.611.537a.268.268,0,0,0,.275-.065l1.416-1.416c0,.051,0,.1,0,.152a2.671,2.671,0,0,1-3.333,2.6.269.269,0,0,0-.255.071h0Zm0,0" transform="translate(0 0)"/>
    <path id="Path_11456" data-name="Path 11456" d="M385.954,385.309l-.38.38L382.89,383l.38-.38Zm0,0" transform="translate(-371.8 -371.808)"/>
  </g>
</svg>
