<svg xmlns="http://www.w3.org/2000/svg" width="20.943" height="19.537" viewBox="0 0 20.943 19.537">
  <path id="shipping" d="M1.623,27.275V17.738a.616.616,0,0,1,.616-.616H18.745a.616.616,0,0,1,.616.616v10.3a1.849,1.849,0,0,1,1.168,3L17.754,34.4c-1.718,2.01-3.542,2.257-6.255,2.257a20.2,20.2,0,0,1-5.4-.452l-1.975-.472a1.724,1.724,0,0,1-1.4.737H1.753A1.8,1.8,0,0,1,0,34.624V29.117A1.813,1.813,0,0,1,1.623,27.275Zm2.769,1.267.821-.417a4.881,4.881,0,0,1,4.281-.069,5.886,5.886,0,0,0,1.613.624h2.848a1.715,1.715,0,0,1,1.714,1.713v.449l.016-.017,2.034-2.208a1.876,1.876,0,0,1,.41-.335V22.171H13.087V24.43a.616.616,0,0,1-.616.616H8.584a.616.616,0,0,1-.616-.616V22.171H2.855v5.1a1.777,1.777,0,0,1,1.537,1.267Zm7.463-6.371H9.2v1.642h2.655Zm-9-1.232H7.968V18.354H2.855v2.585ZM9.2,18.354v2.585h2.655V18.354Zm3.888,0v2.585h5.042V18.354Zm-6.7,16.654a19.6,19.6,0,0,0,5.089.412c2.546,0,3.777-.041,5.327-1.8l2.775-3.364a.623.623,0,0,0-.953-.8l-2.034,2.208a2.8,2.8,0,0,1-2.048.9H8.9a.616.616,0,1,1,0-1.232h5.533v-.933a.482.482,0,0,0-.481-.481H11.107a5.64,5.64,0,0,1-2.132-.739,3.655,3.655,0,0,0-3.205.051l-1.29.655v4.672Zm-5.157-.384a.575.575,0,0,0,.521.615h.973a.575.575,0,0,0,.521-.615V29.117a.575.575,0,0,0-.521-.615H1.753a.575.575,0,0,0-.521.615Z" transform="translate(0.001 -17.122)"/>
</svg>
