<svg xmlns="http://www.w3.org/2000/svg" width="21.247" height="21.247" viewBox="0 0 21.247 21.247">
  <path id="Path_39" data-name="Path 39" d="M25.247,4h-1.9V5.518a.379.379,0,0,1-.379.379H21.453a.379.379,0,0,1-.379-.379V4h-.759V5.518a.379.379,0,0,1-.379.379H18.417a.379.379,0,0,1-.379-.379V4h-.759V5.518A.379.379,0,0,1,16.9,5.9H15.382A.379.379,0,0,1,15,5.518V4h-.759V5.518a.379.379,0,0,1-.379.379H12.347a.379.379,0,0,1-.379-.379V4h-.759V5.518a.379.379,0,0,1-.379.379H9.312a.379.379,0,0,1-.379-.379V4H8.173V5.518a.379.379,0,0,1-.379.379H6.276A.379.379,0,0,1,5.9,5.518V4H4V5.9H5.518a.379.379,0,0,1,.379.379V7.794a.379.379,0,0,1-.379.379H4v.759H5.518a.379.379,0,0,1,.379.379v1.518a.379.379,0,0,1-.379.379H4v.759H5.518a.379.379,0,0,1,.379.379v1.518a.379.379,0,0,1-.379.379H4V15H5.518a.379.379,0,0,1,.379.379V16.9a.379.379,0,0,1-.379.379H4v.759H5.518a.379.379,0,0,1,.379.379v1.518a.379.379,0,0,1-.379.379H4v.759H5.518a.379.379,0,0,1,.379.379V22.97a.379.379,0,0,1-.379.379H4v1.9H5.9V23.729a.379.379,0,0,1,.379-.379H7.794a.379.379,0,0,1,.379.379v1.518h.759V23.729a.379.379,0,0,1,.379-.379h1.518a.379.379,0,0,1,.379.379v1.518h.759V23.729a.379.379,0,0,1,.379-.379h1.518a.379.379,0,0,1,.379.379v1.518H15V23.729a.379.379,0,0,1,.379-.379H16.9a.379.379,0,0,1,.379.379v1.518h.759V23.729a.379.379,0,0,1,.379-.379h1.518a.379.379,0,0,1,.379.379v1.518h.759V23.729a.379.379,0,0,1,.379-.379H22.97a.379.379,0,0,1,.379.379v1.518h1.9v-1.9H23.729a.379.379,0,0,1-.379-.379V21.453a.379.379,0,0,1,.379-.379h1.518v-.759H23.729a.379.379,0,0,1-.379-.379V18.417a.379.379,0,0,1,.379-.379h1.518v-.759H23.729a.379.379,0,0,1-.379-.379V15.382A.379.379,0,0,1,23.729,15h1.518v-.759H23.729a.379.379,0,0,1-.379-.379V12.347a.379.379,0,0,1,.379-.379h1.518v-.759H23.729a.379.379,0,0,1-.379-.379V9.312a.379.379,0,0,1,.379-.379h1.518V8.173H23.729a.379.379,0,0,1-.379-.379V6.276a.379.379,0,0,1,.379-.379h1.518ZM21.073,20.694a.379.379,0,0,1-.379.379H8.553a.379.379,0,0,1-.379-.379V19.556a.379.379,0,0,1,.379-.379.759.759,0,1,0,0-1.518.379.379,0,0,1-.379-.379V8.553a.379.379,0,0,1,.379-.379H20.694a.379.379,0,0,1,.379.379Z" transform="translate(-4 -4)" fill="#272822"/>
</svg>
