<svg xmlns="http://www.w3.org/2000/svg" width="34.901" height="32.604" viewBox="0 0 34.901 32.604">
  <g id="Group_3202" data-name="Group 3202" transform="translate(2337.965 986.978)">
    <path id="Path_32" data-name="Path 32" d="M11,57h.508v.762H11Z" transform="translate(-2338.235 -1021.549)" fill="#272822"/>
    <path id="Path_33" data-name="Path 33" d="M57,43h.762v.508H57Z" transform="translate(-2372.544 -1011.107)" fill="#272822"/>
    <path id="Path_34" data-name="Path 34" d="M57,51h.762v.508H57Z" transform="translate(-2372.544 -1017.074)" fill="#272822"/>
    <path id="Path_35" data-name="Path 35" d="M19,57h.508v.762H19Z" transform="translate(-2344.202 -1021.549)" fill="#272822"/>
    <path id="Path_36" data-name="Path 36" d="M35,57h.508v.762H35Z" transform="translate(-2356.135 -1021.549)" fill="#272822"/>
    <path id="Path_37" data-name="Path 37" d="M27,57h.508v.762H27Z" transform="translate(-2350.168 -1021.549)" fill="#272822"/>
    <path id="Path_38" data-name="Path 38" d="M57,11h.762v.508H57Z" transform="translate(-2372.544 -987.24)" fill="#272822"/>
    <path id="Path_39" data-name="Path 39" d="M18.233,4H16.962V5.017a.254.254,0,0,1-.254.254H15.691a.254.254,0,0,1-.254-.254V4h-.508V5.017a.254.254,0,0,1-.254.254H13.658a.254.254,0,0,1-.254-.254V4H12.9V5.017a.254.254,0,0,1-.254.254H11.625a.254.254,0,0,1-.254-.254V4h-.508V5.017a.254.254,0,0,1-.254.254H9.592a.254.254,0,0,1-.254-.254V4H8.829V5.017a.254.254,0,0,1-.254.254H7.558A.254.254,0,0,1,7.3,5.017V4H6.8V5.017a.254.254,0,0,1-.254.254H5.525a.254.254,0,0,1-.254-.254V4H4V5.271H5.017a.254.254,0,0,1,.254.254V6.542a.254.254,0,0,1-.254.254H4V7.3H5.017a.254.254,0,0,1,.254.254V8.575a.254.254,0,0,1-.254.254H4v.508H5.017a.254.254,0,0,1,.254.254v1.017a.254.254,0,0,1-.254.254H4v.508H5.017a.254.254,0,0,1,.254.254v1.017a.254.254,0,0,1-.254.254H4V13.4H5.017a.254.254,0,0,1,.254.254v1.017a.254.254,0,0,1-.254.254H4v.508H5.017a.254.254,0,0,1,.254.254v1.017a.254.254,0,0,1-.254.254H4v1.271H5.271V17.216a.254.254,0,0,1,.254-.254H6.542a.254.254,0,0,1,.254.254v1.017H7.3V17.216a.254.254,0,0,1,.254-.254H8.575a.254.254,0,0,1,.254.254v1.017h.508V17.216a.254.254,0,0,1,.254-.254h1.017a.254.254,0,0,1,.254.254v1.017h.508V17.216a.254.254,0,0,1,.254-.254h1.017a.254.254,0,0,1,.254.254v1.017H13.4V17.216a.254.254,0,0,1,.254-.254h1.017a.254.254,0,0,1,.254.254v1.017h.508V17.216a.254.254,0,0,1,.254-.254h1.017a.254.254,0,0,1,.254.254v1.017h1.271V16.962H17.216a.254.254,0,0,1-.254-.254V15.691a.254.254,0,0,1,.254-.254h1.017v-.508H17.216a.254.254,0,0,1-.254-.254V13.658a.254.254,0,0,1,.254-.254h1.017V12.9H17.216a.254.254,0,0,1-.254-.254V11.625a.254.254,0,0,1,.254-.254h1.017v-.508H17.216a.254.254,0,0,1-.254-.254V9.592a.254.254,0,0,1,.254-.254h1.017V8.829H17.216a.254.254,0,0,1-.254-.254V7.558a.254.254,0,0,1,.254-.254h1.017V6.8H17.216a.254.254,0,0,1-.254-.254V5.525a.254.254,0,0,1,.254-.254h1.017Zm-2.8,11.183a.254.254,0,0,1-.254.254H7.05a.254.254,0,0,1-.254-.254v-.762a.254.254,0,0,1,.254-.254.508.508,0,0,0,0-1.017A.254.254,0,0,1,6.8,12.9V7.05A.254.254,0,0,1,7.05,6.8h8.133a.254.254,0,0,1,.254.254Z" transform="translate(-2333.014 -982.019)" fill="#272822"/>
    <path id="Path_40" data-name="Path 40" d="M43,57h.508v.762H43Z" transform="translate(-2362.102 -1021.549)" fill="#272822"/>
    <path id="Path_41" data-name="Path 41" d="M17,22.369a1.017,1.017,0,0,1,0,1.969v.286h7.625V17H17Z" transform="translate(-2342.71 -991.715)" fill="#272822"/>
    <path id="Path_42" data-name="Path 42" d="M57,19h.762v.508H57Z" transform="translate(-2372.544 -993.207)" fill="#272822"/>
    <path id="Path_43" data-name="Path 43" d="M57,27h.762v.508H57Z" transform="translate(-2372.544 -999.174)" fill="#272822"/>
    <path id="Path_44" data-name="Path 44" d="M57,35h.762v.508H57Z" transform="translate(-2372.544 -1005.141)" fill="#272822"/>
    <path id="Path_45" data-name="Path 45" d="M19,4h.508v.762H19Z" transform="translate(-2344.202 -982.019)" fill="#272822"/>
    <path id="Path_46" data-name="Path 46" d="M4,11h.762v.508H4Z" transform="translate(-2333.014 -987.24)" fill="#272822"/>
    <path id="Path_47" data-name="Path 47" d="M35,4h.508v.762H35Z" transform="translate(-2356.135 -982.019)" fill="#272822"/>
    <path id="Path_48" data-name="Path 48" d="M51,4h.508v.762H51Z" transform="translate(-2368.069 -982.019)" fill="#272822"/>
    <path id="Path_49" data-name="Path 49" d="M43,4h.508v.762H43Z" transform="translate(-2362.102 -982.019)" fill="#272822"/>
    <path id="Path_50" data-name="Path 50" d="M11,4h.508v.762H11Z" transform="translate(-2338.235 -982.019)" fill="#272822"/>
    <path id="Path_51" data-name="Path 51" d="M27,4h.508v.762H27Z" transform="translate(-2350.168 -982.019)" fill="#272822"/>
    <path id="Path_52" data-name="Path 52" d="M51,57h.508v.762H51Z" transform="translate(-2368.069 -1021.549)" fill="#272822"/>
    <path id="Path_53" data-name="Path 53" d="M4,51h.762v.508H4Z" transform="translate(-2333.014 -1017.074)" fill="#272822"/>
    <path id="Path_54" data-name="Path 54" d="M4,43h.762v.508H4Z" transform="translate(-2333.014 -1011.107)" fill="#272822"/>
    <path id="Path_55" data-name="Path 55" d="M4,19h.762v.508H4Z" transform="translate(-2333.014 -993.207)" fill="#272822"/>
    <path id="Path_56" data-name="Path 56" d="M4,35h.762v.508H4Z" transform="translate(-2333.014 -1005.141)" fill="#272822"/>
    <path id="Path_57" data-name="Path 57" d="M4,27h.762v.508H4Z" transform="translate(-2333.014 -999.174)" fill="#272822"/>
    <path id="Path_58" data-name="Path 58" d="M10.393,48v.983h-.2l-.2-.2V48.2l.2-.2Z" transform="translate(-2347.179 -1028.371)" fill="#272822"/>
    <path id="Path_59" data-name="Path 59" d="M3.688,50v.59H3.2l-.2-.2v-.2l.2-.2Z" transform="translate(-2340.867 -1030.174)" fill="#272822"/>
    <path id="Path_60" data-name="Path 60" d="M14,48h.295v.983H14Z" transform="translate(-2350.786 -1028.371)" fill="#272822"/>
    <path id="Path_61" data-name="Path 61" d="M10.393,20v.983h-.2l-.2-.2V20.2l.2-.2Z" transform="translate(-2347.179 -1003.123)" fill="#272822"/>
    <path id="Path_62" data-name="Path 62" d="M3.688,36v.59H3.2l-.2-.2v-.2l.2-.2Z" transform="translate(-2340.867 -1017.55)" fill="#272822"/>
    <path id="Path_63" data-name="Path 63" d="M10.393,34v.983h-.2l-.2-.2V34.2l.2-.2Z" transform="translate(-2347.179 -1015.747)" fill="#272822"/>
    <path id="Path_64" data-name="Path 64" d="M14,34h.295v.983H14Z" transform="translate(-2350.786 -1015.747)" fill="#272822"/>
    <path id="Path_65" data-name="Path 65" d="M14,20h.295v.983H14Z" transform="translate(-2350.786 -1003.123)" fill="#272822"/>
    <path id="Path_66" data-name="Path 66" d="M3.688,22v.59H3.2l-.2-.2v-.2l.2-.2Z" transform="translate(-2340.867 -1004.927)" fill="#272822"/>
    <path id="Path_67" data-name="Path 67" d="M17,3.1a.1.1,0,0,1,.1-.1h.2V8.7h-.2a.1.1,0,0,1-.1-.1Z" transform="translate(-2353.491 -987.794)" fill="#272822"/>
    <path id="Path_68" data-name="Path 68" d="M10.393,6v.983h-.2l-.2-.2V6.2l.2-.2Z" transform="translate(-2347.179 -990.499)" fill="#272822"/>
    <path id="Path_69" data-name="Path 69" d="M3.688,8v.59H3.2l-.2-.2V8.2L3.2,8Z" transform="translate(-2340.867 -992.303)" fill="#272822"/>
    <path id="Path_70" data-name="Path 70" d="M14,6h.295v.983H14Z" transform="translate(-2350.786 -990.499)" fill="#272822"/>
    <path id="Path_71" data-name="Path 71" d="M47,48h.295v.983H47Z" transform="translate(-2380.542 -1028.371)" fill="#272822"/>
    <path id="Path_72" data-name="Path 72" d="M54.688,50.2v.2l-.2.2H54V50h.491Z" transform="translate(-2386.854 -1030.174)" fill="#272822"/>
    <path id="Path_73" data-name="Path 73" d="M50.393,48.2v.59l-.2.2H50V48h.2Z" transform="translate(-2383.247 -1028.371)" fill="#272822"/>
    <path id="Path_74" data-name="Path 74" d="M47,34h.295v.983H47Z" transform="translate(-2380.542 -1015.747)" fill="#272822"/>
    <path id="Path_75" data-name="Path 75" d="M54.688,36.2v.2l-.2.2H54V36h.491Z" transform="translate(-2386.854 -1017.55)" fill="#272822"/>
    <path id="Path_76" data-name="Path 76" d="M50.393,34.2v.59l-.2.2H50V34h.2Z" transform="translate(-2383.247 -1015.747)" fill="#272822"/>
    <path id="Path_77" data-name="Path 77" d="M47,6h.295v.983H47Z" transform="translate(-2380.542 -990.499)" fill="#272822"/>
    <path id="Path_78" data-name="Path 78" d="M50.393,20.2v.59l-.2.2H50V20h.2Z" transform="translate(-2383.247 -1003.123)" fill="#272822"/>
    <path id="Path_79" data-name="Path 79" d="M54.688,22.2v.2l-.2.2H54V22h.491Z" transform="translate(-2386.854 -1004.927)" fill="#272822"/>
    <path id="Path_80" data-name="Path 80" d="M47,20h.295v.983H47Z" transform="translate(-2380.542 -1003.123)" fill="#272822"/>
    <path id="Path_81" data-name="Path 81" d="M44.295,3.295V8.6a.1.1,0,0,1-.1.1H44V3h.2a.1.1,0,0,1,.1.1Z" transform="translate(-2377.837 -987.794)" fill="#272822"/>
    <path id="Path_82" data-name="Path 82" d="M54.688,8.2v.2l-.2.2H54V8h.491Z" transform="translate(-2386.854 -992.303)" fill="#272822"/>
    <path id="Path_83" data-name="Path 83" d="M50.393,6.2v.59l-.2.2H50V6h.2Z" transform="translate(-2383.247 -990.499)" fill="#272822"/>
    <path id="Path_84" data-name="Path 84" d="M28.786,55.393v.2H28v-.2a.393.393,0,1,1,.786,0Z" transform="translate(-2363.41 -1034.683)" fill="#272822"/>
    <path id="Path_85" data-name="Path 85" d="M22.359,3V8.7h-.786V8.5a.393.393,0,1,0-.786,0v.2H20V3h.786v.2a.393.393,0,0,0,.786,0V3Z" transform="translate(-2356.196 -987.794)" fill="#272822"/>
    <path id="Path_86" data-name="Path 86" d="M28.786,3v.2A.393.393,0,0,1,28,3.2V3Z" transform="translate(-2363.41 -987.794)" fill="#272822"/>
    <path id="Path_87" data-name="Path 87" d="M6.915,3.474a.1.1,0,0,0,.07-.029l.167-.168H7.6a.1.1,0,0,0,.07-.029l.2-.2a.1.1,0,0,0,.029-.07v-.2a.1.1,0,0,0-.029-.07l-.2-.2a.1.1,0,0,0-.07-.029H7.152l-.167-.168a.1.1,0,0,0-.07-.029H6.522V2.2a.2.2,0,0,0-.2-.2H3.573a.2.2,0,0,0-.2.2v.1H2.983a.1.1,0,0,0-.07.029l-.167.168H2.295a.1.1,0,0,0-.07.029l-.2.2A.1.1,0,0,0,2,2.786v.2a.1.1,0,0,0,.029.07l.2.2a.1.1,0,0,0,.07.029h.451l.167.168a.1.1,0,0,0,.07.029h.393v.2H2.983a.1.1,0,0,0-.07.029l-.167.168H2.295a.1.1,0,0,0-.07.029l-.2.2A.1.1,0,0,0,2,4.163v.2a.1.1,0,0,0,.029.07l.2.2a.1.1,0,0,0,.07.029h.451l.167.168a.1.1,0,0,0,.07.029h.393v.2H2.983a.1.1,0,0,0-.07.029l-.167.168H2.295a.1.1,0,0,0-.07.029l-.2.2A.1.1,0,0,0,2,5.539v.2a.1.1,0,0,0,.029.07l.2.2a.1.1,0,0,0,.07.029h.451l.167.168a.1.1,0,0,0,.07.029h.393v.2H2.983a.1.1,0,0,0-.07.029l-.167.168H2.295a.1.1,0,0,0-.07.029l-.2.2A.1.1,0,0,0,2,6.915v.2a.1.1,0,0,0,.029.07l.2.2a.1.1,0,0,0,.07.029h.451l.167.168a.1.1,0,0,0,.07.029h.393v.1a.2.2,0,0,0,.2.2H6.325a.2.2,0,0,0,.2-.2V7.6h.393a.1.1,0,0,0,.07-.029l.167-.168H7.6a.1.1,0,0,0,.07-.029l.2-.2a.1.1,0,0,0,.029-.07v-.2a.1.1,0,0,0-.029-.07l-.2-.2A.1.1,0,0,0,7.6,6.62H7.152l-.167-.168a.1.1,0,0,0-.07-.029H6.522v-.2h.393a.1.1,0,0,0,.07-.029l.167-.168H7.6A.1.1,0,0,0,7.673,6l.2-.2a.1.1,0,0,0,.029-.07v-.2a.1.1,0,0,0-.029-.07l-.2-.2a.1.1,0,0,0-.07-.029H7.152l-.167-.168a.1.1,0,0,0-.07-.029H6.522v-.2h.393a.1.1,0,0,0,.07-.029l.167-.168H7.6a.1.1,0,0,0,.07-.029l.2-.2a.1.1,0,0,0,.029-.07v-.2a.1.1,0,0,0-.029-.07l-.2-.2a.1.1,0,0,0-.07-.029H7.152L6.985,3.7a.1.1,0,0,0-.07-.029H6.522v-.2Zm.295-.786h.353l.139.139v.116l-.139.139H7.21Zm-.393-.2h.058l.139.139v.509l-.139.139H6.817Zm-.295,0h.1v.786h-.1Zm-3.834.59H2.335L2.2,2.943V2.827l.139-.139h.353Zm.393.2H3.023l-.139-.139V2.63l.139-.139h.058Zm-.393,1.18H2.335L2.2,4.319V4.2l.139-.139h.353Zm.393.2H3.023l-.139-.139V4.006l.139-.139h.058Zm-.393,1.18H2.335L2.2,5.7V5.579l.139-.139h.353Zm.393.2H3.023l-.139-.139V5.382l.139-.139h.058ZM2.688,7.21H2.335L2.2,7.071V6.955l.139-.139h.353Zm.393.2H3.023l-.139-.139V6.759l.139-.139h.058Zm.295,0h-.1V6.62h.1Zm0-1.376h-.1V5.244h.1Zm0-1.376h-.1V3.868h.1Zm0-1.376h-.1V2.491h.1ZM3.671,7.7h-.1V2.2h.1Zm.983-5.5h.59v.1a.295.295,0,0,1-.59,0Zm.59,5.5h-.59V7.6a.295.295,0,1,1,.59,0Zm.786,0H5.44V7.6a.491.491,0,0,0-.983,0v.1h-.59V2.2h.59v.1a.491.491,0,0,0,.983,0V2.2h.59Zm.295-2.557V7.7h-.1V2.2h.1ZM7.21,6.817h.353l.139.139v.116l-.139.139H7.21Zm-.393-.2h.058l.139.139v.509l-.139.139H6.817Zm-.2,0v.786h-.1V6.62Zm.59-1.18h.353l.139.139V5.7l-.139.139H7.21Zm-.393-.2h.058l.139.139v.509l-.139.139H6.817Zm-.2,0V6.03h-.1V5.244Zm.59-1.18h.353L7.7,4.2v.116l-.139.139H7.21Zm-.393-.2h.058l.139.139v.509l-.139.139H6.817Zm-.2,0v.786h-.1V3.868Z" transform="translate(-2339.965 -986.893)" fill="#272822"/>
    <path id="XMLID_101_" d="M386.093,2.332a.233.233,0,0,0-.329,0l-1.517,1.488a4.344,4.344,0,0,1,.328.33l1.515-1.485A.233.233,0,0,0,386.093,2.332Z" transform="translate(-2689.224 -989.241)" fill="#272822"/>
    <path id="XMLID_103_" d="M1.29,402.392l-1.22,1.2a.233.233,0,0,0,.326.332l1.223-1.2A3,3,0,0,1,1.29,402.392Z" transform="translate(-2310.935 -1383.166)" fill="#272822"/>
    <path id="XMLID_106_" d="M192.526,191.513c-.109.11-.243.239-.385.374l1.556,1.556.38-.38Z" transform="translate(-2500.097 -1175.557)" fill="#272822"/>
    <path id="XMLID_108_" d="M236.168,134.512a2.864,2.864,0,0,0-.2.452c-.008.021-.016.045-.025.068l1.617,1.616.056-.019a2.2,2.2,0,0,0,.455-.214Z" transform="translate(-2543.22 -1119.44)" fill="#272822"/>
    <path id="XMLID_109_" d="M270.066,94.525a1.085,1.085,0,0,0-.629-.258.67.67,0,0,0-.126.012.938.938,0,0,0-.462.24l1.979,1.979a.864.864,0,0,0,.24-.74,1.036,1.036,0,0,0-.2-.419A3.885,3.885,0,0,0,270.066,94.525Z" transform="translate(-2575.615 -1079.819)" fill="#272822"/>
    <path id="XMLID_110_" d="M80.023,236.238c-.054.052-.1.1-.134.129a.232.232,0,0,1-.091.056l-.189.063a1.792,1.792,0,0,0-.637.386,1.052,1.052,0,0,0-.371.711,1.108,1.108,0,0,0,.194.614,2.527,2.527,0,0,0,.889.862,1.106,1.106,0,0,0,.54.169.745.745,0,0,0,.075,0c.5-.051.91-.621,1.039-1.009l.063-.189a.233.233,0,0,1,.056-.091l.132-.132Z" transform="translate(-2388.318 -1219.588)" fill="#272822"/>
    <g id="_001---Capacitor" data-name="001---Capacitor" transform="translate(-2309.903 -962.188)">
      <rect id="Rectangle-path" width="3" height="1" rx="0.5" transform="translate(0.178 5.235)" fill="#272822"/>
      <path id="Shape" d="M4.756,40.391H1.5c.108,0,.2-.065.2-.147v-.1c0-.081-.087-.147-.2-.147H4.756c-.108,0-.2.065-.2.147v.1C4.561,40.326,4.648,40.391,4.756,40.391Z" transform="translate(-1.305 -34.791)" fill="#272822"/>
      <path id="Shape-2" data-name="Shape" d="M5,51.391a.13.13,0,0,0,.13.13v.521a.13.13,0,0,0,.26,0v-.521a.13.13,0,0,0,.13-.13V51H5Z" transform="translate(-4.349 -44.358)" fill="#272822"/>
      <path id="Shape-3" data-name="Shape" d="M19,51v.391a.13.13,0,0,0,.13.13v.521a.13.13,0,1,0,.26,0v-.521a.13.13,0,0,0,.13-.13V51Z" transform="translate(-16.526 -44.358)" fill="#272822"/>
      <path id="Shape-4" data-name="Shape" d="M3.256,0H.391A.391.391,0,0,0,0,.391V4.754a.2.2,0,0,0,.2.2H3.451a.2.2,0,0,0,.2-.2V.391A.391.391,0,0,0,3.256,0ZM.391.651a.13.13,0,1,1,.26,0v.781a.13.13,0,0,1-.26,0Zm0,1.3a.13.13,0,0,1,.26,0v.391a.13.13,0,1,1-.26,0ZM1.563,4.3h-.13v.26a.13.13,0,0,1-.188.117L.463,4.285a.13.13,0,0,1,.116-.233l.593.3v-.31a.13.13,0,1,1,.26,0h.13a.13.13,0,1,1,0,.26Zm0-.651a1.137,1.137,0,0,1-.391-.076v.076a.13.13,0,0,1-.26,0v-.2a2.4,2.4,0,0,1-.26-.171v.37a.13.13,0,1,1-.26,0V3A.13.13,0,0,1,.613,2.9a1.7,1.7,0,0,0,.95.483.13.13,0,0,1,0,.26Z" fill="#272822"/>
    </g>
  </g>
</svg>
