<svg xmlns="http://www.w3.org/2000/svg" width="17" height="21.638" viewBox="0 0 17 21.638">
  <g id="list" transform="translate(-47.037 0)">
    <g id="Group_4298" data-name="Group 4298" transform="translate(47.037 0)">
      <g id="Group_4297" data-name="Group 4297" transform="translate(0 0)">
        <path id="Path_11486" data-name="Path 11486" d="M61.874,2.835H59.916V1.959c0-.283-.309-.412-.592-.412H57.8A2.3,2.3,0,0,0,55.511,0a2.344,2.344,0,0,0-2.292,1.545H51.725c-.283,0-.567.129-.567.412v.876H49.2a2.189,2.189,0,0,0-2.164,2.086V19.681A2.072,2.072,0,0,0,49.2,21.639H61.874a2.072,2.072,0,0,0,2.164-1.958V4.922A2.189,2.189,0,0,0,61.874,2.835Zm-9.685-.258h1.417a.567.567,0,0,0,.489-.464A1.494,1.494,0,0,1,55.511.955,1.468,1.468,0,0,1,56.9,2.114a.567.567,0,0,0,.515.464h1.468V4.638h-6.7Zm10.818,17.1a1.045,1.045,0,0,1-1.133.927H49.2a1.045,1.045,0,0,1-1.133-.927V4.922A1.159,1.159,0,0,1,49.2,3.866h1.958V5.179a.541.541,0,0,0,.567.489h7.6a.567.567,0,0,0,.592-.489V3.866h1.958a1.159,1.159,0,0,1,1.133,1.056V19.681Z" transform="translate(-47.037 0)"/>
        <path id="Path_11487" data-name="Path 11487" d="M103.317,230.472a.515.515,0,0,0-.721-.026l-1.649,1.571-.7-.721a.515.515,0,0,0-.721-.026.541.541,0,0,0,0,.747l1.056,1.082a.464.464,0,0,0,.361.155.515.515,0,0,0,.361-.155l2.009-1.906a.489.489,0,0,0,.03-.691Z" transform="translate(-96.8 -218.956)"/>
        <path id="Path_11488" data-name="Path 11488" d="M204.988,256.034h-5.924a.515.515,0,1,0,0,1.03h5.924a.515.515,0,1,0,0-1.03Z" transform="translate(-191.078 -243.411)"/>
        <path id="Path_11489" data-name="Path 11489" d="M103.317,146.88a.515.515,0,0,0-.721-.026l-1.649,1.571-.7-.721a.515.515,0,0,0-.721-.026.541.541,0,0,0,0,.747l1.056,1.082a.464.464,0,0,0,.361.155.515.515,0,0,0,.361-.155l2.009-1.906a.489.489,0,0,0,.03-.691Z" transform="translate(-96.8 -139.486)"/>
        <path id="Path_11490" data-name="Path 11490" d="M204.988,172.442h-5.924a.515.515,0,1,0,0,1.03h5.924a.515.515,0,0,0,0-1.03Z" transform="translate(-191.078 -163.94)"/>
        <path id="Path_11491" data-name="Path 11491" d="M103.317,314.063a.515.515,0,0,0-.721-.026l-1.649,1.571-.7-.721a.515.515,0,0,0-.721-.026.541.541,0,0,0,0,.747l1.056,1.082a.464.464,0,0,0,.361.155.515.515,0,0,0,.361-.155l2.009-1.906a.489.489,0,0,0,.03-.691Z" transform="translate(-96.8 -298.427)"/>
        <path id="Path_11492" data-name="Path 11492" d="M204.988,339.626h-5.924a.515.515,0,1,0,0,1.03h5.924a.515.515,0,1,0,0-1.03Z" transform="translate(-191.078 -322.882)"/>
      </g>
    </g>
  </g>
</svg>
