<svg xmlns="http://www.w3.org/2000/svg" width="26.128" height="30.085" viewBox="0 0 26.128 30.085">
  <path id="taxes" d="M41.276,28.144H37.47a2.912,2.912,0,0,1-2.859-3.46L36.2,16.409a7.9,7.9,0,0,1,10.11-6.039A.97.97,0,0,0,46.9,8.52a2.788,2.788,0,0,0-1.043-3.7l1.854-3.383A.971.971,0,0,0,46.856,0H40.548A.971.971,0,0,0,39.7,1.437L41.551,4.82a2.788,2.788,0,0,0-.964,3.84,9.843,9.843,0,0,0-6.294,7.383l-1.588,8.275a4.853,4.853,0,0,0,4.765,5.767h3.806a.97.97,0,1,0,0-1.941Zm3.942-26.2L43.855,4.428h-.306L42.187,1.941ZM42.974,8.067a.849.849,0,1,1,0-1.7h1.449a.849.849,0,1,1,.007,1.7Zm9.569,9.658a.97.97,0,0,1,0,1.372l-4.786,4.786a.97.97,0,1,1-1.373-1.372l4.786-4.786A.971.971,0,0,1,52.544,17.725Zm-1.085,4.183a1.29,1.29,0,1,0,1.29,1.29A1.291,1.291,0,0,0,51.459,21.908ZM47.47,19.7a1.29,1.29,0,1,0-1.29-1.29A1.291,1.291,0,0,0,47.47,19.7Zm1.994-8.177a9.28,9.28,0,1,0,9.28,9.28A9.291,9.291,0,0,0,49.464,11.524Zm0,16.619A7.339,7.339,0,1,1,56.8,20.8,7.348,7.348,0,0,1,49.464,28.144Z" transform="translate(-32.617 0)" fill="#333"/>
</svg>
