<svg xmlns="http://www.w3.org/2000/svg" width="27.239" height="27.244" viewBox="0 0 27.239 27.244">
  <g id="Group_3197" data-name="Group 3197" transform="translate(-230.555 -9.671)">
    <path id="Path_11441" data-name="Path 11441" d="M230.8,90.556c.05-.057.089-.145.152-.166a.849.849,0,0,1,.474-.092c.132.047.231.227.311.369.042.073.013.187.013.283,0,1.809,0,3.617,0,5.426a2.376,2.376,0,0,0,1.852,2.4,3.359,3.359,0,0,0,.75.072c1.809.006,3.617,0,5.426,0,.378,0,.642.245.554.544a1.526,1.526,0,0,1-.29.4H233.73a.64.64,0,0,0-.118-.046,3.178,3.178,0,0,1-2.338-1.621,8.615,8.615,0,0,1-.469-1.257Z" transform="translate(0 -63.135)" stroke="#000" stroke-width="0.5"/>
    <path id="Path_11442" data-name="Path 11442" d="M230.8,12.85a8.139,8.139,0,0,1,.553-1.389,3.1,3.1,0,0,1,2.7-1.526c1.914-.028,3.829-.009,5.744-.008a.484.484,0,0,1,.543.384.434.434,0,0,1-.263.513.9.9,0,0,1-.356.049c-1.819,0-3.638,0-5.457,0a2.388,2.388,0,0,0-2.435,1.846,3.16,3.16,0,0,0-.073.724q-.009,2.715,0,5.43a.53.53,0,0,1-.271.547c-.236.117-.432.042-.682-.255Z" transform="translate(0 0)" stroke="#000" stroke-width="0.5"/>
    <path id="Path_11443" data-name="Path 11443" d="M311.287,99.67a1.572,1.572,0,0,1-.292-.431c-.073-.275.177-.513.5-.516.626-.006,1.253,0,1.88,0,1.236,0,2.472.006,3.708,0a2.394,2.394,0,0,0,2.423-1.864,3.177,3.177,0,0,0,.067-.7c.005-1.775,0-3.551,0-5.326,0-.087,0-.174,0-.261a.475.475,0,0,1,.457-.449.483.483,0,0,1,.483.425,1.823,1.823,0,0,1,.005.235q0,2.715,0,5.431a3.335,3.335,0,0,1-2.832,3.417.411.411,0,0,0-.092.042Z" transform="translate(-62.987 -63.006)" stroke="#000" stroke-width="0.5"/>
    <path id="Path_11444" data-name="Path 11444" d="M230.8,68.625a.98.98,0,0,1,1.674-.419.524.524,0,0,0,.323.147c1.251.013,2.5.013,3.754.016l-.01-.009v.947l.01-.009c-1.251,0-2.5,0-3.753.014a.44.44,0,0,0-.29.107.954.954,0,0,1-1.661-.285c-.014-.032-.031-.061-.047-.092Z" transform="translate(0 -45.539)"/>
    <path id="Path_11445" data-name="Path 11445" d="M289.465,118.127a1.066,1.066,0,0,1-.686-.628.919.919,0,0,1,.258-1.021.432.432,0,0,0,.165-.377c-.006-.808,0-1.616,0-2.487a.649.649,0,0,0,.932.009c.008.124.018.2.018.286,0,.748,0,1.5,0,2.245a.4.4,0,0,0,.106.266.952.952,0,0,1-.31,1.669.452.452,0,0,0-.066.04Z" transform="translate(-45.499 -81.463)"/>
    <path id="Path_11446" data-name="Path 11446" d="M272.8,58.432q.008,1.265.016,2.529c0,.444,0,.887,0,1.331a.521.521,0,0,1-.276.494l-6.74,3.965a1.243,1.243,0,0,1-.146.059v-.334q0-2.518,0-5.036a1.514,1.514,0,0,0,0-.182.472.472,0,0,0-.938,0,2.3,2.3,0,0,0-.005.261q0,2.492,0,4.984v.314c-.1-.051-.17-.081-.233-.118q-3.3-1.941-6.608-3.882a.542.542,0,0,1-.32-.494c0-1.261,0-2.523,0-3.784a.682.682,0,0,1,.015-.1l-.01.009h1.877c.791,0,1.581,0,2.372,0a.473.473,0,0,0,.441-.719.523.523,0,0,0-.493-.228c-1.4,0-2.8,0-4.2,0l.01.009V54.054c.364.22.7.423,1.043.629,1.5.913,3,1.829,4.5,2.736a.333.333,0,0,1,.182.375,1.9,1.9,0,1,0,3.783,0c-.01-.141-.031-.253.13-.35q2.714-1.636,5.419-3.288c.049-.03.1-.054.193-.1,0,.18,0,.325,0,.47q-.008,1.487-.017,2.975l.009-.009h-1.8c-.817,0-1.634,0-2.45,0a.472.472,0,0,0-.441.719.522.522,0,0,0,.493.229q2.1-.005,4.2,0Z" transform="translate(-21.007 -34.672)"/>
    <path id="Path_11447" data-name="Path 11447" d="M267.824,38.532a1.955,1.955,0,0,0-2.873,0l-5.872-3.569,6.834-4.023v.385q0,2.505,0,5.01a1.349,1.349,0,0,0,.007.208.473.473,0,0,0,.932,0,1.933,1.933,0,0,0,.009-.286q0-2.492,0-4.984v-.336L273.7,34.96Z" transform="translate(-22.212 -16.512)"/>
    <path id="Path_11448" data-name="Path 11448" d="M320.523,16.024c0,.983,0,1.967,0,2.95a.482.482,0,0,1-.441.522.475.475,0,0,1-.489-.351,1.464,1.464,0,0,1-.018-.312q0-2.3,0-4.6c0-.278,0-.557,0-.835a2.4,2.4,0,0,0-2.5-2.5c-1.8-.007-3.6,0-5.4,0-.087,0-.175,0-.261,0a.474.474,0,0,1-.438-.467.481.481,0,0,1,.41-.47,1.554,1.554,0,0,1,.235-.007q2.728,0,5.457,0a3.343,3.343,0,0,1,3.449,3.439Q320.525,14.705,320.523,16.024Z" transform="translate(-62.98 -0.022)" stroke="#000" stroke-width="0.5"/>
    <path id="Path_11449" data-name="Path 11449" d="M328.7,68.346c1.235,0,2.47-.009,3.705-.007a.465.465,0,0,0,.4-.17.935.935,0,0,1,1.352-.047.951.951,0,0,1,0,1.375.933.933,0,0,1-1.351-.048.468.468,0,0,0-.4-.168c-1.235,0-2.47,0-3.705-.007l.009.009v-.947Z" transform="translate(-76.904 -45.516)"/>
    <path id="Path_11450" data-name="Path 11450" d="M290.1,14.408a.884.884,0,0,0-.949,0v-.494c0-.539,0-1.077,0-1.616a.982.982,0,0,0-.265-.837.891.891,0,0,1,.127-1.3.954.954,0,0,1,1.317.09.933.933,0,0,1-.045,1.313.544.544,0,0,0-.188.472C290.1,12.819,290.1,13.6,290.1,14.408Z" transform="translate(-45.448 -0.017)"/>
    <path id="Path_11451" data-name="Path 11451" d="M288.737,68.828a.949.949,0,1,1,.934.95A.936.936,0,0,1,288.737,68.828Z" transform="translate(-45.512 -45.535)"/>
  </g>
</svg>
