<svg xmlns="http://www.w3.org/2000/svg" width="35.633" height="17.025" viewBox="0 0 35.633 17.025">
  <g id="review" transform="translate(0.001 -133.827)">
    <path id="Path_11459" data-name="Path 11459" d="M146.739,145.82a.817.817,0,0,1,.158-.878l2.448-2.595a1.859,1.859,0,0,0-.907-3.081l-3.528-.87a.812.812,0,0,1-.548-.456l-1.369-3.021a1.859,1.859,0,0,0-3.387,0l-1.369,3.021a.812.812,0,0,1-.548.456l-3.528.87a1.859,1.859,0,0,0-.907,3.081l2.448,2.595a.817.817,0,0,1,.158.878l-1.033,2.445a1.864,1.864,0,0,0,1.7,2.586,1.888,1.888,0,0,0,.671-.125l.369-.14a.521.521,0,0,0-.37-.975l-.369.14a.816.816,0,0,1-1.042-1.081l1.033-2.445a1.86,1.86,0,0,0-.36-2l-2.448-2.595a.816.816,0,0,1,.4-1.353l3.528-.87a1.849,1.849,0,0,0,1.248-1.038l1.369-3.021a.816.816,0,0,1,1.487,0l1.369,3.021a1.849,1.849,0,0,0,1.248,1.038l3.528.87a.816.816,0,0,1,.4,1.353l-2.448,2.595a1.86,1.86,0,0,0-.36,2l1.033,2.445a.816.816,0,0,1-1.042,1.081l-3.81-1.446a1.858,1.858,0,0,0-1.319,0l-1.358.515a.521.521,0,0,0,.37.975l1.358-.515a.815.815,0,0,1,.579,0l3.81,1.446a1.859,1.859,0,0,0,2.372-2.462Z" transform="translate(-123.517)"/>
    <path id="Path_11460" data-name="Path 11460" d="M9.063,228.666l-1.974-.487a.226.226,0,0,1-.152-.127l-.766-1.69a1.27,1.27,0,0,0-2.313,0l-.766,1.69a.226.226,0,0,1-.152.127l-1.974.487a1.27,1.27,0,0,0-.62,2.1l1.369,1.452a.227.227,0,0,1,.044.244l-.578,1.368A1.273,1.273,0,0,0,2.344,235.6a1.29,1.29,0,0,0,.458-.085l2.132-.809h0a.227.227,0,0,1,.161,0l2.132.809a1.27,1.27,0,0,0,1.62-1.681l-.578-1.368a.227.227,0,0,1,.044-.244l1.369-1.452a1.27,1.27,0,0,0-.619-2.1Zm-.139,1.389-1.369,1.452a1.271,1.271,0,0,0-.246,1.365l.578,1.368a.227.227,0,0,1-.29.3l-2.132-.809a1.268,1.268,0,0,0-.9,0h0l-2.132.809a.227.227,0,0,1-.29-.3l.578-1.368a1.27,1.27,0,0,0-.246-1.365l-1.369-1.452a.227.227,0,0,1,.111-.376l1.974-.487a1.263,1.263,0,0,0,.852-.709l.766-1.69a.227.227,0,0,1,.414,0l.766,1.69a1.262,1.262,0,0,0,.852.709l1.974.487a.227.227,0,0,1,.111.376Z" transform="translate(0 -85.408)"/>
    <path id="Path_11461" data-name="Path 11461" d="M377.978,230.77a1.274,1.274,0,0,0,.006-1.737.521.521,0,1,0-.765.709.226.226,0,0,1,0,.312l-1.369,1.452a1.27,1.27,0,0,0-.246,1.365l.578,1.368a.227.227,0,0,1-.29.3l-2.132-.809a1.269,1.269,0,0,0-.9,0l-2.132.809a.227.227,0,0,1-.29-.3l.578-1.368a1.271,1.271,0,0,0-.246-1.365l-1.37-1.452a.227.227,0,0,1,.111-.376l1.973-.487a1.262,1.262,0,0,0,.853-.709l.766-1.69a.227.227,0,0,1,.414,0l.766,1.69a1.262,1.262,0,0,0,.852.709l.159.039a.521.521,0,0,0,.25-1.012l-.159-.039a.225.225,0,0,1-.152-.127l-.766-1.69a1.256,1.256,0,0,0-1.157-.746h0a1.256,1.256,0,0,0-1.157.746l-.766,1.69a.225.225,0,0,1-.152.127l-1.974.487a1.27,1.27,0,0,0-.619,2.1l1.369,1.452a.227.227,0,0,1,.044.244l-.578,1.368a1.27,1.27,0,0,0,1.62,1.681l2.132-.809a.227.227,0,0,1,.161,0l2.132.809a1.291,1.291,0,0,0,.458.085,1.273,1.273,0,0,0,1.162-1.766l-.578-1.368a.227.227,0,0,1,.044-.244Z" transform="translate(-342.69 -85.408)"/>
  </g>
</svg>
