<svg xmlns="http://www.w3.org/2000/svg" width="22.3" height="17.949" viewBox="0 0 22.3 17.949">
  <g id="Group_9" data-name="Group 9" transform="translate(904.147 -230.025)">
    <path id="Path_208" data-name="Path 208" d="M64,85.075V81.812A1.812,1.812,0,0,1,65.812,80h3.439a1.812,1.812,0,0,1,1.005.3l1.261.841a1.812,1.812,0,0,0,1.005.3h7.063A1.812,1.812,0,0,1,81.4,83.262v1.812" transform="translate(-965.698 151.025)" fill="none" stroke="#333" stroke-linecap="round" stroke-linejoin="round" stroke-width="2"/>
    <path id="Path_209" data-name="Path 209" d="M52.292,193.565l-.735,7.5a1.812,1.812,0,0,1-1.809,1.812h-15.2a1.812,1.812,0,0,1-1.809-1.812l-.735-7.5A1.45,1.45,0,0,1,33.448,192h17.4a1.45,1.45,0,0,1,1.441,1.565Z" transform="translate(-935.146 44.1)" fill="none" stroke="#333" stroke-linecap="round" stroke-linejoin="round" stroke-width="2"/>
  </g>
</svg>
