<svg width="505" height="304" viewBox="0 0 505 304" fill="none" xmlns="http://www.w3.org/2000/svg">
<path d="M343.186 173.406L347.511 172.658C347.928 172.589 348.338 172.497 348.752 172.421C341.906 168.172 336.709 161.72 334.015 154.125C331.32 146.531 331.289 138.246 333.927 130.632C336.564 123.018 341.713 116.527 348.527 112.226C355.342 107.925 363.416 106.07 371.424 106.965L365.759 120.457L379.191 108.728C379.222 108.736 379.253 108.746 379.283 108.758C383.681 110.308 387.731 112.708 391.202 115.823C394.673 118.937 397.497 122.705 399.511 126.91C401.526 131.116 402.693 135.677 402.944 140.334C403.196 144.991 402.528 149.651 400.979 154.05C400.754 154.689 400.487 155.299 400.23 155.918C404.02 154.123 407.524 151.776 410.626 148.955C416.632 143.199 419.922 135.258 423.6 125.474C430.885 106.085 437.901 86.4156 444.635 66.7032C437.208 62.6837 431.458 56.1477 428.416 48.2693C425.375 40.3909 425.243 31.6863 428.043 23.7189C428.404 22.6935 428.822 21.7056 429.265 20.7372C429.376 20.4949 429.487 20.2512 429.603 20.0145C430.053 19.0849 430.528 18.1747 431.05 17.3007C431.136 17.1576 431.231 17.023 431.318 16.8841C431.772 16.1473 432.251 15.4322 432.755 14.7389C432.943 14.4785 433.13 14.2189 433.324 13.9648C433.895 13.2185 434.486 12.4923 435.11 11.7988C435.318 11.5669 435.539 11.3503 435.752 11.1239C436.231 10.6185 436.723 10.1284 437.228 9.65354C437.495 9.40361 437.758 9.1516 438.032 8.91069C438.101 8.8489 438.171 8.78157 438.24 8.71978L438.25 8.73366C444.505 3.28237 452.472 0.195274 460.767 0.00895481C469.062 -0.177364 477.16 2.54888 483.653 7.71381L476.276 25.2692L489.543 13.6781C494.19 19.599 496.824 26.8501 497.06 34.3734C497.296 41.8967 495.122 49.2987 490.855 55.4994L490.892 55.5112C490.747 55.7244 490.583 55.9194 490.433 56.1284C490.153 56.5214 489.867 56.9071 489.573 57.2857C489.196 57.7717 488.804 58.241 488.404 58.7041C488.102 59.0512 487.804 59.406 487.49 59.7454C487.03 60.2377 486.548 60.7028 486.063 61.1666C485.78 61.4366 485.508 61.722 485.218 61.9809C484.455 62.6627 483.665 63.3106 482.849 63.9248C482.563 64.1393 482.261 64.3281 481.969 64.5336C481.396 64.937 480.82 65.3341 480.225 65.7014C479.856 65.9298 479.477 66.138 479.1 66.3526C478.555 66.6636 478.006 66.9642 477.445 67.2454C477.047 67.4446 476.646 67.6341 476.242 67.8181C475.666 68.0805 475.083 68.3242 474.493 68.5554C474.098 68.7109 473.705 68.8678 473.303 69.0094C472.642 69.2427 471.971 69.4447 471.296 69.6384C470.955 69.7363 470.62 69.8467 470.276 69.9363C469.263 70.1945 468.239 70.4146 467.203 70.5826C467.008 70.6145 466.81 70.6263 466.614 70.652C465.756 70.777 464.893 70.8777 464.022 70.9394C463.648 70.9658 463.272 70.9693 462.896 70.9839C462.193 71.0109 461.489 71.0255 460.781 71.0103C460.368 71.0012 459.955 70.9804 459.541 70.9568C458.852 70.9179 458.162 70.858 457.472 70.777C457.064 70.7298 456.657 70.6826 456.248 70.6208C455.508 70.5083 454.769 70.3618 454.031 70.2042C453.982 70.1938 453.933 70.1876 453.885 70.1765C451.043 78.4926 448.148 86.7912 445.2 95.0721C448.795 91.8395 453.012 89.3756 457.594 87.8316C462.175 86.2876 467.024 85.6961 471.842 86.0933C476.66 86.4905 481.347 87.8681 485.613 90.1415C489.88 92.4149 493.637 95.5363 496.654 99.3139L484.381 112.886L501.003 106.25C505.041 114.717 505.551 124.44 502.424 133.283C501.339 136.39 499.82 139.328 497.911 142.009C493.804 147.818 488.046 152.258 481.385 154.754C474.724 157.251 467.466 157.688 460.553 156.01C453.641 154.331 447.392 150.615 442.617 145.342C437.842 140.068 434.762 133.482 433.775 126.437C433.463 127.271 433.162 128.117 432.848 128.95C429.603 137.581 425.566 148.324 417.458 156.09C411.963 161.355 405.201 164.694 398.714 167.517C394.49 169.356 390.208 171.055 385.87 172.617C381.049 175.541 375.603 177.278 369.979 177.685C363.136 179.585 356.207 181.172 349.213 182.397L344.852 183.149C340.933 183.82 336.914 184.512 332.926 185.308C333.501 185.478 334.075 185.641 334.647 185.842C341.753 188.343 347.88 193.039 352.143 199.251C356.405 205.463 358.582 212.87 358.359 220.4L331.02 228.791L355.759 232.72C353.496 238.282 349.86 243.179 345.191 246.955C340.522 250.731 334.972 253.261 329.06 254.311C323.148 255.36 317.066 254.893 311.383 252.955C305.7 251.016 300.601 247.669 296.562 243.225C296.813 244.067 297.065 244.907 297.319 245.746C297.82 247.412 298.319 249.07 298.797 250.712C305.307 273.08 302.505 290.675 290.907 300.254L284.614 292.636C295.902 283.311 292.4 264.097 289.31 253.472C288.84 251.86 288.35 250.232 287.856 248.595C283.616 234.509 278.81 218.544 285.035 203.872C294.421 181.756 321.46 177.126 343.186 173.406Z" fill="#F2F2F2"/>
<path d="M335.174 303.124H143.621C137.34 303.124 131.315 300.629 126.874 296.187C122.432 291.745 119.937 285.721 119.937 279.439V191.676C119.936 190.401 120.196 189.14 120.699 187.969C121.203 186.799 121.939 185.743 122.864 184.866L224.368 88.6476C228.427 84.7998 233.806 82.655 239.399 82.655C244.991 82.655 250.371 84.7998 254.429 88.6476L351.207 180.386C353.625 182.678 355.55 185.438 356.866 188.498C358.182 191.558 358.86 194.854 358.86 198.186V279.436C358.861 282.547 358.249 285.627 357.058 288.501C355.868 291.375 354.124 293.987 351.924 296.186C349.724 298.386 347.113 300.131 344.239 301.322C341.365 302.512 338.285 303.124 335.174 303.124Z" fill="#3F3D56"/>
<path opacity="0.1" d="M119.937 193.116H356.868V288.819C356.868 292.612 355.361 296.249 352.679 298.931C349.997 301.613 346.359 303.12 342.566 303.12H134.238C130.445 303.12 126.807 301.613 124.125 298.931C121.443 296.249 119.937 292.612 119.937 288.819V193.116Z" fill="black"/>
<path d="M309.076 117.706H169.222C159.184 117.706 151.046 125.844 151.046 135.882V275.736C151.046 285.774 159.184 293.912 169.222 293.912H309.076C319.114 293.912 327.252 285.774 327.252 275.736V135.882C327.252 125.844 319.114 117.706 309.076 117.706Z" fill="#FF00C7"/>
<path opacity="0.1" d="M327.252 197.073V293.912H151.046V197.073L239.146 239.656L327.252 197.073Z" fill="black"/>
<path d="M239.147 245.132L126.263 190.569C125.564 190.232 124.792 190.078 124.018 190.121C123.244 190.164 122.493 190.402 121.836 190.814C121.18 191.226 120.638 191.798 120.263 192.477C119.887 193.155 119.69 193.917 119.689 194.693V288.57C119.689 292.363 121.196 296.001 123.878 298.683C126.56 301.365 130.198 302.872 133.991 302.872H344.308C346.187 302.872 348.046 302.502 349.781 301.783C351.517 301.064 353.093 300.011 354.421 298.683C355.749 297.355 356.803 295.778 357.521 294.043C358.24 292.308 358.61 290.448 358.61 288.57V196.301C358.61 195.355 358.369 194.424 357.911 193.596C357.453 192.768 356.792 192.07 355.991 191.567C355.189 191.064 354.273 190.773 353.328 190.721C352.383 190.669 351.441 190.858 350.589 191.269L239.147 245.132Z" fill="#3F3D56"/>
<path d="M215.504 133.883H166.227V140.852H215.504V133.883Z" fill="#F2F2F2"/>
<path d="M308.585 159.269H162.245V163.251H308.585V159.269Z" fill="#F2F2F2"/>
<path d="M308.585 172.708H162.245V176.69H308.585V172.708Z" fill="#F2F2F2"/>
<path d="M308.585 186.148H162.245V190.13H308.585V186.148Z" fill="#F2F2F2"/>
<path d="M30.3408 302.872H440.491" stroke="#3F3D56" stroke-miterlimit="10"/>
<path d="M0 241.579C0 270.927 18.4114 294.675 41.1639 294.675L0 241.579Z" fill="#46455B"/>
<path d="M41.1641 294.675C41.1641 264.998 61.7103 240.982 87.1009 240.982L41.1641 294.675Z" fill="#FF00C7"/>
<path d="M14.9141 244.239C14.9141 272.117 26.6544 294.675 41.1635 294.675L14.9141 244.239Z" fill="#FF00C7"/>
<path d="M41.1641 294.675C41.1641 256.753 64.9121 226.068 94.26 226.068L41.1641 294.675Z" fill="#46455B"/>
<path d="M32.5039 295.049C32.5039 295.049 38.3418 294.869 40.101 293.616C41.8603 292.363 49.0811 290.867 49.5171 292.876C49.9531 294.886 58.2903 302.869 51.6991 302.923C45.1079 302.976 36.3847 301.896 34.629 300.827C32.8732 299.758 32.5039 295.049 32.5039 295.049Z" fill="#A8A8A8"/>
<path opacity="0.2" d="M51.8207 302.223C45.2303 302.276 36.5064 301.196 34.7506 300.127C33.4135 299.313 32.8803 296.389 32.7019 295.041L32.5068 295.049C32.5068 295.049 32.8769 299.757 34.6326 300.826C36.3884 301.895 45.1116 302.978 51.7027 302.922C53.605 302.907 54.2624 302.228 54.2263 301.227C53.9597 301.831 53.2342 302.212 51.8207 302.223Z" fill="black"/>
<path d="M358.24 81.0111C357.941 83.6764 355.908 85.8237 355.155 88.3972C354.021 92.2718 355.982 96.4289 358.663 99.4461C360.827 101.855 363.447 103.811 366.372 105.201C369.297 106.59 372.468 107.385 375.703 107.539C376.653 107.623 377.61 107.518 378.52 107.232C379.332 106.905 380.063 106.405 380.663 105.767C382.62 103.647 383.858 100.963 384.2 98.0972C384.532 95.2523 384.564 92.3804 384.295 89.5288C384.296 88.9384 384.189 88.3527 383.979 87.8009C383.704 87.2752 383.326 86.8101 382.868 86.4332C381.414 85.0993 379.812 83.9359 378.094 82.9655C377.318 82.6184 376.633 82.0955 376.094 81.4381C375.769 80.874 375.559 80.2514 375.476 79.606L374.948 76.9186C374.855 76.1438 374.591 75.3993 374.175 74.7386C373.244 73.4821 371.462 73.3106 369.899 73.2495L364.172 73.0252C362.39 72.9558 360.043 72.4449 358.304 72.7941C356.68 73.121 357.22 74.6171 357.515 75.9799C357.942 77.6251 358.185 79.3124 358.24 81.0111Z" fill="#A0616A"/>
<path opacity="0.1" d="M358.24 81.0111C357.941 83.6764 355.908 85.8237 355.155 88.3972C354.021 92.2718 355.982 96.4289 358.663 99.4461C360.827 101.855 363.447 103.811 366.372 105.201C369.297 106.59 372.468 107.385 375.703 107.539C376.653 107.623 377.61 107.518 378.52 107.232C379.332 106.905 380.063 106.405 380.663 105.767C382.62 103.647 383.858 100.963 384.2 98.0972C384.532 95.2523 384.564 92.3804 384.295 89.5288C384.296 88.9384 384.189 88.3527 383.979 87.8009C383.704 87.2752 383.326 86.8101 382.868 86.4332C381.414 85.0993 379.812 83.9359 378.094 82.9655C377.318 82.6184 376.633 82.0955 376.094 81.4381C375.769 80.874 375.559 80.2514 375.476 79.606L374.948 76.9186C374.855 76.1438 374.591 75.3993 374.175 74.7386C373.244 73.4821 371.462 73.3106 369.899 73.2495L364.172 73.0252C362.39 72.9558 360.043 72.4449 358.304 72.7941C356.68 73.121 357.22 74.6171 357.515 75.9799C357.942 77.6251 358.185 79.3124 358.24 81.0111Z" fill="black"/>
<path d="M394.671 200.976C393.86 209.872 393.048 218.767 392.237 227.66C391.602 234.659 390.955 241.684 389.708 248.595C389.278 250.976 388.774 253.345 388.176 255.693C386.509 262.212 384.098 268.584 383.32 275.27C383.296 275.463 383.275 275.66 383.255 275.856C383.167 277.334 382.887 278.794 382.422 280.199C382.032 281.22 381.434 282.15 381.012 283.158C380.172 285.172 380.062 287.404 379.959 289.588C377.004 287.926 373.77 286.82 370.416 286.325C368.797 286.083 366.995 285.908 365.892 284.702C364.671 283.367 364.806 281.322 365.011 279.527C365.655 273.954 366.297 268.384 366.937 262.816C367.146 260.421 367.553 258.047 368.154 255.719C368.376 254.944 368.64 254.183 368.912 253.42C369.285 252.371 369.662 251.322 369.945 250.245C370.352 248.504 370.637 246.736 370.797 244.955C371.457 239.349 372.255 233.756 372.949 228.154L372.986 227.859C374.031 219.368 374.826 210.837 374.597 202.286C374.564 201.019 374.511 199.753 374.429 198.483C374.314 196.643 374.146 195.668 375.67 194.517C377.492 193.301 379.447 192.297 381.497 191.526C382.533 191.075 393.95 187.022 394.216 187.911C394.751 189.808 395.031 191.767 395.049 193.738C395.058 196.156 394.932 198.572 394.671 200.976Z" fill="#605D82"/>
<path opacity="0.1" d="M389.709 248.595C389.278 250.975 388.774 253.344 388.177 255.692C386.51 262.212 384.099 268.583 383.321 275.27C383.297 275.462 383.276 275.659 383.256 275.856C378.166 268.586 373.883 260.768 368.914 253.421C369.287 252.372 369.664 251.323 369.946 250.246C370.354 248.504 370.639 246.737 370.799 244.955C371.458 239.35 372.257 233.757 372.951 228.155L372.988 227.86C373.279 229.049 373.695 230.204 374.229 231.306C377.562 238.083 385.49 241.511 389.364 247.996C389.483 248.194 389.598 248.394 389.709 248.595Z" fill="black"/>
<path d="M348.412 188.999C348.698 194.431 349.334 199.84 350.318 205.191L352.11 216.267C353.091 222.329 354.112 228.516 356.98 233.946C359.126 238.008 362.218 241.473 365.016 245.117C371.892 254.073 377.058 264.224 383.579 273.443C385.474 276.123 388.183 279.022 391.418 278.462C393.541 278.095 395.083 276.327 396.752 274.964C398.72 273.358 401.091 272.182 402.639 270.169C404.187 268.155 404.49 264.807 402.393 263.374C401.634 262.954 400.829 262.624 399.993 262.392C396.742 261.155 394.638 257.98 393.298 254.77C391.959 251.56 391.146 248.105 389.364 245.12C385.488 238.634 377.562 235.208 374.226 228.428C372.357 224.631 372.18 220.254 372.036 216.024L371.673 205.242C371.545 204.065 371.685 202.874 372.081 201.758C373.357 198.888 377.21 198.621 380.33 198.257C383.871 197.842 387.301 196.76 390.44 195.068C392.236 194.096 393.992 192.86 394.952 191.059C395.829 189.415 395.95 187.487 396.053 185.626L397.133 166.085C397.341 164.408 397.199 162.706 396.717 161.087C395.229 157.129 390.232 155.836 386.008 156.025C378.149 156.376 370.893 159.757 363.483 162.04C361.647 162.62 359.783 163.107 357.899 163.498C356.233 163.832 354.223 163.693 352.636 164.229C349.816 165.18 349.887 171.349 349.487 173.908C348.662 178.894 348.302 183.946 348.412 188.999Z" fill="#605D82"/>
<path d="M390.352 279.285C390.977 280.053 391.36 280.989 391.452 281.975C392.453 287.342 392.974 292.788 393.008 298.248C392.962 298.757 393.063 299.27 393.301 299.723C393.496 299.993 393.759 300.205 394.065 300.338C396.067 301.292 398.393 299.962 400.061 298.5C403.156 295.792 405.774 292.151 405.949 288.042C405.917 286.983 405.954 285.924 406.06 284.87C406.332 283.322 407.236 281.975 408.032 280.62C409.387 278.315 410.48 275.866 411.29 273.318C411.594 272.36 411.797 271.155 411.047 270.487C410.781 270.278 410.478 270.121 410.155 270.023L401.106 266.663C400.322 266.372 398.371 271.384 398.061 271.932C397.304 273.273 396.551 274.033 395.031 274.342C393.479 274.658 391.633 274.204 390.186 274.979C387.739 276.288 388.965 277.887 390.352 279.285Z" fill="#535070"/>
<path d="M376.389 282.377C376.221 282.043 375.987 281.746 375.701 281.504C375.282 281.238 374.806 281.077 374.312 281.032C372.59 280.74 370.548 280.546 369.359 281.828C368.244 283.028 368.435 284.984 367.504 286.331C367.209 286.757 366.809 287.109 366.553 287.56C366.236 288.25 366.093 289.006 366.137 289.764C366.089 291.853 366.041 293.944 366.185 296.028C366.305 297.774 366.601 299.604 367.692 300.971C369.445 303.167 372.606 303.482 375.411 303.625L377.683 303.741C378.309 303.817 378.944 303.759 379.545 303.57C379.918 303.398 380.252 303.153 380.528 302.849C380.804 302.546 381.016 302.19 381.152 301.802C382.332 298.862 380.462 295.693 379.308 292.743C377.981 289.351 378.219 285.585 376.389 282.377Z" fill="#535070"/>
<path d="M357.582 65.9931C357.554 65.695 357.598 65.3946 357.71 65.1169C358.043 64.5282 358.912 64.6886 359.568 64.8538C362.206 65.5182 364.983 64.917 367.697 65.0718C370.411 65.2266 373.47 66.5839 374.015 69.2477C375.985 67.8509 377.683 66.1059 379.026 64.0985C379.868 63.0211 380.329 61.6952 380.337 60.328C380.189 58.3779 378.553 56.9193 377.038 55.6828L372.522 51.9957C371.929 51.4508 371.244 51.0155 370.5 50.7099C369.423 50.4687 368.314 50.4058 367.217 50.5239C363.93 50.5239 360.425 49.0299 357.498 50.5329C356.318 51.2429 355.289 52.1782 354.471 53.2856L350.44 58.0571C350.137 58.3613 349.915 58.7372 349.796 59.1499C349.785 59.7433 349.883 60.3337 350.085 60.8917C350.275 61.9574 349.816 63.0953 350.169 64.1193C350.755 65.8188 352.818 66.059 354.079 67.0351C354.549 67.3982 355.287 68.6319 355.846 68.6138C356.857 68.5847 357.556 66.7789 357.582 65.9931Z" fill="#3F3D56"/>
<path d="M364.421 80.0577C371.55 80.0577 377.328 74.2789 377.328 67.1503C377.328 60.0218 371.55 54.2429 364.421 54.2429C357.293 54.2429 351.514 60.0218 351.514 67.1503C351.514 74.2789 357.293 80.0577 364.421 80.0577Z" fill="#A0616A"/>
<path d="M367.446 95.3989C367.008 94.1444 366.182 93.0621 365.087 92.3089C363.993 91.5556 362.687 91.1707 361.358 91.2098C360.979 91.2815 360.586 91.2329 360.236 91.0709C360.038 90.9187 359.879 90.7208 359.774 90.494C358.989 89.0826 358.358 87.5909 357.892 86.0446C357.684 85.3615 357.406 84.5561 356.712 84.3784C356.426 84.3409 356.135 84.3819 355.87 84.497C355.606 84.612 355.377 84.7969 355.21 85.0317C354.881 85.5044 354.523 85.9553 354.136 86.3813C352.512 87.833 349.635 86.5097 347.912 87.8392C347.63 88.0565 347.398 88.3356 347.102 88.5335C346.806 88.7115 346.487 88.8482 346.154 88.9396C342.827 90.0258 339.566 91.3033 336.386 92.7656C337.532 99.6678 338.707 106.691 341.393 113.151C342.671 116.225 344.12 119.236 345.142 122.405C347.41 129.425 347.51 136.936 347.536 144.314C347.553 149.363 347.528 154.519 345.895 159.298C345.455 160.354 345.146 161.459 344.972 162.589C344.891 163.157 344.955 163.735 345.157 164.272C345.359 164.808 345.693 165.285 346.127 165.658C346.662 166.007 347.274 166.222 347.91 166.283C350.741 166.699 353.595 165.945 356.38 165.299C363.85 163.569 371.469 162.579 379.073 161.592L391.816 159.937C392.73 159.876 393.624 159.645 394.454 159.256C396.786 157.98 397.007 154.472 395.559 152.244C394.865 151.175 393.885 150.301 393.302 149.165C392.719 148.03 392.669 146.447 393.673 145.663C395.716 144.066 395.107 141.105 395.201 138.512C395.473 131.268 395.436 124.022 395.09 116.773C394.989 115.272 394.966 113.767 395.021 112.264C395.247 109.717 395.718 107.198 396.426 104.741L400.298 89.495C399.286 87.8982 397.35 86.8826 395.515 86.4223C393.681 85.962 391.77 85.8266 389.961 85.2663C386.26 84.1195 382.965 81.2085 379.099 81.4799C378.807 81.486 378.519 81.5572 378.257 81.6882C377.385 82.1818 377.523 83.4384 377.468 84.4388C377.344 86.6521 375.716 88.5022 373.919 89.7991C372.121 91.0959 370.068 92.0422 368.416 93.5209C368.125 93.7419 367.886 94.0252 367.718 94.3501C367.551 94.675 367.457 95.0333 367.446 95.3989Z" fill="#3F3D56"/>
<path d="M316.301 109.859C315.445 110.415 314.536 110.883 313.586 111.256C312.656 111.533 311.778 111.959 310.985 112.518C310.621 112.835 310.315 113.213 310.083 113.636C309.646 114.411 309.425 115.289 309.443 116.178C309.462 117.067 309.718 117.935 310.186 118.692C310.654 119.448 311.317 120.065 312.105 120.478C312.892 120.891 313.777 121.085 314.665 121.039C315.846 120.907 316.993 120.565 318.054 120.029L327.158 116.085C328.699 115.417 330.363 114.634 331.091 113.121C331.177 112.98 331.208 112.813 331.18 112.65C331.107 112.479 330.974 112.339 330.806 112.257C328.753 110.924 326.957 109.23 325.505 107.259C325.131 106.752 324.672 105.554 324.146 105.25C322.218 104.14 317.844 108.858 316.301 109.859Z" fill="#A0616A"/>
<path d="M413.626 106.622L416.982 110.457C417.703 111.28 418.424 112.104 419.081 112.979C420.694 115.202 421.988 117.639 422.925 120.22C423.655 122.135 424.26 124.178 424.005 126.207C423.836 127.249 423.555 128.27 423.166 129.251C422.551 131.139 421.788 132.976 420.885 134.744C420.125 136.088 419.266 137.373 418.317 138.59C415.718 142.034 412.874 145.287 409.808 148.322C408.66 149.458 408.179 151.295 407.679 152.83C406.758 155.662 404.566 157.868 402.445 159.96C401.764 160.679 401.011 161.327 400.198 161.893C398.98 162.678 397.557 163.083 396.108 163.058C395.474 163.063 394.847 162.933 394.266 162.677C392.816 161.988 392.078 160.31 391.927 158.712C391.792 157.261 392.035 155.799 392.633 154.47C394.559 150.204 399.506 148.355 403.001 145.242C404.976 143.331 406.71 141.186 408.165 138.855C409.215 137.439 410.092 135.902 410.776 134.277C411.557 132.194 411.253 129.727 411.935 127.612C412.223 126.717 412.736 125.909 413.046 125.021C413.233 124.589 413.316 124.119 413.289 123.649C413.263 123.179 413.126 122.722 412.892 122.314C412.482 121.826 411.961 121.445 411.372 121.203C409.139 120.069 406.637 118.611 406.21 116.142C406.039 114.774 406.397 113.392 407.209 112.278C408.019 111.178 408.966 110.186 410.026 109.326C411.007 108.458 412.649 107.486 413.626 106.622Z" fill="#A0616A"/>
<path d="M314.147 115.211C313.554 114.014 312.814 112.793 311.618 112.198C311.037 111.946 310.412 111.814 309.779 111.812C309.147 111.809 308.52 111.935 307.938 112.182C306.778 112.682 305.693 113.339 304.711 114.134L301.818 116.267C301.162 116.697 300.582 117.233 300.101 117.852C299.644 118.604 299.34 119.438 299.206 120.306C298.702 122.288 298.548 124.343 298.751 126.378C299.21 129.641 301.177 132.487 303.342 134.972C304.695 136.523 306.365 138.09 308.423 138.155C308.866 138.201 309.313 138.119 309.711 137.919C310.108 137.719 310.441 137.409 310.668 137.026C310.796 136.706 310.864 136.364 310.868 136.019C311.091 132.38 309.789 128.826 308.271 125.511C307.787 124.643 307.501 123.679 307.434 122.688C307.423 122.521 307.466 122.355 307.558 122.215C307.688 122.079 307.863 121.993 308.051 121.974C310.129 121.563 313.708 123.177 315.165 120.87C316.113 119.372 314.818 116.568 314.147 115.211Z" fill="#A0616A"/>
<path d="M356.906 61.9317C356.878 61.6337 356.922 61.3333 357.034 61.0556C357.366 60.4669 358.235 60.6273 358.891 60.7925C361.529 61.4569 364.306 60.8557 367.02 61.0105C369.733 61.1653 372.792 62.5226 373.337 65.1864C375.308 63.7896 377.006 62.0445 378.349 60.0371C379.19 58.9592 379.649 57.633 379.656 56.266C379.508 54.3159 377.872 52.8573 376.357 51.6208L371.841 47.9337C371.248 47.3888 370.564 46.9535 369.819 46.6479C368.742 46.4067 367.633 46.3438 366.536 46.4619C363.249 46.4619 359.744 44.9679 356.817 46.4709C355.637 47.1809 354.609 48.1162 353.79 49.2236L349.759 53.9951C349.456 54.2993 349.234 54.6752 349.115 55.0879C349.104 55.6813 349.202 56.2717 349.404 56.8297C349.594 57.8954 349.135 59.0333 349.488 60.0573C350.074 61.7568 352.137 61.997 353.399 62.9731C353.869 63.3362 354.606 64.5699 355.165 64.5518C356.18 64.5227 356.88 62.7169 356.906 61.9317Z" fill="#3F3D56"/>
<path d="M329.487 97.3049C328.966 97.641 328.509 98.0669 328.136 98.5628C327.663 99.2786 327.567 100.182 327.16 100.937C326.29 102.553 324.256 103.129 322.986 104.455C322.785 104.637 322.645 104.878 322.585 105.143C322.579 105.503 322.7 105.854 322.926 106.134L329.047 115.756C331.084 115.935 333.04 114.658 335.078 114.828C335.822 115.005 336.592 115.039 337.348 114.93C337.871 114.698 338.362 114.399 338.806 114.039C340.023 113.27 341.642 113.18 342.663 112.164C343.642 111.193 343.767 109.665 343.756 108.286C343.772 107.086 343.65 105.889 343.392 104.718C342.489 101.025 339.666 98.1921 337.895 94.9187C337.032 93.3261 336.563 92.3937 334.739 93.4872C332.914 94.5806 331.217 96.042 329.487 97.3049Z" fill="#3F3D56"/>
<path d="M403.826 92.438C404.976 93.185 406.013 94.0933 406.905 95.1352C407.838 96.3376 408.363 97.8087 409.262 99.0389C410.218 100.161 411.231 101.233 412.296 102.252C413.714 103.985 414.891 105.903 415.794 107.952C413.369 111.116 410.724 114.106 407.88 116.9C407.563 117.273 407.146 117.547 406.678 117.69C406.359 117.723 406.037 117.678 405.74 117.556C405.444 117.435 405.182 117.243 404.978 116.996C404.537 116.533 404.225 115.963 403.803 115.483C402.809 114.457 401.483 113.816 400.061 113.673C398.652 113.537 397.234 113.517 395.822 113.615C395.513 113.649 395.2 113.596 394.919 113.463C394.71 113.318 394.54 113.123 394.425 112.896C392.768 110.076 393.301 106.535 393.885 103.315L395.227 95.9308C395.421 94.5204 395.796 93.1409 396.343 91.8264C396.851 90.7406 397.988 88.8988 399.385 89.2237C400.788 89.5562 402.641 91.5862 403.826 92.438Z" fill="#3F3D56"/>
<path d="M158.264 140.925C169.535 140.925 178.672 131.772 178.672 120.48C178.672 109.189 169.535 100.035 158.264 100.035C146.992 100.035 137.855 109.189 137.855 120.48C137.855 131.772 146.992 140.925 158.264 140.925Z" fill="#3F3D56"/>
<path d="M158.264 96.5515C153.44 96.5515 148.725 97.982 144.714 100.662C140.703 103.342 137.577 107.151 135.731 111.608C133.885 116.065 133.402 120.969 134.343 125.7C135.284 130.431 137.607 134.777 141.018 138.188C144.429 141.599 148.775 143.922 153.506 144.863C158.237 145.804 163.141 145.321 167.598 143.475C172.055 141.629 175.864 138.503 178.544 134.492C181.224 130.481 182.654 125.766 182.654 120.942C182.654 114.473 180.085 108.269 175.511 103.695C170.937 99.1212 164.733 96.5515 158.264 96.5515ZM153.257 133.946L140.761 121.446L144.267 117.94L153.272 126.945L172.28 107.937L175.786 111.443L153.26 133.945L153.257 133.946Z" fill="#FF00C7"/>
</svg>
